<svg width="61" height="61" viewBox="0 0 61 61" fill="none" xmlns="http://www.w3.org/2000/svg">
<g clip-path="url(#clip0_2445_4713)">
<path d="M56.668 18.7917H35.668V17.7917C35.668 15.0304 33.4293 12.7917 30.668 12.7917C27.9066 12.7917 25.668 15.0304 25.668 17.7917V18.7917H22.514C21.3031 18.7919 20.1333 19.2314 19.222 20.0287C19.1677 20.076 19.1188 20.129 19.076 20.1867L10.576 31.6667C9.70947 32.394 8.61422 32.7924 7.48297 32.7917C3.72122 32.7967 0.672969 35.845 0.667969 39.6068V46.7917C0.667969 49.0009 2.45884 50.7917 4.66797 50.7917H5.93197C8.13247 53.9596 12.4843 54.7439 15.6522 52.5435C16.3358 52.0686 16.9291 51.4754 17.404 50.7917H43.932C46.1325 53.9596 50.4843 54.7439 53.6522 52.5435C54.3358 52.0686 54.9291 51.4754 55.404 50.7917H56.668C58.8771 50.7917 60.668 49.0009 60.668 46.7917V22.7917C60.668 20.5826 58.8771 18.7917 56.668 18.7917ZM27.668 17.7917C27.668 16.1349 29.0111 14.7917 30.668 14.7917C32.3248 14.7917 33.668 16.1349 33.668 17.7917V18.7917H27.668V17.7917ZM11.668 51.7917C8.90659 51.7917 6.66797 49.5531 6.66797 46.7917C6.66797 44.0304 8.90659 41.7917 11.668 41.7917C14.4293 41.7917 16.668 44.0304 16.668 46.7917C16.6647 49.5517 14.428 51.7884 11.668 51.7917ZM49.668 51.7917C46.9066 51.7917 44.668 49.5531 44.668 46.7917C44.668 44.0304 46.9066 41.7917 49.668 41.7917C52.4293 41.7917 54.668 44.0304 54.668 46.7917C54.6647 49.5517 52.428 51.7884 49.668 51.7917ZM58.668 46.7917C58.668 47.8964 57.7726 48.7917 56.668 48.7917H56.368C57.4876 45.0915 55.3956 41.1841 51.6952 40.0645C47.995 38.9449 44.0876 41.0369 42.968 44.7371C42.568 46.0591 42.568 47.4697 42.968 48.7917H18.368C19.4876 45.0915 17.3956 41.1841 13.6952 40.0644C9.99497 38.9447 6.08759 41.0368 4.96797 44.7371C4.56797 46.0591 4.56797 47.4697 4.96797 48.7917H4.66797C3.56334 48.7917 2.66797 47.8964 2.66797 46.7917V39.6068C2.67072 36.9486 4.82484 34.7945 7.48297 34.7917C9.13297 34.7914 10.7267 34.1919 11.968 33.1047C12.0221 33.0581 12.0707 33.0055 12.113 32.9478L20.613 21.4697C21.1491 21.0312 21.8203 20.7916 22.513 20.7917H56.668C57.7726 20.7917 58.668 21.6871 58.668 22.7917V46.7917Z" fill="#002756"/>
<path d="M30.6675 25.7918V23.7918H22.6675C21.3407 23.7883 20.0675 24.3154 19.1315 25.2558C19.0843 25.3036 19.0418 25.3559 19.0045 25.4118L13.8335 33.2408C13.5293 33.7016 13.6562 34.322 14.117 34.6263C14.2804 34.7341 14.4718 34.7916 14.6675 34.7918H30.6675V32.7918H27.6675V25.7918H30.6675ZM25.6675 32.7918H16.5265L20.6135 26.6048C21.1687 26.0805 21.904 25.7895 22.6675 25.7918H25.6675V32.7918Z" fill="#005FB7"/>
<path d="M55.668 23.7917H51.668V25.7917H54.668V32.7917H51.668V34.7917H55.668C56.2202 34.7917 56.668 34.344 56.668 33.7917V24.7917C56.668 24.2394 56.2202 23.7917 55.668 23.7917Z" fill="#005FB7"/>
<path d="M26.668 36.7917H20.668V38.7917H26.668V36.7917Z" fill="#005FB7"/>
<path d="M11.668 43.7917C10.0111 43.7917 8.66797 45.1349 8.66797 46.7917C8.66797 48.4486 10.0111 49.7917 11.668 49.7917C13.3248 49.7917 14.668 48.4486 14.668 46.7917C14.668 45.1349 13.3248 43.7917 11.668 43.7917ZM11.668 47.7917C11.1157 47.7917 10.668 47.344 10.668 46.7917C10.668 46.2395 11.1157 45.7917 11.668 45.7917C12.2202 45.7917 12.668 46.2395 12.668 46.7917C12.668 47.344 12.2202 47.7917 11.668 47.7917Z" fill="#002756"/>
<path d="M49.668 43.7917C48.0111 43.7917 46.668 45.1349 46.668 46.7917C46.668 48.4486 48.0111 49.7917 49.668 49.7917C51.3248 49.7917 52.668 48.4486 52.668 46.7917C52.668 45.1349 51.3248 43.7917 49.668 43.7917ZM49.668 47.7917C49.1157 47.7917 48.668 47.344 48.668 46.7917C48.668 46.2395 49.1157 45.7917 49.668 45.7917C50.2202 45.7917 50.668 46.2395 50.668 46.7917C50.668 47.344 50.2202 47.7917 49.668 47.7917Z" fill="#002756"/>
<path d="M31.668 7.79175H29.668V10.7917H31.668V7.79175Z" fill="#002756"/>
<path d="M35.9606 9.08504L33.9609 11.0847L35.3751 12.4989L37.3748 10.4992L35.9606 9.08504Z" fill="#002756"/>
<path d="M25.3751 9.08507L23.9609 10.4993L25.9606 12.4989L27.3748 11.0847L25.3751 9.08507Z" fill="#002756"/>
</g>
<defs>
<clipPath id="clip0_2445_4713">
<rect width="60" height="60" fill="white" transform="translate(0.667969 0.791992)"/>
</clipPath>
</defs>
</svg>
