<svg width="40" height="41" viewBox="0 0 40 41" fill="none" xmlns="http://www.w3.org/2000/svg">
<g clip-path="url(#clip0_2429_21607)">
<path d="M20 0.291992C8.97187 0.291992 0 9.26387 0 20.292C0 31.3201 8.97187 40.292 20 40.292C31.0281 40.292 40 31.3201 40 20.292C40 9.26387 31.0281 0.291992 20 0.291992ZM20 37.3793C10.5781 37.3793 2.91266 29.7139 2.91266 20.292C2.91266 10.8701 10.5781 3.20465 20 3.20465C29.4219 3.20465 37.0873 10.8701 37.0873 20.292C37.0873 29.7139 29.4219 37.3793 20 37.3793Z" fill="#005FB7"/>
<path d="M31.7374 6.54222L6.20312 32.0765L8.26228 34.1357L33.7966 8.60137L31.7374 6.54222Z" fill="#005FB7"/>
</g>
<defs>
<clipPath id="clip0_2429_21607">
<rect width="40" height="40" fill="white" transform="translate(0 0.291992)"/>
</clipPath>
</defs>
</svg>
