<svg width="95" height="95" viewBox="0 0 95 95" fill="none" xmlns="http://www.w3.org/2000/svg">
<path d="M92.1211 12.4951H54.9369C51.8175 12.4951 49.0708 14.104 47.5 16.5274C45.9292 14.104 43.1825 12.4951 40.0631 12.4951H2.87895C1.29141 12.4951 0 13.7729 0 15.3438V68.3254C0 69.8963 1.29141 71.1741 2.87895 71.1741H2.97469V74.3071H2.87895C2.11041 74.3071 1.48734 74.9236 1.48734 75.6841C1.48734 76.4445 2.11041 77.061 2.87895 77.061H38.5758C38.6286 77.061 38.6715 77.1034 38.6715 77.1557V78.6274C38.6715 81.0097 40.6303 82.9478 43.0378 82.9478H51.962C54.3697 82.9478 56.3283 81.0096 56.3283 78.6274V77.1557C56.3283 77.1034 56.3712 77.061 56.4241 77.061H92.1209C92.8894 77.061 93.5125 76.4445 93.5125 75.6841C93.5125 74.9236 92.8894 74.3071 92.1209 74.3071H92.0251V71.1741H92.1209C93.7084 71.1741 94.9998 69.8963 94.9998 68.3254V15.3438C95 13.7729 93.7086 12.4951 92.1211 12.4951ZM89.2421 74.3071H56.4243C54.8367 74.3071 53.5453 75.5849 53.5453 77.1557V78.6274C53.5453 79.4912 52.835 80.1938 51.9622 80.1938H43.038C42.165 80.1938 41.4549 79.4911 41.4549 78.6274V77.1557C41.4549 75.5849 40.1635 74.3071 38.5759 74.3071H5.75789V71.1741H40.0631C42.7843 71.1741 45.1831 72.9858 45.8967 75.5803C46.0945 76.2987 46.7537 76.8005 47.4998 76.8005C48.2459 76.8005 48.9052 76.2987 49.1031 75.5801C49.8167 72.986 52.2155 71.1743 54.9367 71.1743H89.2419L89.2421 74.3071ZM92.2168 68.3254C92.2168 68.3778 92.1739 68.4202 92.1211 68.4202H54.9369C52.6348 68.4202 50.491 69.3089 48.8916 70.7933V28.5893C48.8916 27.8289 48.2685 27.2124 47.5 27.2124C46.7315 27.2124 46.1084 27.8289 46.1084 28.5893V70.7933C44.5092 69.3089 42.3654 68.4202 40.0631 68.4202H2.87895C2.82606 68.4202 2.7832 68.3778 2.7832 68.3254V15.3438C2.7832 15.2914 2.82606 15.249 2.87895 15.249H40.0631C43.3965 15.249 46.1084 17.9324 46.1084 21.2307V22.702C46.1084 23.4625 46.7315 24.079 47.5 24.079C48.2685 24.079 48.8916 23.4625 48.8916 22.702V21.2307C48.8916 17.9324 51.6036 15.249 54.9369 15.249H92.1211C92.1739 15.249 92.2168 15.2914 92.2168 15.3438V68.3254Z" fill="white"/>
<path d="M37.0899 22.7971H35.6026C33.1949 22.7971 31.2363 24.7353 31.2363 27.1176V33.0044C31.2363 33.8682 30.526 34.5708 29.6532 34.5708H25.0953V25.551H26.6785C27.4471 25.551 28.0701 24.9345 28.0701 24.1741C28.0701 23.4136 27.4471 22.7971 26.6785 22.7971H20.729C19.9604 22.7971 19.3374 23.4136 19.3374 24.1741C19.3374 24.9345 19.9604 25.551 20.729 25.551H22.3121V34.5708H17.7541C16.8811 34.5708 16.171 33.868 16.171 33.0044V27.1176C16.171 24.7353 14.2122 22.7971 11.8047 22.7971H10.3174C9.54885 22.7971 8.92578 23.4136 8.92578 24.1741C8.92578 24.9345 9.54885 25.551 10.3174 25.551H11.8047C12.6777 25.551 13.3878 26.2538 13.3878 27.1176V33.0044C13.3878 35.3867 15.3466 37.3247 17.7541 37.3247H22.3119V43.4011H20.7288C19.9603 43.4011 19.3372 44.0176 19.3372 44.7781C19.3372 45.5385 19.9603 46.155 20.7288 46.155H26.6784C27.4469 46.155 28.07 45.5385 28.07 44.7781C28.07 44.0176 27.4469 43.4011 26.6784 43.4011H25.0951V37.3247H29.653C32.0607 37.3247 34.0193 35.3865 34.0193 33.0044V27.1176C34.0193 26.2538 34.7296 25.551 35.6024 25.551H37.0898C37.8583 25.551 38.4814 24.9345 38.4814 24.1741C38.4814 23.4136 37.8585 22.7971 37.0899 22.7971Z" fill="#2D9CDB"/>
<path d="M35.5996 50.7595H11.8018C11.0332 50.7595 10.4102 51.376 10.4102 52.1365C10.4102 52.8969 11.0332 53.5134 11.8018 53.5134H35.5996C36.3682 53.5134 36.9912 52.8969 36.9912 52.1365C36.9912 51.376 36.3682 50.7595 35.5996 50.7595Z" fill="white"/>
<path d="M35.5996 58.1182H11.8018C11.0332 58.1182 10.4102 58.7347 10.4102 59.4951C10.4102 60.2556 11.0332 60.8721 11.8018 60.8721H35.5996C36.3682 60.8721 36.9912 60.2556 36.9912 59.4951C36.9912 58.7347 36.3682 58.1182 35.5996 58.1182Z" fill="white"/>
<path d="M59.3994 53.5134H75.7606C76.5291 53.5134 77.1522 52.8969 77.1522 52.1365C77.1522 51.376 76.5291 50.7595 75.7606 50.7595H59.3994C58.6309 50.7595 58.0078 51.376 58.0078 52.1365C58.0078 52.8969 58.6309 53.5134 59.3994 53.5134Z" fill="white"/>
<path d="M83.1973 58.1182H59.3994C58.6309 58.1182 58.0078 58.7347 58.0078 59.4951C58.0078 60.2556 58.6309 60.8721 59.3994 60.8721H83.1973C83.9658 60.8721 84.5889 60.2556 84.5889 59.4951C84.5889 58.7347 83.9658 58.1182 83.1973 58.1182Z" fill="white"/>
<path d="M83.1973 30.1558H59.3994C58.6309 30.1558 58.0078 30.7723 58.0078 31.5327C58.0078 32.2932 58.6309 32.9097 59.3994 32.9097H83.1973C83.9658 32.9097 84.5889 32.2932 84.5889 31.5327C84.5889 30.7723 83.9658 30.1558 83.1973 30.1558Z" fill="white"/>
<path d="M59.3994 46.155H75.7606C76.5291 46.155 77.1522 45.5385 77.1522 44.7781C77.1522 44.0176 76.5291 43.4011 75.7606 43.4011H59.3994C58.6309 43.4011 58.0078 44.0176 58.0078 44.7781C58.0078 45.5385 58.6309 46.155 59.3994 46.155Z" fill="white"/>
<path d="M83.1973 22.7971H59.3994C58.6309 22.7971 58.0078 23.4136 58.0078 24.1741C58.0078 24.9345 58.6309 25.551 59.3994 25.551H83.1973C83.9658 25.551 84.5889 24.9345 84.5889 24.1741C84.5889 23.4136 83.9658 22.7971 83.1973 22.7971Z" fill="white"/>
</svg>
