<svg width="55" height="56" viewBox="0 0 55 56" fill="none" xmlns="http://www.w3.org/2000/svg">
<g clip-path="url(#clip0_2445_4039)">
<path d="M27.2945 28.5921C37.0973 38.4595 54.1919 31.4071 54.19 17.4516C54.2856 16.1052 53.3193 9.07012 51.2934 10.0743C51.0665 10.1868 50.8936 10.3847 50.8126 10.6246C50.7316 10.8646 50.7492 11.1268 50.8616 11.3538C51.8015 13.2487 52.2873 15.3365 52.2804 17.4518C52.2794 20.9769 50.9276 24.3676 48.5031 26.9265C47.9328 25.4919 47.065 24.1944 45.9568 23.1195C44.8487 22.0447 43.5253 21.2169 42.0739 20.6907C43.0365 19.934 43.7392 18.896 44.0844 17.7213C44.4295 16.5465 44.3998 15.2934 43.9994 14.1363C43.5991 12.9792 42.848 11.9757 41.8506 11.2654C40.8533 10.5551 39.6593 10.1734 38.4349 10.1734C37.2105 10.1734 36.0166 10.5551 35.0192 11.2654C34.0219 11.9757 33.2708 12.9792 32.8704 14.1363C32.4701 15.2934 32.4404 16.5465 32.7855 17.7213C33.1306 18.896 33.8334 19.934 34.796 20.6907C33.343 21.2175 32.0183 22.0466 30.9094 23.1232C29.8005 24.1998 28.9327 25.4994 28.3632 26.9363C16.4319 13.3121 34.9519 -4.65496 48.2251 7.66172C48.3137 7.7504 48.419 7.82075 48.5348 7.86874C48.6507 7.91673 48.7748 7.94143 48.9002 7.94142C49.0256 7.94142 49.1497 7.91671 49.2656 7.8687C49.3814 7.8207 49.4866 7.75034 49.5753 7.66165C50.9785 6.29448 46.3896 3.8656 45.3806 3.31387C29.3295 -4.25721 14.9504 15.8449 27.2945 28.5921ZM34.4565 16.0703C34.466 15.0214 34.8893 14.0187 35.6344 13.2803C36.3795 12.5419 37.386 12.1277 38.435 12.1277C39.4839 12.1277 40.4904 12.542 41.2355 13.2803C41.9806 14.0187 42.4039 15.0215 42.4133 16.0704C42.4039 17.1193 41.9805 18.122 41.2354 18.8604C40.4904 19.5988 39.4838 20.013 38.4349 20.013C37.3859 20.013 36.3794 19.5987 35.6343 18.8603C34.8893 18.122 34.4659 17.1192 34.4565 16.0703ZM38.4349 21.9589C40.352 21.9688 42.2154 22.5929 43.7517 23.7396C45.288 24.8864 46.4163 26.4954 46.9708 28.3306C44.54 30.2509 41.533 31.296 38.4352 31.2973C35.3373 31.2985 32.3295 30.2558 29.8971 28.3375C30.4505 26.5007 31.5785 24.8899 33.1153 23.7418C34.6521 22.5937 36.5166 21.9688 38.4349 21.9589Z" fill="#005FB7"/>
<path d="M1.90799 50.5857H8.83073C9.41624 50.5841 9.98715 50.4028 10.4664 50.0664C10.9456 49.7299 11.31 49.2546 11.5105 48.7044H12.397C12.7556 48.7046 13.1077 48.7997 13.4176 48.98L20.7879 53.2797C22.7346 54.4159 24.929 55.0603 27.1809 55.157C29.4328 55.2537 31.6743 54.7997 33.7112 53.8345L52.2783 45.0431C53.1216 44.6332 53.7812 43.9226 54.1272 43.0511C54.4733 42.1797 54.4809 41.2102 54.1485 40.3334C53.8161 39.4566 53.1678 38.7359 52.331 38.3128C51.4942 37.8897 50.5294 37.795 49.6262 38.0471L39.5646 40.9662C39.6707 40.3549 39.6421 39.7277 39.4806 39.1286C39.3191 38.5294 39.0287 37.9728 38.6297 37.4976C38.2307 37.0224 37.7328 36.64 37.1706 36.3773C36.6085 36.1146 35.9957 35.9778 35.3752 35.9766H28.4735C27.9005 35.9767 27.3393 35.8137 26.8556 35.5065L23.4423 33.34C22.0163 32.4336 20.3614 31.9526 18.6717 31.9534H11.6497C11.543 31.2819 11.2008 30.6703 10.6843 30.2281C10.1677 29.786 9.51064 29.5423 8.83073 29.5405H1.90799C1.65474 29.5405 1.41187 29.6411 1.2328 29.8202C1.05373 29.9993 0.953125 30.2421 0.953125 30.4954V49.6308C0.953128 49.8841 1.05373 50.1269 1.2328 50.306C1.41187 50.4851 1.65474 50.5857 1.90799 50.5857ZM2.86285 31.4503H8.83073C8.95649 31.449 9.08125 31.4728 9.1977 31.5203C9.31415 31.5678 9.41994 31.6381 9.50888 31.727C9.59781 31.8159 9.66809 31.9217 9.71561 32.0382C9.76313 32.1546 9.78692 32.2794 9.78559 32.4051C9.71917 33.116 9.90271 33.8361 10.7405 33.8659C10.7419 33.8511 18.6651 33.8707 18.6716 33.8631C21.127 33.6664 23.8567 35.937 25.8322 37.1189C26.6217 37.6206 27.5379 37.8868 28.4734 37.8863H35.3751C35.9984 37.8875 36.5957 38.136 37.036 38.5772C37.4763 39.0183 37.7235 39.6161 37.7235 40.2394C37.7235 40.8627 37.4763 41.4605 37.036 41.9016C36.5957 42.3428 35.9984 42.5912 35.3751 42.5925H25.496C25.2428 42.5925 24.9999 42.6931 24.8209 42.8722C24.6418 43.0512 24.5412 43.2941 24.5412 43.5474C24.5412 43.8006 24.6418 44.0435 24.8209 44.2226C24.9999 44.4016 25.2428 44.5022 25.496 44.5022H35.3752C36.4679 44.5006 37.5177 44.0771 38.3057 43.3201L50.1583 39.8813C50.6033 39.7521 51.0806 39.7953 51.4951 40.0023C51.9097 40.2092 52.2311 40.5647 52.3954 40.9979C52.5596 41.4312 52.5547 41.9104 52.3815 42.3401C52.2084 42.7699 51.8797 43.1187 51.461 43.317L32.8939 52.1084C31.1375 52.9407 29.2046 53.3321 27.2628 53.2487C25.321 53.1653 23.4288 52.6097 21.7502 51.63L14.3794 47.3304C13.5582 46.8882 12.6234 46.7016 11.6953 46.7947L11.874 33.2473C11.8703 32.9965 11.768 32.7572 11.5893 32.5812C11.4107 32.4051 11.1699 32.3065 10.9191 32.3065C10.6683 32.3065 10.4275 32.4052 10.2489 32.5812C10.0702 32.7573 9.96798 32.9965 9.96426 33.2473L9.78559 47.7211C9.78526 47.9743 9.68455 48.2169 9.50555 48.3959C9.32655 48.5749 9.08387 48.6757 8.83073 48.676H2.86285V31.4503Z" fill="#002756"/>
<path d="M6.32751 34.3137C6.0774 34.3185 5.83914 34.4212 5.66395 34.5997C5.48876 34.7783 5.39062 35.0185 5.39063 35.2686C5.39063 35.5188 5.48879 35.7589 5.66399 35.9375C5.8392 36.116 6.07746 36.2187 6.32757 36.2234C6.57768 36.2187 6.81593 36.116 6.99113 35.9374C7.16632 35.7589 7.26446 35.5187 7.26445 35.2686C7.26445 35.0184 7.16629 34.7782 6.99109 34.5997C6.81588 34.4211 6.57762 34.3185 6.32751 34.3137Z" fill="#002756"/>
</g>
<defs>
<clipPath id="clip0_2445_4039">
<rect width="55" height="55" fill="white" transform="translate(0 0.791992)"/>
</clipPath>
</defs>
</svg>
