<svg width="103" height="103" viewBox="0 0 103 103" fill="none" xmlns="http://www.w3.org/2000/svg">
<circle cx="51.4902" cy="51.9414" r="51" fill="white"/>
<g clip-path="url(#clip0_2356_38564)">
<path d="M77.6816 26.1531H26.2991C25.7657 26.1531 25.3345 26.5843 25.3345 27.1177V77.5202C25.3345 78.0536 25.7657 78.4848 26.2991 78.4848H77.6816C78.2151 78.4848 78.6462 78.0536 78.6462 77.5202V27.1177C78.6462 26.5843 78.2151 26.1531 77.6816 26.1531ZM38.0808 76.5556H27.2637V66.7012H38.0808V76.5556ZM38.0808 64.772H27.2637V53.2893H38.0808V64.772ZM38.0808 51.3601H27.2637V39.8659H38.0808V51.3601ZM38.0808 37.9367H27.2637V28.0823H38.0808V37.9367ZM51.0161 76.5556H40.01V66.7012H51.0161V76.5556ZM51.0161 64.772H40.01V53.2893H51.0161V64.772ZM51.0161 51.3601H40.01V39.8659H51.0161V51.3601ZM51.0161 37.9367H40.01V28.0823H51.0161V37.9367ZM63.9707 76.5556H52.9453V66.7012H63.9707V76.5556ZM63.9707 64.772H52.9453V53.2893H63.9707V64.772ZM63.9707 51.3601H52.9453V39.8659H63.9707V51.3601ZM63.9707 37.9367H52.9453V28.0823H63.9707V37.9367ZM76.717 76.5556H65.9V66.7012H76.717V76.5556ZM76.717 64.772H65.9V53.2893H76.717V64.772ZM76.717 51.3601H65.9V39.8659H76.717V51.3601ZM76.717 37.9367H65.9V28.0823H76.717V37.9367Z" fill="#002756"/>
<path d="M45.4385 75.3084C47.4999 75.3084 49.1764 73.632 49.1764 71.5706C49.1764 69.5092 47.4999 67.8328 45.4385 67.8328C43.3772 67.8328 41.7007 69.5092 41.7007 71.5706C41.7007 73.632 43.3772 75.3084 45.4385 75.3084ZM45.4385 69.762C46.4359 69.762 47.2472 70.5732 47.2472 71.5706C47.2472 72.568 46.4359 73.3792 45.4385 73.3792C44.4411 73.3792 43.6299 72.568 43.6299 71.5706C43.6299 70.5732 44.4411 69.762 45.4385 69.762Z" fill="#005FB7"/>
<path d="M32.5777 62.568C34.639 62.568 36.3155 60.8915 36.3155 58.8301C36.3155 56.7688 34.639 55.0923 32.5777 55.0923C30.5163 55.0923 28.8398 56.7688 28.8398 58.8301C28.8398 60.8915 30.5163 62.568 32.5777 62.568ZM32.5777 57.0215C33.5751 57.0215 34.3863 57.8327 34.3863 58.8301C34.3863 59.8275 33.5751 60.6388 32.5777 60.6388C31.5803 60.6388 30.7691 59.8275 30.7691 58.8301C30.7691 57.8327 31.5803 57.0215 32.5777 57.0215Z" fill="#005FB7"/>
<path d="M32.4571 36.8854C34.5184 36.8854 36.1949 35.2089 36.1949 33.1475C36.1949 31.0862 34.5184 29.4097 32.4571 29.4097C30.3957 29.4097 28.7192 31.0862 28.7192 33.1475C28.7192 35.2089 30.3957 36.8854 32.4571 36.8854ZM32.4571 31.3389C33.4545 31.3389 34.2657 32.1501 34.2657 33.1475C34.2657 34.1449 33.4545 34.9561 32.4571 34.9561C31.4597 34.9561 30.6484 34.1449 30.6484 33.1475C30.6484 32.1501 31.4597 31.3389 32.4571 31.3389Z" fill="#005FB7"/>
<path d="M45.2393 49.6258C47.3007 49.6258 48.9772 47.9493 48.9772 45.888C48.9772 43.8266 47.3007 42.1501 45.2393 42.1501C43.1779 42.1501 41.5015 43.8266 41.5015 45.888C41.5015 47.9493 43.1779 49.6258 45.2393 49.6258ZM45.2393 44.0794C46.2367 44.0794 47.0479 44.8906 47.0479 45.888C47.0479 46.8854 46.2367 47.6966 45.2393 47.6966C44.2419 47.6966 43.4307 46.8854 43.4307 45.888C43.4307 44.8906 44.2419 44.0794 45.2393 44.0794Z" fill="#005FB7"/>
<path d="M58.4214 36.8053C60.4828 36.8053 62.1593 35.1288 62.1593 33.0674C62.1593 31.0061 60.4828 29.3296 58.4214 29.3296C56.3601 29.3296 54.6836 31.0061 54.6836 33.0674C54.6836 35.1288 56.3601 36.8053 58.4214 36.8053ZM58.4214 31.2588C59.4188 31.2588 60.2301 32.07 60.2301 33.0674C60.2301 34.0648 59.4188 34.8761 58.4214 34.8761C57.424 34.8761 56.6128 34.0648 56.6128 33.0674C56.6128 32.07 57.424 31.2588 58.4214 31.2588Z" fill="#005FB7"/>
<path d="M71.3633 49.5458C73.4247 49.5458 75.1012 47.8693 75.1012 45.8079C75.1012 43.7466 73.4247 42.0701 71.3633 42.0701C69.302 42.0701 67.6255 43.7466 67.6255 45.8079C67.6255 47.8693 69.302 49.5458 71.3633 49.5458ZM71.3633 43.9993C72.3607 43.9993 73.172 44.8105 73.172 45.8079C73.172 46.8053 72.3607 47.6165 71.3633 47.6165C70.3659 47.6165 69.5547 46.8053 69.5547 45.8079C69.5547 44.8105 70.3659 43.9993 71.3633 43.9993Z" fill="#005FB7"/>
<path d="M58.4415 62.9295C60.5028 62.9295 62.1793 61.2531 62.1793 59.1917C62.1793 57.1303 60.5028 55.4539 58.4415 55.4539C56.3801 55.4539 54.7036 57.1303 54.7036 59.1917C54.7036 61.2531 56.3801 62.9295 58.4415 62.9295ZM58.4415 57.3831C59.4389 57.3831 60.2501 58.1943 60.2501 59.1917C60.2501 60.1891 59.4389 61.0003 58.4415 61.0003C57.4441 61.0003 56.6328 60.1891 56.6328 59.1917C56.6328 58.1943 57.4431 57.3831 58.4415 57.3831Z" fill="#005FB7"/>
<path d="M71.2417 75.349C73.3031 75.349 74.9796 73.6725 74.9796 71.6111C74.9796 69.5498 73.3031 67.8733 71.2417 67.8733C69.1804 67.8733 67.5039 69.5498 67.5039 71.6111C67.5039 73.6725 69.1804 75.349 71.2417 75.349ZM71.2417 69.8025C72.2392 69.8025 73.0504 70.6137 73.0504 71.6111C73.0504 72.6085 72.2392 73.4198 71.2417 73.4198C70.2443 73.4198 69.4331 72.6085 69.4331 71.6111C69.4331 70.6137 70.2443 69.8025 71.2417 69.8025Z" fill="#005FB7"/>
</g>
<defs>
<clipPath id="clip0_2356_38564">
<rect width="55" height="52.7551" fill="white" transform="translate(24.4902 25.9414)"/>
</clipPath>
</defs>
</svg>
