<svg width="103" height="103" viewBox="0 0 103 103" fill="none" xmlns="http://www.w3.org/2000/svg">
<circle cx="51.4902" cy="51.9414" r="51" fill="white"/>
<g clip-path="url(#clip0_2356_38551)">
<path d="M76.6569 71.6933V69.7895C76.649 68.9045 76.2218 68.0754 75.5055 67.5555C73.0323 65.6995 72.9903 61.4819 72.9903 61.4412V57.7746C74.4321 57.7771 75.6301 56.6631 75.7321 55.2246C75.8336 53.7862 74.8043 52.5143 73.3759 52.3142C75.3884 50.1212 75.2911 46.7253 73.1565 44.6515C71.0223 42.5774 67.6251 42.5774 65.4905 44.6515C63.3563 46.7253 63.259 50.1212 65.271 52.3142C63.8427 52.5143 62.8134 53.7862 62.9153 55.2246C63.0169 56.6631 64.2149 57.7771 65.6571 57.7746V61.4412C65.6571 61.4828 65.6147 65.7003 63.1407 67.5576C62.4252 68.0771 61.998 68.905 61.9901 69.7895V71.6933C61.8407 71.747 61.6963 71.8137 61.5583 71.8922C61.2289 71.3744 60.7354 70.9816 60.1568 70.7769V68.2441C60.1484 67.2194 59.6494 66.261 58.8148 65.6664C55.6249 63.3106 55.5737 57.9882 55.5737 57.9362V47.6912C57.0415 47.6946 58.2517 46.5411 58.3193 45.0745C58.3864 43.6079 57.287 42.3483 55.8246 42.2169L57.3831 35.9974C57.4318 35.8031 57.4154 35.5979 57.3365 35.4137C56.9333 34.6894 56.2871 34.1313 55.512 33.838C55.4033 31.7475 53.9389 29.975 51.9071 29.4736V27.5249H53.7404C54.2465 27.5249 54.6568 27.1145 54.6568 26.608C54.6568 26.102 54.2465 25.6916 53.7404 25.6916H51.9071V23.8583C51.9071 23.3518 51.4963 22.9414 50.9902 22.9414C50.4842 22.9414 50.0734 23.3518 50.0734 23.8583V25.6916H48.2401C47.734 25.6916 47.3236 26.102 47.3236 26.608C47.3236 27.1145 47.734 27.5249 48.2401 27.5249H50.0734V29.4736C48.0428 29.9763 46.5801 31.7487 46.4718 33.838C45.6968 34.1313 45.0506 34.6894 44.6477 35.4137C44.5688 35.5979 44.5525 35.8031 44.6012 35.9974L46.1596 42.2169C44.6981 42.3483 43.5987 43.6067 43.665 45.0724C43.7313 46.5386 44.9394 47.6925 46.4068 47.6912V57.9362C46.4068 57.9891 46.3694 63.2993 43.1656 65.6664C42.331 66.261 41.8321 67.2194 41.8237 68.2441V70.7769C41.2451 70.9816 40.7516 71.374 40.4222 71.8914C40.2841 71.8129 40.1398 71.747 39.9904 71.6933V69.7895C39.9824 68.9045 39.5557 68.0758 38.8398 67.5555C36.3658 65.6995 36.3234 61.4819 36.3234 61.4412V57.7746C37.7656 57.7771 38.9636 56.6631 39.0651 55.2246C39.1671 53.7862 38.1378 52.5143 36.7094 52.3142C38.7215 50.1212 38.6241 46.7253 36.49 44.6515C34.3554 42.5774 30.9582 42.5774 28.824 44.6515C26.6894 46.7253 26.592 50.1212 28.6045 52.3142C27.1761 52.5143 26.1468 53.7862 26.2484 55.2246C26.3503 56.6631 27.5483 57.7771 28.9902 57.7746V61.4412C28.9902 61.4828 28.9482 65.7003 26.4741 67.5576C25.7583 68.0771 25.3315 68.905 25.3235 69.7895V71.6933C24.2288 72.0806 23.4949 73.1137 23.4902 74.2748V77.0245C23.4902 77.531 23.9006 77.9414 24.4071 77.9414H77.5734C78.0798 77.9414 78.4902 77.531 78.4902 77.0245V74.2748C78.4856 73.1137 77.7517 72.0806 76.6569 71.6933ZM69.3237 44.9415C71.3488 44.9415 72.9903 46.583 72.9903 48.6081C72.9903 50.6332 71.3488 52.2747 69.3237 52.2747C67.2986 52.2747 65.6571 50.6332 65.6571 48.6081C65.6571 46.583 67.2986 44.9415 69.3237 44.9415ZM64.7402 55.0249C64.7402 54.5184 65.1506 54.108 65.6571 54.108H72.9903C73.4964 54.108 73.9068 54.5184 73.9068 55.0249C73.9068 55.5309 73.4964 55.9413 72.9903 55.9413H65.6571C65.1506 55.9413 64.7402 55.5309 64.7402 55.0249ZM63.8234 69.7895C63.8343 69.4819 63.9895 69.1974 64.2426 69.022C67.4535 66.6113 67.4904 61.6515 67.4904 61.4412V57.7746H71.157V61.4412C71.157 61.6515 71.1935 66.6113 74.4048 69.022C74.6579 69.1974 74.8131 69.4819 74.8236 69.7895V71.5246H63.8234V69.7895ZM48.0395 42.1913L46.481 35.9793C46.8788 35.6105 48.0403 34.8581 50.9902 34.8581C53.9687 34.8581 55.1243 35.6252 55.4965 35.9709L53.941 42.1913H48.0395ZM50.9818 31.1915C52.1761 31.2515 53.1957 32.0739 53.5075 33.2283C51.8404 32.9568 50.1401 32.9568 48.473 33.2283C48.7814 32.0786 49.7935 31.257 50.9818 31.1915ZM45.4903 44.9415C45.4903 44.435 45.9007 44.0246 46.4068 44.0246H55.5737C56.0798 44.0246 56.4902 44.435 56.4902 44.9415C56.4902 45.4475 56.0798 45.8579 55.5737 45.8579H46.4068C45.9007 45.8579 45.4903 45.4475 45.4903 44.9415ZM43.657 68.2441C43.6696 67.803 43.8916 67.3943 44.2545 67.1438C48.1952 64.2309 48.2401 58.1917 48.2401 57.9362V47.6912H53.7404V57.9362C53.7404 58.1917 53.7853 64.2309 57.7259 67.1413C58.0889 67.3918 58.3109 67.8001 58.3235 68.2411V70.6082H43.657V68.2441ZM32.6568 44.9415C34.6818 44.9415 36.3234 46.583 36.3234 48.6081C36.3234 50.6332 34.6818 52.2747 32.6568 52.2747C30.6317 52.2747 28.9902 50.6332 28.9902 48.6081C28.9902 46.583 30.6317 44.9415 32.6568 44.9415ZM28.0737 55.0249C28.0737 54.5184 28.4841 54.108 28.9902 54.108H36.3234C36.8298 54.108 37.2402 54.5184 37.2402 55.0249C37.2402 55.5309 36.8298 55.9413 36.3234 55.9413H28.9902C28.4841 55.9413 28.0737 55.5309 28.0737 55.0249ZM27.1568 69.7895C27.1678 69.4819 27.323 69.1974 27.5756 69.022C30.7869 66.6113 30.8235 61.6515 30.8235 61.4412V57.7746H34.4901V61.4412C34.4901 61.6515 34.527 66.6113 37.7379 69.022C37.9909 69.1974 38.1462 69.4819 38.1571 69.7895V71.5246H27.1568V69.7895ZM25.3235 74.2748C25.3235 73.7683 25.7339 73.3579 26.2404 73.3579H39.0735C39.58 73.3579 39.9904 73.7683 39.9904 74.2748V76.1081H25.3235V74.2748ZM41.8237 74.2748V73.3579C41.8237 72.8519 42.2341 72.4415 42.7402 72.4415H59.2403C59.7464 72.4415 60.1568 72.8519 60.1568 73.3579V76.1081H41.8237V74.2748ZM76.6569 76.1081H61.9901V74.2748C61.9901 73.7683 62.4005 73.3579 62.9069 73.3579H75.7401C76.2465 73.3579 76.6569 73.7683 76.6569 74.2748V76.1081Z" fill="#002756"/>
</g>
<defs>
<clipPath id="clip0_2356_38551">
<rect width="55" height="55" fill="white" transform="translate(23.4902 22.9414)"/>
</clipPath>
</defs>
</svg>
