<svg width="91" height="92" viewBox="0 0 91 92" fill="none" xmlns="http://www.w3.org/2000/svg">
<rect x="90.75" y="91.229" width="90" height="90.7063" rx="45" transform="rotate(180 90.75 91.229)" fill="#001D41"/>
<g clip-path="url(#clip0_2305_16314)">
<path d="M61.8791 24.1562H52.2017V25.7818L51.2846 26.0898C51.1381 26.8279 50.8503 27.5145 50.4502 28.1193L50.8833 28.9916L49.743 30.1405L48.8774 29.7044C48.2765 30.1072 47.5961 30.3985 46.8637 30.5453L46.5565 31.4712H44.9436L44.6381 30.5469C43.9056 30.3993 43.2244 30.1092 42.6243 29.706L41.7588 30.1425L40.6188 28.9932L41.0516 28.1209C40.6519 27.5153 40.3628 26.8295 40.2171 26.0913L39.2985 25.7818V24.1562H29.621C26.0637 24.1562 23.1694 27.0732 23.1694 30.6584C23.1694 34.2437 26.0637 37.1606 29.621 37.1606C29.8557 37.1606 30.0743 37.2785 30.2042 37.4753L32.0404 40.2518L33.8766 37.4753C34.0065 37.2785 34.2251 37.1606 34.4598 37.1606H43.3307C43.5654 37.1606 43.784 37.2785 43.9139 37.4753L45.7501 40.2518L47.5863 37.4753C47.7162 37.2785 47.9347 37.1606 48.1694 37.1606H57.0404C57.2751 37.1606 57.4936 37.2785 57.6236 37.4753L59.4598 40.2518L61.2959 37.4753C61.4259 37.2785 61.6444 37.1606 61.8791 37.1606C65.4365 37.1606 68.3307 34.2437 68.3307 30.6584C68.3307 27.0732 65.4365 24.1562 61.8791 24.1562Z" fill="#005FB7"/>
<path d="M47.1378 32.2842H44.3625L44.0144 31.2325C43.5151 31.0928 43.037 30.8928 42.5846 30.6345L41.5998 31.1309L39.6368 29.1526L40.1294 28.16C39.8739 27.7044 39.6754 27.2222 39.536 26.719L38.4917 26.3682V23.5703L39.5352 23.2195C39.6738 22.7163 39.8723 22.2333 40.1286 21.7785L39.636 20.7859L41.599 18.8076L42.5838 19.3041C43.0359 19.0465 43.5143 18.8465 44.0136 18.706L44.3617 17.6543H47.137L47.4851 18.706C47.9844 18.8457 48.4625 19.0457 48.9149 19.3041L49.8998 18.8076L51.8627 20.7859L51.3709 21.7785C51.6265 22.2341 51.8249 22.7163 51.9643 23.2195L53.0078 23.5703V26.3674L51.9643 26.7182C51.8257 27.2215 51.6273 27.7032 51.3709 28.1592L51.8635 29.1518L49.9005 31.1302L48.9157 30.6337C48.4637 30.8912 47.9852 31.0913 47.4859 31.2317L47.1378 32.2842ZM45.5249 30.6587H45.9754L46.2447 29.8427L46.7039 29.7499C47.3209 29.6256 47.9014 29.3828 48.4286 29.0292L48.8185 28.7672L49.5828 29.1526L49.9013 28.8315L49.519 28.0612L49.7789 27.6683C50.1305 27.1369 50.3707 26.5516 50.494 25.9301L50.5861 25.4673L51.3949 25.1959V24.7427L50.5853 24.4712L50.4932 24.0085C50.3699 23.3858 50.1289 22.8008 49.7781 22.2702L49.5182 21.8773L49.9005 21.107L49.582 20.7859L48.8177 21.1713L48.4278 20.9094C47.9006 20.555 47.3197 20.3129 46.7031 20.1887L46.244 20.0958L45.9746 19.2798H45.5241L45.2548 20.0958L44.7956 20.1887C44.1786 20.3129 43.5982 20.5558 43.0709 20.9094L42.6811 21.1713L41.9168 20.7859L41.5982 21.107L41.9805 21.8773L41.7207 22.2702C41.369 22.8008 41.1288 23.3858 41.0056 24.0085L40.9134 24.4712L40.1046 24.7427V25.1967L40.9142 25.4681L41.0063 25.9309C41.1296 26.5527 41.3706 27.1377 41.7214 27.6691L41.9813 28.062L41.599 28.8323L41.9175 29.1534L42.6819 28.768L43.0717 29.03C43.599 29.3844 44.1798 29.6264 44.7964 29.7507L45.2556 29.8435L45.5249 30.6587Z" fill="white"/>
<path d="M45.7502 28.2205C43.9711 28.2205 42.5244 26.7624 42.5244 24.9694C42.5244 23.1763 43.9711 21.7183 45.7502 21.7183C47.5293 21.7183 48.976 23.1763 48.976 24.9694C48.976 26.7624 47.5293 28.2205 45.7502 28.2205ZM45.7502 23.3438C44.8607 23.3438 44.1373 24.0728 44.1373 24.9694C44.1373 25.8659 44.8607 26.5949 45.7502 26.5949C46.6398 26.5949 47.3631 25.8659 47.3631 24.9694C47.3631 24.0728 46.6398 23.3438 45.7502 23.3438Z" fill="white"/>
<path d="M28.0083 29.8457H29.6212V31.4713H28.0083V29.8457Z" fill="white"/>
<path d="M31.2339 29.8457H32.8468V31.4713H31.2339V29.8457Z" fill="white"/>
<path d="M34.4595 29.8457H36.0724V31.4713H34.4595V29.8457Z" fill="white"/>
<path d="M55.4272 29.8457H57.0401V31.4713H55.4272V29.8457Z" fill="white"/>
<path d="M58.6533 29.8457H60.2662V31.4713H58.6533V29.8457Z" fill="white"/>
<path d="M61.8789 29.8457H63.4918V31.4713H61.8789V29.8457Z" fill="white"/>
<path d="M67.8766 56.8193L62.6855 55.2497V54.0159C64.1885 52.9578 65.1048 51.2112 65.1048 49.3523V46.914C65.1048 43.7768 62.5725 41.2246 59.4597 41.2246C56.3469 41.2246 53.8145 43.7768 53.8145 46.914V49.3523C53.8145 51.212 54.7308 52.9578 56.2339 54.0159V55.2497L52.6048 56.347L48.9758 55.2497V54.0159C50.4788 52.9578 51.3952 51.2112 51.3952 49.3523V46.914C51.3952 43.7768 48.8628 41.2246 45.75 41.2246C42.6372 41.2246 40.1048 43.7768 40.1048 46.914V49.3523C40.1048 51.212 41.0212 52.9578 42.5242 54.0159V55.2497L38.8952 56.347L35.2661 55.2497V54.0159C36.7692 52.9578 37.6855 51.2112 37.6855 49.3523V46.914C37.6855 43.7768 35.1531 41.2246 32.0403 41.2246C28.9275 41.2246 26.3952 43.7768 26.3952 46.914V49.3523C26.3952 51.212 27.3115 52.9578 28.8145 54.0159V55.2497L23.6234 56.8193C21.9049 57.3388 20.75 58.9032 20.75 60.7117V68.0461H70.75V60.7117C70.75 58.9032 69.5951 57.3388 67.8766 56.8193ZM59.4597 42.8502C61.4065 42.8502 63.0356 44.2491 63.4104 46.1013H61.2628C60.2082 46.1013 59.1517 45.85 58.2071 45.3738L57.6869 45.1123L57.2758 45.5266C56.9147 45.8917 56.4123 46.1013 55.8999 46.1013H55.5089C55.8838 44.2491 57.5129 42.8502 59.4597 42.8502ZM55.4274 49.3523V47.7268H55.8999C56.6556 47.7268 57.3742 47.4911 57.9751 47.0545C59.012 47.4958 60.1378 47.7268 61.2628 47.7268H63.4919V49.3523C63.4919 50.7941 62.7193 52.1419 61.475 52.8685L61.0726 53.1035V55.4196L59.4597 56.503L57.8468 55.4196V53.1035L57.4443 52.8685C56.2 52.1419 55.4274 50.7941 55.4274 49.3523ZM45.75 42.8502C47.6968 42.8502 49.3259 44.2491 49.7007 46.1013H47.5531C46.4986 46.1013 45.4421 45.85 44.4974 45.3738L43.9772 45.1123L43.5661 45.5266C43.205 45.8917 42.7026 46.1013 42.1903 46.1013H41.7993C42.1741 44.2491 43.8032 42.8502 45.75 42.8502ZM41.7177 49.3523V47.7268H42.1903C42.9459 47.7268 43.6646 47.4911 44.2655 47.0545C45.3023 47.4958 46.4281 47.7268 47.5531 47.7268H49.7823V49.3523C49.7823 50.7941 49.0097 52.1419 47.7653 52.8685L47.3629 53.1035V55.4196L45.75 56.503L44.1371 55.4196V53.1035L43.7347 52.8685C42.4903 52.1419 41.7177 50.7941 41.7177 49.3523ZM43.1991 56.7427L45.75 58.4572L48.3009 56.7427L53.7031 58.3758C54.7348 58.6877 55.4274 59.6267 55.4274 60.7117V66.4206H36.0726V60.7117C36.0726 59.6267 36.7652 58.6877 37.7969 58.3758L43.1991 56.7427ZM32.0403 42.8502C33.9871 42.8502 35.6162 44.2491 35.9911 46.1013H35.6001C35.0877 46.1013 34.5853 45.8917 34.2234 45.5266L33.8119 45.1123L33.2917 45.3738C32.3483 45.85 31.2918 46.1013 30.2372 46.1013H28.0896C28.4645 44.2491 30.0935 42.8502 32.0403 42.8502ZM28.0081 49.3523V47.7268H30.2372C31.3622 47.7268 32.488 47.4958 33.5249 47.0545C34.1258 47.4911 34.8452 47.7268 35.6001 47.7268H36.0726V49.3523C36.0726 50.7941 35.3 52.1419 34.0557 52.8685L33.6532 53.1035V55.4196L32.0403 56.503L30.4274 55.4196V53.1035L30.025 52.8685C28.7807 52.1419 28.0081 50.7941 28.0081 49.3523ZM22.3629 60.7117C22.3629 59.6267 23.0556 58.6877 24.0872 58.3758L29.4894 56.7419L32.0403 58.4572L34.5912 56.7427L36.3549 57.2761C35.1945 58.0035 34.4597 59.2763 34.4597 60.7117V66.4206H22.3629V60.7117ZM69.1371 66.4206H57.0403V60.7117C57.0403 59.2763 56.3055 58.0035 55.1451 57.2761L56.9088 56.7427L59.4597 58.4572L62.0106 56.7427L67.4128 58.3758C68.4444 58.6877 69.1371 59.6267 69.1371 60.7117V66.4206Z" fill="white"/>
</g>
<defs>
<clipPath id="clip0_2305_16314">
<rect width="50" height="50.392" fill="white" transform="translate(20.75 17.6543)"/>
</clipPath>
</defs>
</svg>
