<svg width="58" height="59" viewBox="0 0 58 59" fill="none" xmlns="http://www.w3.org/2000/svg">
<g clip-path="url(#clip0_1373_39170)">
<path d="M55.8992 0.997986H22.0582C20.9019 0.997986 19.9609 1.93879 19.9609 3.09516V28.4577C19.9609 29.6141 20.9017 30.5549 22.0582 30.5549H55.8992C57.0557 30.5549 57.9965 29.6141 57.9965 28.4577V3.09516C57.9965 1.93879 57.0557 0.997986 55.8992 0.997986ZM50.4173 10.6812C50.7065 11.0505 51.2406 11.1156 51.6101 10.8263L56.2973 7.15595V28.4577C56.2973 28.6771 56.1187 28.8555 55.8993 28.8555H52.994L45.4287 19.9377C45.1252 19.5798 44.5891 19.5359 44.2311 19.8394C43.8734 20.143 43.8293 20.6792 44.1329 21.037L50.7656 28.8555H27.1918L33.8245 21.037C34.1281 20.6792 34.084 20.143 33.7263 19.8394C33.3685 19.536 32.8323 19.58 32.5287 19.9377L24.9634 28.8555H22.0582C21.8388 28.8555 21.6603 28.6771 21.6603 28.4577V7.15595L37.8806 19.8574C37.8978 19.8708 37.9154 19.8836 37.9336 19.8957C38.5685 20.3183 39.3888 20.3183 40.0237 19.8957C40.0418 19.8837 40.0595 19.8708 40.0767 19.8574L52.2781 10.3033C52.6475 10.014 52.7125 9.47997 52.4232 9.11045C52.1339 8.74104 51.5998 8.67613 51.2303 8.96533L39.0651 18.4911C39.0109 18.5198 38.9463 18.5196 38.892 18.4911L21.6605 4.99761L21.6604 3.09516C21.6604 2.87574 21.8389 2.69732 22.0583 2.69732H55.8993C56.1187 2.69732 56.2973 2.87574 56.2973 3.09516L56.2971 4.99761L50.5625 9.4883C50.1929 9.77762 50.1278 10.3116 50.4173 10.6812Z" fill="#005FB7"/>
<path d="M37.5147 48.1553C36.929 47.7039 30.893 42.8054 30.3023 42.3346C29.9254 42.0343 29.5154 41.8047 29.117 41.6705C27.926 41.2691 26.8183 41.4649 25.9139 42.2368L25.8908 42.2565C25.1233 42.9116 24.3297 43.589 23.5583 44.271C22.9407 44.8171 21.8565 45.1469 20.9357 44.5806C18.9777 43.3764 17.5095 42.2378 16.3155 40.9972C14.4319 39.0402 13.0318 36.8373 12.1541 34.4495C11.7243 33.2803 11.7903 32.2574 12.5493 31.2138C13.1441 30.396 13.9575 29.6825 15.1864 28.9003C15.3878 28.772 15.6745 28.551 15.8958 28.2261C16.5031 27.3354 16.5452 26.3179 16.0208 25.202C15.8725 24.8864 11.4551 16.6516 11.4551 16.6516C10.6539 15.1281 8.38405 14.2069 6.70738 14.9085C3.64878 16.2897 1.26829 18.7724 0.401916 21.9461C0.263259 22.4479 0.166517 22.992 0.114294 23.5634C-0.0550611 25.4177 0.403692 31.2138 0.828416 33.0493C0.877353 33.516 1.29559 33.8549 1.76208 33.8057C2.2288 33.7566 2.5674 33.3388 2.51846 32.872C2.03974 30.9178 1.64722 25.4619 1.80649 23.718C1.84954 23.247 1.92804 22.8033 2.03974 22.3987C2.44109 20.9462 3.21186 19.6489 4.33074 18.5426C5.18386 17.6993 6.19319 17.0156 7.41708 16.4525C8.24053 16.0739 9.55595 16.7065 9.9573 17.4546C9.9573 17.4546 14.3417 25.6248 14.4827 25.9246C14.7191 26.4275 14.8187 27.1197 14.2739 27.4665C13.3198 28.0738 12.1053 28.9348 11.1749 30.2141C10.0748 31.7264 9.92842 33.3207 10.5588 35.0358C12.3395 39.749 15.4627 43.2624 20.0453 46.0281C21.7122 47.053 23.5759 46.5234 24.6836 45.5441C25.444 44.8719 26.2319 44.1994 26.9938 43.549L27.0169 43.5293C27.46 43.1509 27.955 43.0722 28.5744 43.2808C28.7848 43.3517 35.8729 49.0355 36.4771 49.501C37.4458 50.2475 37.321 51.7291 36.6073 52.5786C35.4046 54.01 34.0414 55.0168 32.4397 55.6565C31.4895 56.036 30.4736 56.2489 29.4202 56.2893C21.3364 56.5971 11.6067 49.5887 6.87231 42.6325C4.83767 39.6427 3.3726 36.3588 2.51846 32.872C2.40676 32.4163 1.9473 32.1366 1.49134 32.249C1.0355 32.3606 0.756599 32.8206 0.868181 33.2763C3.29636 45.4517 17.3992 58.0431 28.9008 57.9985C32.4203 58.0341 35.6138 56.4232 37.9083 53.6716C39.2521 52.074 39.2321 49.4728 37.5147 48.1553Z" fill="#002756"/>
</g>
<defs>
<clipPath id="clip0_1373_39170">
<rect width="58" height="58" fill="white" transform="translate(0 0.498535)"/>
</clipPath>
</defs>
</svg>
