<svg width="60" height="61" viewBox="0 0 60 61" fill="none" xmlns="http://www.w3.org/2000/svg">
<g clip-path="url(#clip0_1373_39210)">
<path d="M30.7429 36.8646H26.0496C25.6763 36.8646 25.3829 36.5712 25.3829 36.1979V33.7179C25.1829 33.6512 24.9963 33.5579 24.7963 33.4779L23.0363 35.2379C22.9163 35.3579 22.7429 35.4379 22.5696 35.4379C22.3963 35.4379 22.2229 35.3712 22.1029 35.2379L18.7829 31.9179C18.5162 31.6512 18.5162 31.2379 18.7829 30.9712L20.5429 29.2112C20.4496 29.0246 20.3696 28.8246 20.3029 28.6246H17.8229C17.4496 28.6246 17.1562 28.3312 17.1562 27.9579V23.2646C17.1562 22.8912 17.4496 22.5979 17.8229 22.5979H20.3029C20.3829 22.3979 20.4629 22.2112 20.5429 22.0112L18.7829 20.2512C18.5162 19.9846 18.5162 19.5712 18.7829 19.3046L22.1029 15.9846C22.3696 15.7179 22.7829 15.7179 23.0496 15.9846L24.8096 17.7446C24.9963 17.6512 25.1963 17.5712 25.3963 17.5046V15.0246C25.3963 14.6512 25.6896 14.3579 26.0629 14.3579H30.7563C31.1296 14.3579 31.4229 14.6512 31.4229 15.0246V17.5046C31.6229 17.5846 31.8096 17.6646 32.0096 17.7446L33.7696 15.9846C33.8896 15.8646 34.0629 15.7846 34.2362 15.7846C34.4096 15.7846 34.5829 15.8512 34.7029 15.9846L38.0229 19.3046C38.2896 19.5712 38.2896 19.9846 38.0229 20.2512L36.2629 22.0112C36.3563 22.1979 36.4363 22.3979 36.5029 22.5979H38.9829C39.3563 22.5979 39.6496 22.8912 39.6496 23.2646V27.9579C39.6496 28.3312 39.3563 28.6246 38.9829 28.6246H36.5029C36.4229 28.8246 36.3429 29.0112 36.2629 29.2112L38.0229 30.9712C38.2896 31.2379 38.2896 31.6512 38.0229 31.9179L34.7029 35.2379C34.5829 35.3579 34.4096 35.4379 34.2362 35.4379C34.0629 35.4379 33.8896 35.3712 33.7696 35.2379L32.0096 33.4779C31.8229 33.5712 31.6229 33.6512 31.4229 33.7179V36.1979C31.4096 36.5712 31.1029 36.8646 30.7429 36.8646ZM26.7163 35.5312H30.0763V33.2379C30.0763 32.9446 30.2629 32.6912 30.5429 32.5979C30.9829 32.4646 31.4096 32.2912 31.8096 32.0779C32.0629 31.9446 32.3829 31.9846 32.5963 32.1979L34.2229 33.8246L36.5963 31.4512L34.9696 29.8246C34.7563 29.6112 34.7163 29.3046 34.8496 29.0379C35.0629 28.6379 35.2362 28.2112 35.3696 27.7712C35.4496 27.4912 35.7163 27.3046 36.0096 27.3046H38.3029V23.9446H36.0096C35.7163 23.9446 35.4629 23.7579 35.3696 23.4779C35.2362 23.0379 35.0629 22.6112 34.8496 22.2112C34.7163 21.9579 34.7563 21.6379 34.9696 21.4246L36.5963 19.7979L34.2229 17.4246L32.5963 19.0512C32.3829 19.2646 32.0763 19.3046 31.8096 19.1712C31.4096 18.9579 30.9829 18.7846 30.5429 18.6512C30.2629 18.5712 30.0763 18.3046 30.0763 18.0112V15.7179H26.7163V18.0112C26.7163 18.3046 26.5296 18.5579 26.2496 18.6512C25.8096 18.7846 25.3829 18.9579 24.9829 19.1712C24.7296 19.3046 24.4096 19.2646 24.1963 19.0512L22.5696 17.4246L20.1963 19.7979L21.8229 21.4246C22.0363 21.6379 22.0763 21.9446 21.9429 22.2112C21.7296 22.6112 21.5563 23.0379 21.4229 23.4779C21.3429 23.7579 21.0762 23.9446 20.7829 23.9446H18.4896V27.3046H20.7829C21.0762 27.3046 21.3296 27.4912 21.4229 27.7712C21.5563 28.2112 21.7296 28.6379 21.9429 29.0379C22.0763 29.2912 22.0363 29.6112 21.8229 29.8246L20.1963 31.4512L22.5696 33.8246L24.1963 32.1979C24.4096 31.9846 24.7162 31.9446 24.9829 32.0779C25.3829 32.2912 25.8096 32.4646 26.2496 32.5979C26.5296 32.6779 26.7163 32.9446 26.7163 33.2379V35.5312Z" fill="#005FB7"/>
<path d="M28.3968 30.9979C25.4368 30.9979 23.0234 28.5846 23.0234 25.6246C23.0234 22.6646 25.4368 20.2512 28.3968 20.2512C31.3701 20.2512 33.7168 22.6112 33.7701 25.6112V25.6246C33.7168 28.6379 31.3568 30.9979 28.3968 30.9979ZM28.3968 21.5846C26.1701 21.5846 24.3568 23.3979 24.3568 25.6246C24.3568 27.8512 26.1701 29.6646 28.3968 29.6646C30.6234 29.6646 32.3968 27.8912 32.4368 25.6246C32.3968 23.3579 30.6234 21.5846 28.3968 21.5846Z" fill="#005FB7"/>
<path d="M39.5892 59.9179H12.6025C12.4025 59.9179 12.2159 59.8379 12.0959 59.6779C11.9759 59.5312 11.9092 59.3312 11.9492 59.1312C12.7359 54.4379 14.2025 41.6779 11.6425 39.0112C11.6292 38.9979 11.6025 38.9712 11.5892 38.9446C11.2692 38.5312 3.93586 28.6779 5.08252 21.5712C5.09586 15.9312 6.76252 10.8246 9.78919 7.17122C13.1492 3.10455 18.0425 0.957886 23.9225 0.957886H31.1625C40.9359 0.957886 46.2025 8.91789 48.4559 13.6646C50.9625 18.9046 52.0692 25.1579 50.8292 26.9312C50.7492 27.1446 50.4692 28.0512 51.0025 29.1846L54.6692 34.7579C54.6692 34.7712 54.6825 34.7712 54.6825 34.7846C54.7092 34.8379 55.4692 36.1446 54.8692 37.3846C54.4159 38.3179 53.3759 38.8912 51.7625 39.1179C51.7225 39.1179 51.7092 39.1312 51.6559 39.1179C51.6025 39.1179 51.4025 39.1446 51.2425 39.3446C51.0159 39.6246 50.9359 40.1846 51.0425 40.9179C51.5759 41.4779 52.6292 42.7846 52.2425 43.8379C52.0292 44.4246 51.4692 44.7712 50.5759 44.8512C50.4425 44.8912 50.2825 44.9579 50.1759 45.0246C50.2425 45.0779 50.3359 45.1579 50.4959 45.2512C51.3092 45.7446 51.4425 46.3046 51.4025 46.6912C51.2959 47.6512 50.0559 48.2246 49.4692 48.4512C49.4292 48.7179 49.3759 49.4246 49.5625 51.0779C49.7225 52.4912 49.4425 53.5846 48.7492 54.3446C47.8825 55.2912 46.6825 55.3312 46.4959 55.3312C46.4825 55.3312 46.4692 55.3312 46.4425 55.3312C46.0825 55.3312 44.3092 55.2912 42.5359 54.6246C42.4692 54.5979 41.5092 54.3046 40.8825 54.7846C40.3759 55.1712 40.1625 56.0646 40.2559 57.3446V57.3979V59.2779C40.2559 59.6246 39.9625 59.9179 39.5892 59.9179ZM13.3892 58.5846H38.9359V57.3979C38.8159 55.6246 39.2025 54.3846 40.0959 53.7046C41.3092 52.7712 42.9225 53.3312 43.0025 53.3579H43.0159C44.7225 54.0112 46.4825 53.9846 46.4959 53.9846H46.5225C46.5225 53.9846 47.2959 53.9846 47.7892 53.4246C48.2025 52.9579 48.3625 52.2112 48.2559 51.2112C47.9092 48.1046 48.2559 47.5846 48.6425 47.3312C48.7492 47.2512 48.8825 47.2112 49.0025 47.1979C49.4559 47.0246 49.9359 46.7446 50.0692 46.5712C50.0292 46.5312 49.9625 46.4646 49.8292 46.3846C49.0692 45.9179 48.7225 45.3979 48.8025 44.8379C48.9225 43.9712 49.9892 43.6246 50.3225 43.5446C50.3625 43.5312 50.4025 43.5312 50.4425 43.5312C50.8559 43.5046 51.0159 43.4112 51.0292 43.3712C51.0959 43.1579 50.6292 42.3446 49.9759 41.7046C49.8825 41.6112 49.8159 41.4779 49.7892 41.3446C49.5625 40.0646 49.7225 39.0912 50.2692 38.4512C50.7759 37.8646 51.4159 37.7979 51.6425 37.7846C52.7492 37.6246 53.4559 37.2912 53.6959 36.7979C53.9625 36.2512 53.6159 35.5579 53.5625 35.4779L49.8825 29.9179C49.8692 29.8912 49.8559 29.8646 49.8425 29.8379C48.9225 27.9579 49.6425 26.4112 49.6692 26.3446C49.6959 26.2912 49.7225 26.2512 49.7492 26.2112C49.9892 25.9046 50.2159 24.5579 49.8025 22.0912C49.3892 19.5979 48.4959 16.8112 47.2825 14.2779C45.1492 9.81122 40.2292 2.33122 31.1892 2.33122H23.9492C11.0292 2.33122 6.45586 12.7446 6.45586 21.6646C6.45586 21.7046 6.45586 21.7446 6.44252 21.7712C5.33586 28.1446 12.2025 37.5446 12.6425 38.1446C14.1492 39.7579 14.6959 43.8379 14.2959 50.2646C14.0692 53.7979 13.6025 57.1312 13.3892 58.5846Z" fill="#002756"/>
<path d="M39.6564 56.4513H13.0964C12.723 56.4513 12.4297 56.1579 12.4297 55.7846C12.4297 55.4113 12.723 55.1179 13.0964 55.1179H39.6564C40.0297 55.1179 40.323 55.4113 40.323 55.7846C40.323 56.1579 40.0164 56.4513 39.6564 56.4513Z" fill="#002756"/>
<path d="M34.616 47.0246C34.2427 47.0246 33.9494 46.7312 33.9494 46.3579C33.9494 39.3179 36.256 37.3179 38.496 35.3979C40.496 33.6779 42.3894 32.0379 42.3894 26.1712C42.3894 18.4646 36.1227 12.1979 28.416 12.1979C20.7094 12.1979 14.4427 18.4646 14.4427 26.1712C14.4427 32.0379 16.336 33.6646 18.336 35.3979C20.5627 37.3179 22.8827 39.3179 22.8827 46.3579C22.8827 46.7312 22.5894 47.0246 22.216 47.0246C21.8427 47.0246 21.5494 46.7312 21.5494 46.3579C21.5494 39.9179 19.5627 38.2112 17.4694 36.4112C15.3227 34.5712 13.1094 32.6512 13.1094 26.1712C13.1094 17.7312 19.976 10.8646 28.416 10.8646C36.856 10.8646 43.7227 17.7312 43.7227 26.1712C43.7227 32.6512 41.5094 34.5579 39.3627 36.4112C37.2694 38.2246 35.2827 39.9312 35.2827 46.3579C35.2827 46.7312 34.976 47.0246 34.616 47.0246Z" fill="#002756"/>
<path d="M36.8955 51.7446H19.9089C19.5355 51.7446 19.2422 51.4512 19.2422 51.0779V46.3579C19.2422 45.9846 19.5355 45.6912 19.9089 45.6912H36.8955C37.2689 45.6912 37.5622 45.9846 37.5622 46.3579V51.0779C37.5622 51.4379 37.2689 51.7446 36.8955 51.7446ZM20.5755 50.4112H36.2289V47.0246H20.5755V50.4112Z" fill="#002756"/>
<path d="M31.8026 56.4512H25.0026C24.6293 56.4512 24.3359 56.1579 24.3359 55.7846V51.0646C24.3359 50.6912 24.6293 50.3979 25.0026 50.3979C25.3759 50.3979 25.6693 50.6912 25.6693 51.0646V55.1179H31.1359V51.0646C31.1359 50.6912 31.4293 50.3979 31.8026 50.3979C32.1759 50.3979 32.4693 50.6912 32.4693 51.0646V55.7846C32.4693 56.1579 32.1626 56.4512 31.8026 56.4512Z" fill="#002756"/>
</g>
<defs>
<clipPath id="clip0_1373_39210">
<rect width="60" height="60" fill="white" transform="translate(0 0.35791)"/>
</clipPath>
</defs>
</svg>
