<svg width="90" height="90" viewBox="0 0 90 90" fill="none" xmlns="http://www.w3.org/2000/svg">
<g clip-path="url(#clip0_2209_57362)">
<path d="M30.8425 17.9059C28.0975 18.9423 26.1305 21.5756 26.1305 24.6791C26.1305 25.8738 26.4499 26.9857 26.9623 27.9815C25.8663 28.3994 24.9226 29.1397 24.2558 30.1048C23.5891 31.0698 23.2304 32.2143 23.2273 33.3873C23.2301 34.5608 23.5885 35.7058 24.2553 36.6714C24.9221 37.637 25.8659 38.3778 26.9623 38.796C26.4241 39.8137 26.1388 40.9459 26.1305 42.097C26.1305 45.202 28.0975 47.8352 30.8425 48.8702C30.6247 49.4799 30.4854 50.1259 30.4854 50.8067C30.4854 54.0089 33.0896 56.6131 36.2918 56.6131C37.0147 56.6131 37.6999 56.4636 38.3386 56.2227C38.8092 57.2066 39.5479 58.0377 40.4697 58.6206C41.3916 59.2035 42.4592 59.5145 43.5499 59.5178C46.7521 59.5178 49.3563 56.9122 49.3563 53.7114V13.0648C49.3563 9.86249 46.7521 7.2583 43.5499 7.2583C41.252 7.2583 39.2792 8.6112 38.3386 10.552C37.6852 10.2987 36.9911 10.1664 36.2904 10.1615C33.0881 10.1615 30.4839 12.7672 30.4839 15.968C30.4839 16.6502 30.6247 17.2977 30.8425 17.9059ZM36.2918 13.0648C37.8929 13.0648 39.195 14.3668 39.195 15.968H42.0983C42.0983 14.573 41.5829 13.3072 40.7599 12.3056C41.0952 11.076 42.2115 10.1615 43.5484 10.1615C45.1496 10.1615 46.4517 11.4636 46.4517 13.0648V53.7099C46.4517 55.3096 45.1496 56.6131 43.5484 56.6131C42.2115 56.6131 41.0952 55.6986 40.7584 54.4677C41.6173 53.4404 42.0907 52.1456 42.0968 50.8067H39.1936C39.1936 52.4078 37.8915 53.7099 36.2904 53.7099C34.6892 53.7099 33.3871 52.4078 33.3871 50.8067C33.3871 49.2056 34.6892 47.9035 36.2904 47.9035V45.0002C34.8765 45.0002 33.5962 45.5301 32.5887 46.372C31.5908 46.1855 30.6893 45.6563 30.0402 44.8757C29.3911 44.0951 29.0351 43.1122 29.0337 42.097C29.0337 39.6975 30.9876 37.7422 33.3886 37.7422C35.7896 37.7422 37.7434 39.6975 37.7434 42.097H40.6467C40.6467 38.0964 37.3907 34.8389 33.3886 34.8389C31.7483 34.8389 30.2502 35.408 29.0337 36.3298V36.2906C27.4326 36.2906 26.1305 34.9899 26.1305 33.3873C26.1305 31.7877 27.4326 30.4841 29.0337 30.4841V30.4478C30.2824 31.4078 31.8121 31.9306 33.3871 31.9357C37.3892 31.9357 40.6452 28.6812 40.6452 24.6777H37.742C37.742 27.0801 35.7881 29.0325 33.3871 29.0325C30.9862 29.0325 29.0323 27.0801 29.0323 24.6777C29.0344 23.6627 29.3909 22.6804 30.0402 21.9004C30.6896 21.1203 31.591 20.5916 32.5887 20.4056C33.5962 21.2475 34.8765 21.7759 36.2904 21.7759V18.8727C34.6892 18.8727 33.3871 17.5706 33.3871 15.9694C33.3871 14.3683 34.6892 13.0662 36.2904 13.0662L36.2918 13.0648ZM65.3226 10.1615C64.5997 10.1615 63.9146 10.3125 63.2758 10.5535C62.3367 8.61266 60.3639 7.2583 58.0646 7.2583C54.8623 7.2583 52.2581 9.86395 52.2581 13.0648V53.7099C52.2581 56.9122 54.8623 59.5164 58.0646 59.5164C60.3625 59.5164 62.3352 58.1649 63.2758 56.2227C63.9146 56.4636 64.5997 56.6146 65.3226 56.6146C68.5249 56.6146 71.1291 54.0089 71.1291 50.8081C71.1291 50.1259 70.9897 49.4785 70.772 48.8702C73.517 47.8352 75.4839 45.2035 75.4839 42.097C75.4756 40.9459 75.1903 39.8137 74.6521 38.796C75.7486 38.378 76.6926 37.6372 77.3594 36.6716C78.0262 35.706 78.3846 34.5608 78.3871 33.3873C78.3842 32.2143 78.0257 31.0697 77.3588 30.1046C76.692 29.1395 75.7483 28.3993 74.6521 27.9815C75.1906 26.9635 75.4759 25.8307 75.4839 24.6791C75.4839 21.5756 73.517 18.9423 70.772 17.9059C70.9897 17.2962 71.1291 16.6517 71.1291 15.9694C71.1291 12.7672 68.5249 10.1615 65.3226 10.1615ZM72.5807 24.6777C72.5807 27.0801 70.6268 29.0325 68.2258 29.0325C65.8249 29.0325 63.871 27.0801 63.871 24.6777H60.9678C60.9678 28.6812 64.2237 31.9357 68.2258 31.9357C69.8662 31.9357 71.3642 31.3696 72.5807 30.4478V30.4841C74.1818 30.4841 75.4839 31.7848 75.4839 33.3873C75.4839 34.987 74.1818 36.2906 72.5807 36.2906V36.3283C71.3318 35.3675 69.8015 34.8442 68.2258 34.8389C64.2237 34.8389 60.9678 38.0964 60.9678 42.097H63.871C63.871 39.6975 65.8249 37.7422 68.2258 37.7422C70.6268 37.7422 72.5807 39.6975 72.5807 42.097C72.5793 43.1124 72.2231 44.0955 71.5737 44.8761C70.9242 45.6567 70.0225 46.1858 69.0242 46.372C67.9907 45.4926 66.6796 45.0067 65.3226 45.0002V47.9035C66.9237 47.9035 68.2258 49.2056 68.2258 50.8067C68.2258 52.4078 66.9237 53.7099 65.3226 53.7099C63.7215 53.7099 62.4194 52.4078 62.4194 50.8067H59.5162C59.5162 52.2031 60.0315 53.4675 60.8546 54.4691C60.6888 55.0829 60.3259 55.6252 59.8218 56.0125C59.3177 56.3999 58.7003 56.6109 58.0646 56.6131C56.4634 56.6131 55.1613 55.311 55.1613 53.7099V13.0648C55.1613 11.4651 56.4634 10.1615 58.0646 10.1615C59.4015 10.1615 60.5178 11.076 60.8546 12.307C59.9958 13.3343 59.5224 14.629 59.5162 15.968H62.4194C62.4194 14.3668 63.7215 13.0648 65.3226 13.0648C66.9237 13.0648 68.2258 14.3668 68.2258 15.968C68.2258 17.5691 66.9237 18.8712 65.3226 18.8712V21.7744C66.7365 21.7744 68.0168 21.246 69.0242 20.4041C70.0222 20.5902 70.9238 21.1192 71.5732 21.8995C72.2226 22.6798 72.5789 23.6625 72.5807 24.6777Z" fill="#005FB7"/>
<path d="M73.665 9.05347C66.8816 2.67798 57.9977 -0.518469 48.6754 0.0679824L48.8554 2.9654C57.3735 2.43556 65.4822 5.34895 71.6777 11.1685C77.8761 16.9938 81.2903 24.8862 81.2903 33.3869C81.2944 38.4228 80.0485 43.381 77.6642 47.8167C75.2798 52.2525 71.8317 56.027 67.6292 58.8017C64.678 60.7585 62.4469 63.5485 61.0708 66.7739H40.484C39.089 63.5252 36.8477 60.7149 33.8922 58.7422C25.0766 52.8486 20.0104 43.0096 20.34 32.4157L17.4367 32.3257C17.0767 43.927 22.6262 54.7038 32.2795 61.1548C34.3956 62.5798 36.1217 64.5115 37.3006 66.7739H33.3871V69.6772H38.459C38.7406 70.6178 38.9656 71.5817 39.0788 72.5804H36.2917V75.4836H39.195V79.8385C39.195 80.2235 39.3479 80.5927 39.6201 80.8649C39.8924 81.1371 40.2616 81.2901 40.6466 81.2901H42.0982C42.0982 86.0935 46.003 89.9998 50.8079 89.9998C55.6098 89.9998 59.5175 86.0935 59.5175 81.2901H60.9692C61.3541 81.2901 61.7234 81.1371 61.9956 80.8649C62.2678 80.5927 62.4208 80.2235 62.4208 79.8385V75.4836H65.324V72.5804H62.5224C62.624 71.5831 62.8287 70.6164 63.1045 69.6772H68.2258V66.7739H64.2498C65.4159 64.5327 67.1302 62.6231 69.2332 61.223C73.8352 58.1831 77.6109 54.0487 80.2219 49.1905C82.8329 44.3324 84.1975 38.9022 84.1935 33.3869C84.1854 28.8281 83.2476 24.3189 81.4373 20.135C79.627 15.951 76.9823 12.1804 73.665 9.05347ZM50.8064 87.0965C47.6041 87.0965 45 84.4923 45 81.2901H56.6129C56.6129 84.4923 54.0087 87.0965 50.8064 87.0965ZM59.5161 78.3869H42.0967V75.4836H59.5161V78.3869ZM59.6206 72.5804H41.9806C41.8833 71.5933 41.7266 70.6207 41.4885 69.6772H60.0721C59.8398 70.6207 59.7077 71.5948 59.6206 72.5804ZM15.9692 10.161C19.1714 10.161 21.7756 12.7667 21.7756 15.9675C21.7756 16.1581 21.8131 16.3469 21.8861 16.523C21.959 16.6991 22.066 16.8591 22.2008 16.9939C22.3356 17.1287 22.4956 17.2357 22.6717 17.3086C22.8478 17.3816 23.0366 17.4191 23.2272 17.4191C23.4178 17.4191 23.6066 17.3816 23.7827 17.3086C23.9588 17.2357 24.1189 17.1287 24.2537 16.9939C24.3885 16.8591 24.4954 16.6991 24.5683 16.523C24.6413 16.3469 24.6788 16.1581 24.6788 15.9675C24.6788 12.7667 27.283 10.161 30.4853 10.161C30.8703 10.161 31.2395 10.0081 31.5117 9.73588C31.784 9.46365 31.9369 9.09443 31.9369 8.70943C31.9369 8.32444 31.784 7.95522 31.5117 7.68299C31.2395 7.41076 30.8703 7.25782 30.4853 7.25782C27.283 7.25782 24.6788 4.65508 24.6788 1.45282C24.6788 1.06783 24.5259 0.698606 24.2537 0.426376C23.9814 0.154146 23.6122 0.00120823 23.2272 0.00120823C22.8422 0.00120823 22.473 0.154146 22.2008 0.426376C21.9285 0.698606 21.7756 1.06783 21.7756 1.45282C21.7756 4.65508 19.1714 7.25927 15.9692 7.25927C15.5842 7.25927 15.2149 7.41221 14.9427 7.68444C14.6705 7.95667 14.5175 8.32589 14.5175 8.71089C14.5175 9.09588 14.6705 9.4651 14.9427 9.73733C15.2149 10.0096 15.5842 10.161 15.9692 10.161ZM23.2272 6.26202C23.8731 7.23219 24.7055 8.06415 25.6761 8.70943C24.7049 9.35563 23.872 10.1886 23.2258 11.1598C22.5806 10.1887 21.7486 9.35578 20.7783 8.70943C21.7485 8.06415 22.5819 7.23217 23.2272 6.26202ZM21.7742 24.6772C22.1591 24.6772 22.5284 24.5242 22.8006 24.252C23.0728 23.9798 23.2258 23.6106 23.2258 23.2256C23.2258 22.8406 23.0728 22.4713 22.8006 22.1991C22.5284 21.9269 22.1591 21.774 21.7742 21.774C18.5733 21.774 15.9677 19.1712 15.9677 15.9675C15.9677 15.5825 15.8148 15.2133 15.5425 14.9411C15.2703 14.6688 14.9011 14.5159 14.5161 14.5159C14.1311 14.5159 13.7619 14.6688 13.4896 14.9411C13.2174 15.2133 13.0645 15.5825 13.0645 15.9675C13.0645 19.1712 10.4617 21.774 7.25947 21.774C6.87448 21.774 6.50526 21.9269 6.23303 22.1991C5.9608 22.4713 5.80786 22.8406 5.80786 23.2256C5.80786 23.6106 5.9608 23.9798 6.23303 24.252C6.50526 24.5242 6.87448 24.6772 7.25947 24.6772C10.4617 24.6772 13.0659 27.2828 13.0659 30.4836C13.0659 30.8686 13.2189 31.2378 13.4911 31.5101C13.7633 31.7823 14.1325 31.9352 14.5175 31.9352C14.9025 31.9352 15.2718 31.7823 15.544 31.5101C15.8162 31.2378 15.9692 30.8686 15.9692 30.4836C15.9692 27.2828 18.5719 24.6772 21.7742 24.6772ZM14.5161 25.6759C13.8713 24.705 13.0399 23.872 12.0701 23.2256C13.0395 22.5798 13.8709 21.7479 14.5161 20.7781C15.1627 21.7482 15.9956 22.5801 16.9664 23.2256C15.9952 23.8718 15.1623 24.7047 14.5161 25.6759Z" fill="white"/>
</g>
<defs>
<clipPath id="clip0_2209_57362">
<rect width="90" height="90" fill="white"/>
</clipPath>
</defs>
</svg>
