<svg width="60" height="60" viewBox="0 0 60 60" fill="none" xmlns="http://www.w3.org/2000/svg">
<g clip-path="url(#clip0_380_2296)">
<path d="M54.3116 14.0264H50.4477C52.7497 12.7494 54.3116 10.2946 54.3116 7.48104C54.3116 3.35639 50.9555 0.000488281 46.831 0.000488281C42.7065 0.000488281 39.3506 3.35639 39.3506 7.48092C39.3506 10.2945 40.9129 12.7494 43.2148 14.0263H39.3506C36.2565 14.0263 33.7402 16.5426 33.7402 19.6367V35.5327C33.7402 36.0498 34.1582 36.4677 34.6753 36.4677C35.1923 36.4677 35.6103 36.0497 35.6103 35.5327V19.6368C35.6103 17.574 37.2879 15.8965 39.3506 15.8965H54.3116C56.3743 15.8965 58.0518 17.574 58.0518 19.6368V35.5328C58.0518 36.0499 58.4698 36.4678 58.9869 36.4678C59.5039 36.4678 59.9219 36.0498 59.9219 35.5328V19.6368C59.9219 16.5427 57.4057 14.0264 54.3116 14.0264ZM41.2207 7.48092C41.2207 4.38682 43.7369 1.87057 46.831 1.87057C49.9251 1.87057 52.4414 4.38682 52.4414 7.48092C52.4414 10.575 49.9251 13.0913 46.831 13.0913C43.7369 13.0913 41.2207 10.5751 41.2207 7.48092Z" fill="#005FB7"/>
<path d="M58.987 58.1304H55.2467V27.1172C55.2467 26.6002 54.8287 26.1822 54.3117 26.1822C53.7947 26.1822 53.3766 26.6002 53.3766 27.1172V54.234H47.7663V38.3379C47.7663 37.8209 47.3483 37.4029 46.8313 37.4029C46.3142 37.4029 45.8962 37.8209 45.8962 38.3379V54.234H40.2859V27.1172C40.2859 26.6002 39.8679 26.1822 39.3508 26.1822C38.8338 26.1822 38.4158 26.6002 38.4158 27.1172V58.1303H28.1301V27.1172H30.9354C31.2954 27.1172 31.6227 26.9106 31.7788 26.588C31.934 26.2635 31.891 25.8793 31.6666 25.5978L24.1862 16.2472C23.8299 15.803 23.081 15.803 22.7247 16.2472L15.2443 25.5978C15.0199 25.8793 14.9769 26.2635 15.132 26.588C15.2882 26.9106 15.6145 27.1172 15.9745 27.1172H18.7797V58.1303H13.1694V42.0782H15.9746C16.3346 42.0782 16.6619 41.8716 16.818 41.549C16.9733 41.2245 16.9302 40.8403 16.7057 40.5588L9.22531 31.2081C8.86906 30.764 8.12012 30.764 7.76387 31.2081L0.282969 40.5588C0.0585547 40.8403 0.0155469 41.2245 0.170703 41.549C0.326914 41.8716 0.653164 42.0782 1.01316 42.0782H3.8184V58.1304H1.01316C0.496016 58.1304 0.078125 58.5485 0.078125 59.0655C0.078125 59.5826 0.496133 60.0005 1.01316 60.0005H58.9869C59.5039 60.0005 59.9219 59.5825 59.9219 59.0655C59.922 58.5483 59.504 58.1304 58.987 58.1304ZM17.921 25.2472L23.4547 18.3287L28.9893 25.2472H27.195C26.6779 25.2472 26.2599 25.6652 26.2599 26.1822V57.9742H20.6505V26.1822C20.6505 25.6652 20.2325 25.2472 19.7155 25.2472H17.921ZM2.96 40.2081L8.49371 33.2896L14.0284 40.2081H12.234C11.717 40.2081 11.2989 40.6262 11.2989 41.1432V57.9742H5.68941V41.1432C5.68941 40.6262 5.27141 40.2081 4.75437 40.2081H2.96ZM53.3766 56.1042V57.9742H47.7663V56.1042H53.3766ZM45.8961 56.1042V57.9742H40.2857V56.1042H45.8961Z" fill="white"/>
</g>
<defs>
<clipPath id="clip0_380_2296">
<rect width="60" height="60" fill="white" transform="translate(0 0.000488281)"/>
</clipPath>
</defs>
</svg>
