<svg width="103" height="103" viewBox="0 0 103 103" fill="none" xmlns="http://www.w3.org/2000/svg">
<circle cx="51.4902" cy="51.9414" r="51" fill="white"/>
<path d="M75.8237 51.2955H74.2196V46.2538C74.2196 44.1913 72.6154 42.5872 70.5529 42.5872H67.4591V40.1809C67.4591 39.0351 66.5425 38.1184 65.3966 38.1184H60.9279C59.7821 38.1184 58.8654 39.0351 58.8654 40.1809V51.2955H45.0008V40.1809C45.0008 39.0351 44.0841 38.1184 42.9383 38.1184H38.4696C37.3237 38.1184 36.4071 39.0351 36.4071 40.1809V42.5872H33.3133C31.2508 42.5872 29.6466 44.1913 29.6466 46.2538V51.2955H28.1571C27.4696 51.2955 27.0112 51.7538 27.0112 52.4413C27.0112 53.1288 27.4696 53.5872 28.1571 53.5872H29.6466V58.6288C29.6466 60.6913 31.2508 62.2955 33.3133 62.2955H36.4071V64.7017C36.4071 65.8476 37.3237 66.7642 38.4696 66.7642H42.9383C44.0841 66.7642 45.0008 65.8476 45.0008 64.7017V53.5872H58.98V64.7017C58.98 65.8476 59.8966 66.7642 61.0425 66.7642H65.5112C66.6571 66.7642 67.5737 65.8476 67.5737 64.7017V62.2955H70.6675C72.73 62.2955 74.3341 60.6913 74.3341 58.6288V53.5872H75.9383C76.6258 53.5872 77.0841 53.1288 77.0841 52.4413C77.0841 51.7538 76.3966 51.2955 75.8237 51.2955ZM36.4071 60.0038H33.3133C32.5112 60.0038 31.9383 59.4309 31.9383 58.6288V46.2538C31.9383 45.4517 32.5112 44.8788 33.3133 44.8788H36.2925V60.0038H36.4071ZM42.7091 64.4726H38.6987V40.4101H42.7091V64.4726ZM65.1675 64.4726H61.1571V40.4101H65.1675V64.4726ZM71.9279 58.6288C71.9279 59.4309 71.355 60.0038 70.5529 60.0038H67.5737V44.8788H70.5529C71.355 44.8788 71.9279 45.4517 71.9279 46.2538V58.6288Z" fill="#002756"/>
</svg>
