<svg width="91" height="92" viewBox="0 0 91 92" fill="none" xmlns="http://www.w3.org/2000/svg">
<rect x="90.75" y="91.229" width="90" height="90.7063" rx="45" transform="rotate(180 90.75 91.229)" fill="#001D41"/>
<g clip-path="url(#clip0_2305_16300)">
<path d="M44.7499 58.0653V66.193C39.1855 66.193 34.1452 63.9174 30.5 60.2353L36.1936 54.4971C38.3869 56.6997 41.4111 58.0653 44.7499 58.0653Z" fill="#005FB7"/>
<path d="M58.9999 31.5119L53.2985 37.2581C51.113 35.0475 48.0888 33.6819 44.75 33.6819V25.5542C50.3144 25.5542 55.3548 27.8298 58.9999 31.5119Z" fill="#005FB7"/>
<path d="M69.75 46.0476C69.75 44.8789 69.0058 43.8705 67.9402 43.5966C67.4645 43.4736 66.9727 43.5053 66.525 43.6752V41.171C66.525 39.9379 65.6563 38.8668 64.5065 38.6791C64.4896 38.6767 64.4718 38.6791 64.4549 38.6767C61.4524 30.3216 53.6155 24.7417 44.75 24.7417C41.3655 24.7417 38.0483 25.5636 35.0726 27.1241V24.5679H33.4597V28.2845C33.4597 29.2199 33.783 30.1335 34.3701 30.8562L36.1397 33.0377C36.491 33.4719 36.6855 34.0203 36.6855 34.5803V43.2097C36.0436 43.2339 35.4364 42.9811 34.9773 42.5283C34.5185 42.0766 34.2661 41.4702 34.2661 40.8233V36.7595H32.6532V50.2278L32.5953 50.2488C32.6131 50.2984 32.6347 50.3449 32.6532 50.3937V50.6628C32.6532 51.1001 32.3614 51.4902 31.9877 51.5509C31.742 51.5934 31.5081 51.5267 31.325 51.37C31.1435 51.2152 31.0403 50.9894 31.0403 50.7505V39.1978H29.4274V50.7505C29.4274 50.9894 29.3243 51.2152 29.1427 51.3708C28.9596 51.5267 28.7233 51.591 28.48 51.5517C28.1063 51.4902 27.8145 51.1009 27.8145 50.6635V39.1978H26.2016V50.6628C26.2016 50.9017 26.0984 51.1275 25.9169 51.2827C25.7338 51.439 25.4975 51.5037 25.2534 51.464C24.8805 51.4041 24.5887 51.0132 24.5887 50.5766V39.1978H22.9758V45.7032C22.9758 45.9786 22.838 46.2584 22.6155 46.4314C22.4781 46.5394 22.2517 46.6477 21.9587 46.5759C21.6137 46.4874 21.3629 46.1191 21.3629 45.7V33.6929C21.3629 33.1679 21.5346 32.6492 21.8469 32.2297L22.9758 30.7125C23.496 30.014 23.7823 29.1477 23.7823 28.2742V24.5679H22.1694V28.2742C22.1694 28.7992 21.9977 29.3175 21.6854 29.737L20.5565 31.2546C20.0363 31.9527 19.75 32.819 19.75 33.6929V45.7C19.75 46.8687 20.4942 47.8772 21.5598 48.151C22.0355 48.274 22.5273 48.2423 22.975 48.0724V50.5766C22.975 51.8097 23.8437 52.8808 24.9935 53.0685C25.0104 53.0709 25.0282 53.0685 25.0451 53.0709C28.0476 61.4261 35.8845 67.0059 44.75 67.0059C48.1321 67.0059 51.4509 66.1817 54.4274 64.6196V67.179H56.0403V63.4624C56.0403 62.5266 55.717 61.6134 55.1299 60.8907L53.3603 58.7091C53.009 58.2758 52.8145 57.7273 52.8145 57.1673V48.538C53.4485 48.4999 54.0628 48.7665 54.5227 49.2194C54.9815 49.671 55.2339 50.2774 55.2339 50.9243V54.9882H56.8468V41.0841C56.8468 40.6467 57.1386 40.2566 57.5123 40.1959C57.758 40.1558 57.9919 40.2201 58.175 40.3769C58.3565 40.5324 58.4597 40.7583 58.4597 40.9972V52.5498H60.0726V40.9972C60.0726 40.7583 60.1758 40.5324 60.3573 40.3769C60.5404 40.2209 60.7735 40.155 61.02 40.1959C61.3937 40.2574 61.6855 40.6467 61.6855 41.0841V52.549H63.2984V41.0841C63.2984 40.8452 63.4016 40.6194 63.5831 40.4642C63.7662 40.3078 64.0009 40.2412 64.2466 40.2828C64.6195 40.3435 64.9113 40.7345 64.9113 41.171V52.5498H66.5242V46.0445C66.5242 45.769 66.662 45.4893 66.8845 45.3162C67.0219 45.2083 67.2483 45.0976 67.5413 45.1718C67.8863 45.2603 68.1371 45.6286 68.1371 46.0476V58.0547C68.1371 58.5798 67.9654 59.0985 67.6531 59.5179L66.5242 61.0351C66.004 61.7336 65.7177 62.6 65.7177 63.4735V67.1798H67.3306V63.4735C67.3306 62.9484 67.5023 62.4301 67.8146 62.0106L68.9435 60.493C69.4637 59.7949 69.75 58.9286 69.75 58.0547V46.0476ZM53.8816 61.9205C54.0951 62.1829 54.2427 62.4908 54.3313 62.8155C51.4217 64.4886 48.1219 65.3804 44.75 65.3804C36.6445 65.3804 29.4727 60.3275 26.6434 52.7383C26.7525 52.6717 26.8628 52.6062 26.9612 52.5217C26.9644 52.5189 26.9687 52.5157 26.9718 52.5125C27.3105 52.8451 27.7413 53.0773 28.2201 53.1562C28.925 53.2717 29.6452 53.0733 30.187 52.6086C30.2032 52.5947 30.2185 52.5816 30.2339 52.5677C30.2492 52.5816 30.2646 52.5947 30.2807 52.6086C30.721 52.9864 31.2766 53.1888 31.8499 53.1888C31.9814 53.1888 32.1145 53.1773 32.2468 53.1562C32.7773 53.0693 33.2419 52.7887 33.5951 52.3978C35.8751 56.3474 40.1066 58.8782 44.75 58.8782C47.0461 58.8782 49.2477 58.271 51.2016 57.1284V57.1673C51.2016 58.1019 51.5249 59.0147 52.112 59.739L53.8816 61.9205ZM52.7799 46.9116C51.9096 46.9303 51.2016 47.6605 51.2016 48.5372V55.2029C49.304 56.5407 47.0823 57.2526 44.75 57.2526C40.1259 57.2526 35.9676 54.3853 34.2661 50.0825V44.0296C34.9501 44.5451 35.766 44.836 36.6331 44.836C36.6623 44.836 36.691 44.836 36.7201 44.8352C37.5904 44.8166 38.2984 44.0863 38.2984 43.2097V36.5448C40.1968 35.2077 42.4161 34.495 44.75 34.495C49.3402 34.495 53.5324 37.3683 55.2339 41.6548V47.718C54.5298 47.1847 53.6903 46.8906 52.7799 46.9116ZM61.2799 38.5914C60.575 38.4759 59.8548 38.6743 59.313 39.1391C59.2968 39.153 59.2815 39.1661 59.2661 39.1799C59.2508 39.1661 59.2354 39.153 59.2193 39.1391C58.6782 38.6751 57.9619 38.4759 57.2524 38.5914C56.7235 38.6783 56.2597 38.9573 55.9072 39.3474C53.6225 35.4062 49.3611 32.8694 44.75 32.8694C42.4523 32.8694 40.2523 33.4766 38.2984 34.62V34.5811C38.2984 33.6465 37.9751 32.7337 37.388 32.0094L35.6184 29.8271C35.4049 29.5648 35.258 29.2576 35.1687 28.9341C38.0783 27.259 41.3757 26.3672 44.75 26.3672C52.8555 26.3672 60.0281 31.4209 62.8566 39.0093C62.7475 39.076 62.6372 39.1414 62.5388 39.226C62.5356 39.2288 62.5313 39.2319 62.5282 39.2351C62.1895 38.9025 61.7587 38.6704 61.2799 38.5914Z" fill="white"/>
<path d="M68.9435 71.0695H52.8145V66.1929H68.9435V71.0695Z" fill="#005FB7"/>
<path d="M36.6854 25.5544H20.5564V20.6777H36.6854V25.5544Z" fill="#005FB7"/>
</g>
<defs>
<clipPath id="clip0_2305_16300">
<rect width="50" height="50.392" fill="white" transform="translate(19.75 20.6777)"/>
</clipPath>
</defs>
</svg>
