<svg width="90" height="91" viewBox="0 0 90 91" fill="none" xmlns="http://www.w3.org/2000/svg">
<rect x="90" y="90.7065" width="90" height="90.7063" rx="45" transform="rotate(180 90 90.7065)" fill="#001D41"/>
<g clip-path="url(#clip0_2305_16269)">
<path d="M39.3438 56.5484V53.084H44.5V44.4228H35.9062V40.0923H32.4688V44.4228H22.1562V67.8079H44.5V56.5484H39.3438Z" fill="#005FB7"/>
<path d="M70.2812 41.8247L44.5 15.8413V32.2974L48.7969 32.2983V35.7628H44.5V44.423H53.0938V48.7536H56.5312V44.423H66.8438V41.8247H70.2812Z" fill="#005FB7"/>
<path d="M67.7032 38.0024V27.9676C67.7032 27.7379 67.6126 27.5176 67.4515 27.3551C67.2903 27.1927 67.0717 27.1015 66.8438 27.1015H61.6876C61.4596 27.1015 61.2411 27.1927 61.0799 27.3551C60.9187 27.5176 60.8282 27.7379 60.8282 27.9676V31.0735L45.1076 15.2297C44.9465 15.0673 44.7279 14.9761 44.5001 14.9761C44.2722 14.9761 44.0536 15.0673 43.8925 15.2297L18.1112 41.213C17.9911 41.3342 17.9093 41.4885 17.8761 41.6565C17.843 41.8244 17.86 41.9986 17.925 42.1568C17.9901 42.315 18.1002 42.4503 18.2415 42.5455C18.3828 42.6406 18.5489 42.6914 18.7188 42.6915H21.2969V67.8087C21.2969 68.0384 21.3875 68.2587 21.5486 68.4212C21.7098 68.5836 21.9284 68.6749 22.1563 68.6749H66.8438C67.0717 68.6749 67.2903 68.5836 67.4515 68.4212C67.6126 68.2587 67.7032 68.0384 67.7032 67.8087V42.6915H70.2813C70.4512 42.6914 70.6174 42.6406 70.7587 42.5455C70.8999 42.4503 71.0101 42.315 71.0751 42.1568C71.1401 41.9986 71.1571 41.8244 71.124 41.6565C71.0909 41.4885 71.009 41.3342 70.8889 41.213L67.7032 38.0024ZM62.5469 28.8337H65.9844V36.2701L62.5469 32.8057V28.8337ZM20.7933 40.9593L43.6407 17.9328V32.2981C43.6407 32.5278 43.7312 32.7481 43.8924 32.9106C44.0536 33.073 44.2721 33.1642 44.5001 33.1642H47.9376V34.8965H44.5001C44.2721 34.8965 44.0536 34.9877 43.8924 35.1501C43.7312 35.3126 43.6407 35.5329 43.6407 35.7626V43.5576H36.7657V40.0931C36.7657 39.8634 36.6751 39.6431 36.514 39.4807C36.3528 39.3183 36.1342 39.227 35.9063 39.227H32.4688C32.2409 39.227 32.0223 39.3183 31.8611 39.4807C31.7 39.6431 31.6094 39.8634 31.6094 40.0931V43.5576H23.0157V41.8254C23.0157 41.5957 22.9251 41.3754 22.764 41.2129C22.6028 41.0505 22.3842 40.9593 22.1563 40.9593H20.7933ZM23.0157 45.2898H32.4688C32.6967 45.2898 32.9153 45.1986 33.0765 45.0361C33.2376 44.8737 33.3282 44.6534 33.3282 44.4237V40.9593H35.0469V44.4237C35.0469 44.6534 35.1375 44.8737 35.2986 45.0361C35.4598 45.1986 35.6784 45.2898 35.9063 45.2898H43.6407V52.2187H39.3438C39.1159 52.2187 38.8973 52.31 38.7361 52.4724C38.575 52.6348 38.4844 52.8551 38.4844 53.0848V56.5493C38.4844 56.779 38.575 56.9993 38.7361 57.1617C38.8973 57.3241 39.1159 57.4154 39.3438 57.4154H43.6407V66.9426H23.0157V45.2898ZM45.3594 66.9426V56.5493C45.3594 56.3196 45.2689 56.0993 45.1077 55.9368C44.9466 55.7744 44.728 55.6832 44.5001 55.6832H40.2032V53.9509H44.5001C44.728 53.9509 44.9466 53.8597 45.1077 53.6973C45.2689 53.5348 45.3594 53.3145 45.3594 53.0848V45.2898H52.2344V48.7543C52.2344 48.984 52.325 49.2043 52.4861 49.3667C52.6473 49.5291 52.8659 49.6204 53.0938 49.6204H56.5313C56.7592 49.6204 56.9778 49.5291 57.139 49.3667C57.3001 49.2043 57.3907 48.984 57.3907 48.7543V45.2898H65.9844V66.9426H45.3594ZM66.8438 40.9593C66.6159 40.9593 66.3973 41.0505 66.2361 41.2129C66.075 41.3754 65.9844 41.5957 65.9844 41.8254V43.5576H56.5313C56.3034 43.5576 56.0848 43.6488 55.9236 43.8113C55.7625 43.9737 55.6719 44.194 55.6719 44.4237V47.8882H53.9532V44.4237C53.9532 44.194 53.8626 43.9737 53.7015 43.8113C53.5403 43.6488 53.3217 43.5576 53.0938 43.5576H45.3594V36.6287H48.7969C49.0249 36.6287 49.2434 36.5374 49.4046 36.375C49.5658 36.2126 49.6563 35.9923 49.6563 35.7626V32.2981C49.6563 32.0684 49.5658 31.8481 49.4046 31.6857C49.2434 31.5233 49.0249 31.432 48.7969 31.432H45.3594V17.9328L68.2068 40.9593H66.8438Z" fill="white"/>
</g>
<defs>
<clipPath id="clip0_2305_16269">
<rect width="55" height="55.4312" fill="white" transform="translate(17 14.1099)"/>
</clipPath>
</defs>
</svg>
