<svg width="56" height="57" viewBox="0 0 56 57" fill="none" xmlns="http://www.w3.org/2000/svg">
<path d="M51.2029 24.6845V14.6497C51.2029 14.42 51.1124 14.1997 50.9512 14.0373C50.7901 13.8748 50.5715 13.7836 50.3436 13.7836H45.1873C44.9594 13.7836 44.7408 13.8748 44.5796 14.0373C44.4185 14.1997 44.3279 14.42 44.3279 14.6497V17.7556L28.6074 1.91179C28.4462 1.74942 28.2277 1.6582 27.9998 1.6582C27.7719 1.6582 27.5534 1.74942 27.3922 1.91179L1.61099 27.8952C1.49084 28.0163 1.40902 28.1706 1.37588 28.3386C1.34273 28.5066 1.35975 28.6807 1.42478 28.8389C1.48981 28.9972 1.59993 29.1324 1.74122 29.2276C1.88251 29.3228 2.04863 29.3736 2.21857 29.3736H4.79669V54.4909C4.79669 54.7206 4.88723 54.9409 5.0484 55.1033C5.20956 55.2657 5.42815 55.357 5.65607 55.357H50.3436C50.5715 55.357 50.7901 55.2657 50.9512 55.1033C51.1124 54.9409 51.2029 54.7206 51.2029 54.4909V29.3736H53.7811C53.951 29.3736 54.1171 29.3228 54.2584 29.2276C54.3997 29.1324 54.5098 28.9972 54.5748 28.8389C54.6399 28.6807 54.6569 28.5066 54.6238 28.3386C54.5906 28.1706 54.5088 28.0163 54.3886 27.8952L51.2029 24.6845ZM46.0467 15.5158H49.4842V22.9523L46.0467 19.4878V15.5158ZM4.2931 27.6414L27.1404 4.61493V18.9803C27.1404 19.21 27.231 19.4303 27.3921 19.5927C27.5533 19.7551 27.7719 19.8464 27.9998 19.8464H31.4373V21.5786H27.9998C27.7719 21.5786 27.5533 21.6699 27.3921 21.8323C27.231 21.9947 27.1404 22.215 27.1404 22.4447V30.2397H20.2654V26.7753C20.2654 26.5456 20.1749 26.3253 20.0137 26.1628C19.8526 26.0004 19.634 25.9092 19.4061 25.9092H15.9686C15.7406 25.9092 15.5221 26.0004 15.3609 26.1628C15.1997 26.3253 15.1092 26.5456 15.1092 26.7753V30.2397H6.51544V28.5075C6.51544 28.2778 6.4249 28.0575 6.26374 27.8951C6.10257 27.7326 5.88399 27.6414 5.65607 27.6414H4.2931ZM6.51544 31.9719H15.9686C16.1965 31.9719 16.4151 31.8807 16.5762 31.7183C16.7374 31.5558 16.8279 31.3355 16.8279 31.1058V27.6414H18.5467V31.1058C18.5467 31.3355 18.6372 31.5558 18.7984 31.7183C18.9596 31.8807 19.1781 31.9719 19.4061 31.9719H27.1404V38.9008H22.8436C22.6156 38.9008 22.3971 38.9921 22.2359 39.1545C22.0747 39.317 21.9842 39.5373 21.9842 39.767V43.2314C21.9842 43.4611 22.0747 43.6814 22.2359 43.8438C22.3971 44.0063 22.6156 44.0975 22.8436 44.0975H27.1404V53.6248H6.51544V31.9719ZM28.8592 53.6248V43.2314C28.8592 43.0017 28.7687 42.7814 28.6075 42.619C28.4463 42.4565 28.2277 42.3653 27.9998 42.3653H23.7029V40.6331H27.9998C28.2277 40.6331 28.4463 40.5418 28.6075 40.3794C28.7687 40.217 28.8592 39.9967 28.8592 39.767V31.9719H35.7342V35.4364C35.7342 35.6661 35.8247 35.8864 35.9859 36.0488C36.1471 36.2113 36.3656 36.3025 36.5936 36.3025H40.0311C40.259 36.3025 40.4776 36.2113 40.6387 36.0488C40.7999 35.8864 40.8904 35.6661 40.8904 35.4364V31.9719H49.4842V53.6248H28.8592ZM50.3436 27.6414C50.1156 27.6414 49.8971 27.7326 49.7359 27.8951C49.5747 28.0575 49.4842 28.2778 49.4842 28.5075V30.2397H40.0311C39.8031 30.2397 39.5846 30.331 39.4234 30.4934C39.2622 30.6558 39.1717 30.8761 39.1717 31.1058V34.5703H37.4529V31.1058C37.4529 30.8761 37.3624 30.6558 37.2012 30.4934C37.0401 30.331 36.8215 30.2397 36.5936 30.2397H28.8592V23.3108H32.2967C32.5246 23.3108 32.7432 23.2196 32.9044 23.0571C33.0655 22.8947 33.1561 22.6744 33.1561 22.4447V18.9803C33.1561 18.7506 33.0655 18.5303 32.9044 18.3678C32.7432 18.2054 32.5246 18.1142 32.2967 18.1142H28.8592V4.61493L51.7065 27.6414H50.3436Z" fill="#001D41"/>
</svg>
