<svg width="93" height="94" viewBox="0 0 93 94" fill="none" xmlns="http://www.w3.org/2000/svg">
<g clip-path="url(#clip0_779_16104)">
<path fill-rule="evenodd" clip-rule="evenodd" d="M59.3233 56.8681C59.3222 57.6867 58.9965 58.4715 58.4177 59.0504C57.8388 59.6292 57.054 59.9549 56.2354 59.956H47.5167C46.6982 59.9547 45.9137 59.6289 45.335 59.0501C44.7564 58.4712 44.4308 57.6866 44.4297 56.8681V52.3901H59.3242L59.3233 56.8681Z" fill="#2F80ED"/>
<path fill-rule="evenodd" clip-rule="evenodd" d="M51.8742 37.723C51.3282 37.723 50.7944 37.5611 50.3403 37.2577C49.8863 36.9544 49.5324 36.5232 49.3234 36.0187C49.1145 35.5142 49.0598 34.959 49.1663 34.4235C49.2729 33.8879 49.5358 33.396 49.9219 33.0098C50.3081 32.6237 50.8 32.3608 51.3356 32.2542C51.8712 32.1477 52.4263 32.2024 52.9308 32.4113C53.4353 32.6203 53.8665 32.9742 54.1699 33.4282C54.4732 33.8822 54.6352 34.416 54.6352 34.9621C54.6343 35.6941 54.3431 36.3958 53.8255 36.9134C53.308 37.431 52.6062 37.7222 51.8742 37.723Z" fill="#2F80ED"/>
<path fill-rule="evenodd" clip-rule="evenodd" d="M50.7862 13.1918V8.39651C50.7862 8.10746 50.901 7.83026 51.1054 7.62587C51.3098 7.42149 51.587 7.30666 51.876 7.30666C52.1651 7.30666 52.4423 7.42149 52.6467 7.62587C52.8511 7.83026 52.9659 8.10746 52.9659 8.39651V13.1918C52.9659 13.4809 52.8511 13.7581 52.6467 13.9625C52.4423 14.1668 52.1651 14.2817 51.876 14.2817C51.587 14.2817 51.3098 14.1668 51.1054 13.9625C50.901 13.7581 50.7862 13.4809 50.7862 13.1918ZM32.3202 16.9483C32.116 16.7438 32.0014 16.4664 32.0016 16.1773C32.0018 15.8883 32.1169 15.6111 32.3214 15.4068C32.526 15.2026 32.8033 15.088 33.0924 15.0882C33.3815 15.0884 33.6587 15.2034 33.8629 15.408L37.2523 18.7974C37.3536 18.8986 37.434 19.0186 37.4889 19.1508C37.5438 19.283 37.5721 19.4248 37.5723 19.5679C37.5724 19.711 37.5443 19.8528 37.4897 19.9851C37.435 20.1174 37.3548 20.2376 37.2537 20.3389C37.1526 20.4402 37.0325 20.5206 36.9003 20.5755C36.7681 20.6304 36.6264 20.6587 36.4832 20.6589C36.3401 20.659 36.1983 20.6309 36.066 20.5763C35.9337 20.5216 35.8135 20.4414 35.7122 20.3403L32.3202 16.9483ZM24.2218 34.9618C24.2221 34.6731 24.3369 34.3964 24.541 34.1923C24.7451 33.9881 25.0219 33.8733 25.3106 33.8731H30.1059C30.3949 33.8731 30.6721 33.9879 30.8765 34.1923C31.0809 34.3966 31.1957 34.6739 31.1957 34.9629C31.1957 35.2519 31.0809 35.5291 30.8765 35.7335C30.6721 35.9379 30.3949 36.0527 30.1059 36.0527H25.3106C25.1675 36.0527 25.0258 36.0245 24.8937 35.9698C24.7615 35.915 24.6414 35.8347 24.5403 35.7335C24.4392 35.6323 24.359 35.5121 24.3044 35.3799C24.2497 35.2477 24.2217 35.106 24.2218 34.9629V34.9618ZM32.3202 54.518C32.1162 54.3136 32.0016 54.0367 32.0016 53.7479C32.0016 53.4591 32.1162 53.1822 32.3202 52.9778L35.7122 49.5859C35.8118 49.4783 35.9322 49.3919 36.066 49.3319C36.1998 49.2719 36.3443 49.2395 36.4909 49.2367C36.6376 49.2338 36.7833 49.2606 36.9193 49.3154C37.0553 49.3703 37.1789 49.452 37.2826 49.5557C37.3862 49.6594 37.4679 49.7829 37.5228 49.9189C37.5776 50.055 37.6044 50.2006 37.6016 50.3473C37.5987 50.4939 37.5664 50.6384 37.5063 50.7722C37.4463 50.906 37.3599 51.0264 37.2523 51.126L33.8629 54.518C33.6583 54.7224 33.3809 54.8373 33.0916 54.8373C32.8023 54.8373 32.5249 54.7224 32.3202 54.518ZM71.4315 52.9778C71.6279 53.1838 71.736 53.4585 71.7326 53.7432C71.7291 54.0278 71.6145 54.2998 71.4131 54.501C71.2117 54.7022 70.9396 54.8166 70.6549 54.8198C70.3703 54.823 70.0957 54.7146 69.8899 54.518L66.4981 51.1267C66.397 51.0254 66.3168 50.9052 66.2621 50.7729C66.2075 50.6406 66.1794 50.4988 66.1795 50.3557C66.1797 50.2126 66.208 50.0709 66.2629 49.9387C66.3178 49.8065 66.3982 49.6864 66.4995 49.5852C66.6008 49.4841 66.721 49.4039 66.8533 49.3493C66.9856 49.2946 67.1274 49.2665 67.2705 49.2667C67.4136 49.2668 67.5554 49.2951 67.6875 49.35C67.8197 49.4049 67.9398 49.4853 68.041 49.5866L71.4316 52.9786L71.4315 52.9778ZM72.5551 34.9618C72.5556 34.6728 72.6709 34.3958 72.8755 34.1916C73.0801 33.9875 73.3574 33.8729 73.6464 33.8731H78.4417C78.5848 33.8731 78.7265 33.9012 78.8588 33.956C78.991 34.0108 79.1111 34.0911 79.2123 34.1923C79.3135 34.2935 79.3938 34.4136 79.4486 34.5458C79.5034 34.6781 79.5315 34.8198 79.5315 34.9629C79.5315 35.106 79.5034 35.2477 79.4486 35.38C79.3938 35.5122 79.3135 35.6323 79.2123 35.7335C79.1111 35.8347 78.991 35.915 78.8588 35.9698C78.7265 36.0246 78.5848 36.0527 78.4417 36.0527H73.6464C73.5032 36.0529 73.3613 36.0249 73.2289 35.9702C73.0965 35.9155 72.9762 35.8353 72.8748 35.7341C72.7735 35.6328 72.6931 35.5126 72.6382 35.3803C72.5833 35.248 72.5551 35.1061 72.5551 34.9629V34.9618ZM66.4979 20.3397C66.2941 20.1347 66.1797 19.8574 66.1797 19.5683C66.1797 19.2792 66.2941 19.0019 66.4979 18.7969L69.8899 15.4075C69.9902 15.3028 70.1105 15.2192 70.2436 15.1617C70.3766 15.1041 70.5198 15.0736 70.6648 15.0721C70.8098 15.0705 70.9537 15.0979 71.0879 15.1527C71.2222 15.2074 71.3442 15.2884 71.4468 15.3909C71.5493 15.4934 71.6304 15.6153 71.6853 15.7495C71.7402 15.8837 71.7677 16.0276 71.7662 16.1725C71.7648 16.3175 71.7345 16.4608 71.677 16.5939C71.6195 16.727 71.536 16.8473 71.4315 16.9478L68.0408 20.3397C67.8361 20.5441 67.5586 20.6589 67.2694 20.6589C66.9801 20.6589 66.7026 20.5441 66.4979 20.3397ZM51.8759 18.9175C48.4288 18.9177 45.0735 20.028 42.3066 22.0839C39.5398 24.1398 37.5086 27.032 36.5137 30.3323C35.5189 33.6327 35.6132 37.1657 36.7829 40.4082C37.9526 43.6507 40.1353 46.4304 43.008 48.3356C43.8067 48.8584 44.3878 49.6541 44.6427 50.574H50.7862V39.4087C49.6994 39.1423 48.7479 38.4871 48.1114 37.5668C47.4749 36.6465 47.1975 35.525 47.3317 34.4141C47.4659 33.3033 48.0023 32.28 48.8396 31.5378C49.6769 30.7955 50.7571 30.3857 51.876 30.3857C52.995 30.3857 54.0752 30.7955 54.9125 31.5378C55.7498 32.28 56.2862 33.3033 56.4204 34.4141C56.5545 35.525 56.2772 36.6465 55.6407 37.5668C55.0042 38.4871 54.0526 39.1423 52.9659 39.4087V50.5745H59.1062C59.3628 49.6546 59.9447 48.8592 60.7437 48.3362C63.616 46.4307 65.7984 43.6511 66.9678 40.4087C68.1372 37.1663 68.2315 33.6335 67.2367 30.3334C66.2419 27.0332 64.2109 24.1411 61.4444 22.0851C58.6779 20.0292 55.3229 18.9187 51.876 18.918L51.8759 18.9175ZM51.8759 37.3593C51.4016 37.3593 50.9381 37.2187 50.5438 36.9552C50.1495 36.6917 49.8422 36.3173 49.6607 35.8792C49.4792 35.4411 49.4318 34.959 49.5243 34.4939C49.6168 34.0288 49.8451 33.6015 50.1805 33.2662C50.5158 32.9309 50.943 32.7026 51.4081 32.61C51.8732 32.5175 52.3553 32.565 52.7934 32.7465C53.2315 32.928 53.606 33.2353 53.8694 33.6296C54.1329 34.0239 54.2735 34.4874 54.2735 34.9616C54.2727 35.5973 54.0198 36.2067 53.5704 36.6561C53.1209 37.1056 52.5115 37.3585 51.8759 37.3593ZM56.2352 59.5921H47.5167C46.7945 59.5908 46.1024 59.3033 45.5918 58.7926C45.0813 58.2819 44.794 57.5896 44.793 56.8675V52.7533H58.9609V56.868C58.9599 57.5903 58.6725 58.2827 58.1617 58.7934C57.651 59.3042 56.9586 59.5916 56.2363 59.5926L56.2352 59.5921ZM41.8004 50.1502C42.0548 50.311 42.2632 50.5349 42.4055 50.8C42.5478 51.0651 42.6192 51.3625 42.6127 51.6633V56.868C42.6139 58.1684 43.131 59.4151 44.0504 60.3346C44.9699 61.2541 46.2167 61.7712 47.517 61.7723H56.2369C57.5371 61.7709 58.7838 61.2538 59.7032 60.3344C60.6226 59.4149 61.1398 58.1683 61.1412 56.868V51.6633C61.1342 51.3627 61.2051 51.0654 61.347 50.8003C61.4889 50.5351 61.6969 50.3112 61.9509 50.1502C65.2126 47.9861 67.6908 44.8291 69.0184 41.1468C70.3461 37.4644 70.4527 33.4524 69.3225 29.7048C68.1923 25.9571 65.8853 22.673 62.7431 20.3386C59.6009 18.0043 55.7906 16.7438 51.8762 16.7438C47.9618 16.7438 44.1515 18.0043 41.0093 20.3386C37.8672 22.673 35.5602 25.9571 34.43 29.7048C33.2997 33.4524 33.4064 37.4644 34.734 41.1468C36.0617 44.8291 38.5398 47.9861 41.8015 50.1502H41.8004ZM15.8963 43.7687C15.9686 43.916 16.0065 44.0778 16.0072 44.2418C16.0079 44.4059 15.9712 44.568 15.9001 44.7159L15.136 46.3067C12.8936 50.9749 10.9602 55.0073 9.98045 57.3857C9.46659 58.6341 9.37976 59.5748 9.73778 59.9681C10.2685 60.5519 12.2163 60.7077 15.3799 59.7436C15.594 59.6771 15.8235 59.6789 16.0365 59.7487C16.4078 59.8729 16.7421 60.0879 17.0093 60.3741C17.2764 60.6603 17.4679 61.0087 17.5663 61.3876C17.9672 62.7476 17.4573 64.5641 16.196 66.3497C16.4574 66.6845 16.7396 67.0027 17.0408 67.3022C17.476 67.7136 17.8575 68.1784 18.1763 68.6854C18.2826 68.8733 18.3308 69.0886 18.3146 69.3039C18.2984 69.5192 18.2187 69.7248 18.0854 69.8948L16.7722 71.5698L18.9028 73.6149C19.0293 73.7373 19.1244 73.8883 19.18 74.0553C19.2356 74.2223 19.25 74.4002 19.222 74.574C18.5344 78.8663 18.8652 81.8872 20.1823 83.3095C20.9608 84.1528 22.1313 84.5083 23.7546 84.3993C30.5567 82.0636 38.5565 78.6171 47.5294 74.1548C47.5579 74.1404 47.5879 74.1275 47.6177 74.1146C49.4253 73.4073 50.5217 70.4384 50.7878 65.5283C50.7928 65.3834 50.8266 65.241 50.8873 65.1094C50.948 64.9777 51.0343 64.8595 51.1412 64.7617C51.2482 64.6638 51.3735 64.5883 51.51 64.5395C51.6465 64.4907 51.7913 64.4696 51.9361 64.4774C52.0808 64.4853 52.2225 64.5219 52.3529 64.5852C52.4833 64.6485 52.5998 64.7372 52.6955 64.846C52.7912 64.9549 52.8642 65.0817 52.9103 65.2191C52.9564 65.3566 52.9746 65.5018 52.9639 65.6464C52.6407 71.6063 51.168 75.0345 48.4592 76.1257C45.0218 77.8347 41.7298 79.3941 38.5832 80.8037C41.059 84.376 42.8549 87.9785 43.9333 91.5298C56.8107 91.3701 69.8452 91.3363 82.7239 91.4312C77.6619 81.6654 76.415 69.7533 79.2257 57.6544C79.2392 57.5915 79.2591 57.5302 79.2852 57.4714C82.179 50.7317 84.6289 38.1759 82.0324 24.93C79.4293 17.6314 74.3532 11.4744 67.6848 7.52746C61.0164 3.58052 53.1766 2.09271 45.5259 3.3222C32.346 6.15742 23.2784 11.6853 18.5771 19.7512C14.6895 26.4236 12.52 36.8147 15.8963 43.7687ZM7.96533 56.5578C7.08037 58.7053 7.13487 60.3455 8.12626 61.4356C9.66512 63.1277 12.8638 62.7163 15.4694 61.987C15.472 61.9929 15.4741 61.999 15.4758 62.0052C15.664 62.6397 15.2942 64.0334 14.0408 65.5866C13.9153 65.7425 13.835 65.9298 13.8087 66.1283C13.7824 66.3267 13.8111 66.5285 13.8917 66.7117C14.2732 67.5732 14.9104 68.2338 15.4734 68.8164C15.6046 68.9526 15.7343 69.085 15.8511 69.2121L14.4497 71.0017C14.2828 71.2136 14.2008 71.48 14.2195 71.7491C14.2382 72.0182 14.3563 72.2707 14.5509 72.4575L16.9849 74.7958C16.2866 79.6034 16.8123 82.8773 18.5809 84.79C19.8486 86.159 21.6926 86.7546 24.0632 86.5612C24.1533 86.5535 24.2422 86.5352 24.3281 86.5067C28.0611 85.2299 32.1486 83.6233 36.5525 81.7016C39.2021 85.457 41.0572 89.2291 42.066 92.9181C42.1285 93.1488 42.2652 93.3525 42.455 93.4977C42.6448 93.6429 42.8772 93.7215 43.1162 93.7215H43.1306C56.8826 93.5424 70.8215 93.5098 84.5606 93.6254C84.753 93.627 84.9425 93.5777 85.1097 93.4825C85.2769 93.3873 85.416 93.2496 85.5128 93.0833C85.6096 92.9171 85.6608 92.7281 85.6611 92.5357C85.6614 92.3433 85.6108 92.1543 85.5144 91.9877C79.9956 82.4387 78.5124 70.4566 81.3269 58.2389C84.3309 51.18 86.8613 38.1323 84.1532 24.4283C84.1441 24.3761 84.1302 24.3248 84.1116 24.2752C81.3504 16.4722 75.9381 9.88587 68.8184 5.66449C61.6987 1.4431 53.3232 -0.14553 45.1522 1.17557L45.0978 1.18719C31.2769 4.15447 21.7199 10.0295 16.6942 18.6547C12.6017 25.6747 10.3217 36.6111 13.7112 44.2371L13.1701 45.3647C10.9148 50.0621 8.96707 54.1196 7.96533 56.5578Z" fill="white"/>
</g>
<defs>
<clipPath id="clip0_779_16104">
<rect width="93" height="93" fill="white" transform="translate(0 0.721436)"/>
</clipPath>
</defs>
</svg>
