<svg width="89" height="89" viewBox="0 0 89 89" fill="none" xmlns="http://www.w3.org/2000/svg">
<path d="M44.8949 32.1513C44.401 31.6261 43.7784 31.239 43.0888 31.0285C42.3993 30.818 41.6666 30.7914 40.9636 30.9512L35.3524 32.1847L35.5137 26.2871L39.8122 24.9841C40.8688 24.6618 41.7545 23.9337 42.275 22.9593L45.6124 16.7265L42.7436 13.6978L37.6414 20.4423L33.8283 17.7459C33.2276 17.3212 32.5254 17.063 31.7927 16.9973C31.06 16.9316 30.323 17.0608 29.6564 17.3718L25.981 19.0864C24.6156 19.7213 23.4932 20.7822 22.7826 22.1096L17.6609 31.7063L21.5393 33.7798L26.7 25.0619L28.5676 37.006C28.7052 37.5891 29.0287 38.1117 29.4892 38.4949C29.9497 38.8782 30.5223 39.1014 31.1207 39.1309L33.9785 46.9017L33.7629 54.7643L38.651 55.8768L39.929 45.0911L37.1157 37.5053L36.8195 37.5859L41.143 36.2787L50.253 44.8881L53.7865 41.5422L44.8949 32.1513Z" fill="#005FB7"/>
<path d="M39.9248 45.0982L38.6455 55.8894L33.7505 54.763L33.973 46.906L31.1083 39.1324C31.4369 39.1574 31.7672 39.1197 32.0817 39.0212L37.1158 37.5054L39.9248 45.0982Z" fill="#005FB7"/>
<path d="M26.0603 16.4287C28.3644 16.4287 30.2322 14.5609 30.2322 12.2568C30.2322 9.95277 28.3644 8.08496 26.0603 8.08496C23.7562 8.08496 21.8884 9.95277 21.8884 12.2568C21.8884 14.5609 23.7562 16.4287 26.0603 16.4287Z" fill="#005FB7"/>
<path d="M84.7489 18.9989C84.9651 19.1279 85.2124 19.1958 85.4642 19.1952C85.716 19.1947 85.963 19.1258 86.1787 18.9959C86.3945 18.866 86.5709 18.6799 86.6891 18.4575C86.8074 18.2352 86.863 17.9849 86.8501 17.7334L86.0853 2.71466C86.0737 2.4861 86.0058 2.26394 85.8878 2.06788C85.7697 1.87182 85.6051 1.70792 85.4086 1.59072C85.212 1.47352 84.9895 1.40665 84.7609 1.39603C84.5323 1.38541 84.3046 1.43138 84.0981 1.52985L70.5242 8.01016C70.2972 8.11867 70.1039 8.28672 69.9649 8.49641C69.8259 8.7061 69.7464 8.94957 69.7348 9.20089C69.7232 9.4522 69.7801 9.70195 69.8992 9.92351C70.0184 10.1451 70.1955 10.3302 70.4115 10.4591L73.9966 12.5951C67.974 22.0565 61.0838 30.9369 53.4153 39.1212L45.9059 31.203C45.2497 30.5015 44.4212 29.984 43.5029 29.7019C42.5846 29.4199 41.6085 29.3832 40.6716 29.5954L36.7904 30.4423L36.878 27.3246L40.2155 26.3205C41.6256 25.8899 42.807 24.917 43.5001 23.6158L46.8376 17.3871C46.9756 17.13 47.0291 16.836 46.9907 16.5467C46.9522 16.2575 46.8238 15.9876 46.6235 15.7754L43.7588 12.7425C43.6201 12.5956 43.451 12.4808 43.2634 12.4059C43.0758 12.3311 42.8741 12.298 42.6724 12.309C42.4707 12.3199 42.2738 12.3747 42.0954 12.4695C41.917 12.5643 41.7615 12.6969 41.6395 12.8579L37.348 18.5289L34.6349 16.607C34.0272 16.1807 33.3405 15.8798 32.6151 15.722C31.8897 15.5642 31.1401 15.5525 30.4102 15.6878C31.1876 14.7151 31.6181 13.5106 31.6332 12.2655C31.6484 11.0203 31.2474 9.80579 30.4938 8.81446C29.7402 7.82312 28.6772 7.11177 27.4734 6.79322C26.2696 6.47467 24.9939 6.56716 23.8486 7.05602C22.7034 7.54489 21.7541 8.40214 21.1514 9.4918C20.5487 10.5815 20.3271 11.8412 20.5217 13.0711C20.7163 14.3011 21.316 15.4308 22.2256 16.2812C23.1352 17.1316 24.3028 17.6539 25.543 17.7654L25.4039 17.8294C23.7673 18.5912 22.4223 19.864 21.5714 21.4561L16.44 31.0514C16.3538 31.2126 16.3002 31.3891 16.2822 31.571C16.2643 31.7529 16.2824 31.9365 16.3355 32.1113C16.3886 32.2862 16.4756 32.4489 16.5916 32.5901C16.7076 32.7313 16.8503 32.8483 17.0115 32.9343L20.8914 35.0064C21.2075 35.1753 21.5766 35.2156 21.9217 35.1189C22.2668 35.0223 22.5613 34.7961 22.7437 34.4877L25.9296 29.1032L27.2118 37.3078C27.3763 38.0245 27.729 38.6843 28.2335 39.2191C28.7381 39.754 29.3762 40.1445 30.082 40.3505L32.5851 47.134L32.371 54.7213C32.3626 55.0414 32.465 55.3546 32.6609 55.6079C32.8567 55.8613 33.134 56.0393 33.4459 56.1119L34.8032 56.4276C27.5051 62.3186 19.7575 67.6299 11.6312 72.3127L2.08594 77.8084C1.87434 77.9306 1.69866 78.1063 1.5766 78.318C1.45453 78.5297 1.39039 78.7697 1.39063 79.0141V85.2455C1.39014 85.4898 1.45405 85.73 1.5759 85.9417C1.69776 86.1535 1.87327 86.3295 2.08475 86.4519C2.29623 86.5742 2.53623 86.6387 2.78057 86.6388C3.0249 86.639 3.26496 86.5747 3.47657 86.4525L16.4219 79.0502C42.7718 63.9494 64.9742 42.5611 81.0484 16.7934L84.7489 18.9989ZM24.0411 14.1692C23.6676 13.7747 23.4178 13.2794 23.3226 12.7445C23.2274 12.2095 23.291 11.6585 23.5054 11.1593C23.7199 10.6601 24.0759 10.2346 24.5294 9.93545C24.983 9.63629 25.5142 9.47652 26.0575 9.47588H26.1438C26.6009 9.48854 27.0478 9.61371 27.445 9.8403C27.8422 10.0669 28.1774 10.3879 28.4209 10.775C28.6644 11.162 28.8087 11.6031 28.8411 12.0593C28.8734 12.5154 28.7928 12.9725 28.6064 13.39C28.4199 13.8076 28.1334 14.1727 27.7722 14.4531C27.4109 14.7335 26.9861 14.9205 26.5354 14.9975C26.0847 15.0746 25.6219 15.0393 25.188 14.8948C24.7542 14.7504 24.3626 14.5011 24.0481 14.1692H24.0411ZM31.6743 37.6861C31.512 37.7364 31.3413 37.7539 31.1723 37.7375C30.8918 37.731 30.6208 37.6351 30.3986 37.4637C30.1765 37.2924 30.0149 37.0546 29.9374 36.785L28.0739 24.8381C28.0297 24.5551 27.899 24.2926 27.6999 24.0866C27.5008 23.8806 27.2429 23.7411 26.9615 23.6872C26.6801 23.6334 26.389 23.6677 26.1278 23.7856C25.8667 23.9035 25.6484 24.0992 25.5027 24.3458L21.0221 31.9192L19.5438 31.1293L24.0175 22.7633C24.582 21.7058 25.4746 20.8601 26.5609 20.3533L30.2475 18.6345C30.6924 18.4292 31.1833 18.3442 31.6713 18.3879C32.1593 18.4316 32.6274 18.6024 33.0287 18.8835L36.8391 21.5827C37.1338 21.7912 37.4982 21.8769 37.8551 21.8216C38.2119 21.7664 38.5333 21.5744 38.7512 21.2865L42.866 15.8533L43.9132 16.9658L41.0457 22.3183C40.8754 22.6397 40.6434 22.9243 40.363 23.156C40.0827 23.3877 39.7594 23.5619 39.4117 23.6686L35.1147 24.9619C34.8354 25.0464 34.5897 25.2166 34.4125 25.4485C34.2353 25.6803 34.1355 25.9621 34.1273 26.2538L33.9591 32.1486C33.9529 32.3598 33.995 32.5695 34.082 32.762C34.169 32.9545 34.2988 33.1246 34.4614 33.2594C34.624 33.3943 34.8151 33.4903 35.0204 33.5402C35.2256 33.5902 35.4395 33.5927 35.6459 33.5476L41.2835 32.3183C41.7487 32.2128 42.2335 32.2313 42.6893 32.3718C43.1452 32.5124 43.5561 32.7701 43.8812 33.1193L51.5004 41.146C50.9928 41.6716 50.4908 42.2029 49.9777 42.7216L42.104 35.2803C41.9256 35.1118 41.7059 34.9934 41.467 34.9372C41.2282 34.881 40.9787 34.8891 40.7439 34.9605L31.6743 37.6861ZM41.2293 44.61L38.9375 38.4037L40.787 37.8474L48.003 44.6615C45.5926 47.0302 43.1145 49.3303 40.5687 51.5618L41.3127 45.2553C41.336 45.0384 41.3074 44.8192 41.2293 44.6156V44.61ZM32.9842 40.1948L36.2633 39.2047L38.5036 45.2608L37.4523 54.1873L35.1731 53.6602L35.3636 46.9407C35.369 46.7635 35.3402 46.5869 35.2788 46.4206L32.9842 40.1948ZM79.4047 14.172C63.5225 40.0588 41.3879 61.5378 15.0354 76.6347L4.17188 82.848V79.822L13.019 74.731C39.1261 59.6668 61.135 38.4229 77.1129 12.8648C77.211 12.7078 77.2767 12.5328 77.3062 12.35C77.3357 12.1672 77.3284 11.9804 77.2847 11.8005C77.2411 11.6206 77.162 11.4512 77.052 11.3023C76.942 11.1534 76.8034 11.0279 76.6443 10.9333L74.0675 9.40357L83.4139 4.93966L83.9395 15.2831L81.2973 13.7076C80.9839 13.5215 80.61 13.4659 80.256 13.5528C79.9021 13.6397 79.5964 13.862 79.4047 14.172Z" fill="white"/>
<path d="M6.42798 46.1348L14.5047 38.4919L16.4164 40.5121L8.33965 48.155L6.42798 46.1348Z" fill="white"/>
<path d="M16.1993 48.3716L23.2665 41.6841L25.1782 43.7043L18.111 50.3918L16.1993 48.3716Z" fill="white"/>
<path d="M84.8281 38.9375C84.8281 38.5687 84.6816 38.215 84.4208 37.9542C84.16 37.6934 83.8063 37.5469 83.4375 37.5469H72.3125C71.9437 37.5469 71.59 37.6934 71.3292 37.9542C71.0684 38.215 70.9219 38.5687 70.9219 38.9375V84.8281H65.3594V59.7969C65.3594 59.4281 65.2129 59.0743 64.9521 58.8136C64.6913 58.5528 64.3376 58.4062 63.9688 58.4062H52.8438C52.4749 58.4062 52.1212 58.5528 51.8604 58.8136C51.5996 59.0743 51.4531 59.4281 51.4531 59.7969V84.8281H45.8906V75.0938C45.8906 74.7249 45.7441 74.3712 45.4833 74.1104C45.2225 73.8496 44.8688 73.7031 44.5 73.7031H33.375C33.0062 73.7031 32.6525 73.8496 32.3917 74.1104C32.1309 74.3712 31.9844 74.7249 31.9844 75.0938V84.8281H29.2031V87.6094H87.6094V84.8281H84.8281V38.9375ZM43.1094 84.8281H34.7656V76.4844H43.1094V84.8281ZM62.5781 84.8281H54.2344V61.1875H62.5781V84.8281ZM82.0469 84.8281H73.7031V40.3281H82.0469V84.8281Z" fill="white"/>
</svg>
