<svg width="60" height="60" viewBox="0 0 60 60" fill="none" xmlns="http://www.w3.org/2000/svg">
<path d="M4.37566 22.9512C1.13655 18.7542 5.53362 13.7269 9.79794 16.8086V10.9326C9.79794 7.8825 12.2755 5.40137 15.3211 5.40137H51.2112C54.2568 5.40137 56.7344 7.8825 56.7344 10.9326V26.6045C56.7344 27.1136 56.322 27.5264 55.8125 27.5264H47.5318V49.6514C47.5318 52.7015 45.0543 55.1826 42.0087 55.1826H6.11864C5.60912 55.1826 5.19677 54.7698 5.19677 54.2607C5.19677 53.7517 5.60912 53.3389 6.11864 53.3389C8.14787 53.3389 9.79803 51.6847 9.79803 49.6514V29.6834L4.37566 22.9512ZM21.3187 39.5805C21.9281 39.8152 23.1601 40.7203 23.5514 40.3283C24.0286 40.0465 23.4584 38.6398 23.375 37.9727C23.059 36.5043 22.3847 35.0774 21.4367 33.858L12.6168 22.9079L9.17051 25.9658L17.8006 36.6802C18.7592 37.9128 19.9765 38.9157 21.3187 39.5805ZM7.37719 17.7355C5.22995 17.4384 4.38874 20.0894 5.82069 21.807C5.8206 21.807 8.01227 24.5279 8.01227 24.5279L11.4587 21.4699L9.45684 18.9846C8.91395 18.2873 8.1559 17.8323 7.37719 17.7355ZM54.8906 25.6826V10.9326C54.8906 8.89933 53.2405 7.24512 51.2112 7.24512C49.182 7.24512 47.5318 8.89933 47.5318 10.9326V25.6826H54.8906ZM10.2319 53.3389H42.0087C44.0379 53.3389 45.6881 51.6847 45.6881 49.6514V26.6045V10.9326C45.6871 9.5747 46.2073 8.25844 47.0979 7.24512H15.3212C13.2919 7.24512 11.6418 8.89933 11.6418 10.9326V18.7587L22.8816 32.7133C24.0096 34.1623 24.8027 35.8467 25.1772 37.5851C25.3046 38.3208 25.7645 39.7031 25.5095 40.4327H40.1676C41.3644 40.4359 41.3802 42.2714 40.1675 42.2765C40.1676 42.2765 23.3155 42.2765 23.3155 42.2765C22.4698 42.3633 21.2516 41.5717 20.5012 41.2326C18.9105 40.4453 17.4737 39.2629 16.3555 37.8251L11.6417 31.9727V49.6514C11.6417 51.0666 11.1078 52.3594 10.2319 53.3389Z" fill="white"/>
<path d="M40.1664 33.6721H29.1237C27.9215 33.6676 27.9154 31.8334 29.1238 31.8284H40.1664C41.3686 31.8329 41.3747 33.667 40.1664 33.6721Z" fill="#2F80ED"/>
<path d="M40.1665 25.0681H23.6025C22.4009 25.0638 22.3937 23.2295 23.6026 23.2244H40.1665C41.3669 23.2285 41.3762 25.063 40.1665 25.0681Z" fill="#2F80ED"/>
<path d="M40.1665 16.4639H23.6025C22.4009 16.4595 22.3937 14.6253 23.6026 14.6201H40.1665C41.3669 14.6243 41.3762 16.4587 40.1665 16.4639Z" fill="#2F80ED"/>
</svg>
