<svg width="60" height="61" viewBox="0 0 60 61" fill="none" xmlns="http://www.w3.org/2000/svg">
<path d="M3.94134 23.465C0.647343 19.1968 5.11893 14.0843 9.45553 17.2183V11.2427C9.45553 8.14086 11.9751 5.61768 15.0723 5.61768H51.5707C54.668 5.61768 57.1875 8.14086 57.1875 11.2427V27.1802C57.1875 27.6979 56.7682 28.1177 56.25 28.1177H47.829V50.6177C47.829 53.7195 45.3095 56.2427 42.2122 56.2427H5.71387C5.19571 56.2427 4.77637 55.8229 4.77637 55.3052C4.77637 54.7875 5.19571 54.3677 5.71387 54.3677C7.7775 54.3677 9.45562 52.6854 9.45562 50.6177V30.3112L3.94134 23.465ZM21.1716 40.3761C21.7912 40.6148 23.0442 41.5353 23.4421 41.1366C23.9274 40.85 23.3475 39.4194 23.2627 38.7411C22.9414 37.2478 22.2556 35.7967 21.2916 34.5566L12.3222 23.4209L8.81747 26.5307L17.5938 37.4267C18.5687 38.6801 19.8066 39.7 21.1716 40.3761ZM6.99375 18.1609C4.81012 17.8587 3.95465 20.5547 5.41087 22.3013C5.41078 22.3013 7.63959 25.0684 7.63959 25.0684L11.1444 21.9586L9.10865 19.4312C8.55656 18.7221 7.78565 18.2593 6.99375 18.1609ZM55.3125 26.2427V11.2427C55.3125 9.17493 53.6344 7.49268 51.5707 7.49268C49.5071 7.49268 47.829 9.17493 47.829 11.2427V26.2427H55.3125ZM9.89681 54.3677H42.2122C44.2759 54.3677 45.954 52.6854 45.954 50.6177V27.1802V11.2427C45.953 9.86174 46.482 8.52318 47.3877 7.49268H15.0724C13.0087 7.49268 11.3306 9.17493 11.3306 11.2427V19.2014L22.7609 33.3925C23.908 34.8661 24.7147 36.579 25.0955 38.3469C25.225 39.0951 25.6927 40.5008 25.4334 41.2428H40.34C41.557 41.2461 41.5731 43.1126 40.3399 43.1178C40.34 43.1178 23.2022 43.1178 23.2022 43.1178C22.3421 43.2061 21.1033 42.4011 20.3402 42.0562C18.7225 41.2556 17.2613 40.0531 16.1242 38.591L11.3305 32.6393V50.6177C11.3305 52.0569 10.7876 53.3716 9.89681 54.3677Z" fill="#002756"/>
<path d="M40.3385 34.3677H29.1087C27.8861 34.3631 27.8799 32.4978 29.1088 32.4927H40.3386C41.5611 32.4973 41.5673 34.3625 40.3385 34.3677Z" fill="#005FB7"/>
<path d="M40.3387 25.6177H23.4939C22.272 25.6133 22.2647 23.7479 23.494 23.7427H40.3387C41.5594 23.7469 41.5689 25.6124 40.3387 25.6177Z" fill="#005FB7"/>
<path d="M40.3387 16.8677H23.4939C22.272 16.8633 22.2647 14.9979 23.494 14.9927H40.3387C41.5594 14.9969 41.5689 16.8624 40.3387 16.8677Z" fill="#005FB7"/>
</svg>
