<svg width="80" height="80" viewBox="0 0 80 80" fill="none" xmlns="http://www.w3.org/2000/svg">
<rect x="79" y="79" width="78" height="78" rx="39" transform="rotate(180 79 79)" fill="#001D41" stroke="#005FB7" stroke-width="2"/>
<path d="M45.1506 32.4646V18.3268C45.5843 18.0628 45.8754 17.5867 45.8754 17.0429V15.0159C45.8754 14.1866 45.2006 13.512 44.3715 13.512H36.6318C35.8027 13.512 35.1279 14.1866 35.1279 15.0159V17.0429C35.1279 17.5867 35.4188 18.0624 35.8523 18.3266V32.4638C34.869 32.6367 33.9634 33.1055 33.2431 33.8259C32.2952 34.7708 31.8047 36.0293 31.8047 37.2962V64.4802C31.8047 66.1388 33.1539 67.488 34.8125 67.488H46.1883C47.8469 67.488 49.1961 66.1388 49.1961 64.4802V37.2962C49.1961 34.8838 47.4466 32.8724 45.1506 32.4646ZM36.8464 15.2307H44.1565V16.8281H36.8464V15.2307ZM47.4773 64.4802C47.4773 65.1911 46.8992 65.7693 46.1883 65.7693H34.8125C34.1016 65.7693 33.5234 65.1911 33.5234 64.4802C33.5234 64.2205 33.5194 37.3399 33.5307 37.113C33.5731 36.3309 33.9022 35.596 34.4574 35.0421C35.06 34.4397 35.8603 34.1077 36.7115 34.1077C36.9395 34.1077 37.1579 34.0173 37.3191 33.8562C37.4802 33.695 37.5709 33.4763 37.5709 33.2484V18.5466H43.4316V33.2484C43.4316 33.723 43.8164 34.1077 44.291 34.1077C46.048 34.1077 47.4771 35.538 47.4771 37.296V64.4802H47.4773Z" fill="white"/>
<line x1="68.7071" y1="12.7071" x2="12.7071" y2="68.7071" stroke="#005FB7" stroke-width="2"/>
</svg>
