<svg width="80" height="80" viewBox="0 0 80 80" fill="none" xmlns="http://www.w3.org/2000/svg">
<rect x="79" y="79" width="78" height="78" rx="39" transform="rotate(180 79 79)" fill="#001D41" stroke="#005FB7" stroke-width="2"/>
<path d="M39.5 22.5352C38.907 22.5352 38.4258 23.0164 38.4258 23.6094C38.4258 24.2023 38.907 24.6836 39.5 24.6836C40.093 24.6836 40.5742 24.2023 40.5742 23.6094C40.5742 23.0164 40.093 22.5352 39.5 22.5352Z" fill="white"/>
<path d="M67 42.9453C67 41.1683 65.5543 39.7227 63.7773 39.7227H63.6318C64.0064 39.0764 64.207 38.3408 64.207 37.5742C64.207 35.9646 63.3168 34.5596 62.0034 33.8236C61.3275 28.3813 58.7153 23.3827 54.6239 19.7217C50.4608 15.9942 45.0897 13.9414 39.5 13.9414C28.0284 13.9414 18.4075 22.466 16.9971 33.821C15.6791 34.5588 14.793 35.9585 14.793 37.5742C14.793 38.3566 15.0042 39.0902 15.371 39.7227H15.2227C13.4457 39.7227 12 41.1683 12 42.9453C12 44.7223 13.4457 46.168 15.2227 46.168H15.371C15.0042 46.8005 14.793 47.5341 14.793 48.3164C14.793 49.9033 15.6584 51.2911 16.9414 52.0352V53.6875C16.9414 56.6491 19.3509 59.0586 22.3125 59.0586H56.6875C59.6491 59.0586 62.0586 56.6491 62.0586 53.6875V52.0352C63.3416 51.2911 64.207 49.9033 64.207 48.3164C64.207 47.5341 63.9958 46.8005 63.629 46.168H63.7773C65.5543 46.168 67 44.7223 67 42.9453ZM39.5 16.0898C44.56 16.0898 49.4222 17.9481 53.1911 21.3226C56.6913 24.4546 58.9966 28.6673 59.7558 33.2773H19.244C20.8646 23.4056 29.3888 16.0898 39.5 16.0898ZM19.0898 35.4258H59.9102C61.0948 35.4258 62.0586 36.3896 62.0586 37.5742C62.0586 38.7607 61.0967 39.7227 59.9102 39.7227H19.0898C17.9052 39.7227 16.9414 38.7589 16.9414 37.5742C16.9414 36.3877 17.9033 35.4258 19.0898 35.4258ZM51.3164 41.8711L45.9453 45.8994L40.5742 41.8711H51.3164ZM15.2228 44.0195C14.6304 44.0195 14.1485 43.5376 14.1485 42.9453C14.1485 42.353 14.6304 41.8711 15.2228 41.8711H36.9935L39.8581 44.0195C38.5935 44.0195 16.332 44.0195 15.2228 44.0195ZM59.9102 53.6875C59.9102 55.4645 58.4645 56.9102 56.6875 56.9102H22.3125C20.5355 56.9102 19.0898 55.4645 19.0898 53.6875V52.6133H59.9102V53.6875ZM59.9102 50.4648H19.0898C17.9052 50.4648 16.9414 49.5011 16.9414 48.3164C16.9414 47.1318 17.9052 46.168 19.0898 46.168H42.7227L45.3008 48.1016C45.4918 48.2448 45.7185 48.3164 45.9453 48.3164C46.1721 48.3164 46.3988 48.2448 46.5898 48.1016L49.168 46.168H59.9102C61.0948 46.168 62.0586 47.1318 62.0586 48.3164C62.0586 49.5011 61.0948 50.4648 59.9102 50.4648ZM52.0326 44.0195L54.8972 41.8711H63.7773C64.3697 41.8711 64.8516 42.353 64.8516 42.9453C64.8516 43.5376 64.3697 44.0195 63.7773 44.0195C62.3419 44.0195 53.3294 44.0195 52.0326 44.0195Z" fill="white"/>
<path d="M45.9453 20.3867C45.352 20.3867 44.8711 20.8676 44.8711 21.4609V23.6094C44.8711 24.2027 45.352 24.6836 45.9453 24.6836C46.5386 24.6836 47.0195 24.2027 47.0195 23.6094V21.4609C47.0195 20.8676 46.5386 20.3867 45.9453 20.3867Z" fill="white"/>
<path d="M50.2422 26.832C49.6489 26.832 49.168 27.313 49.168 27.9062V30.0547C49.168 30.648 49.6489 31.1289 50.2422 31.1289C50.8355 31.1289 51.3164 30.648 51.3164 30.0547V27.9062C51.3164 27.313 50.8355 26.832 50.2422 26.832Z" fill="white"/>
<path d="M39.5 26.832C38.9067 26.832 38.4258 27.313 38.4258 27.9062V30.0547C38.4258 30.648 38.9067 31.1289 39.5 31.1289C40.0933 31.1289 40.5742 30.648 40.5742 30.0547V27.9062C40.5742 27.313 40.0933 26.832 39.5 26.832Z" fill="white"/>
<path d="M33.0547 20.3867C32.4614 20.3867 31.9805 20.8676 31.9805 21.4609V23.6094C31.9805 24.2027 32.4614 24.6836 33.0547 24.6836C33.648 24.6836 34.1289 24.2027 34.1289 23.6094V21.4609C34.1289 20.8676 33.648 20.3867 33.0547 20.3867Z" fill="white"/>
<path d="M28.7578 26.832C28.1645 26.832 27.6836 27.313 27.6836 27.9062V30.0547C27.6836 30.648 28.1645 31.1289 28.7578 31.1289C29.3511 31.1289 29.832 30.648 29.832 30.0547V27.9062C29.832 27.313 29.3511 26.832 28.7578 26.832Z" fill="white"/>
<line x1="68.7071" y1="12.7071" x2="12.7071" y2="68.7071" stroke="#005FB7" stroke-width="2"/>
</svg>
