<svg width="80" height="80" viewBox="0 0 80 80" fill="none" xmlns="http://www.w3.org/2000/svg">
<rect x="79" y="79" width="78" height="78" rx="39" transform="rotate(180 79 79)" fill="#001D41" stroke="#005FB7" stroke-width="2"/>
<path d="M33.6641 46.7666C34.1058 46.7664 34.546 46.7153 34.9761 46.6143C35.7887 46.4257 36.55 46.0606 37.2059 45.545L36.6004 48.7476C36.5787 48.8621 36.5917 48.9804 36.6376 49.0875C36.6835 49.1945 36.7602 49.2855 36.8581 49.3487C36.9559 49.4119 37.0704 49.4446 37.1869 49.4424C37.3034 49.4403 37.4166 49.4034 37.512 49.3367C38.5133 48.6337 39.7475 48.3448 40.9568 48.5303C41.0707 48.5476 41.1871 48.5309 41.2916 48.4824C41.396 48.4339 41.4838 48.3557 41.5441 48.2575C41.6043 48.1594 41.6343 48.0456 41.6303 47.9306C41.6263 47.8155 41.5884 47.7041 41.5215 47.6104L39.6295 44.9622C40.9398 45.2137 42.2968 44.9984 43.465 44.3537C44.6332 43.7091 45.5387 42.6757 46.0245 41.4331C46.5103 40.1904 46.5456 38.8169 46.1243 37.5509C45.703 36.2849 44.8518 35.2064 43.7183 34.5026L35.0112 29.0996C34.9457 29.0589 34.8727 29.0315 34.7965 29.0191C34.7204 29.0067 34.6425 29.0094 34.5674 29.0272C34.4923 29.045 34.4215 29.0774 34.3589 29.1226C34.2964 29.1678 34.2434 29.2249 34.203 29.2907L28.8238 38.0442C28.2883 38.9083 27.993 39.8997 27.9685 40.916C27.9439 41.9323 28.1911 42.9368 28.6843 43.8257C29.1776 44.7147 29.8992 45.4559 30.7745 45.9728C31.6499 46.4898 32.6474 46.7638 33.6641 46.7666ZM37.9813 47.7505L38.4418 45.316L39.8699 47.315C39.2207 47.3549 38.5825 47.5021 37.9813 47.7505ZM29.2564 42.0892C29.1189 41.5087 29.0979 40.9067 29.1948 40.3181C29.2917 39.7295 29.5045 39.1659 29.8209 38.6602L34.8933 30.4056L43.0999 35.4983C44.1159 36.1301 44.8412 37.1377 45.118 38.3018C45.3947 39.4658 45.2005 40.692 44.5776 41.7135C43.9546 42.735 42.9534 43.4691 41.7918 43.756C40.6303 44.043 39.4024 43.8594 38.3755 43.2455C38.2519 43.1712 38.1052 43.1452 37.9637 43.1724L37.9174 43.1812C37.8379 43.1964 37.7624 43.228 37.6956 43.2739C37.6289 43.3198 37.5725 43.379 37.5298 43.4478C37.0565 44.2102 36.3678 44.8152 35.5507 45.1863C34.7336 45.5573 33.8248 45.6777 32.9392 45.5323C32.0537 45.3869 31.2312 44.9822 30.5756 44.3693C29.9201 43.7565 29.461 42.963 29.2564 42.0892Z" fill="white"/>
<path d="M26.6237 29.0971L23.5102 23.7547C23.3637 23.4995 22.9951 23.4507 22.6473 23.532C22.3088 23.6113 22.0002 23.8187 21.9821 24.1124L21.5634 30.2817C21.5616 30.3136 21.5626 30.3457 21.5665 30.3775C21.6348 30.6704 22.1122 30.7709 22.4325 30.6959C22.6339 30.6488 22.7743 30.5484 22.7795 30.3639L22.8423 29.0651L24.9378 28.5746L25.5704 29.7103C25.6569 29.8734 25.8274 29.9011 26.0288 29.8539C26.349 29.7789 26.7299 29.4679 26.6636 29.1841C26.6537 29.1537 26.6403 29.1245 26.6237 29.0971ZM22.8709 28.0741L23.0094 25.0785L24.4631 27.7012L22.8709 28.0741Z" fill="white"/>
<path d="M60.1906 19.5079C59.8054 19.1235 59.3475 18.8196 58.8436 18.6141C58.3397 18.4085 57.8 18.3053 57.2558 18.3106L49.1747 18.3539L48.9026 17.1912C48.691 16.2874 48.1291 15.5047 47.3404 15.0152C46.5518 14.5258 45.601 14.3696 44.6972 14.5811L19.0939 20.5745C18.1907 20.787 17.4086 21.3491 16.9193 22.1375C16.43 22.9258 16.2734 23.8761 16.4839 24.7798L24.9178 60.809C25.0978 61.5766 25.5315 62.261 26.1487 62.7516C26.7658 63.2421 27.5304 63.5102 28.3188 63.5124C28.5896 63.5123 28.8595 63.4809 29.1231 63.419L33.2956 62.4424L57.4916 62.3127C58.5896 62.3056 59.6399 61.8633 60.4121 61.0827C61.1843 60.3022 61.6153 59.2472 61.6107 58.1493L61.4192 22.4295C61.4178 21.8855 61.3084 21.3471 61.0976 20.8456C60.8867 20.3441 60.5784 19.8894 60.1906 19.5079ZM28.856 62.278C28.5583 62.3477 28.2499 62.3581 27.9482 62.3085C27.6465 62.259 27.3575 62.1505 27.0978 61.9893C26.838 61.8281 26.6126 61.6173 26.4343 61.3689C26.2561 61.1206 26.1285 60.8395 26.0588 60.5418L17.6248 24.5126C17.4849 23.9115 17.5891 23.2795 17.9145 22.7551C18.24 22.2307 18.7602 21.8568 19.361 21.7155L44.9642 15.7221C45.1396 15.681 45.3191 15.6602 45.4993 15.6602C46.0237 15.6616 46.5323 15.84 46.9428 16.1663C47.3534 16.4926 47.6418 16.9479 47.7616 17.4584L56.1954 53.4876C56.336 54.0887 56.2322 54.721 55.9068 55.2455C55.5813 55.77 55.0609 56.1438 54.4599 56.2846L33.14 61.2754C33.0972 61.2805 33.0552 61.2904 33.0146 61.3047L28.856 62.278ZM57.4853 61.1408L38.4193 61.2429L54.7264 57.4257C55.1739 57.321 55.5964 57.1291 55.9698 56.8611C56.3431 56.5931 56.66 56.2541 56.9024 55.8636C57.1447 55.4731 57.3078 55.0387 57.3822 54.5851C57.4567 54.1316 57.4411 53.6679 57.3363 53.2204L49.4487 19.5243L57.262 19.4824H57.2785C58.0632 19.4824 58.816 19.793 59.3723 20.3465C59.9286 20.9 60.2432 21.6512 60.2472 22.4359L60.4387 58.1554C60.4421 58.9427 60.133 59.6991 59.5793 60.2588C59.0256 60.8185 58.2725 61.1357 57.4853 61.1408Z" fill="white"/>
<line x1="68.7071" y1="12.7071" x2="12.7071" y2="68.7071" stroke="#005FB7" stroke-width="2"/>
</svg>
