<svg width="80" height="80" viewBox="0 0 80 80" fill="none" xmlns="http://www.w3.org/2000/svg">
<rect x="79" y="79" width="78" height="78" rx="39" transform="rotate(180 79 79)" fill="#001D41" stroke="#005FB7" stroke-width="2"/>
<g clip-path="url(#clip0_2257_38348)">
<path d="M59.6966 56.5707C63.6138 52.156 66 46.3526 66 40C66 33.3905 63.4172 27.3767 59.2138 22.9017V22.9009C59.2103 22.8957 59.2052 22.894 59.2026 22.8897C54.8241 18.2353 48.6897 15.256 41.8664 15.0224L41.8655 15.0216L41.3784 15.0086C41.2526 15.0043 41.1267 15 41 15C40.8733 15 40.7474 15.0043 40.6216 15.0086L40.1362 15.0216L40.1353 15.0224C33.3121 15.256 27.1776 18.2353 22.7991 22.8897C22.7957 22.894 22.7905 22.8957 22.7879 22.9009L22.7871 22.9026C18.5828 27.3767 16 33.3905 16 40C16 46.3526 18.3862 52.156 22.3034 56.5707C22.3086 56.5784 22.3086 56.5871 22.3147 56.5948C22.3302 56.6164 22.3526 56.6267 22.369 56.6466C26.7707 61.5672 33.0862 64.7371 40.1345 64.9784L40.1353 64.9793L40.6207 64.9922C40.7474 64.9957 40.8733 65 41 65C41.1267 65 41.2526 64.9957 41.3784 64.9914L41.8638 64.9784L41.8647 64.9776C48.9207 64.7353 55.2431 61.5595 59.6448 56.6284C59.656 56.6138 59.6741 56.6095 59.6845 56.594C59.6914 56.5871 59.6914 56.5784 59.6966 56.5707ZM17.7457 40.8621H28.0931C28.1905 44.5164 28.9043 48.0672 30.175 51.394C27.7233 52.281 25.3793 53.4707 23.1828 54.9552C19.9526 51.1129 17.9422 46.2155 17.7457 40.8621ZM23.6534 24.5026C25.7983 25.8974 28.0819 27.0147 30.4638 27.8491C29.0052 31.3897 28.1983 35.2069 28.0931 39.1379H17.7457C17.9517 33.5284 20.1483 28.4207 23.6534 24.5026ZM64.2543 39.1379H53.9069C53.8017 35.2069 52.9948 31.3897 51.5362 27.8491C53.9181 27.0147 56.2017 25.8974 58.3466 24.5026C61.8517 28.4207 64.0483 33.5284 64.2543 39.1379ZM40.1379 27.8991C37.6457 27.8284 35.1991 27.4569 32.8353 26.7931C34.5828 23.2086 37.05 19.9733 40.1379 17.2793V27.8991ZM40.1379 29.6233V39.1379H29.8172C29.9233 35.3897 30.7095 31.7543 32.1155 28.3836C34.7069 29.1345 37.3974 29.55 40.1379 29.6233ZM41.8621 29.6233C44.6026 29.55 47.2931 29.1353 49.8853 28.3836C51.2914 31.7543 52.0776 35.3897 52.1836 39.1379H41.8621V29.6233ZM41.8621 27.8991V17.2793C44.95 19.9733 47.4172 23.2086 49.1647 26.7931C46.8009 27.4569 44.3543 27.8284 41.8621 27.8991ZM50.8353 26.269C49.1793 22.7991 46.881 19.6379 44.0353 16.9284C49.0836 17.5888 53.6259 19.8716 57.1241 23.2371C55.1379 24.4974 53.031 25.5112 50.8353 26.269ZM31.1647 26.269C28.969 25.5112 26.8621 24.4974 24.8767 23.2371C28.3741 19.8716 32.9172 17.5888 37.9655 16.9284C35.119 19.6379 32.8207 22.7991 31.1647 26.269ZM29.8172 40.8621H40.1379V49.5155C37.2871 49.5914 34.494 50.0362 31.8095 50.844C30.5966 47.6931 29.9147 44.3267 29.8172 40.8621ZM40.1379 51.2397V62.7207C36.8328 59.8371 34.2414 56.3336 32.4793 52.4474C34.9509 51.719 37.5181 51.3138 40.1379 51.2397ZM41.8621 62.7207V51.2397C44.4819 51.3129 47.0491 51.719 49.5207 52.4466C47.7586 56.3336 45.1672 59.8371 41.8621 62.7207ZM41.8621 49.5155V40.8621H52.1828C52.0853 44.3267 51.4034 47.6931 50.1897 50.8448C47.506 50.0362 44.7129 49.5914 41.8621 49.5155ZM53.9069 40.8621H64.2543C64.0578 46.2155 62.0483 51.1129 58.8172 54.9552C56.6207 53.4707 54.2767 52.281 51.825 51.394C53.0966 48.0672 53.8095 44.5164 53.9069 40.8621ZM24.3543 56.2466C26.394 54.8914 28.5655 53.8017 30.8345 52.9871C32.5112 56.7457 34.9181 60.1707 37.9647 63.0716C32.6621 62.3776 27.9164 59.8948 24.3543 56.2466ZM44.0353 63.0716C47.0819 60.1716 49.4888 56.7465 51.1655 52.9871C53.4345 53.8017 55.6052 54.8914 57.6457 56.2466C54.0836 59.8948 49.3379 62.3776 44.0353 63.0716Z" fill="white"/>
</g>
<line x1="68.7071" y1="12.7071" x2="12.7071" y2="68.7071" stroke="#005FB7" stroke-width="2"/>
<defs>
<clipPath id="clip0_2257_38348">
<rect width="50" height="50" fill="white" transform="translate(16 15)"/>
</clipPath>
</defs>
</svg>
