<svg width="80" height="80" viewBox="0 0 80 80" fill="none" xmlns="http://www.w3.org/2000/svg">
<rect x="79" y="79" width="78" height="78" rx="39" transform="rotate(180 79 79)" fill="#001D41" stroke="#005FB7" stroke-width="2"/>
<g clip-path="url(#clip0_2257_38278)">
<path d="M16.4371 25.4056C18.0872 23.7556 22.7584 19.0843 24.4067 17.436C24.6811 17.1613 25.1267 17.1613 25.4009 17.436C25.6756 17.7106 25.6756 18.1559 25.4009 18.4303L24.1003 19.7309L29.6119 25.2425L29.9775 24.8769L32.6905 22.1639C32.9649 21.8891 33.4105 21.8891 33.6848 22.1639C33.9595 22.4384 33.9595 22.8837 33.6848 23.1581L31.469 25.3738L43.9029 37.8082C45.0807 38.9861 45.5111 40.6316 45.1963 42.1523L47.3862 44.3406C48.3127 45.267 48.4335 46.6971 47.7515 47.7562L60.5635 60.568C60.8382 60.8426 60.8382 61.2878 60.5635 61.5622C60.2893 61.8368 59.8435 61.837 59.5693 61.5622L46.7574 48.7504C45.6843 49.4412 44.2584 49.3015 43.3418 48.3853L41.1535 46.1954C38.3029 46.7857 36.772 44.8646 35.8136 43.9062C35.8135 43.9061 35.8136 43.9062 35.8135 43.9061C34.5647 42.6573 25.6282 33.7208 24.3754 32.4678L22.1597 34.6835C21.8854 34.9581 21.4397 34.9583 21.1654 34.6835C20.8907 34.4089 20.8907 33.9637 21.1654 33.6893C22.4335 32.4212 22.9598 31.8949 24.2439 30.6108L18.7323 25.0992L17.4317 26.3998C17.1575 26.6744 16.7117 26.6746 16.4375 26.3998C16.1625 26.1254 16.1625 25.6802 16.4371 25.4056ZM44.3359 47.3909C44.8546 47.9095 45.6989 47.9093 46.2169 47.3913C46.2255 47.3827 46.3129 47.2949 46.3043 47.3034C46.9635 46.6604 46.8866 45.8298 46.3922 45.3353L44.6454 43.59C44.2111 44.329 43.345 45.204 42.5911 45.6465L44.3359 47.3909ZM28.245 34.349L30.7975 31.7965C31.0719 31.5217 31.5175 31.5217 31.7918 31.7965C32.0665 32.0711 32.0665 32.5163 31.7918 32.7907L29.2394 35.3432L32.278 38.3818L34.8305 35.8293C35.1049 35.5545 35.5505 35.5545 35.8247 35.8293C36.0995 36.1038 36.0995 36.5491 35.8247 36.8235L33.2722 39.376L36.3108 42.4147L38.8633 39.8622C39.1377 39.5875 39.5833 39.5875 39.8575 39.8622C40.1322 40.1368 40.1322 40.582 39.8575 40.8564L37.305 43.409L37.8037 43.9076C38.8782 44.9818 40.5058 45.1719 41.7649 44.4946C43.8597 43.3771 44.7122 40.6059 42.9089 38.8024L30.4748 26.3687L25.37 31.4736L28.245 34.349ZM25.2379 29.6163L28.6175 26.2367L23.1061 20.7253L19.7265 24.1048L25.2379 29.6163Z" fill="white"/>
</g>
<line x1="68.7071" y1="12.7071" x2="12.7071" y2="68.7071" stroke="#005FB7" stroke-width="2"/>
<defs>
<clipPath id="clip0_2257_38278">
<rect width="45" height="45" fill="white" transform="matrix(-1 0 0 1 61 16.9993)"/>
</clipPath>
</defs>
</svg>
