<svg width="80" height="81" viewBox="0 0 80 81" fill="none" xmlns="http://www.w3.org/2000/svg">
<rect x="79.0029" y="79.0729" width="78" height="78" rx="39" transform="rotate(180 79.0029 79.0729)" fill="#001D41" stroke="#005FB7" stroke-width="2"/>
<g clip-path="url(#clip0_2345_22792)">
<path fill-rule="evenodd" clip-rule="evenodd" d="M48.5264 41.3248C48.4189 41.3248 48.3115 41.3248 48.0967 41.3248L29.9424 30.7975C29.6201 30.5826 29.5127 30.0455 29.7275 29.7233C29.9424 29.2936 30.3721 29.1861 30.8018 29.401L48.9561 39.9283C49.2783 40.1432 49.4932 40.6803 49.1709 41.0026C49.0635 41.2174 48.8486 41.3248 48.5264 41.3248ZM15.5479 59.694C16.085 57.9752 17.5889 53.4635 20.8115 51.9596C22.6377 51.1002 23.6045 51.1002 24.4639 51.1002C25.3232 51.1002 25.8604 51.1002 27.2568 50.3483C28.4385 49.7037 29.6201 48.6295 30.9092 47.4479C31.9834 46.3736 33.165 45.2994 34.4541 44.5475C39.2881 41.5397 42.6182 44.4401 45.626 47.0182C46.915 48.1998 48.2041 49.274 49.4932 49.8111C50.3525 50.2408 51.3193 50.5631 52.3936 50.9928C56.9053 52.819 62.5986 55.0748 63.5654 59.694H66.251C66.6807 59.694 67.0029 60.1236 67.0029 60.5533C67.0029 60.983 66.5732 61.3053 66.251 61.3053H16.1924H16.085H15.9775H12.7549C12.3252 61.3053 12.0029 60.983 12.0029 60.5533C12.0029 60.1236 12.3252 59.694 12.7549 59.694H15.5479ZM61.9541 59.694C60.8799 56.0416 55.8311 54.108 51.749 52.4967C50.6748 51.9596 49.708 51.6373 48.8486 51.2076C47.2373 50.4557 45.8408 49.274 44.5518 48.0924C41.5439 45.5143 39.0732 43.3658 35.2061 45.8365C34.1318 46.4811 32.9502 47.5553 31.876 48.5221C30.5869 49.7037 29.2979 50.8854 28.0088 51.6373C26.1826 52.7115 25.3232 52.7115 24.4639 52.7115C23.7119 52.7115 22.96 52.7115 21.4561 53.4635C19.2002 54.4303 17.8037 57.7604 17.1592 59.694H61.9541ZM22.208 57.7604C21.8857 57.7604 21.5635 57.5455 21.4561 57.1158C21.3486 56.6861 21.5635 56.2565 21.9932 56.149L23.7119 55.7193C24.1416 55.6119 24.5713 55.9342 24.6787 56.2565C24.7861 56.6861 24.4639 57.1158 24.1416 57.2233L22.4229 57.6529C22.3154 57.6529 22.3154 57.7604 22.208 57.7604ZM29.083 54.3229C28.7607 54.3229 28.4385 54.108 28.3311 53.7858C28.2236 53.3561 28.4385 52.9264 28.8682 52.819L30.5869 52.3893C31.0166 52.2818 31.4463 52.4967 31.5537 52.9264C31.6611 53.3561 31.4463 53.7858 31.0166 53.8932L29.2979 54.3229C29.2979 54.3229 29.1904 54.3229 29.083 54.3229ZM34.8838 55.9342C34.5615 55.9342 34.2393 55.7193 34.1318 55.3971C34.0244 54.9674 34.2393 54.5377 34.6689 54.4303L36.3877 54.0006C36.71 53.8932 37.2471 54.108 37.2471 54.5377C37.3545 54.9674 37.1396 55.3971 36.71 55.5045L35.0986 55.9342C34.9912 55.9342 34.9912 55.9342 34.8838 55.9342ZM37.4619 49.9186C37.1396 49.9186 36.8174 49.7037 36.71 49.3815C36.6025 48.9518 36.8174 48.5221 37.2471 48.4147L38.8584 47.985C39.2881 47.8776 39.7178 48.0924 39.8252 48.5221C39.9326 48.9518 39.7178 49.3815 39.2881 49.4889L37.6768 49.9186C37.5693 49.9186 37.4619 49.9186 37.4619 49.9186ZM42.833 56.3639C42.5107 56.3639 42.1885 56.149 42.0811 55.7193C41.9736 55.3971 42.2959 54.86 42.6182 54.86L44.3369 54.3229C44.7666 54.3229 45.1963 54.5377 45.3037 54.86C45.4111 55.2897 45.1963 55.7193 44.7666 55.8268L43.0479 56.2565C43.0479 56.2565 42.9404 56.3639 42.833 56.3639ZM25.1084 22.2037L26.1826 20.1627C26.3975 19.8404 26.9346 19.733 27.2568 19.9479L59.0537 38.2096C59.2686 38.317 59.376 38.5318 59.376 38.7467C59.4834 38.9615 59.4834 39.1764 59.2686 39.2838L58.1943 41.2174L59.5908 42.0768H59.6982C60.665 42.6139 61.3096 43.5807 61.6318 44.6549C61.9541 45.8365 61.7393 46.9108 61.2021 47.985C60.665 48.9518 59.8057 49.5963 58.624 49.9186C58.1943 50.026 57.8721 50.026 57.5498 50.026C56.7979 50.026 56.0459 49.8111 55.5088 49.4889H55.4014C55.2939 49.3815 55.1865 49.274 55.0791 49.274L19.415 28.649C17.374 27.4674 16.6221 24.8893 17.8037 22.8483C18.3408 21.8815 19.3076 21.1295 20.3818 20.8072C21.4561 20.5924 22.6377 20.6998 23.6045 21.3443L25.1084 22.2037ZM26.3975 22.9557L56.9053 40.4654L57.5498 39.1764L27.1494 21.6666L26.3975 22.9557ZM21.4561 22.3111C21.2412 22.3111 21.0264 22.3111 20.8115 22.4186C20.0596 22.526 19.5225 22.9557 19.2002 23.6002C18.4482 24.8893 18.8779 26.5006 20.167 27.2526L53.3604 46.4811C53.1455 45.5143 53.3604 44.5475 53.8975 43.6881C54.3271 42.8287 55.0791 42.1842 56.0459 41.8619L22.8525 22.6334C22.3154 22.4186 21.8857 22.3111 21.4561 22.3111ZM56.1533 48.0924C56.7979 48.5221 57.5498 48.5221 58.1943 48.4147C58.9463 48.1998 59.4834 47.7701 59.8057 47.1256C60.2354 46.4811 60.3428 45.7291 60.1279 45.0846C59.9131 44.4401 59.4834 43.7955 58.8389 43.4733C58.1943 43.151 57.5498 43.0436 56.7979 43.151C56.1533 43.3658 55.6162 43.7955 55.1865 44.4401C54.8643 45.0846 54.7568 45.8365 54.9717 46.4811C55.0791 47.1256 55.5088 47.7701 56.1533 48.0924Z" fill="white"/>
</g>
<line x1="65.71" y1="9.83662" x2="9.71004" y2="65.8366" stroke="#005FB7" stroke-width="2"/>
<defs>
<clipPath id="clip0_2345_22792">
<rect width="55" height="55" fill="white" transform="translate(12.0029 13.0729)"/>
</clipPath>
</defs>
</svg>
