<svg width="80" height="80" viewBox="0 0 80 80" fill="none" xmlns="http://www.w3.org/2000/svg">
<rect x="79" y="79" width="78" height="78" rx="39" transform="rotate(180 79 79)" fill="#001D41" stroke="#005FB7" stroke-width="2"/>
<g clip-path="url(#clip0_2257_38294)">
<path d="M62.5625 38.0631C60.225 38.0631 16.5211 38.0631 14.4375 38.0631C12.7789 38.0631 11.4297 39.4123 11.4297 41.0709V46.6569C11.4297 48.3155 12.7789 49.6647 14.4375 49.6647H62.5625C64.2211 49.6647 65.5703 48.3155 65.5703 46.6569V41.0709C65.5703 39.4123 64.2211 38.0631 62.5625 38.0631ZM21.957 47.9459H14.4375C13.7266 47.9459 13.1484 47.3678 13.1484 46.6569V41.0709C13.1484 40.36 13.7266 39.7819 14.4375 39.7819H21.957V47.9459ZM56.6027 47.9459H23.6758V39.7819H56.6027V47.9459ZM63.8516 46.6569C63.8516 47.3678 63.2734 47.9459 62.5625 47.9459H58.3215V39.7819H62.5625C63.2734 39.7819 63.8516 40.36 63.8516 41.0709V46.6569Z" fill="white"/>
<path d="M62.5618 26.2102H60.7715C60.0606 26.2102 59.4824 25.6321 59.4824 24.9211V20.1946C59.4824 19.72 59.0976 19.3352 58.623 19.3352C58.1485 19.3352 57.7637 19.72 57.7637 20.1946V24.9211C57.7637 26.5797 59.1129 27.929 60.7715 27.929H62.5618C63.2727 27.929 63.8508 28.5071 63.8508 29.218V34.7681C63.8508 35.2427 64.2356 35.6275 64.7102 35.6275C65.1848 35.6275 65.5696 35.2427 65.5696 34.7681V29.218C65.5696 27.5594 64.2204 26.2102 62.5618 26.2102Z" fill="white"/>
<path d="M54.7654 31.28H55.9468C56.2547 31.28 56.5052 31.5306 56.5052 31.8384V34.7682C56.5052 35.2428 56.89 35.6276 57.3646 35.6276C57.8392 35.6276 58.224 35.2428 58.224 34.7682V31.8384C58.224 30.5829 57.2026 29.5613 55.9468 29.5613H54.7654C54.4575 29.5613 54.207 29.3108 54.207 29.0031V25.884C54.207 25.4094 53.8222 25.0247 53.3477 25.0247C52.8731 25.0247 52.4883 25.4094 52.4883 25.884V29.0029C52.4883 30.2585 53.5099 31.28 54.7654 31.28Z" fill="white"/>
</g>
<line x1="68.7071" y1="12.7071" x2="12.7071" y2="68.7071" stroke="#005FB7" stroke-width="2"/>
<defs>
<clipPath id="clip0_2257_38294">
<rect width="55" height="31" fill="white" transform="translate(11 19)"/>
</clipPath>
</defs>
</svg>
