<svg width="80" height="80" viewBox="0 0 80 80" fill="none" xmlns="http://www.w3.org/2000/svg">
<rect x="79" y="79" width="78" height="78" rx="39" transform="rotate(180 79 79)" fill="#001D41" stroke="#005FB7" stroke-width="2"/>
<path d="M59.5013 37.8649H55.7319C54.7108 37.8649 53.8804 38.6955 53.8804 39.7164V40.584C50.1046 39.4336 46.0009 39.7445 42.4577 41.4873L33.4993 45.8705L18.2692 37.6074C16.4667 36.5748 14.1571 37.2 13.1212 39.0008C12.1757 40.6453 12.6737 42.6289 14.3891 44.0592C14.9429 44.5672 29.81 58.1922 29.878 58.243C31.5675 59.5318 33.8817 59.8518 35.9157 59.0828L48.3669 54.3822C50.1749 53.7758 52.1138 53.8422 53.8804 54.5598V55.2272C53.8804 56.2484 54.711 57.0789 55.7319 57.0789H59.5013C60.5223 57.0789 61.3528 56.2483 61.3528 55.2272V39.7164C61.353 38.6955 60.5223 37.8649 59.5013 37.8649ZM53.8804 52.8959C51.9241 52.2449 49.8239 52.2412 47.8542 52.9063C47.8454 52.9094 47.8368 52.9123 47.828 52.9156L35.3636 57.6215C33.8399 58.1971 32.1171 57.968 30.8511 57.0201C30.4059 56.6141 15.4016 42.8691 15.4016 42.8691C12.6081 40.5557 15.347 37.7357 17.5087 38.9723L31.7766 46.7135C28.2589 48.4338 29.5192 53.5086 33.2577 53.5086C34.3583 53.5086 33.7009 53.6891 46.5106 47.4231C46.8981 47.2334 47.0587 46.7656 46.869 46.3779C46.6796 45.9906 46.2116 45.8295 45.8239 46.0195L34.1489 51.7305C33.6733 51.9705 33.1331 52.0106 32.6284 51.8436C30.9483 51.2893 30.7751 48.9658 32.3454 48.1746L43.1458 42.8902C46.4774 41.2518 50.3593 41.0193 53.8804 42.2248V52.8959ZM59.7905 55.2272C59.7905 55.3865 59.6608 55.5164 59.5014 55.5164H55.7321C55.5727 55.5164 55.443 55.3865 55.443 55.2272V39.7164C55.443 39.557 55.5727 39.4274 55.7321 39.4274H59.5014C59.6608 39.4274 59.7905 39.557 59.7905 39.7164V55.2272Z" fill="white"/>
<path d="M30.8326 39.5366C32.6674 41.3717 35.6305 41.3596 37.4533 39.5366C39.2795 37.7104 39.2801 34.7399 37.4547 32.9147C33.2547 28.7147 34.8068 30.2668 30.6115 26.0711C27.6436 23.1043 22.616 25.2561 22.6172 29.3827C22.6176 30.6334 23.1049 31.8092 23.9893 32.6934C28.1859 36.8901 26.6342 35.3383 30.8326 39.5366ZM36.35 34.0194C37.5662 35.2356 37.5656 37.2149 36.3486 38.4319C35.2961 39.484 33.9465 39.3452 34.1418 39.3452C33.2971 39.3452 32.5203 39.0149 31.9373 38.4319L29.0676 35.5621L33.4801 31.1496L36.35 34.0194ZM29.5068 27.176L32.3752 30.0448L27.9627 34.4571L25.0941 31.5887C24.5047 30.9993 24.1801 30.2159 24.1797 29.3823C24.1791 26.6231 27.5354 25.2051 29.5068 27.176Z" fill="white"/>
<path d="M46.1701 31.3385C50.3664 27.1418 48.8148 28.6936 53.0133 24.4953C54.8418 22.6672 54.8463 19.7076 53.0133 17.8746C51.1871 16.0484 48.2164 16.0477 46.3912 17.8732L42.9691 21.2953L39.548 24.7164C38.6648 25.5994 38.1773 26.7754 38.1758 28.0281C38.1756 32.1607 43.2135 34.2955 46.1701 31.3385ZM47.4959 18.9777C49.4639 17.0098 52.8256 18.4309 52.8217 21.1857C52.8229 22.0174 52.4984 22.8004 51.9084 23.3904L49.0385 26.2602L44.6262 21.8477L47.4959 18.9777ZM40.6527 25.8211L43.5215 22.9525L47.934 27.365L45.0654 30.2338C43.1004 32.1982 39.7383 30.7908 39.7383 28.0291C39.7393 27.1939 40.0641 26.4098 40.6527 25.8211Z" fill="white"/>
<line x1="68.7071" y1="12.7071" x2="12.7071" y2="68.7071" stroke="#005FB7" stroke-width="2"/>
</svg>
