<svg width="60" height="61" viewBox="0 0 60 61" fill="none" xmlns="http://www.w3.org/2000/svg">
<g clip-path="url(#clip0_1373_39254)">
<path d="M46.5861 59.9179H13.4795C10.5328 59.9179 8.13281 57.5179 8.13281 54.5713V12.6913C8.13281 9.7446 10.5328 7.3446 13.4795 7.3446H16.6528C17.0261 7.3446 17.3195 7.63794 17.3195 8.01127C17.3195 8.3846 17.0261 8.67794 16.6528 8.67794H13.4795C11.2661 8.67794 9.46615 10.4779 9.46615 12.6913V54.5846C9.46615 56.7979 11.2661 58.5979 13.4795 58.5979H46.5861C48.7995 58.5979 50.5995 56.7979 50.5995 54.5846V12.6913C50.5995 10.4779 48.7995 8.67794 46.5861 8.67794H43.4261C43.0528 8.67794 42.7595 8.3846 42.7595 8.01127C42.7595 7.63794 43.0528 7.3446 43.4261 7.3446H46.5861C49.5328 7.3446 51.9328 9.7446 51.9328 12.6913V54.5846C51.9328 57.5313 49.5328 59.9179 46.5861 59.9179Z" fill="#002756"/>
<path d="M43.4299 11.878H16.6432C16.2699 11.878 15.9766 11.5846 15.9766 11.2113V5.38462C15.9766 5.01129 16.2699 4.71795 16.6432 4.71795H20.6566V1.65129C20.6566 1.27795 20.9499 0.984619 21.3232 0.984619H38.7499C39.1232 0.984619 39.4166 1.27795 39.4166 1.65129V4.70462H43.4299C43.8032 4.70462 44.0966 4.99795 44.0966 5.37129V11.198C44.0966 11.5713 43.7899 11.878 43.4299 11.878ZM17.3099 10.5446H42.7499V6.05129H38.7366C38.3632 6.05129 38.0699 5.75795 38.0699 5.38462V2.31795H21.9899V5.37129C21.9899 5.74462 21.6966 6.03795 21.3232 6.03795H17.3099V10.5446Z" fill="#002756"/>
<path d="M44.8657 19.5579H24.7057C24.3324 19.5579 24.0391 19.2646 24.0391 18.8913C24.0391 18.5179 24.3324 18.2246 24.7057 18.2246H44.8657C45.2391 18.2246 45.5324 18.5179 45.5324 18.8913C45.5324 19.2646 45.2391 19.5579 44.8657 19.5579Z" fill="#002756"/>
<path d="M16.7345 21.2913C16.5745 21.2913 16.4278 21.2379 16.2945 21.1313L14.7612 19.8113C14.4812 19.5713 14.4545 19.1446 14.6945 18.8646C14.9345 18.5846 15.3612 18.5579 15.6412 18.7979L16.7478 19.7446L20.3212 16.6513C20.6012 16.4113 21.0145 16.4379 21.2678 16.7179C21.5078 16.9979 21.4812 17.4113 21.2012 17.6646L17.1878 21.1313C17.0545 21.2379 16.8945 21.2913 16.7345 21.2913Z" fill="#005FB7"/>
<path d="M44.8657 27.7446H24.7057C24.3324 27.7446 24.0391 27.4513 24.0391 27.0779C24.0391 26.7046 24.3324 26.4113 24.7057 26.4113H44.8657C45.2391 26.4113 45.5324 26.7046 45.5324 27.0779C45.5324 27.4513 45.2391 27.7446 44.8657 27.7446Z" fill="#002756"/>
<path d="M16.7345 29.4779C16.5745 29.4779 16.4278 29.4246 16.2945 29.3179L14.7612 27.9979C14.4812 27.7579 14.4545 27.3313 14.6945 27.0513C14.9345 26.7713 15.3612 26.7446 15.6412 26.9846L16.7478 27.9313L20.3212 24.8379C20.6012 24.5979 21.0145 24.6246 21.2678 24.9046C21.5078 25.1846 21.4812 25.5979 21.2012 25.8513L17.1878 29.3179C17.0545 29.4246 16.8945 29.4779 16.7345 29.4779Z" fill="#005FB7"/>
<path d="M44.8657 35.9312H24.7057C24.3324 35.9312 24.0391 35.6379 24.0391 35.2646C24.0391 34.8912 24.3324 34.5979 24.7057 34.5979H44.8657C45.2391 34.5979 45.5324 34.8912 45.5324 35.2646C45.5324 35.6379 45.2391 35.9312 44.8657 35.9312Z" fill="#002756"/>
<path d="M16.7345 37.6646C16.5745 37.6646 16.4278 37.6112 16.2945 37.5046L14.7612 36.1846C14.4812 35.9446 14.4545 35.5179 14.6945 35.2379C14.9345 34.9579 15.3612 34.9312 15.6412 35.1712L16.7478 36.1179L20.3212 33.0246C20.6012 32.7846 21.0145 32.8112 21.2678 33.0912C21.5078 33.3712 21.4812 33.7846 21.2012 34.0379L17.1878 37.5046C17.0545 37.6112 16.8945 37.6646 16.7345 37.6646Z" fill="#005FB7"/>
<path d="M44.8657 44.118H24.7057C24.3324 44.118 24.0391 43.8247 24.0391 43.4513C24.0391 43.078 24.3324 42.7847 24.7057 42.7847H44.8657C45.2391 42.7847 45.5324 43.078 45.5324 43.4513C45.5324 43.8247 45.2391 44.118 44.8657 44.118Z" fill="#002756"/>
<path d="M16.7345 45.8513C16.5745 45.8513 16.4278 45.798 16.2945 45.6913L14.7612 44.3713C14.4812 44.1313 14.4545 43.7047 14.6945 43.4247C14.9345 43.1447 15.3612 43.118 15.6412 43.358L16.7478 44.3047L20.3212 41.2113C20.6012 40.9713 21.0145 40.998 21.2678 41.278C21.5078 41.558 21.4812 41.9713 21.2012 42.2247L17.1878 45.6913C17.0545 45.798 16.8945 45.8513 16.7345 45.8513Z" fill="#005FB7"/>
<path d="M44.8657 52.3046H24.7057C24.3324 52.3046 24.0391 52.0113 24.0391 51.638C24.0391 51.2646 24.3324 50.9713 24.7057 50.9713H44.8657C45.2391 50.9713 45.5324 51.2646 45.5324 51.638C45.5324 52.0113 45.2391 52.3046 44.8657 52.3046Z" fill="#002756"/>
<path d="M16.7345 54.038C16.5745 54.038 16.4278 53.9846 16.2945 53.878L14.7612 52.558C14.4812 52.318 14.4545 51.8913 14.6945 51.6113C14.9345 51.3313 15.3612 51.3046 15.6412 51.5446L16.7478 52.4913L20.3212 49.398C20.6012 49.158 21.0145 49.1846 21.2678 49.4646C21.5078 49.7446 21.4812 50.158 21.2012 50.4113L17.1878 53.878C17.0545 53.9846 16.8945 54.038 16.7345 54.038Z" fill="#005FB7"/>
<path d="M35.6268 5.15795H24.4401C24.0668 5.15795 23.7734 4.86462 23.7734 4.49129V1.65129C23.7734 1.27795 24.0668 0.984619 24.4401 0.984619C24.8134 0.984619 25.1068 1.27795 25.1068 1.65129V3.82462H34.9601V1.65129C34.9601 1.27795 35.2534 0.984619 35.6268 0.984619C36.0001 0.984619 36.2934 1.27795 36.2934 1.65129V4.49129C36.2934 4.86462 36.0001 5.15795 35.6268 5.15795Z" fill="#002756"/>
</g>
<defs>
<clipPath id="clip0_1373_39254">
<rect width="60" height="60" fill="white" transform="translate(0 0.35791)"/>
</clipPath>
</defs>
</svg>
