<svg width="60" height="61" viewBox="0 0 60 61" fill="none" xmlns="http://www.w3.org/2000/svg">
<g clip-path="url(#clip0_2445_4013)">
<path fill-rule="evenodd" clip-rule="evenodd" d="M51.9141 46.8677C51.4453 46.8677 50.9766 46.3989 50.9766 45.9302V36.6724H9.02344V45.9302C9.02344 46.3989 8.55469 46.8677 8.08594 46.8677C7.61719 46.8677 7.26562 46.3989 7.26562 45.9302V35.8521C7.26562 35.3833 7.61719 35.0317 8.08594 35.0317H51.7969C52.3828 35.0317 52.7344 35.3833 52.7344 35.8521V46.0474C52.7344 46.3989 52.3828 46.8677 51.9141 46.8677Z" fill="#002756"/>
<path fill-rule="evenodd" clip-rule="evenodd" d="M30 46.8677C29.5312 46.8677 29.1797 46.3989 29.1797 45.9302V35.8521C29.1797 35.3833 29.5312 35.0317 30 35.0317C30.4688 35.0317 30.9375 35.3833 30.9375 35.8521V46.0474C30.8203 46.3989 30.4688 46.8677 30 46.8677Z" fill="#002756"/>
<path fill-rule="evenodd" clip-rule="evenodd" d="M8.20312 60.9302C3.75 60.9302 0.234375 57.4146 0.234375 53.0786C0.234375 48.6255 3.75 45.1099 8.20312 45.1099C12.5391 45.1099 16.0547 48.6255 16.0547 53.0786C16.0547 57.4146 12.5391 60.9302 8.20312 60.9302ZM8.20312 46.8677C4.6875 46.8677 1.875 49.563 1.875 53.0786C1.875 56.4771 4.6875 59.1724 8.20312 59.1724C11.6016 59.1724 14.2969 56.4771 14.2969 53.0786C14.2969 49.563 11.6016 46.8677 8.20312 46.8677Z" fill="#002756"/>
<path fill-rule="evenodd" clip-rule="evenodd" d="M30 60.9302C25.6641 60.9302 22.1484 57.2974 22.1484 52.9614C22.1484 48.6255 25.6641 45.1099 30 45.1099C34.3359 45.1099 37.9688 48.6255 37.9688 52.9614C37.9688 57.4146 34.3359 60.9302 30 60.9302ZM30 46.8677C26.6016 46.8677 23.9062 49.563 23.9062 52.9614C23.9062 56.3599 26.6016 59.1724 30 59.1724C33.3984 59.1724 36.2109 56.3599 36.2109 52.9614C36.2109 49.563 33.3984 46.8677 30 46.8677Z" fill="#002756"/>
<path fill-rule="evenodd" clip-rule="evenodd" d="M51.9141 60.9302C47.5781 60.9302 43.9453 57.4146 43.9453 53.0786C43.9453 48.6255 47.5781 45.1099 51.9141 45.1099C56.25 45.1099 59.7656 48.6255 59.7656 53.0786C59.7656 57.4146 56.25 60.9302 51.9141 60.9302ZM51.9141 46.8677C48.5156 46.8677 45.7031 49.563 45.7031 53.0786C45.7031 56.4771 48.5156 59.1724 51.9141 59.1724C55.3125 59.1724 58.125 56.4771 58.125 53.0786C58.125 49.563 55.3125 46.8677 51.9141 46.8677Z" fill="#002756"/>
<path fill-rule="evenodd" clip-rule="evenodd" d="M31.9922 32.688H28.125C27.1875 32.688 26.6016 31.9849 26.6016 31.1646V28.1177C25.8984 27.8833 25.1953 27.6489 24.4922 27.2974L22.2656 29.4067V29.5239C21.6797 29.9927 20.8594 29.9927 20.2734 29.5239L20.1562 29.4067L17.3437 26.5942C16.7578 26.0083 16.7578 25.0708 17.3437 24.4849L19.5703 22.3755C19.1016 21.6724 18.8672 20.9692 18.6328 20.2661H15.5859C14.7656 20.2661 14.0625 19.563 14.0625 18.7427V14.7583C14.0625 13.938 14.7656 13.2349 15.5859 13.2349H18.6328C18.8672 12.5317 19.1016 11.8286 19.5703 11.1255L17.3437 9.01611C17.1094 8.66455 16.9922 8.31299 16.9922 7.96143C16.9922 7.49268 17.1094 7.14111 17.3437 6.90674L20.1562 4.09424C20.7422 3.5083 21.6797 3.5083 22.2656 4.09424L24.375 6.3208C25.0781 5.96924 25.7812 5.61768 26.4844 5.3833V2.33643C26.4844 1.51611 27.1875 0.930176 28.0078 0.930176H31.875C32.8125 0.930176 33.3984 1.6333 33.3984 2.33643V5.3833C34.1016 5.61768 34.8047 5.96924 35.5078 6.3208L37.6172 4.09424H37.7344C38.3203 3.5083 39.1406 3.5083 39.7266 4.09424L42.5391 6.90674C42.7734 7.14111 43.0078 7.49268 43.0078 7.96143C43.0078 8.31299 42.7734 8.66455 42.5391 9.01611L40.4297 11.1255C40.8984 11.8286 41.1328 12.6489 41.3672 13.3521H44.4141C45.2344 13.3521 45.9375 14.0552 45.9375 14.7583V18.7427C45.9375 19.563 45.2344 20.2661 44.4141 20.2661H41.3672C41.1328 20.9692 40.8984 21.6724 40.4297 22.3755L42.6562 24.6021C43.2422 25.188 43.2422 26.1255 42.6562 26.7114L39.8437 29.5239H39.7266C39.1406 29.9927 38.3203 29.9927 37.7344 29.5239L35.5078 27.2974C34.8047 27.6489 34.2187 28.0005 33.3984 28.2349V31.1646C33.5156 31.9849 32.8125 32.688 31.9922 32.688ZM28.2422 30.9302H31.7578V27.5317C31.7578 27.063 31.9922 26.7114 32.4609 26.7114C33.5156 26.3599 34.4531 26.0083 35.2734 25.4224C35.625 25.188 36.0937 25.3052 36.3281 25.5396L38.7891 28.1177L41.25 25.5396L38.7891 23.0786C38.5547 22.8442 38.4375 22.3755 38.6719 22.0239C39.2578 21.0864 39.7266 20.1489 39.8437 19.2114C39.9609 18.7427 40.3125 18.5083 40.6641 18.5083H44.1797V14.9927H40.6641C40.3125 14.9927 39.9609 14.6411 39.8437 14.2896C39.7266 13.3521 39.2578 12.2974 38.6719 11.4771C38.5547 11.1255 38.5547 10.6567 38.7891 10.4224L41.25 7.96143L38.7891 5.50049L36.3281 7.96143C36.0937 8.1958 35.7422 8.1958 35.3906 8.07861C34.3359 7.49268 33.3984 7.02393 32.4609 6.78955C31.9922 6.78955 31.7578 6.43799 31.7578 5.96924V2.5708H28.2422V6.08643C28.2422 6.43799 28.0078 6.78955 27.6562 6.90674C26.6016 7.14111 25.6641 7.49268 24.7266 8.07861C24.375 8.31299 23.9062 8.1958 23.6719 7.96143L21.2109 5.50049L18.75 7.96143L21.2109 10.4224C21.5625 10.7739 21.5625 11.1255 21.3281 11.4771C20.7422 12.4146 20.3906 13.3521 20.1562 14.4067C20.0391 14.7583 19.6875 14.9927 19.3359 14.9927H15.8203V18.5083H19.3359C19.6875 18.5083 20.0391 18.7427 20.1562 19.2114C20.3906 20.1489 20.7422 21.0864 21.3281 22.0239C21.5625 22.3755 21.4453 22.8442 21.2109 23.0786L18.75 25.5396L21.2109 28.1177L23.6719 25.5396C24.0234 25.3052 24.375 25.188 24.7266 25.4224C25.6641 26.0083 26.6016 26.3599 27.6562 26.7114C28.0078 26.7114 28.2422 27.063 28.2422 27.5317V30.9302Z" fill="#005FB7"/>
<path fill-rule="evenodd" clip-rule="evenodd" d="M30 23.6646C26.25 23.6646 23.2031 20.5005 23.2031 16.7505C23.2031 13.0005 26.25 9.95361 30 9.95361C33.8672 9.95361 36.9141 13.0005 36.9141 16.7505C36.9141 20.5005 33.75 23.6646 30 23.6646ZM30 11.7114C27.1875 11.7114 24.8438 13.938 24.8438 16.7505C24.8438 19.6802 27.1875 21.9067 30 21.9067C32.8125 21.9067 35.1562 19.6802 35.1562 16.7505C35.1562 13.938 32.8125 11.7114 30 11.7114Z" fill="#005FB7"/>
</g>
<defs>
<clipPath id="clip0_2445_4013">
<rect width="60" height="60" fill="white" transform="translate(0 0.930176)"/>
</clipPath>
</defs>
</svg>
