<svg width="20" height="20" viewBox="0 0 20 20" fill="none" xmlns="http://www.w3.org/2000/svg">
<path d="M9.09091 0.909091C9.09091 0.407014 9.49792 0 10 0C10.5021 0 10.9091 0.407014 10.9091 0.909091V19.0909C10.9091 19.593 10.5021 20 10 20C9.49792 20 9.09091 19.593 9.09091 19.0909V0.909091Z" fill="white"/>
<path d="M19.0909 9.09094C19.593 9.09094 20 9.49796 20 10C20 10.5021 19.593 10.9091 19.0909 10.9091H0.909091C0.407014 10.9091 5.98721e-09 10.5021 0 10C-5.98721e-09 9.49796 0.407014 9.09094 0.909091 9.09094H19.0909Z" fill="white"/>
</svg>
