<svg width="120" height="121" viewBox="0 0 120 121" fill="none" xmlns="http://www.w3.org/2000/svg">
<circle cx="60" cy="60.7916" r="40.5" stroke="#005FB7"/>
<circle cx="59.5" cy="61.2916" r="54" stroke="#005FB7" stroke-opacity="0.2"/>
<g filter="url(#filter0_d_2418_31734)">
<circle cx="60" cy="60.7916" r="25" fill="white"/>
</g>
<path d="M60.0909 51.7007C60.0909 51.1986 60.4979 50.7916 61 50.7916C61.5021 50.7916 61.9091 51.1986 61.9091 51.7007V69.8825C61.9091 70.3846 61.5021 70.7916 61 70.7916C60.4979 70.7916 60.0909 70.3846 60.0909 69.8825V51.7007Z" fill="#005FB7"/>
<path d="M70.0909 59.8826C70.593 59.8826 71 60.2896 71 60.7917C71 61.2937 70.593 61.7008 70.0909 61.7008H51.9091C51.407 61.7008 51 61.2937 51 60.7917C51 60.2896 51.407 59.8826 51.9091 59.8826H70.0909Z" fill="#005FB7"/>
<defs>
<filter id="filter0_d_2418_31734" x="0" y="0.791626" width="120" height="120" filterUnits="userSpaceOnUse" color-interpolation-filters="sRGB">
<feFlood flood-opacity="0" result="BackgroundImageFix"/>
<feColorMatrix in="SourceAlpha" type="matrix" values="0 0 0 0 0 0 0 0 0 0 0 0 0 0 0 0 0 0 127 0" result="hardAlpha"/>
<feMorphology radius="5" operator="dilate" in="SourceAlpha" result="effect1_dropShadow_2418_31734"/>
<feOffset/>
<feGaussianBlur stdDeviation="15"/>
<feComposite in2="hardAlpha" operator="out"/>
<feColorMatrix type="matrix" values="0 0 0 0 0 0 0 0 0 0.393318 0 0 0 0 0.570833 0 0 0 1 0"/>
<feBlend mode="normal" in2="BackgroundImageFix" result="effect1_dropShadow_2418_31734"/>
<feBlend mode="normal" in="SourceGraphic" in2="effect1_dropShadow_2418_31734" result="shape"/>
</filter>
</defs>
</svg>
