<svg width="103" height="103" viewBox="0 0 103 103" fill="none" xmlns="http://www.w3.org/2000/svg">
<circle cx="51.4902" cy="51.9414" r="51" fill="white"/>
<g clip-path="url(#clip0_2356_38451)">
<path d="M77.3958 57.0156C75.5003 57.0156 74.4745 57.6719 73.6498 58.1997C72.9072 58.6771 72.3184 59.0536 71.0342 59.0536C69.752 59.0536 69.1634 58.6771 68.4208 58.2007C67.596 57.6729 66.5703 57.0156 64.6727 57.0156C62.7773 57.0156 61.7536 57.6729 60.9307 58.2007C60.2207 58.6562 59.6365 59.011 58.4689 59.042V43.0392H77.3958C77.9764 43.0392 78.4461 42.5681 78.4461 41.9857C78.4461 41.4034 77.9764 40.9323 77.3958 40.9323H68.5313V39.1158C68.5313 37.5007 67.9015 35.9669 66.7444 34.7807C65.5792 33.6367 64.0488 33.0061 62.4384 33.0061C59.0903 33.0061 56.3682 35.7467 56.3682 39.1158V40.9325H54.3516V39.1158C54.3516 37.5007 53.7218 35.9669 52.5729 34.7889C51.4282 33.6398 49.8958 33.0061 48.2587 33.0061C44.9106 33.0061 42.1886 35.7467 42.1886 39.1158V40.9325H26.5852C26.0046 40.9325 25.5349 41.4036 25.5349 41.9859C25.5349 42.5683 26.0046 43.0394 26.5852 43.0394H42.1886V57.7136C41.4878 57.3407 40.604 57.0158 39.2837 57.0158C37.3883 57.0158 36.3646 57.6732 35.5417 58.2009C34.7992 58.6773 34.2145 59.0538 32.9344 59.0538C31.6542 59.0538 31.0675 58.6771 30.3249 58.2007C29.5022 57.6729 28.4786 57.0156 26.585 57.0156C26.0044 57.0156 25.5347 57.4867 25.5347 58.069C25.5347 58.6514 26.0044 59.1225 26.585 59.1225C27.8652 59.1225 28.4498 59.499 29.1924 59.9753C30.015 60.5031 31.0387 61.1604 32.9344 61.1604C34.8279 61.1604 35.8516 60.5031 36.6742 59.9753C37.4168 59.499 38.0035 59.1225 39.2837 59.1225C40.5597 59.1225 41.1464 59.499 41.8871 59.9743C42.7076 60.5031 43.7313 61.1604 45.6249 61.1604C47.5184 61.1604 48.5421 60.5031 49.3647 59.9753C50.1073 59.499 50.692 59.1225 51.9721 59.1225C53.2523 59.1225 53.839 59.499 54.5816 59.9753C55.4042 60.5031 56.4279 61.1604 58.3215 61.1604C60.2169 61.1604 61.2406 60.5031 62.0634 59.9753C62.806 59.499 63.3928 59.1225 64.6729 59.1225C65.9571 59.1225 66.5459 59.499 67.2885 59.9764C68.1132 60.5041 69.139 61.1604 71.0344 61.1604C72.932 61.1604 73.9578 60.5031 74.7825 59.9753C75.5251 59.499 76.1139 59.1225 77.396 59.1225C77.9766 59.1225 78.4463 58.6514 78.4463 58.069C78.4463 57.4867 77.9762 57.0156 77.3958 57.0156ZM44.2892 48.3737C48.198 48.3588 52.3402 48.3571 56.3682 48.3569V52.8225C52.3391 52.8228 48.1965 52.8247 44.2892 52.8402V48.3737ZM58.4689 39.1158C58.4689 36.908 60.2497 35.113 62.4384 35.113C63.4969 35.113 64.5042 35.5297 65.2592 36.2703C66.0142 37.0439 66.4306 38.0552 66.4306 39.1158V40.9325H58.4689V39.1158ZM44.2892 39.1158C44.2892 36.908 46.07 35.113 48.2587 35.113C49.3336 35.113 50.3388 35.5265 51.0795 36.2703C51.8345 37.0439 52.2509 38.0552 52.2509 39.1158V40.9325H44.2892V39.1158ZM56.3682 43.0394V46.2502C52.3391 46.2504 48.1965 46.2521 44.2892 46.2671V43.0394H56.3682ZM51.9719 57.0156C50.0783 57.0156 49.0547 57.6729 48.232 58.2007C47.4894 58.6771 46.9048 59.0536 45.6247 59.0536C45.0671 59.0536 44.6537 58.9725 44.2892 58.8522V54.9473C48.198 54.9317 52.3402 54.9296 56.3682 54.9296V58.5901C56.1502 58.4725 55.937 58.3442 55.7139 58.2009C54.8912 57.6732 53.8676 57.0156 51.9719 57.0156Z" fill="#002756"/>
<path d="M77.3958 66.7322C75.5003 66.7322 74.4745 67.3885 73.6498 67.9162C72.9072 68.3936 72.3184 68.7701 71.0342 68.7701C69.752 68.7701 69.1634 68.3936 68.4208 67.9173C67.596 67.3895 66.5703 66.7322 64.6727 66.7322C62.7773 66.7322 61.7536 67.3895 60.9307 67.9173C60.1881 68.3936 59.6014 68.7701 58.3213 68.7701C57.0411 68.7701 56.4565 68.3936 55.7139 67.9173C54.8912 67.3895 53.8676 66.7322 51.9719 66.7322C50.0783 66.7322 49.0547 67.3895 48.232 67.9173C47.4894 68.3936 46.9048 68.7701 45.6247 68.7701C44.3466 68.7701 43.7599 68.3936 43.0194 67.9173C42.1988 67.3895 41.1752 66.7322 39.2837 66.7322C37.3883 66.7322 36.3646 67.3895 35.5417 67.9173C34.7992 68.3936 34.2145 68.7701 32.9344 68.7701C31.6542 68.7701 31.0675 68.3934 30.3249 67.9173C29.5022 67.3895 28.4786 66.7322 26.585 66.7322C26.0044 66.7322 25.5347 67.2033 25.5347 67.7856C25.5347 68.3679 26.0044 68.839 26.585 68.839C27.8652 68.839 28.4498 69.2155 29.1924 69.6919C30.015 70.2197 31.0387 70.877 32.9344 70.877C34.8279 70.877 35.8516 70.2197 36.6742 69.6919C37.4168 69.2155 38.0035 68.839 39.2837 68.839C40.5597 68.839 41.1464 69.2155 41.8871 69.6908C42.7076 70.2197 43.7313 70.877 45.6249 70.877C47.5184 70.877 48.5421 70.2197 49.3647 69.6919C50.1073 69.2155 50.692 68.839 51.9721 68.839C53.2523 68.839 53.839 69.2155 54.5816 69.6919C55.4042 70.2197 56.4279 70.877 58.3215 70.877C60.2169 70.877 61.2406 70.2197 62.0634 69.6919C62.806 69.2155 63.3928 68.839 64.6729 68.839C65.9571 68.839 66.5459 69.2155 67.2885 69.6929C68.1132 70.2207 69.139 70.877 71.0344 70.877C72.932 70.877 73.9578 70.2197 74.7825 69.6919C75.5251 69.2155 76.1139 68.839 77.396 68.839C77.9766 68.839 78.4463 68.3679 78.4463 67.7856C78.4463 67.2033 77.9762 66.7322 77.3958 66.7322Z" fill="#005FB7"/>
</g>
<defs>
<clipPath id="clip0_2356_38451">
<rect width="55" height="38" fill="white" transform="translate(24.4902 32.9414)"/>
</clipPath>
</defs>
</svg>
