<svg width="60" height="60" viewBox="0 0 60 60" fill="none" xmlns="http://www.w3.org/2000/svg">
<g clip-path="url(#clip0_378_2029)">
<path d="M58.8281 23.6724H54.5096C53.9182 21.3762 53.0109 19.1881 51.8037 17.1465L54.8593 14.0905C55.079 13.8707 55.2026 13.5727 55.2026 13.2619C55.2026 12.9511 55.079 12.6531 54.8593 12.4333L47.5671 5.14117C47.1098 4.68387 46.3678 4.68387 45.91 5.14117L42.854 8.1972C40.8124 6.98962 38.6243 6.08188 36.3281 5.49091V1.17236C36.3281 0.525085 35.8035 0.000488281 35.1562 0.000488281H24.8438C24.1965 0.000488281 23.6719 0.525085 23.6719 1.17236V5.48312C21.3721 6.07227 19.1798 6.97864 17.1346 8.18576L14.09 5.14117C13.6327 4.68387 12.8906 4.68387 12.4329 5.14117L5.14069 12.4333C4.92096 12.6531 4.79736 12.9511 4.79736 13.2619C4.79736 13.5727 4.92096 13.8707 5.14069 14.0905L8.17795 17.1277C6.96487 19.1753 6.05347 21.3698 5.46066 23.6724H1.17188C0.524597 23.6724 0 24.197 0 24.8442V35.1567C0 35.804 0.524597 36.3286 1.17188 36.3286H5.45288C6.04385 38.6353 6.95389 40.8335 8.1665 42.8842L5.14069 45.9105C4.92096 46.1302 4.79736 46.4283 4.79736 46.7391C4.79736 47.0499 4.92096 47.3479 5.14069 47.5676L12.4329 54.8598C12.8902 55.3171 13.6322 55.3171 14.09 54.8598L17.1162 51.834C19.167 53.0466 21.3652 53.9566 23.6719 54.5476V58.8286C23.6719 59.4759 24.1965 60.0005 24.8438 60.0005H35.1562C35.8035 60.0005 36.3281 59.4759 36.3281 58.8286V54.5398C38.6307 53.947 40.8252 53.0356 42.8728 51.8225L45.91 54.8598C46.3678 55.3171 47.1098 55.3171 47.5671 54.8598L54.8593 47.5676C55.079 47.3479 55.2026 47.0499 55.2026 46.7391C55.2026 46.4283 55.079 46.1302 54.8593 45.9105L51.8147 42.8659C53.0223 40.8202 53.9282 38.6289 54.5174 36.3286H58.8281C59.4754 36.3286 60 35.804 60 35.1567V24.8442C60 24.197 59.4754 23.6724 58.8281 23.6724ZM57.6562 33.9849H53.5904C53.0388 33.9849 52.5618 34.3694 52.4451 34.9086C51.866 37.5811 50.8228 40.1042 49.3451 42.4073C49.048 42.871 49.1135 43.4793 49.503 43.8689L52.3732 46.7391L46.7386 52.3737L43.8744 49.5099C43.4843 49.1199 42.8751 49.0544 42.4113 49.3534C40.1065 50.8374 37.5815 51.8857 34.9068 52.4694C34.3684 52.5865 33.9844 53.0631 33.9844 53.6142V57.6567H26.0156V53.6206C26.0156 53.069 25.6311 52.5925 25.0923 52.4753C22.413 51.8944 19.8843 50.848 17.5763 49.3643C17.1126 49.0663 16.5038 49.1318 16.1137 49.5214L13.2614 52.3741L7.6268 46.7391L10.4791 43.8867C10.8687 43.4972 10.9341 42.8884 10.6361 42.4247C9.15298 40.1166 8.10608 37.5875 7.52518 34.9086C7.40845 34.3694 6.93146 33.9849 6.37985 33.9849H2.34375V26.0161H6.38626C6.93741 26.0161 7.41394 25.6325 7.53113 25.0942C8.11478 22.419 9.16306 19.894 10.6476 17.5891C10.946 17.1254 10.881 16.5161 10.491 16.1261L7.6268 13.2619L13.2614 7.62729L16.1316 10.4975C16.5211 10.887 17.1295 10.9529 17.5932 10.6554C19.8962 9.17819 22.4194 8.13495 25.0923 7.55542C25.6311 7.43869 26.0156 6.9617 26.0156 6.4101V2.34424H33.9844V6.4165C33.9844 6.96765 34.3684 7.44418 34.9068 7.56183C37.5755 8.14365 40.0946 9.18826 42.3944 10.6664C42.8581 10.9648 43.4669 10.8989 43.8565 10.5094L46.739 7.62729L52.3737 13.2619L49.4916 16.144C49.1016 16.534 49.0361 17.1424 49.3341 17.6065C50.8122 19.9059 51.8568 22.4254 52.4391 25.0942C52.5563 25.6325 53.0333 26.0161 53.584 26.0161H57.6562V33.9849Z" fill="#005FB7"/>
<path d="M29.9854 10.8696C19.4284 10.8696 10.8398 19.4582 10.8398 30.0156C10.8398 40.5725 19.4289 49.1611 29.9854 49.1611C40.5423 49.1611 49.1313 40.5725 49.1313 30.0156C49.1313 19.4582 40.5428 10.8696 29.9854 10.8696ZM28.83 13.2541V16.8599C28.83 17.537 29.1742 18.1536 29.7505 18.5097C30.3218 18.8626 31.0199 18.8942 31.6182 18.5953C31.8883 18.4598 32.1803 18.3911 32.4861 18.3911H32.6152C33.6873 18.3911 34.5593 19.2632 34.5593 20.3353C34.5593 21.4073 33.6873 22.2794 32.6152 22.2794H32.4861C32.1803 22.2794 31.8883 22.2112 31.6182 22.0757C31.0199 21.7763 30.3218 21.8079 29.7505 22.1608C29.1737 22.517 28.8295 23.134 28.8295 23.8106V28.8286H24.3512C24.5325 28.3475 24.6268 27.8344 24.6268 27.3157V27.1866C24.6268 24.8223 22.7032 22.8987 20.3389 22.8987C17.9745 22.8987 16.051 24.8223 16.051 27.1866V27.3157C16.051 27.8344 16.1449 28.3475 16.3261 28.8286H13.2262C13.8103 20.4978 20.4945 13.8231 28.83 13.2541ZM13.2243 31.1724H16.9707C17.661 31.1724 18.3051 30.8002 18.6507 30.201C18.9981 29.5995 18.999 28.8835 18.6534 28.2848C18.484 27.9923 18.3948 27.6572 18.3948 27.3157V27.1862C18.3948 26.1145 19.2668 25.242 20.3389 25.242C21.4105 25.242 22.283 26.1145 22.283 27.1862V27.3157C22.283 27.6567 22.1938 27.9918 22.0244 28.2848C21.6788 28.8831 21.6797 29.5995 22.0267 30.201C22.3727 30.8002 23.0164 31.1724 23.7071 31.1724H28.8158V36.1716C28.8158 36.8482 29.16 37.4648 29.7363 37.8214C30.3076 38.1739 31.0057 38.2059 31.604 37.9065C31.8745 37.7715 32.1666 37.7028 32.4719 37.7028H32.6015C33.6736 37.7028 34.5456 38.5749 34.5456 39.6469C34.5456 40.719 33.6736 41.5911 32.6015 41.5911H32.4719C32.1666 41.5911 31.8745 41.5224 31.6045 41.3874C31.0062 41.0875 30.3081 41.1196 29.7368 41.4725C29.16 41.8286 28.8158 42.4453 28.8158 43.1223V46.7762C20.4771 46.1998 13.7943 39.5128 13.2243 31.1724ZM31.1595 46.7757V43.7302C31.5807 43.8661 32.0201 43.9348 32.4724 43.9348H32.6015C34.9658 43.9348 36.8893 42.0113 36.8893 39.6469C36.8893 37.2826 34.9658 35.3591 32.6015 35.3591H32.4724C32.0201 35.3591 31.5811 35.4273 31.1595 35.5632V31.1586H38.9804C39.6277 31.1586 40.1523 30.6336 40.1523 29.9868C40.1523 29.3395 39.6277 28.8149 38.9804 28.8149H31.1737V24.4176C31.5962 24.5526 32.0407 24.6231 32.4861 24.6231H32.6152C34.9796 24.6231 36.9031 22.6996 36.9031 20.3353C36.9031 17.9709 34.9796 16.0474 32.6152 16.0474H32.4861C32.0338 16.0474 31.5948 16.1156 31.1737 16.2516V13.256C39.8859 13.8675 46.7876 21.1501 46.7876 30.0151C46.7876 38.8852 39.8785 46.1705 31.1595 46.7757Z" fill="white"/>
</g>
<defs>
<clipPath id="clip0_378_2029">
<rect width="60" height="60" fill="white" transform="translate(0 0.000488281)"/>
</clipPath>
</defs>
</svg>
