<svg width="60" height="61" viewBox="0 0 60 61" fill="none" xmlns="http://www.w3.org/2000/svg">
<g clip-path="url(#clip0_2445_3994)">
<path d="M1.47159 38.183C1.80037 38.4114 2.14757 38.6121 2.50959 38.783C2.94159 39.004 3.66659 39.374 3.71759 39.633C3.78044 39.9749 3.73934 40.3277 3.59959 40.646C3.45059 40.966 3.29459 41.241 3.15959 41.478C2.79359 42.125 2.18059 43.209 3.10459 43.964C3.32059 44.164 3.69359 44.453 4.03359 44.714C3.7833 45.1516 3.67008 45.6543 3.70859 46.157C3.76165 46.5529 3.97634 46.9091 4.30159 47.141C4.52359 47.297 4.76059 47.433 4.99359 47.566C5.58559 47.902 5.81659 48.059 5.89359 48.373C5.94915 48.7755 5.915 49.1853 5.79359 49.573C5.73459 49.84 5.67759 50.108 5.64359 50.373C5.54429 51.2843 5.65688 52.2063 5.97259 53.067C6.42241 54.6558 7.85955 55.7627 9.51059 55.792C9.78618 55.7912 10.061 55.762 10.3306 55.705C13.1874 55.0278 16.0024 54.1854 18.7616 53.182C21.0146 54.504 22.4376 58.524 22.8086 60.033C22.9194 60.4791 23.32 60.7922 23.7796 60.792L48.8796 60.722C49.1977 60.7214 49.4965 60.5695 49.6845 60.3128C49.8724 60.0562 49.927 59.7254 49.8316 59.422C49.5844 58.7444 49.2434 58.1049 48.8186 57.522C48.5788 57.1763 48.3626 56.8148 48.1716 56.44C47.7187 55.5235 47.3411 54.5717 47.0426 53.594C46.4715 51.6622 46.0756 49.6828 45.8596 47.68C45.5986 45.3637 45.8199 43.0185 46.5096 40.792H48.9996C50.6564 40.792 51.9996 39.4488 51.9996 37.792V24.792C51.9996 24.2397 51.5519 23.792 50.9996 23.792H46.9636C46.9871 23.6264 46.9991 23.4593 46.9996 23.292C46.9996 21.359 45.4326 19.792 43.4996 19.792C41.5666 19.792 39.9996 21.359 39.9996 23.292C40.0001 23.4593 40.0121 23.6264 40.0356 23.792H36.9996V20.757C37.5521 20.8357 38.1155 20.7826 38.6436 20.602C39.7852 20.2132 40.6434 19.26 40.9106 18.084C41.1723 16.9578 40.8609 15.775 40.0785 14.9236C39.2962 14.0723 38.1439 13.6622 36.9996 13.828V9.79199C36.9996 9.23971 36.5519 8.79199 35.9996 8.79199H22.9996C21.3427 8.79199 19.9996 10.1351 19.9996 11.792V37.792C19.9996 39.4488 21.3427 40.792 22.9996 40.792H44.4096C43.7802 43.1132 43.5993 45.5331 43.8766 47.922C44.1073 50.0455 44.5283 52.1439 45.1346 54.192C45.4636 55.2669 45.8786 56.3136 46.3756 57.322C46.6037 57.7749 46.8627 58.2116 47.1506 58.629L47.2176 58.729L24.5356 58.792C23.8718 56.4198 22.6669 54.2339 21.0156 52.406L21.9156 52.091C22.5856 51.857 23.0906 51.681 23.3496 51.598C27.6336 50.243 29.7756 48.292 29.7176 45.798C29.7046 45.2457 29.2464 44.8085 28.6941 44.8215C28.1418 44.8345 27.7046 45.2927 27.7176 45.845C27.7416 46.874 26.8986 48.375 22.7416 49.69C22.4706 49.777 21.9486 49.959 21.2556 50.201C20.5126 50.461 19.5676 50.791 18.5256 51.145H18.5186C15.7044 52.1766 12.8329 53.0447 9.91859 53.745C8.98803 53.9217 8.08342 53.334 7.86659 52.412C7.65296 51.8431 7.57256 51.2328 7.63159 50.628C7.65759 50.418 7.70559 50.21 7.75159 50.001C7.95536 49.3096 7.98524 48.5787 7.83859 47.873C7.54774 46.9544 6.8718 46.2076 5.98659 45.827L5.77959 45.709C5.88757 45.491 6.01651 45.284 6.16459 45.091C6.33235 44.8784 6.40673 44.6069 6.37074 44.3385C6.33474 44.0701 6.19144 43.8278 5.97359 43.667C5.73359 43.491 5.16759 43.067 4.75359 42.733C4.80159 42.646 4.85359 42.55 4.90359 42.463C5.06059 42.188 5.23959 41.868 5.41459 41.498C5.73104 40.797 5.82425 40.0157 5.68159 39.26C5.44159 38.04 4.27259 37.442 3.42059 37.006C3.13289 36.8693 2.85696 36.7091 2.59559 36.527C2.38296 36.3833 2.18351 36.221 1.99959 36.042C1.99959 35.89 2.16259 35.522 2.92459 34.595C4.71566 32.2892 6.25131 29.796 7.50459 27.159C7.73893 26.7458 7.87095 26.2826 7.88959 25.808C7.7863 24.8028 7.25364 23.8914 6.42859 23.308C6.02859 22.937 5.64359 22.587 5.59859 22.261C5.60523 22.025 5.65823 21.7926 5.75459 21.577C5.91759 21.148 6.10559 20.728 6.29459 20.307C6.70464 19.4615 7.03216 18.5784 7.27259 17.67L7.37259 17.244C7.58368 16.2443 7.85585 15.2584 8.18759 14.292C8.97589 12.1162 10.1964 10.1226 11.7756 8.43099C13.6886 6.40699 16.6996 4.97499 20.7396 4.17199C23.8288 3.49368 26.9635 3.04214 30.1186 2.82099C34.6751 2.59338 39.1859 3.82012 42.9996 6.32399V7.29199C42.9996 7.67076 43.2136 8.01703 43.5524 8.18642C43.8912 8.35581 44.2966 8.31926 44.5996 8.09199C45.2531 7.63095 46.1506 7.74601 46.6666 8.35699C46.9572 8.72033 47.0639 9.19749 46.9556 9.64999C46.8382 10.1424 46.4778 10.5409 45.9996 10.707C45.5244 10.8744 44.997 10.7937 44.5936 10.492C44.2906 10.2683 43.8876 10.2338 43.551 10.4027C43.2144 10.5716 43.0013 10.9154 42.9996 11.292V15.792C42.9996 16.8966 43.895 17.792 44.9996 17.792H49.4996C49.8784 17.792 50.2246 17.578 50.394 17.2392C50.5634 16.9004 50.5269 16.495 50.2996 16.192C49.8355 15.5732 49.918 14.7029 50.4903 14.1824C51.0625 13.6619 51.9367 13.6619 52.5089 14.1824C53.0811 14.7029 53.1637 15.5732 52.6996 16.192C52.4723 16.495 52.4358 16.9004 52.6052 17.2392C52.7746 17.578 53.1208 17.792 53.4996 17.792H58.9996C59.5519 17.792 59.9996 17.3443 59.9996 16.792V3.79199C59.9996 2.13514 58.6564 0.791992 56.9996 0.791992H43.9996C43.4473 0.791992 42.9996 1.23971 42.9996 1.79199V3.92899C39.0595 1.67061 34.5532 0.592466 30.0176 0.822992C26.7637 1.04868 23.5307 1.51259 20.3446 2.21099C15.8356 3.11099 12.5586 4.69199 10.3216 7.05599C8.557 8.94416 7.19264 11.1698 6.31059 13.599C5.95046 14.6443 5.65458 15.7106 5.42459 16.792L5.32459 17.214C5.11116 17.9983 4.82492 18.7609 4.46959 19.492C4.26959 19.948 4.06159 20.404 3.88259 20.876C3.65244 21.4014 3.56151 21.9772 3.61859 22.548C3.8198 23.4442 4.33702 24.2379 5.07559 24.784C5.56459 25.232 5.88559 25.548 5.88959 25.823C5.85381 25.975 5.79657 26.1211 5.71959 26.257C4.52207 28.7782 3.05519 31.1624 1.34459 33.368C0.619591 34.25 -0.140409 35.279 0.0195912 36.309C0.23171 37.1036 0.755145 37.7792 1.47159 38.183ZM21.9996 11.792C21.9996 11.2397 22.4473 10.792 22.9996 10.792H34.9996V15.292C34.9996 15.6708 35.2136 16.017 35.5524 16.1864C35.8912 16.3558 36.2966 16.3193 36.5996 16.092C37.2531 15.6309 38.1506 15.746 38.6666 16.357C38.9572 16.7203 39.0639 17.1975 38.9556 17.65C38.8382 18.1424 38.4778 18.5409 37.9996 18.707C37.5229 18.8743 36.994 18.7921 36.5906 18.488C36.2871 18.2656 35.8844 18.2324 35.5486 18.4021C35.2127 18.5719 35.0006 18.9157 34.9996 19.292V23.792H31.9656C32.043 23.24 31.9896 22.6775 31.8096 22.15C31.4217 21.0076 30.4688 20.1483 29.2926 19.88C28.2522 19.638 27.1581 19.8843 26.3219 20.549C25.4856 21.2136 24.9987 22.2238 24.9996 23.292C25.0001 23.4593 25.0121 23.6264 25.0356 23.792H21.9996V11.792ZM21.9996 37.792V25.792H26.4996C26.8784 25.792 27.2246 25.578 27.394 25.2392C27.5634 24.9004 27.5269 24.495 27.2996 24.192C26.8161 23.5439 26.9333 22.6292 27.5646 22.124C27.9284 21.8335 28.4059 21.7272 28.8586 21.836C29.3512 21.9527 29.7497 22.3134 29.9146 22.792C30.0831 23.2684 30.0004 23.7977 29.6946 24.2C29.4715 24.5037 29.4381 24.907 29.6081 25.2432C29.7782 25.5795 30.1228 25.7916 30.4996 25.792H34.9996V28.828C33.6428 28.6319 32.2964 29.2459 31.555 30.399C30.8135 31.5521 30.8135 33.0319 31.555 34.185C32.2964 35.3381 33.6428 35.9521 34.9996 35.756V38.792H22.9996C22.4473 38.792 21.9996 38.3443 21.9996 37.792ZM36.4446 33.392C36.104 33.2249 35.6984 33.2635 35.3956 33.492C34.7768 33.9561 33.9065 33.8735 33.386 33.3013C32.8655 32.7291 32.8655 31.8549 33.386 31.2827C33.9065 30.7104 34.7768 30.6279 35.3956 31.092C35.6986 31.3193 36.104 31.3558 36.4428 31.1864C36.7816 31.017 36.9956 30.6708 36.9956 30.292V25.792H41.4956C41.8744 25.792 42.2206 25.578 42.39 25.2392C42.5594 24.9004 42.5229 24.495 42.2956 24.192C41.8315 23.5732 41.914 22.7029 42.4863 22.1824C43.0585 21.6619 43.9327 21.6619 44.5049 22.1824C45.0771 22.7029 45.1597 23.5732 44.6956 24.192C44.4683 24.495 44.4318 24.9004 44.6012 25.2392C44.7706 25.578 45.1168 25.792 45.4956 25.792H49.9996V37.792C49.9996 38.3443 49.5519 38.792 48.9996 38.792H36.9996V34.292C37.0013 33.9107 36.786 33.5617 36.4446 33.392ZM44.9996 2.79199H56.9996C57.5519 2.79199 57.9996 3.23971 57.9996 3.79199V15.792H54.9636C54.9871 15.6264 54.9991 15.4593 54.9996 15.292C54.9996 13.359 53.4326 11.792 51.4996 11.792C49.5666 11.792 47.9996 13.359 47.9996 15.292C48.0001 15.4593 48.0121 15.6264 48.0356 15.792H44.9996V12.757C45.5521 12.8357 46.1155 12.7826 46.6436 12.602C47.7852 12.2132 48.6434 11.26 48.9106 10.084C49.1723 8.95777 48.8609 7.77497 48.0785 6.92361C47.2962 6.07226 46.1439 5.66221 44.9996 5.82799V2.79199Z" fill="#002756"/>
</g>
<defs>
<clipPath id="clip0_2445_3994">
<rect width="60" height="60" fill="white" transform="translate(0 0.791992)"/>
</clipPath>
</defs>
</svg>
