<svg width="36" height="60" viewBox="0 0 36 60" fill="none" xmlns="http://www.w3.org/2000/svg">
<g clip-path="url(#clip0_378_2015)">
<path d="M35.9 16.0874C35.0577 8.19071 29.1399 1.77914 21.3359 0.30806C13.5318 -1.16302 5.6859 2.65404 2.02646 9.70211C-1.63298 16.7502 -0.24109 25.3636 5.45199 30.9004C8.15057 33.5939 9.75401 37.1927 9.95199 41.0004C8.62274 41.0139 7.4619 41.903 7.10265 43.1829C6.74339 44.4627 7.27193 45.8261 8.39999 46.5294C7.59438 47.9134 8.03785 49.6873 9.39999 50.5294C9.14082 50.9765 9.00293 51.4836 8.99999 52.0004C8.99999 53.6572 10.3431 55.0004 12 55.0004H12.09C12.5753 57.8861 15.0737 59.9994 18 59.9994C20.9263 59.9994 23.4247 57.8861 23.91 55.0004H24C25.6568 55.0004 27 53.6572 27 52.0004C26.997 51.4836 26.8592 50.9765 26.6 50.5294C27.9621 49.6873 28.4056 47.9134 27.6 46.5294C28.7229 45.8245 29.2478 44.4646 28.8896 43.1881C28.5314 41.9116 27.3757 41.0232 26.05 41.0054C26.2706 37.1738 27.8934 33.5574 30.609 30.8454C34.539 26.9955 36.4887 21.5573 35.9 16.0874ZM26 48.0004C26 48.5527 25.5523 49.0004 25 49.0004H11C10.4477 49.0004 9.99999 48.5527 9.99999 48.0004C9.99999 47.4481 10.4477 47.0004 11 47.0004H25C25.5523 47.0004 26 47.4481 26 48.0004ZM18 58.0004C16.1816 57.9936 14.5966 56.7611 14.142 55.0004H21.858C21.4034 56.7611 19.8184 57.9936 18 58.0004ZM24 53.0004H12C11.4477 53.0004 11 52.5527 11 52.0004C11 51.4481 11.4477 51.0004 12 51.0004H24C24.5523 51.0004 25 51.4481 25 52.0004C25 52.5527 24.5523 53.0004 24 53.0004ZM27 44.0004C27 44.5527 26.5523 45.0004 26 45.0004H9.99999C9.4477 45.0004 8.99999 44.5527 8.99999 44.0004C8.99999 43.4481 9.4477 43.0004 9.99999 43.0004H26C26.5523 43.0004 27 43.4481 27 44.0004ZM24.028 41.0004H11.973C11.7641 36.6521 9.93552 32.5393 6.84699 29.4714C3.73546 26.4681 1.98475 22.3248 1.99999 18.0004C1.99934 10.7401 6.88728 4.38939 13.9059 2.53161C20.9245 0.673834 28.3142 3.7747 31.9055 10.0846C35.4968 16.3945 34.3893 24.3315 29.208 29.4174C26.106 32.5033 24.2601 36.631 24.028 41.0004Z" fill="#005FB7"/>
<path d="M27 11.0005H25C23.8954 11.0005 23 11.8959 23 13.0005V18.0005C22.997 20.3756 21.3264 22.4221 19 22.9005V13.0005H20C20.5523 13.0005 21 12.5528 21 12.0005C21 11.4482 20.5523 11.0005 20 11.0005H16C15.4477 11.0005 15 11.4482 15 12.0005C15 12.5528 15.4477 13.0005 16 13.0005H17V22.9005C14.6736 22.4221 13.003 20.3756 13 18.0005V13.0005C13 11.8959 12.1046 11.0005 11 11.0005H9C8.44772 11.0005 8 11.4482 8 12.0005C8 12.5528 8.44772 13.0005 9 13.0005H11V18.0005C11.0066 21.4761 13.5604 24.4214 17 24.9205V32.0005H16C15.4477 32.0005 15 32.4482 15 33.0005C15 33.5528 15.4477 34.0005 16 34.0005H20C20.5523 34.0005 21 33.5528 21 33.0005C21 32.4482 20.5523 32.0005 20 32.0005H19V24.9205C22.4396 24.4214 24.9934 21.4761 25 18.0005V13.0005H27C27.5523 13.0005 28 12.5528 28 12.0005C28 11.4482 27.5523 11.0005 27 11.0005Z" fill="white"/>
</g>
<defs>
<clipPath id="clip0_378_2015">
<rect width="36" height="60" fill="white" transform="translate(0 0.000488281)"/>
</clipPath>
</defs>
</svg>
