<svg width="64" height="64" viewBox="0 0 64 64" fill="none" xmlns="http://www.w3.org/2000/svg">
<path d="M31.9999 62.0805C30.1999 62.0805 28.8289 60.5615 27.6149 59.2205C26.9916 58.3742 26.1817 57.683 25.2479 57.2005C24.1532 57.139 23.0593 57.3349 22.0539 57.7725C20.2829 58.3355 18.4539 58.9195 16.9539 58.0555C15.4339 57.1755 15.0239 55.2805 14.6289 53.4475C14.509 52.3779 14.142 51.3509 13.5569 50.4475C12.6539 49.8617 11.6267 49.4947 10.5569 49.3755C8.72392 48.9755 6.82892 48.5755 5.94892 47.0505C5.08292 45.5505 5.66792 43.7225 6.23192 41.9505C6.66937 40.9438 6.86394 39.8483 6.79992 38.7525C6.31745 37.8188 5.62622 37.0088 4.77992 36.3855C3.43892 35.1715 1.91992 33.8005 1.91992 32.0005C1.91992 30.2005 3.43892 28.8295 4.77992 27.6155C5.62622 26.9923 6.31745 26.1823 6.79992 25.2485C6.86205 24.1538 6.66612 23.0597 6.22792 22.0545C5.66392 20.2845 5.07892 18.4545 5.94492 16.9545C6.82492 15.4345 8.71992 15.0245 10.5529 14.6295C11.6225 14.5096 12.6496 14.1426 13.5529 13.5575C14.1387 12.6545 14.5058 11.6273 14.6249 10.5575C15.0249 8.72453 15.4249 6.82953 16.9499 5.94953C18.4499 5.08353 20.2779 5.66753 22.0499 6.23253C23.0549 6.67138 24.1491 6.86734 25.2439 6.80453C26.1796 6.32142 26.991 5.62876 27.6149 4.78053C28.8289 3.43953 30.1999 1.92053 31.9999 1.92053C33.7999 1.92053 35.1709 3.43953 36.3849 4.78053C37.0082 5.62683 37.8182 6.31806 38.7519 6.80053C39.8467 6.86304 40.9409 6.66709 41.9459 6.22853C43.7159 5.66453 45.5459 5.07953 47.0459 5.94653C48.5649 6.82553 48.9749 8.72153 49.3699 10.5545C49.4897 11.6242 49.8567 12.6513 50.4419 13.5545C51.3451 14.1401 52.3722 14.5071 53.4419 14.6265C55.2749 15.0265 57.1709 15.4265 58.0499 16.9515C58.9159 18.4515 58.3319 20.2785 57.7669 22.0515C57.3284 23.0566 57.1321 24.1507 57.1939 25.2455C57.677 26.18 58.3693 26.9904 59.2169 27.6135C60.5609 28.8295 62.0799 30.2005 62.0799 32.0005C62.0799 33.8005 60.5609 35.1715 59.2199 36.3855C58.3737 37.0089 57.6825 37.8189 57.1999 38.7525C57.1374 39.8494 57.3337 40.9455 57.7729 41.9525C58.3379 43.7225 58.9219 45.5525 58.0559 47.0525C57.1769 48.5725 55.2809 48.9825 53.4479 49.3775C52.3783 49.4974 51.3513 49.8644 50.4479 50.4495C49.8623 51.3527 49.495 52.3798 49.3749 53.4495C48.9749 55.2825 48.5749 57.1765 47.0519 58.0555C45.5519 58.9215 43.7229 58.3385 41.9519 57.7735C40.9473 57.3359 39.854 57.1399 38.7599 57.2015C37.8255 57.6842 37.0151 58.3762 36.3919 59.2235C35.1709 60.5615 33.7999 62.0805 31.9999 62.0805ZM24.7709 54.9805C25.1197 54.9776 25.4674 55.0206 25.8049 55.1085C27.1656 55.6629 28.3462 56.5833 29.2159 57.7675C30.1729 58.8245 31.1629 59.9175 31.9999 59.9175C32.8369 59.9175 33.8269 58.8245 34.7839 57.7685C35.6533 56.5837 36.834 55.663 38.1949 55.1085C39.5669 54.7415 41.1109 55.2335 42.6029 55.7085C43.8619 56.1085 45.2909 56.5695 45.9629 56.1805C46.6539 55.7805 46.9749 54.2965 47.2569 52.9875C47.5849 51.4705 47.9239 49.9015 48.9139 48.9115C50.093 47.9933 51.5036 47.4201 52.9889 47.2555C54.2989 46.9725 55.7829 46.6555 56.1889 45.9555C56.5749 45.2855 56.1189 43.8555 55.7169 42.5965C55.1131 41.2103 54.9054 39.6837 55.1169 38.1865C55.672 36.8262 56.5927 35.646 57.7769 34.7765C58.8329 33.8195 59.9259 32.8295 59.9259 31.9925C59.9259 31.1555 58.8329 30.1655 57.7769 29.2085C56.5924 28.3389 55.6717 27.1583 55.1169 25.7975C54.9055 24.3007 55.1132 22.7745 55.7169 21.3885C56.1169 20.1285 56.5749 18.6995 56.1889 18.0295C55.7889 17.3385 54.3039 17.0175 52.9939 16.7355C51.4779 16.4075 49.9089 16.0695 48.9189 15.0785C47.9289 14.0875 47.5909 12.5205 47.2629 11.0035C46.9809 9.69453 46.6629 8.21053 45.9629 7.80953C45.2969 7.42453 43.8629 7.87853 42.6029 8.28153C41.1109 8.75753 39.5689 9.25053 38.1939 8.88153C36.8335 8.32674 35.6532 7.40605 34.7839 6.22153C33.8269 5.17353 32.8369 4.08053 31.9999 4.08053C31.1629 4.08053 30.1729 5.17353 29.2159 6.23053C28.3462 7.41479 27.1656 8.33513 25.8049 8.88953C24.4319 9.25853 22.8889 8.76453 21.3969 8.28953C20.1359 7.88953 18.7059 7.43153 18.0379 7.81853C17.3459 8.21853 17.0249 9.70253 16.7379 11.0125C16.4099 12.5285 16.0719 14.0975 15.0809 15.0875C13.902 16.0059 12.4913 16.5792 11.0059 16.7435C9.69692 17.0265 8.21192 17.3435 7.81192 18.0385C7.42492 18.7085 7.88092 20.1385 8.28392 21.3985C8.75892 22.8895 9.25192 24.4315 8.88392 25.8065C8.33074 27.1662 7.4122 28.3464 6.22992 29.2165C5.17292 30.1735 4.07992 31.1635 4.07992 32.0005C4.07992 32.8375 5.17292 33.8275 6.22992 34.7845C7.41491 35.6556 8.33531 36.838 8.88892 38.2005C9.25692 39.5755 8.76392 41.1175 8.28892 42.6085C7.88892 43.8695 7.42992 45.2985 7.81792 45.9675C8.21792 46.6595 9.70192 46.9805 11.0119 47.2625C12.5279 47.5905 14.0969 47.9285 15.0869 48.9195C16.0053 50.0985 16.5786 51.5091 16.7429 52.9945C17.0259 54.3035 17.3429 55.7885 18.0379 56.1885C18.7089 56.5765 20.1379 56.1195 21.3979 55.7165C22.4795 55.3057 23.6164 55.0587 24.7709 54.9835V54.9805Z" fill="#005FB7"/>
<path d="M32.0003 52.9726C27.8525 52.9726 23.7977 51.7426 20.3489 49.4382C16.9001 47.1337 14.212 43.8583 12.6247 40.0262C11.0374 36.1941 10.6221 31.9773 11.4313 27.9091C12.2405 23.841 14.2379 20.1041 17.1709 17.1711C20.1039 14.2381 23.8407 12.2408 27.9089 11.4315C31.9771 10.6223 36.1938 11.0377 40.026 12.625C43.8581 14.2123 47.1335 16.9003 49.4379 20.3492C51.7423 23.798 52.9723 27.8527 52.9723 32.0006C52.9649 37.5604 50.753 42.8904 46.8216 46.8218C42.8902 50.7532 37.5602 52.9652 32.0003 52.9726ZM32.0003 12.9726C28.2369 12.9726 24.5581 14.0885 21.4289 16.1794C18.2998 18.2702 15.8609 21.242 14.4208 24.7189C12.9806 28.1958 12.6037 32.0217 13.3379 35.7128C14.0721 39.4038 15.8844 42.7943 18.5455 45.4554C21.2066 48.1165 24.5971 49.9288 28.2882 50.663C31.9792 51.3972 35.8051 51.0203 39.282 49.5802C42.7589 48.14 45.7307 45.7011 47.8215 42.572C49.9124 39.4428 51.0283 35.764 51.0283 32.0006C51.0225 26.9558 49.0159 22.1194 45.4487 18.5522C41.8815 14.985 37.0451 12.9784 32.0003 12.9726Z" fill="#005FB7"/>
<path d="M46 28.0005C45.9976 27.2056 45.6808 26.4439 45.1187 25.8818C44.5566 25.3197 43.7949 25.0029 43 25.0005H38V20.0005C37.9976 19.2056 37.6808 18.4439 37.1187 17.8818C36.5566 17.3197 35.7949 17.0029 35 17.0005H33C32.7348 17.0005 32.4804 17.1058 32.2929 17.2934C32.1054 17.4809 32 17.7353 32 18.0005V21.0005C31.9978 22.1555 31.5964 23.2743 30.8638 24.1673C30.1311 25.0603 29.1124 25.6726 27.98 25.9005C27.9579 25.6555 27.8452 25.4275 27.664 25.261C27.4828 25.0946 27.246 25.0017 27 25.0005H19C18.7348 25.0005 18.4804 25.1058 18.2929 25.2934C18.1054 25.4809 18 25.7353 18 26.0005V42.0005C18 42.2657 18.1054 42.5201 18.2929 42.7076C18.4804 42.8951 18.7348 43.0005 19 43.0005H27C27.2652 43.0005 27.5196 42.8951 27.7071 42.7076C27.8946 42.5201 28 42.2657 28 42.0005V41.8605L28.96 42.5005C29.4513 42.8285 30.0293 43.0026 30.62 43.0005H41C41.7949 42.9981 42.5566 42.6813 43.1187 42.1192C43.6808 41.5571 43.9976 40.7954 44 40.0005C43.998 39.4839 43.8601 38.9769 43.6 38.5305C43.9703 38.2996 44.2852 37.99 44.5224 37.6236C44.7596 37.2573 44.9133 36.8433 44.9725 36.4109C45.0316 35.9785 44.9949 35.5384 44.8649 35.1218C44.7348 34.7053 44.5147 34.3224 44.22 34.0005C44.7199 33.4542 44.9981 32.741 45 32.0005C44.998 31.4839 44.8601 30.9769 44.6 30.5305C45.0287 30.2621 45.3821 29.889 45.627 29.4465C45.8719 29.0039 46.0003 28.5063 46 28.0005ZM26 41.0005H20V27.0005H26V41.0005ZM43 29.0005H40C39.7348 29.0005 39.4804 29.1058 39.2929 29.2934C39.1054 29.4809 39 29.7353 39 30.0005C39 30.2657 39.1054 30.5201 39.2929 30.7076C39.4804 30.8951 39.7348 31.0005 40 31.0005H42C42.2652 31.0005 42.5196 31.1058 42.7071 31.2934C42.8946 31.4809 43 31.7353 43 32.0005C43 32.2657 42.8946 32.5201 42.7071 32.7076C42.5196 32.8951 42.2652 33.0005 42 33.0005H40C39.7348 33.0005 39.4804 33.1058 39.2929 33.2934C39.1054 33.4809 39 33.7353 39 34.0005C39 34.2657 39.1054 34.5201 39.2929 34.7076C39.4804 34.8951 39.7348 35.0005 40 35.0005H42C42.2652 35.0005 42.5196 35.1058 42.7071 35.2934C42.8946 35.4809 43 35.7353 43 36.0005C43 36.2657 42.8946 36.5201 42.7071 36.7076C42.5196 36.8951 42.2652 37.0005 42 37.0005H40C39.7348 37.0005 39.4804 37.1058 39.2929 37.2934C39.1054 37.4809 39 37.7353 39 38.0005C39 38.2657 39.1054 38.5201 39.2929 38.7076C39.4804 38.8951 39.7348 39.0005 40 39.0005H41C41.2652 39.0005 41.5196 39.1058 41.7071 39.2934C41.8946 39.4809 42 39.7353 42 40.0005C42 40.2657 41.8946 40.5201 41.7071 40.7076C41.5196 40.8951 41.2652 41.0005 41 41.0005H30.62C30.4237 41.001 30.2318 40.9417 30.07 40.8305L28 39.4605V27.9305C29.6652 27.6874 31.1874 26.8537 32.2889 25.5814C33.3904 24.3092 33.9977 22.6833 34 21.0005V19.0005H35C35.2652 19.0005 35.5196 19.1058 35.7071 19.2934C35.8946 19.4809 36 19.7353 36 20.0005V26.0005C36 26.2657 36.1054 26.5201 36.2929 26.7076C36.4804 26.8951 36.7348 27.0005 37 27.0005H43C43.2652 27.0005 43.5196 27.1058 43.7071 27.2934C43.8946 27.4809 44 27.7353 44 28.0005C44 28.2657 43.8946 28.5201 43.7071 28.7076C43.5196 28.8951 43.2652 29.0005 43 29.0005Z" fill="white"/>
</svg>
