<svg width="28" height="23" viewBox="0 0 28 23" fill="none" xmlns="http://www.w3.org/2000/svg">
<g clip-path="url(#clip0_484_4122)">
<path d="M17.713 1.15576H27.7565V8.26809C27.7565 11.1612 27.5131 13.4215 26.9957 15.1092C26.4478 16.827 25.4739 18.364 24.1348 19.5996C22.613 21.016 20.8174 22.0708 18.8391 22.7338L16.8609 18.6051C18.8696 17.9421 20.3 17.038 21.1826 15.8325C22.0652 14.6571 22.5217 13.0599 22.5522 11.101H17.6826L17.713 1.15576ZM0.913047 1.15576H10.987V8.26809C10.987 11.1914 10.7435 13.4517 10.2261 15.1092C9.67827 16.827 8.70435 18.364 7.36522 19.5695C5.84348 20.9558 4.04783 22.0407 2.06957 22.7037L0.0913086 18.5749C2.1 17.9119 3.53044 16.9777 4.41305 15.8023C5.29566 14.627 5.75218 13.0599 5.78261 11.0708H0.913047V1.15576Z" fill="#005FB7"/>
</g>
<defs>
<clipPath id="clip0_484_4122">
<rect width="28" height="22" fill="white" transform="translate(0 0.944824)"/>
</clipPath>
</defs>
</svg>
