<svg width="90" height="91" viewBox="0 0 90 91" fill="none" xmlns="http://www.w3.org/2000/svg">
<rect x="90" y="90.9429" width="90" height="90.9431" rx="45" transform="rotate(180 90 90.9429)" fill="#001D41"/>
<path d="M18.5833 35.4504L21.7499 45.4709L30.9166 40.5027L27.3333 39.0712C31.2499 29.4717 41.9999 24.9246 51.3333 28.7981C58.0833 31.5769 62.3333 37.8923 62.7499 44.7972L68.0833 41.9342C66.7499 33.9347 61.4166 26.7772 53.4166 23.4931C41.0833 18.4408 27.0833 24.5036 22.0833 36.9661L18.5833 35.4504Z" fill="#005FB7"/>
<path d="M20.75 50.1023C22.0833 58.1019 27.4167 65.2594 35.4167 68.5434C47.75 73.5957 61.75 67.5329 66.75 55.0704L70.3333 56.5019L67.1667 46.4814L58 51.4496L61.5833 52.8811C57.75 62.4806 47 67.0277 37.5833 63.1542C30.8333 60.3754 26.5833 54.06 26.1667 47.1551L20.75 50.1023Z" fill="#005FB7"/>
<path d="M68.9999 41.6817C67.4999 33.0927 61.8333 25.9352 53.8333 22.7353C50.8333 21.4723 47.6666 20.8828 44.4999 20.8828C34.5833 20.8828 25.7499 26.693 21.7499 35.8715L18.9166 34.6926C18.6666 34.6084 18.3333 34.6084 18.0833 34.861C17.8333 35.0294 17.7499 35.3662 17.8333 35.703L20.9999 45.7235C21.0833 45.9762 21.2499 46.1446 21.4999 46.2288C21.6666 46.313 21.9166 46.313 22.1666 46.2288L31.3333 41.2606C31.5833 41.0922 31.7499 40.8396 31.7499 40.5028C31.7499 40.166 31.5833 39.9133 31.2499 39.8291L28.4166 38.6503C31.2499 32.3348 37.4999 28.2929 44.4166 28.2929C46.6666 28.2929 48.9166 28.714 50.9999 29.556C57.2499 32.0822 61.4999 38.0608 61.9166 44.8815C61.9166 45.1341 62.0833 45.3867 62.3333 45.5551C62.5833 45.7235 62.8333 45.7235 63.0833 45.5551L68.4166 42.6921C68.8333 42.3553 68.9999 42.0185 68.9999 41.6817ZM63.4999 43.45C62.5833 36.6293 58.0833 30.6507 51.6666 27.9561C49.3333 27.114 46.9166 26.6088 44.4999 26.6088C36.6666 26.6088 29.6666 31.3243 26.7499 38.7345C26.6666 38.9029 26.6666 39.1555 26.7499 39.3239C26.8333 39.4923 26.9999 39.6607 27.1666 39.7449L29.1666 40.587L22.2499 44.292L19.8333 36.7977L21.8333 37.6398C21.9999 37.724 22.2499 37.724 22.4166 37.6398C22.5833 37.5556 22.7499 37.3872 22.8333 37.2188C26.4999 28.2087 34.9999 22.4827 44.4999 22.4827C47.4999 22.4827 50.4166 23.0722 53.1666 24.1668C60.4999 27.1983 65.7499 33.5979 67.2499 41.429L63.4999 43.45Z" fill="white"/>
<path d="M71.0832 56.1651L67.9166 46.313C67.8332 46.0604 67.6666 45.892 67.4999 45.8078C67.2499 45.7236 66.9999 45.7236 66.8332 45.8078L57.6666 50.7759C57.4166 50.9443 57.2499 51.197 57.2499 51.5338C57.2499 51.8706 57.4166 52.1232 57.7499 52.2074L60.5832 53.3863C57.5832 59.7018 51.4166 63.7436 44.4999 63.7436C42.2499 63.7436 39.9999 63.3226 37.9166 62.4805C31.6666 59.9544 27.4166 53.9758 26.9999 47.1551C26.9999 46.9025 26.8332 46.6498 26.5832 46.4814C26.3332 46.313 26.0832 46.313 25.8332 46.4814L20.4999 49.3444C20.1666 49.5128 19.9999 49.8497 20.0832 50.1865C21.5832 58.7755 27.2499 65.933 35.2499 69.217C38.2499 70.3959 41.3332 71.0695 44.5832 71.0695C49.5832 71.0695 54.2499 69.638 58.1666 67.0277C62.0832 64.4173 65.3332 60.7122 67.3332 56.1651L70.1666 57.344C70.7499 57.5966 71.4166 56.8388 71.0832 56.1651ZM67.0832 54.3126C66.9166 54.2284 66.6666 54.2284 66.4999 54.3126C66.3332 54.3968 66.1666 54.5652 66.0832 54.7336C62.4999 63.7436 53.9999 69.4696 44.4999 69.4696C41.4999 69.4696 38.5832 68.8802 35.8332 67.7855C28.4166 64.7541 23.1666 58.3545 21.6666 50.5233L25.4999 48.5024C26.4166 55.4073 30.9166 61.3859 37.3332 63.9963C39.5832 64.8383 41.9999 65.3435 44.4999 65.3435C52.3332 65.3435 59.3332 60.628 62.2499 53.2179C62.4166 52.7969 62.2499 52.3758 61.8332 52.2074L59.8332 51.3654L66.6666 47.6603L69.0832 55.1546L67.0832 54.3126Z" fill="white"/>
<path d="M44.5 33.5977C37.75 33.5977 32.25 39.1552 32.25 45.9759C32.25 52.7966 37.75 58.3542 44.5 58.3542C51.25 58.3542 56.75 52.7966 56.75 45.9759C56.75 39.1552 51.25 33.5977 44.5 33.5977ZM44.5 56.7543C38.5833 56.7543 33.8333 51.8703 33.8333 45.9759C33.8333 39.9973 38.6667 35.1976 44.5 35.1976C50.4167 35.1976 55.1667 40.0815 55.1667 45.9759C55.1667 51.9545 50.4167 56.7543 44.5 56.7543Z" fill="white"/>
<path d="M43.1663 49.26H39.9163V46.7338H43.1663C43.4163 46.7338 43.583 46.6496 43.7497 46.4812C43.9163 46.3128 43.9997 46.1444 43.9997 45.8918V41.7657C43.9997 41.3446 43.6663 41.0078 43.2497 41.0078H39.1663C38.7497 41.0078 38.4163 41.3446 38.4163 41.7657C38.4163 42.1867 38.7497 42.5235 39.1663 42.5235H42.4163V45.0497H39.1663C38.9163 45.0497 38.7497 45.1339 38.583 45.3023C38.4163 45.4707 38.333 45.6391 38.333 45.8918V50.0178C38.333 50.4389 38.6663 50.7757 39.083 50.7757H43.1663C43.583 50.7757 43.9163 50.4389 43.9163 50.0178C43.9997 49.681 43.6663 49.26 43.1663 49.26Z" fill="white"/>
<path d="M49.833 41.0923C49.4163 41.0923 49.083 41.4291 49.083 41.8501V45.1342H46.583V41.8501C46.583 41.4291 46.2497 41.0923 45.833 41.0923C45.4163 41.0923 45.083 41.4291 45.083 41.8501V45.9762C45.083 46.2288 45.1663 46.3973 45.333 46.5657C45.4997 46.7341 45.6663 46.8183 45.9163 46.8183H49.1663V50.1023C49.1663 50.5233 49.4997 50.8602 49.9163 50.8602C50.333 50.8602 50.6663 50.5233 50.6663 50.1023V41.8501C50.6663 41.4291 50.2497 41.0923 49.833 41.0923Z" fill="white"/>
</svg>
