<svg width="103" height="103" viewBox="0 0 103 103" fill="none" xmlns="http://www.w3.org/2000/svg">
<circle cx="51.4902" cy="51.9414" r="51" fill="white"/>
<g clip-path="url(#clip0_2356_38445)">
<path d="M78.9317 47.7154L78.8667 47.5999C78.1449 46.3087 76.7761 45.5067 75.2944 45.5067C74.2662 45.5067 73.2823 45.8931 72.5239 46.5944C71.782 47.2802 71.3225 48.2116 71.23 49.2158L70.749 54.3776C70.1874 53.869 69.4998 53.5252 68.76 53.3799L68.7811 53.2595C68.9331 52.3967 68.7328 51.5316 68.2167 50.8236C67.7005 50.1153 66.9381 49.6593 66.0705 49.54L64.6347 49.3413C64.3032 49.2952 64.0053 49.144 63.7738 48.905C63.5415 48.6643 63.4008 48.3616 63.3669 48.0296C63.2255 46.6456 62.2161 45.5205 60.8554 45.2301L59.6743 44.978C59.3713 44.9127 59.1015 44.7589 58.8939 44.533L57.9696 43.5269C57.4836 42.9987 57.1299 42.3524 56.9468 41.6568L56.7056 40.7454C56.4857 39.9078 56.1111 39.1286 55.5921 38.4295C55.0742 37.7319 54.4374 37.1478 53.6993 36.6931C52.2821 35.8209 50.5986 35.5 48.9584 35.7891L47.0212 36.1309C46.9293 36.1472 46.8363 36.1552 46.7368 36.1552C46.2205 36.1552 45.7287 35.9079 45.4216 35.494C44.8953 34.784 44.0917 34.3028 43.2178 34.1738L37.379 33.3097L31.9234 25.9589C31.0951 24.8427 29.5129 24.6087 28.3964 25.4371L25.5444 27.5534C24.4282 28.3815 24.1941 29.9638 25.0227 31.0804L30.4782 38.4314L29.6695 43.897C29.6436 44.0656 29.6305 44.2374 29.6305 44.4034L29.6145 47.6106C29.6102 48.3753 29.8589 49.1344 30.3157 49.7492L30.4562 49.9375C30.8228 50.4317 30.9178 51.0723 30.7101 51.6511L30.0984 53.3561C29.8758 53.3199 29.6476 53.3002 29.4147 53.3002C27.1188 53.3002 25.2509 55.1646 25.2509 57.4564C25.2509 57.7164 25.2761 57.9803 25.3256 58.2416L25.8408 62.848V62.849L25.9886 64.1704L27.2853 75.7635C27.288 75.7881 27.2919 75.8125 27.2966 75.8367C27.7729 78.2152 29.8789 79.9414 32.3042 79.9414H34.8383H41.7135H48.5886H55.4638H62.3389H69.2141H71.7482C74.1735 79.9414 76.2796 78.2152 76.7558 75.8367C76.7606 75.8124 76.7644 75.7881 76.7671 75.7635L77.9461 65.2218L78.2116 62.8491C78.2117 62.8485 78.2116 62.8477 78.2117 62.8471L78.7307 58.2072C78.7315 58.2002 78.7322 58.1931 78.7328 58.186L79.4376 50.0658C79.5088 49.2464 79.3343 48.4344 78.9317 47.7154ZM72.9415 49.3742C72.995 48.7926 73.2611 48.2536 73.6907 47.8563C74.1308 47.4495 74.7001 47.2254 75.2944 47.2254C76.1672 47.2254 76.9417 47.679 77.3679 48.4413L77.4332 48.5573C77.6656 48.9723 77.7666 49.4426 77.7255 49.9173L77.0216 58.0268L76.5891 61.8942H71.7536L72.2259 57.0529L72.9415 49.3742ZM76.3834 63.7326L75.8198 68.7694H70.1346C70.1323 68.7694 70.1301 68.7694 70.1278 68.7694H33.9252C33.9224 68.7694 33.9197 68.7694 33.9169 68.7694H28.2328L27.7011 64.0168L27.6559 63.613H33.2371H33.2474H33.283C33.2838 63.613 33.2845 63.6131 33.2853 63.6131C33.286 63.6131 33.2867 63.613 33.2874 63.613H70.7655C70.7662 63.613 70.767 63.6131 70.7676 63.6131C70.7684 63.6131 70.7691 63.613 70.7699 63.613H70.8051H70.8167H76.397L76.3834 63.7326ZM49.1732 70.488H54.8795L54.6316 78.2226H49.421L49.1732 70.488ZM62.8396 57.7061C62.8385 57.7164 62.8377 57.7266 62.8371 57.737L62.5725 61.8941H56.8779L57.0251 57.3345C57.0939 56.0355 58.1648 55.019 59.4665 55.019H60.4075C61.1069 55.019 61.7504 55.3046 62.2198 55.8231C62.689 56.3418 62.9092 57.0104 62.8396 57.7061ZM55.292 57.5859C55.2918 57.5908 55.2916 57.5958 55.2914 57.6009L55.1537 61.8942H48.899L48.7614 57.6009C48.7611 57.5958 48.7609 57.5908 48.7607 57.5859C48.7272 56.9099 48.9656 56.268 49.4318 55.7781C49.8977 55.2886 50.5264 55.0191 51.2024 55.0191H52.8502C53.5262 55.0191 54.155 55.2887 54.6208 55.7781C55.087 56.268 55.3254 56.9099 55.292 57.5859ZM47.1747 61.8941H41.4801L41.2155 57.737C41.2148 57.7266 41.2139 57.7164 41.213 57.7061C41.1435 57.0104 41.3636 56.3418 41.8329 55.8232C42.3023 55.3047 42.9458 55.0191 43.6452 55.0191H44.5862C45.8878 55.0191 46.9588 56.0356 47.0276 57.3346L47.1747 61.8941ZM39.7397 61.8941H34.0677L33.6851 57.8724C33.6836 57.8569 33.6818 57.8416 33.6794 57.8263C33.5738 57.1215 33.7798 56.4077 34.2446 55.868C34.7093 55.3284 35.3843 55.019 36.0964 55.019H37.0052C38.2617 55.019 39.3043 55.9581 39.4358 57.2057L39.7397 61.8941ZM69.808 55.8681C70.2728 56.4078 70.4788 57.1217 70.3732 57.8264C70.3709 57.8417 70.369 57.857 70.3675 57.8725L69.9849 61.8942H64.3129L64.6168 57.2058C64.7483 55.9582 65.7909 55.0191 67.0474 55.0191H67.9562C68.6683 55.019 69.3433 55.3284 69.808 55.8681ZM28.3854 32.7273L32.9237 32.3641L30.4152 35.4625L28.3854 32.7273ZM29.6893 30.8987L32.1138 29.0993L33.2385 30.6147L29.6893 30.8987ZM26.2534 29.4602C26.2847 29.2482 26.3966 29.0613 26.5686 28.9337L29.4207 26.8174C29.7763 26.5537 30.2797 26.628 30.5433 26.9832L31.0894 27.719L26.949 30.7919L26.4029 30.0562C26.2751 29.884 26.222 29.6723 26.2534 29.4602ZM31.8351 48.9116L31.6942 48.7228C31.4592 48.4064 31.3309 48.0148 31.3332 47.6196L31.3492 44.4076C31.3492 44.3243 31.3556 44.2402 31.3691 44.1531L32.2306 38.3307C32.264 38.1052 32.2063 37.8758 32.0705 37.6928L31.4729 36.8876L34.823 32.7497L36.211 34.62C36.3469 34.803 36.5497 34.9245 36.7753 34.9579L42.9665 35.8744C43.3927 35.9372 43.7843 36.1718 44.041 36.5181C44.6711 37.3672 45.6788 37.8742 46.7368 37.8742C46.9357 37.8742 47.1328 37.8571 47.3211 37.8235L49.257 37.4818C50.4823 37.2655 51.7399 37.5054 52.7983 38.1569C53.3493 38.4963 53.8251 38.9327 54.2122 39.4542C54.5996 39.9761 54.8793 40.5575 55.0436 41.1836L55.285 42.0956C55.5389 43.0601 56.03 43.9575 56.7047 44.6905L57.6285 45.6959C58.0777 46.1849 58.6601 46.5177 59.3141 46.6587L60.4968 46.9111C61.1256 47.0453 61.5918 47.565 61.6572 48.2044C61.7296 48.9127 62.0421 49.5854 62.5381 50.0996C63.0328 50.6106 63.6934 50.9459 64.3988 51.0438L65.8357 51.2427C66.2368 51.2979 66.5892 51.5085 66.8277 51.836C67.0661 52.1631 67.1587 52.5627 67.0885 52.9613L67.0287 53.3008C65.6823 53.3068 64.4822 53.9458 63.7243 54.9498C63.6516 54.8538 63.5756 54.7601 63.4943 54.6701C62.7064 53.7996 61.5814 53.3004 60.4076 53.3004H59.4666C58.1208 53.3004 56.9207 53.9391 56.1584 54.9356C56.0676 54.8174 55.9704 54.703 55.866 54.5933C55.0724 53.7595 54.0015 53.3004 52.8504 53.3004H51.2025C50.0513 53.3004 48.9803 53.7595 48.1869 54.5933C48.0824 54.703 47.9852 54.8174 47.8944 54.9356C47.1323 53.9392 45.932 53.3004 44.5862 53.3004H43.6452C42.4713 53.3004 41.3464 53.7996 40.5586 54.6701C40.4772 54.7601 40.4012 54.8538 40.3286 54.9498C39.567 53.9411 38.3594 53.3004 37.0053 53.3004H36.0965C34.8834 53.3004 33.7339 53.8275 32.9423 54.7466C32.8786 54.8206 32.8187 54.8971 32.7608 54.9749C32.4693 54.581 32.1108 54.2428 31.7023 53.9759L32.328 52.2317C32.7299 51.1105 32.5462 49.8701 31.8351 48.9116ZM29.4146 55.019C30.6277 55.019 31.64 55.8846 31.8294 57.0802L32.299 61.8941H27.4635L27.0298 58.0162C27.0271 57.9919 27.0233 57.9677 27.0186 57.9438C26.986 57.7804 26.9696 57.6165 26.9696 57.4564C26.9696 56.1124 28.0664 55.019 29.4146 55.019ZM32.3043 78.2226C30.7069 78.2226 29.3183 77.0938 28.9892 75.5335L28.4249 70.488H33.1372L33.8912 78.2226H32.3043ZM35.62 78.2226L34.8843 70.488H40.2957L40.7967 78.2226H35.62ZM42.52 78.2226L42.0278 70.488H47.4515L47.7011 78.2226H42.52ZM56.6011 70.488H62.0248L61.5326 78.2226H56.3515L56.6011 70.488ZM63.7569 70.488H69.1683L68.4326 78.2226H63.2559L63.7569 70.488ZM75.0634 75.5335C74.7343 77.0938 73.3457 78.2226 71.7483 78.2226H70.1614L70.9154 70.488H75.6277L75.0634 75.5335Z" fill="#002756"/>
<path d="M45.0842 42.207L46.8135 43.6265C47.7053 44.3585 48.8195 44.7648 49.9509 44.7705C49.9667 44.7705 49.9824 44.7706 49.9979 44.7706C50.9363 44.7706 51.5655 44.6286 51.975 44.3247C52.3561 44.0419 52.4358 43.5037 52.153 43.1225C51.8723 42.7443 51.3402 42.663 50.9599 42.9378C50.9317 42.9515 50.7009 43.052 49.997 43.052C49.9846 43.052 49.9721 43.052 49.9594 43.0519C49.2216 43.0481 48.4915 42.7805 47.9039 42.2981L46.1746 40.8786C45.8078 40.5773 45.2662 40.6306 44.965 40.9976C44.6641 41.3643 44.7173 41.9059 45.0842 42.207Z" fill="#005FB7"/>
<path d="M48.3471 49.0577L47.5848 47.9143C47.3218 47.5194 46.7881 47.4126 46.3931 47.6759C45.9981 47.9392 45.8914 48.4727 46.1547 48.8677L46.917 50.0111C47.5768 51.0008 48.6871 51.5813 49.8528 51.5813C50.0445 51.5813 50.2378 51.5656 50.4308 51.5334L53.8862 50.9575C54.3543 50.8795 54.6706 50.4367 54.5927 49.9686C54.5145 49.5003 54.072 49.1839 53.6036 49.2621L50.1482 49.838C49.448 49.9546 48.7409 49.6484 48.3471 49.0577Z" fill="#005FB7"/>
<path d="M35.6987 46.4251C35.8624 46.4251 36.0281 46.3782 36.1746 46.2806C38.0048 45.0606 38.7402 42.6928 37.9231 40.6507L37.3552 39.2307C37.179 38.7901 36.6788 38.5756 36.2382 38.7519C35.7974 38.9281 35.5831 39.4282 35.7594 39.869L36.3273 41.289C36.8442 42.5809 36.3789 44.0787 35.2212 44.8505C34.8262 45.1138 34.7195 45.6473 34.9828 46.0423C35.1484 46.2907 35.4209 46.4251 35.6987 46.4251Z" fill="#005FB7"/>
<path d="M39.9948 50.722C40.2148 50.722 40.4347 50.6381 40.6025 50.4703C41.8942 49.1786 42.3378 47.2994 41.7601 45.5661L41.6693 45.2939C41.5192 44.8436 41.0325 44.6003 40.5823 44.7504C40.132 44.9005 39.8887 45.3872 40.0388 45.8376L40.1295 46.1097C40.5 47.2213 40.2155 48.4265 39.3869 49.2551C39.0514 49.5906 39.0514 50.1347 39.3869 50.4703C39.5549 50.6381 39.7748 50.722 39.9948 50.722Z" fill="#005FB7"/>
<path d="M74.9179 53.2966C74.9443 53.2989 74.9705 53.3002 74.9966 53.3002C75.4361 53.3002 75.8109 52.9647 75.8514 52.5185L76.0856 49.9403C76.1286 49.4677 75.7802 49.0497 75.3075 49.0067C74.8362 48.9642 74.4169 49.3121 74.374 49.7849L74.1398 52.3631C74.0968 52.8357 74.4451 53.2537 74.9179 53.2966Z" fill="#005FB7"/>
</g>
<defs>
<clipPath id="clip0_2356_38445">
<rect width="55" height="55" fill="white" transform="translate(24.4902 24.9414)"/>
</clipPath>
</defs>
</svg>
