<svg width="99" height="100" viewBox="0 0 99 100" fill="none" xmlns="http://www.w3.org/2000/svg">
<path d="M8.29383 57.6794C8.00783 57.6794 7.74383 57.5694 7.52383 57.3714L1.25383 51.1674C0.813828 50.7494 0.813828 50.0454 1.25383 49.6054C1.69383 49.1654 2.37583 49.1654 2.81583 49.6054L8.31583 55.0394L13.8158 49.6054C14.2558 49.1874 14.9378 49.1874 15.3778 49.6054C15.7958 50.0454 15.7958 50.7274 15.3778 51.1674L9.10783 57.3714C8.86583 57.5694 8.57983 57.6794 8.29383 57.6794Z" fill="#2F80ED"/>
<path d="M49.5648 98.9955C49.2788 98.9955 49.0148 98.8855 48.7948 98.6875C48.3548 98.2695 48.3548 97.5655 48.7948 97.1255L54.2288 91.6255L48.7948 86.1255C48.3768 85.6855 48.3768 85.0035 48.7948 84.5635C49.2348 84.1455 49.9168 84.1455 50.3568 84.5635L56.5608 90.8335C56.9788 91.2515 56.9788 91.9555 56.5608 92.3735L50.3568 98.6435C50.1148 98.8855 49.8288 98.9955 49.5648 98.9955Z" fill="#2F80ED"/>
<path d="M97.0869 51.4754C96.8009 51.4754 96.5369 51.3654 96.3169 51.1674L90.8169 45.7334L85.3169 51.1674C84.8769 51.5854 84.1949 51.5854 83.7549 51.1674C83.3369 50.7274 83.3369 50.0454 83.7549 49.6054L90.0249 43.4014C90.4429 42.9834 91.1469 42.9834 91.5649 43.4014L97.8349 49.6054C98.2749 50.0234 98.2749 50.7274 97.8349 51.1674C97.6369 51.3654 97.3509 51.4754 97.0869 51.4754Z" fill="#2F80ED"/>
<path d="M49.5654 16.4954C49.2794 16.4954 48.9934 16.3854 48.7734 16.1654L42.5694 9.89537C42.1514 9.47737 42.1514 8.77337 42.5694 8.35537L48.7734 2.08537C49.1914 1.64537 49.8954 1.64537 50.3354 2.08537C50.7754 2.50337 50.7754 3.20737 50.3354 3.64737L44.9014 9.14737L50.3354 14.6474C50.7534 15.0874 50.7534 15.7694 50.3354 16.2094C50.1154 16.3854 49.8294 16.4954 49.5654 16.4954Z" fill="#2F80ED"/>
<path d="M49.5653 98.9954C22.7473 98.9954 0.945312 77.1934 0.945312 50.3754C0.945312 23.5574 22.7473 1.75537 49.5653 1.75537C76.3833 1.75537 98.1853 23.5574 98.1853 50.3754C98.1853 77.1934 76.3613 98.9954 49.5653 98.9954ZM49.5653 3.95537C23.9793 3.95537 3.14531 24.7894 3.14531 50.3754C3.14531 75.9614 23.9793 96.7954 49.5653 96.7954C75.1513 96.7954 95.9853 75.9614 95.9853 50.3754C95.9853 24.7894 75.1513 3.95537 49.5653 3.95537Z" fill="white"/>
<path d="M49.5668 86.4774C29.6568 86.4774 13.4648 70.2854 13.4648 50.3754C13.4648 30.4654 29.6568 14.2954 49.5668 14.2954C69.4768 14.2954 85.6688 30.4874 85.6688 50.3974C85.6688 70.3074 69.4548 86.4774 49.5668 86.4774ZM49.5668 16.4954C30.8888 16.4954 15.6648 31.6974 15.6648 50.3974C15.6648 69.0974 30.8668 84.2994 49.5668 84.2994C68.2668 84.2994 83.4688 69.0974 83.4688 50.3974C83.4468 31.6974 68.2449 16.4954 49.5668 16.4954Z" fill="white"/>
<path d="M58.6733 74.9714H36.0353C35.7053 74.9714 35.3973 74.8395 35.1993 74.5755C35.0013 74.3115 34.8913 74.0034 34.9573 73.6735C35.9253 67.9095 36.5193 59.0215 34.8473 57.2834C34.8253 57.2614 34.7813 57.2174 34.7593 57.1735C34.4953 56.8214 28.2253 48.4174 29.1933 42.2354C29.2153 37.3954 30.6453 33.0174 33.2633 29.8714C36.1893 26.3294 40.4353 24.4814 45.5173 24.4814H51.5893C58.4753 24.4814 62.7653 29.0354 65.1633 32.8414C68.4413 38.0774 69.7613 44.6554 68.7053 46.8114C68.6173 46.9654 68.5293 47.1854 68.5073 47.3394C68.4853 47.6474 68.5073 47.9554 68.6393 48.2634C68.6613 48.3514 68.7053 48.4394 68.7713 48.5274L71.7413 53.0154C71.7413 53.0374 71.7633 53.0374 71.7633 53.0594C71.8513 53.1914 72.5333 54.4234 71.9833 55.6774C71.5873 56.5794 70.7073 57.1515 69.3653 57.4155C69.1673 57.4594 68.9913 57.4814 68.8373 57.5034C68.8153 57.5254 68.7933 57.5914 68.7713 57.7454C68.7493 58.0094 68.8373 58.2954 69.0133 58.5154C69.8273 59.5275 70.0693 60.4294 69.7393 61.1774C69.5853 61.5074 69.2993 61.9035 68.6833 62.1234C69.0793 62.5854 69.1233 63.0695 69.0793 63.3554C68.9913 64.2794 68.0893 64.8514 67.4293 65.1374C67.4293 65.4454 67.4293 65.9734 67.5393 66.8974C67.6933 68.2394 67.4073 69.3175 66.7253 70.0655C65.8673 71.0115 64.6793 71.0555 64.4373 71.0555C64.4153 71.0555 64.4153 71.0555 64.3933 71.0555C64.0853 71.0555 62.5013 71.0334 60.9173 70.4394C60.7413 70.3734 60.2793 70.3074 60.0373 70.4834C59.9493 70.5494 59.6193 70.9015 59.7293 72.1555V72.2435V73.8274C59.7733 74.4654 59.2673 74.9714 58.6733 74.9714ZM37.3333 72.7715H57.5733V72.3314C57.4633 70.6594 57.8593 69.4714 58.7613 68.7894C59.9933 67.8434 61.5333 68.3494 61.7093 68.4155H61.7313C63.0513 68.9215 64.4373 68.8994 64.4593 68.8994H64.5033C64.5033 68.8994 64.9213 68.8774 65.1633 68.6134C65.4713 68.2835 65.4713 67.6455 65.4053 67.1834C65.1413 64.8294 65.2953 63.8834 65.9553 63.4214C66.1093 63.3334 66.2633 63.2674 66.4173 63.2234C66.4393 63.2234 66.4613 63.2014 66.5053 63.1794C65.8893 62.6294 65.8013 62.0794 65.8673 61.6834C66.0213 60.6274 67.1653 60.2534 67.5393 60.1655C67.4953 60.0994 67.4293 60.0114 67.3413 59.9014C66.7913 59.1974 66.5273 58.3394 66.6373 57.5034C66.8133 56.0074 67.8473 55.3914 68.6833 55.3254C68.7713 55.3254 68.8813 55.3034 69.0133 55.2814C69.6733 55.1494 69.9593 54.9514 70.0253 54.7974C70.1133 54.6214 69.9813 54.2914 69.9373 54.2034L66.9893 49.7374C66.8353 49.5174 66.7253 49.2754 66.6373 49.0554C66.3953 48.4174 66.3073 47.7574 66.3733 47.0974C66.4173 46.5914 66.6153 46.1514 66.7693 45.8214C67.2973 44.7654 66.5053 39.0454 63.3373 33.9854C61.2473 30.6414 57.5293 26.6594 51.6333 26.6594H45.5613C35.1333 26.6594 31.4373 35.0854 31.4373 42.3234C31.4373 42.3894 31.4373 42.4554 31.4153 42.4994C30.5573 47.5594 36.0353 55.1494 36.5193 55.7874C39.0933 58.6914 37.9273 68.7234 37.3333 72.7715Z" fill="white"/>
</svg>
