<svg width="91" height="91" viewBox="0 0 91 91" fill="none" xmlns="http://www.w3.org/2000/svg">
<rect x="89.5732" y="89.5015" width="88" height="88" rx="44" transform="rotate(180 89.5732 89.5015)" fill="#002756" stroke="#005FB7" stroke-width="2"/>
<g clip-path="url(#clip0_359_1023)">
<path d="M71.8232 44.2979C69.2732 44.2979 21.5962 44.2979 19.3232 44.2979C17.5139 44.2979 16.042 45.7697 16.042 47.5791V53.6729C16.042 55.4822 17.5139 56.9541 19.3232 56.9541H71.8232C73.6326 56.9541 75.1045 55.4822 75.1045 53.6729V47.5791C75.1045 45.7697 73.6326 44.2979 71.8232 44.2979ZM27.5264 55.0791H19.3232C18.5477 55.0791 17.917 54.4484 17.917 53.6729V47.5791C17.917 46.8036 18.5477 46.1729 19.3232 46.1729H27.5264V55.0791ZM65.3217 55.0791H29.4014V46.1729H65.3217V55.0791ZM73.2295 53.6729C73.2295 54.4484 72.5988 55.0791 71.8232 55.0791H67.1967V46.1729H71.8232C72.5988 46.1729 73.2295 46.8036 73.2295 47.5791V53.6729Z" fill="white"/>
<path d="M71.8232 31.3672H69.8701C69.0946 31.3672 68.4639 30.7365 68.4639 29.9609V24.8047C68.4639 24.287 68.0441 23.8672 67.5264 23.8672C67.0086 23.8672 66.5889 24.287 66.5889 24.8047V29.9609C66.5889 31.7703 68.0607 33.2422 69.8701 33.2422H71.8232C72.5987 33.2422 73.2294 33.8729 73.2294 34.6484V40.703C73.2294 41.2208 73.6492 41.6405 74.1669 41.6405C74.6846 41.6405 75.1044 41.2208 75.1044 40.703V34.6484C75.1044 32.8391 73.6325 31.3672 71.8232 31.3672Z" fill="white"/>
<path d="M63.3162 36.8978H64.605C64.9409 36.8978 65.2141 37.1711 65.2141 37.5069V40.7031C65.2141 41.2208 65.6339 41.6406 66.1516 41.6406C66.6694 41.6406 67.0891 41.2208 67.0891 40.7031V37.5069C67.0891 36.1372 65.9749 35.0228 64.605 35.0228H63.3162C62.9803 35.0228 62.707 34.7495 62.707 34.4139V31.0112C62.707 30.4935 62.2873 30.0737 61.7695 30.0737C61.2518 30.0737 60.832 30.4935 60.832 31.0112V34.4137C60.832 35.7833 61.9465 36.8978 63.3162 36.8978Z" fill="white"/>
</g>
<line x1="77.2803" y1="14.7086" x2="14.2803" y2="77.7086" stroke="#005FB7" stroke-width="2"/>
<defs>
<clipPath id="clip0_359_1023">
<rect width="60" height="33.8182" fill="white" transform="translate(15.5732 23.5015)"/>
</clipPath>
</defs>
</svg>
