<svg width="93" height="94" viewBox="0 0 93 94" fill="none" xmlns="http://www.w3.org/2000/svg">
<g clip-path="url(#clip0_779_16144)">
<path d="M48.773 49.5155H35.9184C35.3397 49.5155 34.885 49.0609 34.885 48.4822C34.885 45.3615 32.3637 42.8402 29.243 42.8402C26.1224 42.8402 23.601 45.3615 23.601 48.4822C23.601 49.0609 23.1464 49.5155 22.5677 49.5155H9.71302C9.13435 49.5155 8.67969 49.0609 8.67969 48.4822V9.40154C8.67969 8.82287 9.13435 8.3682 9.71302 8.3682H21.617C22.1337 4.60687 25.3577 1.69287 29.2637 1.69287C33.1697 1.69287 36.3937 4.60687 36.9104 8.3682H48.773C49.3517 8.3682 49.8064 8.82287 49.8064 9.40154V21.3055C53.5677 21.8222 56.4817 25.0462 56.4817 28.9522C56.4817 32.8582 53.5677 36.0822 49.8064 36.5989V48.5029C49.8064 49.0609 49.3517 49.5155 48.773 49.5155ZM36.869 47.4489H47.7397V35.6275C47.7397 35.0489 48.1944 34.5942 48.773 34.5942C51.8937 34.5942 54.415 32.0522 54.415 28.9522C54.415 25.8522 51.8937 23.3102 48.773 23.3102C48.1944 23.3102 47.7397 22.8555 47.7397 22.2769V10.4349H35.9184C35.3397 10.4349 34.885 9.9802 34.885 9.40154C34.885 6.28087 32.3637 3.75954 29.243 3.75954C26.1224 3.75954 23.601 6.28087 23.601 9.40154C23.601 9.9802 23.1464 10.4349 22.5677 10.4349H10.7464V47.4282H21.617C22.1337 43.6669 25.3577 40.7529 29.2637 40.7529C33.149 40.7735 36.373 43.6875 36.869 47.4489Z" fill="white"/>
<path d="M68.3036 56.1908C64.3976 56.1908 61.1736 53.2768 60.6569 49.5155H48.7736C48.1949 49.5155 47.7402 49.0608 47.7402 48.4822C47.7402 47.9035 48.1949 47.4488 48.7736 47.4488H61.6282C62.2069 47.4488 62.6616 47.9035 62.6616 48.4822C62.6616 51.6028 65.1829 54.1242 68.3036 54.1242C71.4242 54.1242 73.9456 51.6028 73.9456 48.4822C73.9456 47.9035 74.4002 47.4488 74.9789 47.4488H86.8002V10.4348H48.7736C48.1949 10.4348 47.7402 9.98016 47.7402 9.4015C47.7402 8.82283 48.1949 8.36816 48.7736 8.36816H87.8336C88.4122 8.36816 88.8669 8.82283 88.8669 9.4015V48.4615C88.8669 49.0402 88.4122 49.4948 87.8336 49.4948H75.9296C75.4336 53.2768 72.2096 56.1908 68.3036 56.1908Z" fill="white"/>
<path d="M37.861 93.0395H5.26966C4.69099 93.0395 4.23633 92.5848 4.23633 92.0062V59.4148C4.23633 58.8362 4.69099 58.3815 5.26966 58.3815H15.045C15.541 55.2195 18.269 52.8015 21.5757 52.8015C24.8823 52.8015 27.6103 55.2195 28.1063 58.3815H37.8817C38.4603 58.3815 38.915 58.8362 38.915 59.4148V69.1902C42.077 69.6862 44.4743 72.4142 44.4743 75.7208C44.4743 79.0275 42.0563 81.7555 38.915 82.2515V92.0268C38.8943 92.5848 38.419 93.0395 37.861 93.0395ZM6.30299 90.9728H36.8277V81.2802C36.8277 80.7015 37.2823 80.2468 37.861 80.2468C40.3617 80.2468 42.387 78.2215 42.387 75.7002C42.387 73.1995 40.3617 71.1742 37.861 71.1742C37.2823 71.1742 36.8277 70.7195 36.8277 70.1408V60.4482H27.135C26.5563 60.4482 26.1017 59.9935 26.1017 59.4148C26.1017 56.9142 24.0763 54.8682 21.5757 54.8682C19.075 54.8682 17.0497 56.8935 17.0497 59.4148C17.0497 59.9935 16.595 60.4482 16.0163 60.4482H6.30299V90.9728Z" fill="#2D9CDB"/>
<path d="M87.8336 88.5755H48.7736C48.1949 88.5755 47.7402 88.1208 47.7402 87.5422V74.7082C47.7402 74.1295 48.1949 73.6748 48.7736 73.6748C51.8942 73.6748 54.4156 71.1328 54.4156 68.0328C54.4156 64.9122 51.8942 62.3908 48.7736 62.3908C48.1949 62.3908 47.7402 61.9361 47.7402 61.3575V48.5028C47.7402 47.9241 48.1949 47.4695 48.7736 47.4695C49.3522 47.4695 49.8069 47.9241 49.8069 48.5028V60.4068C53.5682 60.9235 56.4822 64.1475 56.4822 68.0535C56.4822 71.9595 53.5682 75.1835 49.8069 75.7001V86.5501H86.8002V48.5235C86.8002 47.9448 87.2549 47.4902 87.8336 47.4902C88.4122 47.4902 88.8669 47.9448 88.8669 48.5235V87.5835C88.8669 88.1208 88.4122 88.5755 87.8336 88.5755Z" fill="white"/>
</g>
<defs>
<clipPath id="clip0_779_16144">
<rect width="93" height="93" fill="white" transform="translate(0 0.721436)"/>
</clipPath>
</defs>
</svg>
