<svg width="60" height="61" viewBox="0 0 60 61" fill="none" xmlns="http://www.w3.org/2000/svg">
<g clip-path="url(#clip0_1373_39185)">
<path d="M39.026 38.5979C38.6527 38.5979 38.3594 38.3046 38.3594 37.9312V31.6512C38.3594 31.2779 38.6527 30.9846 39.026 30.9846C39.3994 30.9846 39.6927 31.2779 39.6927 31.6512V37.9312C39.6927 38.3046 39.3994 38.5979 39.026 38.5979Z" fill="#002756"/>
<path d="M26.6667 38.5979C26.2933 38.5979 26 38.3046 26 37.9312V31.2112C26 30.8379 26.2933 30.5446 26.6667 30.5446C27.04 30.5446 27.3333 30.8379 27.3333 31.2112V37.9312C27.3333 38.3046 27.0267 38.5979 26.6667 38.5979Z" fill="#002756"/>
<path d="M33.1474 34.8913C30.9607 34.8913 28.7741 33.8246 26.2007 31.7046C22.5874 28.7179 20.4274 24.4113 20.4141 20.1846H21.7474C21.7607 24.0246 23.7474 27.9446 27.0541 30.6779C29.5607 32.7446 31.5074 33.6379 33.3874 33.5579C35.2274 33.4779 37.1474 32.4513 39.6007 30.2379C42.5207 27.6113 44.2674 24.0646 44.3874 20.5313C44.4007 20.1713 44.7074 19.8779 45.0674 19.8779C45.4274 19.8913 45.7207 20.1846 45.7207 20.5579V20.5713C45.5874 24.4779 43.6807 28.3579 40.4941 31.2246C37.7874 33.6779 35.4807 34.8913 33.1474 34.8913Z" fill="#002756"/>
<path d="M45.0813 21.2246C45.0547 21.2246 45.0147 21.2246 44.988 21.2246C44.708 21.1845 44.4813 20.9712 44.428 20.7045C43.2547 15.1579 34.7747 11.7179 28.5347 12.5712C25.8547 12.9445 21.4013 14.4112 21.7613 20.1445C21.7747 20.4379 21.6013 20.7179 21.3213 20.8112C21.0413 20.9045 20.7347 20.8112 20.5613 20.5712C17.908 16.8379 18.908 12.1979 19.748 9.75788C20.4813 7.62455 21.5613 7.33122 22.6013 7.05122C23.6147 6.78455 24.748 6.47788 26.308 4.33122C26.3347 4.30455 26.348 4.27788 26.3747 4.25122C28.668 1.91788 31.4947 0.811215 34.5347 1.01122C37.988 1.25122 41.4413 3.22455 43.748 6.30455C46.6413 10.1712 47.0147 13.9045 46.828 16.3579C46.6147 19.0245 45.708 20.7845 45.6813 20.8512C45.548 21.0779 45.3213 21.2246 45.0813 21.2246ZM30.4813 11.0912C33.3213 11.0912 36.4013 11.7845 39.0413 13.0645C41.9347 14.4645 44.0147 16.3712 45.0813 18.5579C45.2547 17.9179 45.4147 17.1179 45.4813 16.1979C45.7213 12.9845 44.7747 9.91788 42.668 7.10455C40.588 4.33122 37.508 2.54455 34.428 2.33122C31.8013 2.14455 29.348 3.11788 27.3213 5.14455C25.508 7.62455 24.0147 8.02455 22.908 8.31788C21.948 8.57122 21.468 8.70455 20.9747 10.1579C20.3747 11.8912 19.6813 14.8512 20.548 17.6245C20.8413 16.1445 21.4947 14.8779 22.5213 13.8379C23.8947 12.4512 25.8947 11.5445 28.3213 11.2112C29.0413 11.1445 29.748 11.0912 30.4813 11.0912Z" fill="#002756"/>
<path d="M39.9171 20.2113H37.0104C36.6371 20.2113 36.3438 19.9179 36.3438 19.5446C36.3438 19.1713 36.6371 18.8779 37.0104 18.8779H39.9171C40.2904 18.8779 40.5837 19.1713 40.5837 19.5446C40.5837 19.9179 40.2904 20.2113 39.9171 20.2113Z" fill="#002756"/>
<path d="M29.1358 20.2113H26.2292C25.8558 20.2113 25.5625 19.9179 25.5625 19.5446C25.5625 19.1713 25.8558 18.8779 26.2292 18.8779H29.1358C29.5092 18.8779 29.8025 19.1713 29.8025 19.5446C29.8025 19.9179 29.5092 20.2113 29.1358 20.2113Z" fill="#002756"/>
<path d="M33.0775 28.4779C30.5175 28.4779 28.4375 26.8379 28.4375 24.8113C28.4375 24.4379 28.7308 24.1446 29.1042 24.1446C29.4775 24.1446 29.7708 24.4379 29.7708 24.8113C29.7708 26.0913 31.2508 27.1446 33.0775 27.1446C34.9042 27.1446 36.3842 26.1046 36.3842 24.8113C36.3842 24.4379 36.6775 24.1446 37.0508 24.1446C37.4242 24.1446 37.7175 24.4379 37.7175 24.8113C37.7175 26.8379 35.6375 28.4779 33.0775 28.4779Z" fill="#002756"/>
<path d="M45.6901 59.9179C45.3168 59.9179 45.0234 59.6246 45.0234 59.2513V52.4913C45.0234 52.1179 45.3168 51.8246 45.6901 51.8246C46.0634 51.8246 46.3568 52.1179 46.3568 52.4913V59.2646C46.3568 59.6246 46.0634 59.9179 45.6901 59.9179Z" fill="#002756"/>
<path d="M19.987 59.9179C19.6136 59.9179 19.3203 59.6246 19.3203 59.2513V52.4913C19.3203 52.1179 19.6136 51.8246 19.987 51.8246C20.3603 51.8246 20.6536 52.1179 20.6536 52.4913V59.2646C20.6536 59.6246 20.3603 59.9179 19.987 59.9179Z" fill="#002756"/>
<path d="M56.5615 59.9179H9.12147C8.93481 59.9179 8.74814 59.8379 8.62814 59.7046C8.50814 59.5712 8.44147 59.3846 8.45481 59.1979L9.46814 48.5312C9.53481 47.7846 9.62814 47.1179 9.72147 46.4912C9.77481 46.1312 10.1215 45.8779 10.4815 45.9446H10.5081H10.5348C10.6548 45.9712 10.7748 45.9979 10.9081 46.0112C10.9748 46.0246 11.0415 46.0246 11.1081 46.0379C11.1748 46.0512 11.2281 46.0512 11.2815 46.0512C11.3748 46.0646 11.4548 46.0646 11.5348 46.0779C11.6548 46.0912 11.7881 46.0912 11.9215 46.0912C12.2281 46.1046 12.4948 46.0912 12.7615 46.0779C12.8948 46.0646 13.0281 46.0512 13.1615 46.0379C13.2148 46.0246 13.2815 46.0246 13.3348 46.0112H13.3615C13.4815 45.9979 13.6148 45.9712 13.7481 45.9446H13.7615C13.8148 45.9312 13.8548 45.9312 13.9081 45.9179C13.9348 45.9046 13.9615 45.9046 13.9881 45.9046C17.0015 45.1979 19.3481 42.7846 19.9615 39.7446C19.9881 39.6112 20.0148 39.4912 20.0281 39.3579C20.0415 39.2912 20.0415 39.2246 20.0548 39.1579C20.0681 39.0246 20.0815 38.8912 20.0948 38.7579C20.1081 38.5579 20.1215 38.3579 20.1215 38.1446C20.1215 38.0779 20.1215 38.0112 20.1215 37.9579C20.1215 37.7846 20.1881 37.6112 20.3081 37.4779C20.4281 37.3446 20.6015 37.2779 20.7881 37.2779H26.6681C27.0415 37.2779 27.3348 37.5712 27.3348 37.9446C27.3348 38.3179 27.0415 38.6112 26.6681 38.6112H21.4548C21.4548 38.6912 21.4415 38.7846 21.4415 38.8646C21.4281 39.0112 21.4148 39.1712 21.3881 39.3312C21.3748 39.4112 21.3615 39.4912 21.3615 39.5579C21.3348 39.7179 21.3081 39.8646 21.2815 40.0246C20.5615 43.5712 17.8015 46.3979 14.2681 47.2246H14.2548C14.1881 47.2379 14.1081 47.2512 14.0415 47.2646C13.8948 47.2912 13.7348 47.3179 13.5881 47.3446H13.5615C13.4948 47.3579 13.4281 47.3579 13.3615 47.3712C13.2015 47.3979 13.0415 47.4112 12.8948 47.4246C12.5881 47.4512 12.2548 47.4646 11.9215 47.4512C11.7748 47.4512 11.6148 47.4379 11.4681 47.4246C11.3748 47.4112 11.2815 47.4112 11.1881 47.3979C11.1215 47.3846 11.0415 47.3846 10.9748 47.3712C10.9215 47.7712 10.8681 48.1979 10.8281 48.6646L9.88147 58.5979H55.8548L54.9081 48.6646C54.4681 44.0779 52.7481 38.6112 47.0281 38.6112H39.0415C38.6681 38.6112 38.3748 38.3179 38.3748 37.9446C38.3748 37.5712 38.6681 37.2779 39.0415 37.2779H47.0281C50.0415 37.2779 52.3881 38.5446 53.9881 41.0246C55.1881 42.8912 55.9481 45.4112 56.2415 48.5312L57.2548 59.1979C57.2681 59.3846 57.2148 59.5712 57.0815 59.7046C56.9348 59.8379 56.7481 59.9179 56.5615 59.9179Z" fill="#002756"/>
<path d="M32.8409 43.9313C32.6809 43.9313 32.5343 43.8779 32.4009 43.7713L26.2143 38.4379C25.9343 38.1979 25.9076 37.7713 26.1476 37.4913C26.3876 37.2113 26.8143 37.1846 27.0943 37.4246L32.8409 42.3846L38.5876 37.4246C38.8676 37.1846 39.2809 37.2113 39.5343 37.4913C39.7876 37.7713 39.7476 38.1846 39.4676 38.4379L33.2809 43.7713C33.1609 43.8779 33.0009 43.9313 32.8409 43.9313Z" fill="#002756"/>
<path d="M12.1504 47.4512C7.01708 47.4512 2.84375 43.2779 2.84375 38.1446C2.84375 33.0112 7.01708 28.8379 12.1504 28.8379C17.2838 28.8379 21.4571 33.0112 21.4571 38.1446C21.4571 43.2779 17.2838 47.4512 12.1504 47.4512ZM12.1504 30.1579C7.75042 30.1579 4.17708 33.7312 4.17708 38.1312C4.17708 42.5312 7.75042 46.1046 12.1504 46.1046C16.5504 46.1046 20.1237 42.5312 20.1237 38.1312C20.1237 33.7446 16.5504 30.1579 12.1504 30.1579Z" fill="#005FB7"/>
<path d="M16.7329 38.8112H7.57292C7.19958 38.8112 6.90625 38.5179 6.90625 38.1446C6.90625 37.7712 7.19958 37.4779 7.57292 37.4779H16.7329C17.1062 37.4779 17.3996 37.7712 17.3996 38.1446C17.3996 38.5179 17.0929 38.8112 16.7329 38.8112Z" fill="#005FB7"/>
<path d="M12.1432 43.3846C11.7699 43.3846 11.4766 43.0912 11.4766 42.7179V33.5579C11.4766 33.1846 11.7699 32.8912 12.1432 32.8912C12.5166 32.8912 12.8099 33.1846 12.8099 33.5579V42.7179C12.8099 43.0912 12.5166 43.3846 12.1432 43.3846Z" fill="#005FB7"/>
</g>
<defs>
<clipPath id="clip0_1373_39185">
<rect width="60" height="60" fill="white" transform="translate(0 0.35791)"/>
</clipPath>
</defs>
</svg>
