<svg width="65" height="65" viewBox="0 0 65 65" fill="none" xmlns="http://www.w3.org/2000/svg">
<path d="M21.5298 20.6106C21.4073 20.6106 21.2858 20.5886 21.171 20.5456C20.9122 20.4504 20.7018 20.2562 20.5861 20.0058C20.4705 19.7555 20.459 19.4694 20.5542 19.2106C21.8672 15.644 22.7369 9.94545 22.8019 9.50865C22.9637 7.7933 23.6072 6.59665 24.7135 5.95055C26.501 4.906 28.6694 5.829 28.9112 5.93755C29.0261 5.98895 29.1305 6.061 29.2193 6.1501C30.9399 7.86545 34.0638 7.86545 35.7804 6.1501C35.8695 6.06099 35.9742 5.98895 36.0892 5.93755C36.3303 5.829 38.4987 4.906 40.2862 5.95055C41.3912 6.59665 42.036 7.7933 42.1985 9.50865C42.2635 9.9435 43.1339 15.6479 44.4456 19.2112C44.4993 19.3406 44.5264 19.4795 44.5251 19.6196C44.5238 19.7597 44.4942 19.8982 44.4381 20.0265C44.382 20.1549 44.3006 20.2707 44.1986 20.3668C44.0967 20.4629 43.9764 20.5375 43.8449 20.5859C43.7134 20.6344 43.5735 20.6558 43.4336 20.6489C43.2936 20.6419 43.1565 20.6067 43.0305 20.5455C42.9045 20.4842 42.7922 20.3982 42.7002 20.2924C42.6083 20.1867 42.5387 20.0634 42.4956 19.9301C41.0656 16.0366 40.1751 10.0371 40.138 9.7836C40.138 9.76475 40.1335 9.7459 40.1315 9.72705C40.0386 8.70785 39.7415 8.04225 39.2443 7.7491C38.5871 7.3591 37.5803 7.59765 37.0928 7.7751C35.9007 8.8801 34.2412 9.5106 32.5018 9.5106C30.7624 9.5106 29.1023 8.88075 27.9102 7.7751C27.4273 7.59895 26.4152 7.3604 25.7594 7.7491C25.2634 8.04225 24.9651 8.70785 24.8721 9.72705C24.8721 9.7459 24.8682 9.76475 24.8656 9.7836C24.8286 10.0371 23.9407 16.0366 22.5081 19.9301C22.4344 20.1301 22.3011 20.3027 22.1261 20.4244C21.9511 20.5461 21.743 20.6111 21.5298 20.6106Z" fill="white"/>
<path d="M32.1287 45.5243H32.1291H32.8721C34.2547 45.5244 35.6238 45.2521 36.9012 44.723C38.1786 44.1939 39.3392 43.4184 40.3169 42.4407C41.2945 41.463 42.0699 40.3023 42.5989 39.0249C43.128 37.7475 43.4002 36.3784 43.4 34.9958V34.9958V27.5461C43.4 27.4029 43.3431 27.2655 43.2418 27.1643C43.1406 27.063 43.0032 27.0061 42.86 27.0061C42.7168 27.0061 42.5794 27.063 42.4782 27.1643C42.3769 27.2655 42.32 27.4029 42.32 27.5461V34.9952V34.9958H41.82C41.8213 36.1712 41.5907 37.3354 41.1415 38.4216C40.6923 39.5078 40.0332 40.4948 39.2021 41.326C38.371 42.1572 37.3841 42.8163 36.2979 43.2656C35.2117 43.7148 34.0475 43.9455 32.8721 43.9443L32.1287 45.5243ZM32.1287 45.5243C30.7458 45.5254 29.3763 45.2539 28.0984 44.7252C26.8206 44.1965 25.6595 43.4211 24.6817 42.4432C23.7038 41.4654 22.9284 40.3043 22.3997 39.0265C21.871 37.7486 21.5994 36.3791 21.6006 34.9962V34.9958M32.1287 45.5243L21.6006 34.9958M21.6006 34.9958V27.5461M21.6006 34.9958V27.5461M21.6006 27.5461C21.6006 27.4029 21.6575 27.2655 21.7588 27.1643M21.6006 27.5461L21.7588 27.1643M21.7588 27.1643C21.86 27.063 21.9974 27.0061 22.1406 27.0061M21.7588 27.1643L22.1406 27.0061M22.1406 27.0061C22.2838 27.0061 22.4212 27.063 22.5224 27.1643M22.1406 27.0061L22.5224 27.1643M22.5224 27.1643C22.6237 27.2655 22.6806 27.4029 22.6806 27.5461M22.5224 27.1643L22.6806 27.5461M22.6806 27.5461V34.9954V27.5461ZM32.1297 44.4443H32.8716L32.1291 43.9443V44.4443H32.1297Z" fill="#005FB7" stroke="#005FB7"/>
<path d="M30.1465 58.9368L30.1456 58.9361L10.5861 44.6305C10.5861 44.6304 10.586 44.6304 10.586 44.6304C10.5148 44.5782 10.4575 44.5094 10.4191 44.4299C10.3806 44.3504 10.3623 44.2627 10.3656 44.1745C10.3689 44.0862 10.3939 44.0002 10.4382 43.9238C10.4825 43.8474 10.5449 43.7831 10.6199 43.7364L10.6201 43.7363L14.886 41.0778L15.403 40.7556L14.9862 40.3113C14.5342 39.8296 13.57 39.0513 11.7849 37.9944L11.784 37.9938C11.2277 37.6661 10.7754 37.4207 10.6529 37.3571L10.6532 37.3567C10.5537 37.3041 10.4732 37.2217 10.4228 37.1211C10.3724 37.0204 10.3548 36.9066 10.3723 36.7954C10.3898 36.6842 10.4416 36.5813 10.5205 36.501L10.1638 36.1507L10.5205 36.501C10.5993 36.4207 10.7013 36.3671 10.8121 36.3476L10.8249 36.3453L10.8375 36.3425C11.0479 36.2941 11.4676 36.132 11.9688 35.9262C12.4899 35.7121 13.1495 35.429 13.8707 35.1138C15.3136 34.4831 17.0137 33.7191 18.3658 33.1112C18.5868 33.0121 18.8056 32.9138 19.021 32.817C20.1317 32.3181 21.1523 31.8597 21.9239 31.5246L21.9239 31.5246L21.9286 31.5225C21.9938 31.4934 22.064 31.4775 22.1354 31.4758C22.2067 31.474 22.2776 31.4864 22.3441 31.5122C22.4107 31.538 22.4714 31.5767 22.5229 31.6261C22.5743 31.6755 22.6155 31.7347 22.6439 31.8001C22.6724 31.8655 22.6876 31.9359 22.6887 32.0072C22.6898 32.0786 22.6768 32.1494 22.6504 32.2157C22.6239 32.2819 22.5846 32.3423 22.5347 32.3933C22.4848 32.4443 22.4253 32.4849 22.3596 32.5127L22.3596 32.5127L22.3548 32.5148C21.4418 32.9133 20.16 33.4884 18.8074 34.0965C16.1682 35.2825 14.353 36.0902 13.117 36.615L12.2235 36.9944L13.0512 37.5015C13.7489 37.9291 14.4186 38.4007 15.0561 38.9137C15.3368 39.143 15.7923 39.522 16.1113 39.9845C16.4296 40.446 16.5485 40.8912 16.3536 41.3261C16.3095 41.4234 16.2375 41.5054 16.1467 41.5618L16.1459 41.5623L12.4955 43.8373L11.8678 44.2284L12.4647 44.6651L28.5646 56.4438L29.63 57.2233L29.3483 55.9335L26.7015 43.8175L26.7015 43.8175L26.7001 43.8114C26.684 43.7417 26.6818 43.6696 26.6938 43.5991C26.7057 43.5286 26.7316 43.4612 26.7698 43.4008C26.808 43.3404 26.8578 43.2881 26.9164 43.2471C26.9749 43.2061 27.041 43.1771 27.1109 43.1619C27.1807 43.1466 27.2529 43.1454 27.3232 43.1582C27.3935 43.1711 27.4606 43.1978 27.5206 43.2368C27.5805 43.2757 27.6321 43.3262 27.6723 43.3853C27.7126 43.4444 27.7407 43.5108 27.7551 43.5808L27.7551 43.5809L27.7564 43.587L30.9895 58.3849L30.9896 58.3851C31.0068 58.4638 31.0062 58.5455 30.9877 58.624C30.9693 58.7025 30.9335 58.7758 30.883 58.8387C30.8325 58.9015 30.7686 58.9523 30.6959 58.9872C30.6233 59.0222 30.5437 59.0404 30.4631 59.0405C30.3492 59.0406 30.2383 59.0042 30.1465 58.9368Z" fill="#005FB7" stroke="#005FB7"/>
<path d="M34.5361 59.0406H34.5366C34.6506 59.0407 34.7617 59.0044 34.8536 58.9368L34.8545 58.9361L54.4146 44.6305L34.5361 59.0406ZM34.5361 59.0406C34.4554 59.0406 34.3757 59.0225 34.3029 58.9876C34.2301 58.9528 34.166 58.902 34.1154 58.8392C34.0648 58.7763 34.0289 58.7029 34.0105 58.6243C33.992 58.5457 33.9913 58.464 34.0086 58.3852L34.0086 58.385M34.5361 59.0406L34.0086 58.385M34.0086 58.385L37.2417 43.5871L37.2417 43.5871M34.0086 58.385L37.2417 43.5871M37.2417 43.5871L37.243 43.5809M37.2417 43.5871L37.243 43.5809M37.243 43.5809C37.2574 43.5109 37.2855 43.4444 37.3258 43.3854C37.3661 43.3263 37.4177 43.2758 37.4776 43.2368C37.5375 43.1979 37.6046 43.1712 37.6749 43.1583C37.7452 43.1455 37.8174 43.1467 37.8873 43.162C37.9571 43.1772 38.0232 43.2062 38.0818 43.2472C38.1403 43.2882 38.1901 43.3404 38.2284 43.4009C38.2666 43.4613 38.2924 43.5287 38.3044 43.5992C38.3163 43.6696 38.3142 43.7418 38.298 43.8114L38.298 43.8114M37.243 43.5809L38.298 43.8114M38.298 43.8114L38.2966 43.8177M38.298 43.8114L38.2966 43.8177M38.2966 43.8177L35.6518 55.9337L35.3704 57.2229M38.2966 43.8177L35.3704 57.2229M35.3704 57.2229L36.4354 56.4439M35.3704 57.2229L36.4354 56.4439M36.4354 56.4439L52.5347 44.6692L53.1317 44.2325M36.4354 56.4439L53.1317 44.2325M53.1317 44.2325L52.5039 43.8412M53.1317 44.2325L52.5039 43.8412M52.5039 43.8412L48.8535 41.5662L48.8528 41.5658M52.5039 43.8412L48.8528 41.5658M48.8528 41.5658C48.762 41.5094 48.69 41.4274 48.6458 41.3301C48.451 40.8953 48.5698 40.4509 48.888 39.9899C49.207 39.5278 49.6618 39.1493 49.944 38.9172C50.5813 38.4044 51.2508 37.9329 51.9482 37.5055L52.7759 36.9983L51.8824 36.619C50.6465 36.0942 48.8313 35.2864 46.1921 34.1005L48.8528 41.5658ZM42.6443 32.5186L42.6444 32.5187C43.5589 32.9172 44.8397 33.4925 46.1921 34.1005L42.6443 32.5186ZM42.6443 32.5186C42.513 32.4614 42.4098 32.3544 42.3573 32.2211C42.3049 32.0878 42.3076 31.9391 42.3648 31.8078C42.422 31.6765 42.5291 31.5733 42.6624 31.5209L42.4799 31.0568M42.6443 32.5186L42.4799 31.0568M42.4799 31.0568L42.6624 31.5209C42.7957 31.4684 42.9443 31.4711 43.0757 31.5283L43.0778 31.5293M42.4799 31.0568L43.0778 31.5293M43.0778 31.5293C43.8647 31.8677 44.9111 32.3375 46.0492 32.8484M43.0778 31.5293L46.0492 32.8484M54.1769 36.3456L54.1656 36.3431C53.9538 36.2954 53.5328 36.1332 53.032 35.9277C52.5109 35.7137 51.8511 35.4305 51.1299 35.1151C49.7324 34.5038 48.0935 33.767 46.7634 33.1691L46.6353 33.1115L54.1769 36.3456ZM54.1769 36.3456L54.1884 36.3476M54.1769 36.3456L54.1884 36.3476M54.1884 36.3476C54.2992 36.3672 54.4011 36.4209 54.4799 36.5012C54.5587 36.5815 54.6105 36.6844 54.628 36.7956C54.6455 36.9067 54.6278 37.0205 54.5774 37.1212C54.5284 37.2189 54.451 37.2995 54.3554 37.3522C54.3531 37.3533 54.3513 37.3543 54.35 37.3549L54.3258 37.3674C54.3088 37.3763 54.2857 37.3886 54.2574 37.4038C54.2005 37.4345 54.1194 37.4788 54.0189 37.5346C53.8178 37.6464 53.5372 37.8053 53.2152 37.9953L53.2147 37.9956M54.1884 36.3476L53.2147 37.9956M53.2147 37.9956C51.43 39.0514 50.4665 39.8297 50.0145 40.3114L49.5977 40.7557M53.2147 37.9956L49.5977 40.7557M49.5977 40.7557L50.1147 41.0779M49.5977 40.7557L50.1147 41.0779M50.1147 41.0779L54.3807 43.7364L54.3809 43.7365M50.1147 41.0779L54.3809 43.7365M54.3809 43.7365C54.4558 43.7832 54.5182 43.8475 54.5625 43.9239C54.6069 44.0002 54.6318 44.0863 54.6351 44.1746C54.6385 44.2628 54.6201 44.3505 54.5817 44.43L55.0318 44.6477M54.3809 43.7365L55.0318 44.6477M55.0318 44.6477L54.5817 44.43C54.5433 44.5094 54.486 44.5781 54.415 44.6303L55.0318 44.6477ZM46.0492 32.8484C46.2421 32.935 46.4376 33.0228 46.6349 33.1113L46.0492 32.8484Z" fill="#005FB7" stroke="#005FB7"/>
<path d="M32.5005 29.6944C27.4572 29.6944 22.4834 28.9553 18.495 27.6144C16.1147 26.8136 12.125 25.1015 12.125 22.6321C12.125 21.557 12.84 20.6821 14.2505 20.0321C15.2905 19.5524 16.7387 19.1735 18.6705 18.8738C21.9654 18.3616 26.6193 18.1023 32.5044 18.1023C38.3895 18.1023 43.0442 18.3623 46.3384 18.8738C48.2689 19.1735 49.7145 19.5524 50.7584 20.0321C52.1682 20.6821 52.8833 21.5544 52.8833 22.6321C52.8833 25.1021 48.891 26.8136 46.5133 27.6144C42.5184 28.9553 37.5439 29.6944 32.5005 29.6944ZM32.5005 20.1836C26.722 20.1836 22.1753 20.4351 18.9864 20.9304C17.2723 21.1963 15.9704 21.5304 15.1169 21.923C14.4461 22.2317 14.2024 22.5151 14.2024 22.6308C14.2024 22.7836 14.428 23.2301 15.2801 23.8294C16.1901 24.4664 17.5278 25.093 19.158 25.6416C22.8838 26.8955 27.7464 27.6144 32.5005 27.6144C37.2546 27.6144 42.1205 26.8955 45.8431 25.6416C47.4733 25.0904 48.8156 24.4664 49.721 23.8294C50.5738 23.2301 50.7987 22.7836 50.7987 22.6308C50.7987 22.5151 50.5556 22.2317 49.8848 21.923C49.0307 21.533 47.7294 21.1963 46.0154 20.9304C42.8265 20.4351 38.279 20.1836 32.5005 20.1836Z" fill="white"/>
</svg>
