<svg width="90" height="90" viewBox="0 0 90 90" fill="none" xmlns="http://www.w3.org/2000/svg">
<path d="M59.691 48.6421L58.791 48.1457C58.5317 48.0111 58.3195 47.8006 58.1829 47.5424C58.0462 47.2841 57.9915 46.9903 58.026 46.7001C58.1892 45.5725 58.1892 44.4274 58.026 43.2998C57.9915 43.0096 58.0462 42.7158 58.1829 42.4576C58.3195 42.1993 58.5317 41.9888 58.791 41.8542L59.691 41.3578C59.8652 41.2654 60.0186 41.1386 60.142 40.9849C60.2655 40.8313 60.3563 40.6541 60.4089 40.4642C60.4616 40.2743 60.4749 40.0756 60.4482 39.8804C60.4215 39.6851 60.3553 39.4973 60.2535 39.3286L57.7687 35.2026C57.5514 34.8576 57.2102 34.6091 56.8151 34.5081C56.4201 34.4071 56.0015 34.4614 55.6453 34.6598L54.7354 35.1562C54.4575 35.3038 54.1433 35.3689 53.8297 35.344C53.5161 35.3191 53.2161 35.2051 52.965 35.0156C52.0686 34.3588 51.0935 33.8169 50.0625 33.4026C49.7733 33.2997 49.5219 33.1119 49.3413 32.8637C49.1606 32.6156 49.0591 32.3186 49.05 32.0118V31.0162C49.0452 30.8164 49.0011 30.6194 48.9203 30.4366C48.8394 30.2539 48.7233 30.0888 48.5786 29.9509C48.4339 29.813 48.2634 29.7049 48.077 29.6329C47.8905 29.5609 47.6917 29.5264 47.4918 29.5312H42.5081C42.1052 29.5225 41.7154 29.674 41.4241 29.9524C41.1327 30.2308 40.9638 30.6134 40.9542 31.0162V32.0118C40.945 32.3186 40.8435 32.6156 40.6629 32.8637C40.4822 33.1119 40.2308 33.2997 39.9417 33.4026C38.9091 33.8166 37.9326 34.3585 37.035 35.0156C36.7839 35.2051 36.4839 35.3191 36.1702 35.344C35.8566 35.3689 35.5424 35.3038 35.2645 35.1562L34.3546 34.6542C33.9985 34.4558 33.5798 34.4015 33.1848 34.5025C32.7898 34.6034 32.4485 34.852 32.2312 35.197L29.7393 39.3229C29.6379 39.4922 29.572 39.6803 29.5458 39.8759C29.5196 40.0714 29.5336 40.2703 29.5869 40.4602C29.6402 40.6502 29.7317 40.8273 29.8559 40.9807C29.98 41.134 30.1342 41.2604 30.3089 41.3521L31.2089 41.8486C31.4682 41.9832 31.6804 42.1937 31.8171 42.4519C31.9537 42.7102 32.0084 43.004 31.9739 43.2942C31.8107 44.4217 31.8107 45.5669 31.9739 46.6945C32.0084 46.9847 31.9537 47.2785 31.8171 47.5367C31.6804 47.795 31.4682 48.0055 31.2089 48.1401L30.3089 48.6365C30.1342 48.7282 29.98 48.8547 29.8559 49.008C29.7317 49.1614 29.6402 49.3385 29.5869 49.5284C29.5336 49.7184 29.5196 49.9172 29.5458 50.1128C29.572 50.3084 29.6379 50.4965 29.7393 50.6657L32.2312 54.7917C32.4485 55.1367 32.7898 55.3852 33.1848 55.4862C33.5798 55.5872 33.9985 55.5329 34.3546 55.3345L35.2645 54.8437C35.5424 54.6962 35.8566 54.631 36.1702 54.6559C36.4839 54.6808 36.7839 54.7948 37.035 54.9843C37.9313 55.6411 38.9064 56.183 39.9375 56.5973C40.2266 56.7002 40.478 56.8881 40.6586 57.1362C40.8393 57.3844 40.9408 57.6813 40.95 57.9881V58.9837C40.9547 59.1835 40.9988 59.3805 41.0796 59.5633C41.1605 59.7461 41.2766 59.9111 41.4213 60.049C41.566 60.1869 41.7365 60.295 41.923 60.367C42.1094 60.439 42.3083 60.4736 42.5081 60.4687H47.4918C47.8947 60.4774 48.2845 60.3259 48.5758 60.0475C48.8672 59.7691 49.0361 59.3865 49.0457 58.9837V57.9881C49.0549 57.6813 49.1564 57.3844 49.337 57.1362C49.5177 56.8881 49.7691 56.7002 50.0582 56.5973C51.0908 56.1833 52.0673 55.6414 52.965 54.9843C53.2161 54.7948 53.5161 54.6808 53.8297 54.6559C54.1433 54.631 54.4575 54.6962 54.7354 54.8437L55.6453 55.3457C56.0015 55.5441 56.4201 55.5984 56.8151 55.4975C57.2102 55.3965 57.5514 55.1479 57.7687 54.8029L60.2606 50.677C60.363 50.5075 60.4296 50.3189 60.4563 50.1228C60.483 49.9266 60.4692 49.727 60.4159 49.5364C60.3625 49.3458 60.2707 49.1681 60.146 49.0143C60.0214 48.8605 59.8665 48.7338 59.691 48.6421ZM45 51.3281C43.7484 51.3281 42.5249 50.9569 41.4842 50.2616C40.4436 49.5663 39.6325 48.5779 39.1535 47.4216C38.6746 46.2653 38.5492 44.9929 38.7934 43.7654C39.0376 42.5379 39.6403 41.4103 40.5253 40.5253C41.4103 39.6403 42.5379 39.0376 43.7654 38.7934C44.9929 38.5493 46.2653 38.6746 47.4216 39.1535C48.5779 39.6325 49.5663 40.4436 50.2616 41.4842C50.9569 42.5249 51.3281 43.7484 51.3281 45C51.3281 46.6783 50.6614 48.2879 49.4746 49.4746C48.2879 50.6614 46.6783 51.3281 45 51.3281Z" fill="#005FB7"/>
<path d="M54.0561 56.0687L54.966 56.5722C55.6414 56.9421 56.4328 57.0395 57.1778 56.8444C57.9228 56.6493 58.5649 56.1766 58.9724 55.5231L61.4643 51.4C61.6635 51.0735 61.7941 50.7099 61.848 50.3312C61.9019 49.9526 61.8781 49.5669 61.7779 49.1978C61.6771 48.82 61.5005 48.4667 61.2587 48.1594C61.017 47.8521 60.7151 47.5973 60.3716 47.4105L59.4182 46.9014C59.509 46.2717 59.5546 45.6363 59.5546 45.0002C59.5546 44.3701 59.5082 43.7345 59.4702 43.0862L60.3716 42.5884C60.7151 42.402 61.017 42.1475 61.2588 41.8404C61.5006 41.5333 61.6772 41.1801 61.7779 40.8025C61.8779 40.4336 61.9016 40.0482 61.8477 39.6698C61.7938 39.2914 61.6633 38.928 61.4643 38.6017L58.9724 34.4758C58.5642 33.8231 57.922 33.3511 57.1772 33.1563C56.4325 32.9616 55.6414 33.0588 54.966 33.4281L54.0576 33.9302C54.0136 33.9457 53.9663 33.9495 53.9204 33.9411C53.8745 33.9327 53.8316 33.9124 53.796 33.8823C52.803 33.1546 51.7225 32.5546 50.5799 32.0964C50.5311 32.079 50.4872 32.05 50.4519 32.012V31.0178C50.4419 30.242 50.1247 29.5019 49.5698 28.9596C49.0149 28.4173 48.2676 28.1173 47.4918 28.1252H42.508C41.7322 28.1173 40.9849 28.4173 40.43 28.9596C39.8751 29.5019 39.5579 30.242 39.5479 31.0178V32.0022C39.5152 32.0474 39.4688 32.0809 39.4157 32.0978C38.2728 32.5555 37.1922 33.1556 36.1996 33.8837C36.1644 33.9137 36.122 33.9339 36.0766 33.9423C36.0312 33.9507 35.9844 33.947 35.9408 33.9316L35.031 33.4281C34.3555 33.0586 33.5642 32.9614 32.8193 33.1564C32.0744 33.3515 31.4323 33.824 31.0246 34.4772L28.5327 38.6003C28.3334 38.9268 28.2029 39.2904 28.1489 39.6691C28.095 40.0477 28.1189 40.4334 28.2191 40.8025C28.3198 41.1803 28.4965 41.5336 28.7382 41.8409C28.98 42.1482 29.2819 42.403 29.6254 42.5898L30.5788 43.0989C30.4889 43.7286 30.4443 44.364 30.4452 45.0002C30.4452 45.6301 30.4916 46.2658 30.5296 46.9141L29.6282 47.4119C29.2847 47.5983 28.9828 47.8528 28.741 48.1599C28.4992 48.467 28.3226 48.8202 28.2219 49.1978C28.1219 49.5667 28.0981 49.9521 28.1521 50.3305C28.206 50.7089 28.3364 51.0723 28.5355 51.3986L31.0274 55.5245C31.4353 56.1775 32.0775 56.6497 32.8224 56.8445C33.5673 57.0393 34.3584 56.9418 35.0338 56.5722L35.9422 56.0702C35.9861 56.0537 36.0336 56.0495 36.0796 56.0579C36.1257 56.0663 36.1686 56.0871 36.2038 56.118C37.1968 56.8457 38.2773 57.4457 39.4199 57.9039C39.4687 57.9213 39.5126 57.9503 39.5479 57.9883V58.9825C39.5579 59.7583 39.8751 60.4984 40.43 61.0407C40.9849 61.5829 41.7322 61.883 42.508 61.8751H47.4918C48.2676 61.883 49.0149 61.5829 49.5698 61.0407C50.1247 60.4984 50.4419 59.7583 50.4519 58.9825V57.9981C50.4846 57.9529 50.5309 57.9194 50.5841 57.9025C51.727 57.4448 52.8075 56.8447 53.8002 56.1166C53.835 56.0871 53.877 56.0671 53.9218 56.0588C53.9667 56.0504 54.013 56.0538 54.0561 56.0687ZM52.1352 53.8497C51.3331 54.4368 50.4605 54.9211 49.5379 55.2911C48.9871 55.4979 48.5113 55.8658 48.1727 56.3469C47.8341 56.828 47.6482 57.4 47.6394 57.9883V58.9825C47.6394 59.0064 47.5874 59.0626 47.4918 59.0626H42.508C42.4124 59.0626 42.3604 59.0064 42.3604 58.9825V57.9883C42.3517 57.4005 42.1662 56.829 41.8281 56.3482C41.49 55.8673 41.0149 55.4995 40.4647 55.2925C39.5418 54.9223 38.6687 54.4381 37.866 53.8511C37.3311 53.4567 36.6842 53.2433 36.0196 53.2422C35.5177 53.2401 35.0235 53.3659 34.5838 53.6078L33.6739 54.1112C33.6353 54.1321 33.5907 54.1394 33.5474 54.132C33.5041 54.1246 33.4645 54.103 33.4349 54.0705L30.9866 49.8742L31.8908 49.3764C32.4015 49.1052 32.8166 48.684 33.0804 48.1696C33.3442 47.6551 33.4439 47.0721 33.366 46.4992C33.2216 45.5046 33.2216 44.4943 33.366 43.4997C33.4437 42.9263 33.3435 42.3429 33.0789 41.8284C32.8143 41.3138 32.3981 40.8929 31.8866 40.6225L30.943 40.06L33.4349 35.9369C33.4637 35.9033 33.5033 35.8807 33.5469 35.873C33.5905 35.8653 33.6354 35.873 33.6739 35.8947L34.5852 36.3995C35.0987 36.6738 35.6796 36.7966 36.2602 36.7535C36.8408 36.7104 37.3972 36.5033 37.8646 36.1562C38.6667 35.5691 39.5393 35.0849 40.4619 34.7148C41.0127 34.5081 41.4884 34.1401 41.8271 33.659C42.1657 33.1779 42.3516 32.6059 42.3604 32.0177V31.0234C42.3604 30.9995 42.4124 30.9433 42.508 30.9433H47.4918C47.5874 30.9433 47.6394 30.9995 47.6394 31.0234V32.0177C47.6481 32.6054 47.8336 33.1769 48.1717 33.6577C48.5098 34.1386 48.9849 34.5064 49.535 34.7134C50.458 35.0836 51.3311 35.5679 52.1338 36.1548C52.6007 36.5042 53.1578 36.7127 53.7394 36.7558C54.3209 36.7989 54.9027 36.6748 55.416 36.3981L56.3258 35.8947C56.3646 35.8741 56.4091 35.8669 56.4523 35.8743C56.4956 35.8816 56.5352 35.9032 56.5649 35.9355L59.0132 40.1317L58.109 40.6295C57.5983 40.9007 57.1831 41.3219 56.9194 41.8364C56.6556 42.3508 56.5559 42.9338 56.6338 43.5067C56.7782 44.5013 56.7782 45.5116 56.6338 46.5062C56.5561 47.0796 56.6563 47.663 56.9209 48.1776C57.1854 48.6921 57.6016 49.1131 58.1132 49.3834L59.0568 49.9459L56.5649 54.0691C56.5359 54.1024 56.4964 54.1249 56.4528 54.1325C56.4093 54.1402 56.3645 54.1327 56.3258 54.1112L55.4146 53.6064C54.9013 53.3311 54.3203 53.2078 53.7395 53.2509C53.1587 53.294 52.6022 53.5017 52.1352 53.8497Z" fill="white"/>
<path d="M45 37.2656C43.4703 37.2656 41.9749 37.7192 40.703 38.5691C39.4311 39.419 38.4398 40.6269 37.8544 42.0402C37.269 43.4535 37.1158 45.0086 37.4142 46.5089C37.7127 48.0092 38.4493 49.3874 39.531 50.469C40.6126 51.5507 41.9908 52.2873 43.4911 52.5858C44.9914 52.8842 46.5465 52.731 47.9598 52.1456C49.3731 51.5602 50.581 50.5689 51.4309 49.297C52.2808 48.0251 52.7344 46.5297 52.7344 45C52.7321 42.9494 51.9166 40.9834 50.4666 39.5334C49.0166 38.0834 47.0506 37.2679 45 37.2656ZM45 49.9219C44.0265 49.9219 43.075 49.6332 42.2656 49.0924C41.4562 48.5516 40.8253 47.7829 40.4528 46.8835C40.0803 45.9842 39.9828 44.9945 40.1727 44.0398C40.3626 43.085 40.8314 42.208 41.5197 41.5197C42.208 40.8314 43.085 40.3626 44.0398 40.1727C44.9945 39.9828 45.9842 40.0803 46.8835 40.4528C47.7829 40.8253 48.5516 41.4562 49.0924 42.2656C49.6332 43.075 49.9219 44.0265 49.9219 45C49.9219 46.3054 49.4033 47.5573 48.4803 48.4803C47.5573 49.4033 46.3054 49.9219 45 49.9219Z" fill="white"/>
<path d="M9.14057 74.5314C9.14057 75.6439 9.47047 76.7315 10.0886 77.6565C10.7066 78.5815 11.5851 79.3025 12.613 79.7282C13.6408 80.154 14.7718 80.2654 15.863 80.0483C16.9541 79.8313 17.9564 79.2956 18.743 78.5089C19.5297 77.7222 20.0655 76.7199 20.2825 75.6288C20.4995 74.5377 20.3881 73.4066 19.9624 72.3788C19.5367 71.351 18.8157 70.4725 17.8907 69.8544C16.9656 69.2363 15.8781 68.9064 14.7656 68.9064C13.9497 68.9101 13.1447 69.093 12.4073 69.4422C7.07005 62.4139 4.19267 53.8252 4.2187 45.0002C4.2212 38.2294 5.90882 31.5658 9.12937 25.61C12.3499 19.6542 17.0021 14.5937 22.6666 10.8846C28.331 7.17553 34.8295 4.93456 41.5761 4.36377C48.3228 3.79298 55.1054 4.9103 61.3124 7.61501L62.4375 5.03876C55.8025 2.14692 48.5521 0.952016 41.3401 1.56178C34.1281 2.17155 27.1813 4.56682 21.1261 8.53159C15.0709 12.4964 10.0977 17.9059 6.65507 24.2725C3.21243 30.6391 1.40859 37.7624 1.4062 45.0002C1.37784 54.4773 4.48151 63.6983 10.2346 71.2295C9.52657 72.185 9.14315 73.3422 9.14057 74.5314ZM14.7656 71.7189C15.3218 71.7189 15.8656 71.8839 16.3281 72.1929C16.7906 72.5019 17.1511 72.9412 17.364 73.4551C17.5769 73.969 17.6326 74.5345 17.524 75.0801C17.4155 75.6257 17.1476 76.1268 16.7543 76.5201C16.361 76.9135 15.8598 77.1814 15.3143 77.2899C14.7687 77.3984 14.2032 77.3427 13.6893 77.1298C13.1754 76.917 12.7361 76.5565 12.4271 76.094C12.118 75.6314 11.9531 75.0877 11.9531 74.5314C11.9531 73.7855 12.2494 73.0701 12.7768 72.5427C13.3043 72.0152 14.0197 71.7189 14.7656 71.7189Z" fill="white"/>
<path d="M80.8594 15.4688C80.8594 14.3562 80.5295 13.2687 79.9114 12.3437C79.2933 11.4186 78.4148 10.6977 77.387 10.2719C76.3591 9.84619 75.2281 9.73479 74.137 9.95184C73.0458 10.1689 72.0436 10.7046 71.2569 11.4913C70.4702 12.2779 69.9345 13.2802 69.7175 14.3714C69.5004 15.4625 69.6118 16.5935 70.0376 17.6213C70.4633 18.6492 71.1843 19.5277 72.1093 20.1458C73.0343 20.7639 74.1219 21.0938 75.2344 21.0938C76.0502 21.09 76.8553 20.9071 77.5927 20.558C82.9299 27.5863 85.8073 36.1749 85.7813 45C85.7787 51.7707 84.0911 58.4344 80.8706 64.3902C77.65 70.3459 72.9978 75.4065 67.3334 79.1156C61.669 82.8246 55.1705 85.0656 48.4238 85.6364C41.6772 86.2072 34.8946 85.0899 28.6875 82.3852L27.5625 84.9614C34.1974 87.8532 41.4478 89.0481 48.6598 88.4384C55.8718 87.8286 62.8187 85.4333 68.8739 81.4686C74.9291 77.5038 79.9022 72.0942 83.3449 65.7277C86.7875 59.3611 88.5914 52.2377 88.5938 45C88.6221 35.5228 85.5184 26.3018 79.7653 18.7706C80.4734 17.8151 80.8568 16.658 80.8594 15.4688ZM75.2344 18.2813C74.6781 18.2813 74.1343 18.1163 73.6718 17.8073C73.2093 17.4982 72.8488 17.059 72.636 16.545C72.4231 16.0311 72.3674 15.4656 72.4759 14.9201C72.5844 14.3745 72.8523 13.8734 73.2456 13.48C73.639 13.0867 74.1401 12.8188 74.6857 12.7103C75.2313 12.6018 75.7968 12.6575 76.3107 12.8703C76.8246 13.0832 77.2638 13.4437 77.5729 13.9062C77.8819 14.3687 78.0469 14.9125 78.0469 15.4688C78.0469 16.2147 77.7506 16.93 77.2231 17.4575C76.6957 17.9849 75.9803 18.2813 75.2344 18.2813Z" fill="white"/>
<path d="M45 14.0625C42.5188 14.0613 40.0463 14.3573 37.6355 14.9442L38.3021 17.6766C42.4429 16.6668 46.759 16.6104 50.9249 17.5116C55.0907 18.4129 58.9976 20.2482 62.3508 22.8793C65.704 25.5104 68.4161 28.8684 70.2824 32.7003C72.1488 36.5322 73.1208 40.7378 73.125 45C73.1396 50.7827 71.3492 56.4258 68.0035 61.1423C67.201 60.7068 66.3037 60.4755 65.3907 60.4688C64.1322 60.4625 62.9076 60.8764 61.911 61.6449C60.9143 62.4133 60.2026 63.4924 59.8885 64.711C59.5744 65.9297 59.676 67.2183 60.1771 68.3728C60.6782 69.5272 61.5502 70.4814 62.6549 71.0842C63.7597 71.687 65.0339 71.904 66.2759 71.7007C67.5179 71.4974 68.6565 70.8855 69.5114 69.962C70.3663 69.0384 70.8885 67.856 70.9955 66.602C71.1024 65.3481 70.7878 64.0943 70.1016 63.0394C73.91 57.7969 75.9537 51.4797 75.9375 45C75.9282 36.7977 72.6658 28.9341 66.8659 23.1342C61.066 17.3343 53.2023 14.0718 45 14.0625ZM65.3907 68.9063C64.8344 68.9063 64.2906 68.7413 63.8281 68.4323C63.3656 68.1232 63.0051 67.684 62.7922 67.1701C62.5794 66.6561 62.5237 66.0906 62.6322 65.5451C62.7407 64.9995 63.0086 64.4984 63.4019 64.105C63.7952 63.7117 64.2964 63.4438 64.842 63.3353C65.3875 63.2268 65.953 63.2825 66.4669 63.4953C66.9809 63.7082 67.4201 64.0687 67.7292 64.5312C68.0382 64.9937 68.2032 65.5375 68.2032 66.0938C68.2032 66.8397 67.9068 67.555 67.3794 68.0825C66.8519 68.6099 66.1366 68.9063 65.3907 68.9063Z" fill="white"/>
<path d="M44.9998 75.9375C47.4811 75.9388 49.9536 75.6428 52.3644 75.0558L51.6978 72.3235C47.5569 73.3333 43.2408 73.3896 39.075 72.4884C34.9091 71.5872 31.0023 69.7518 27.6491 67.1207C24.2959 64.4897 21.5838 61.1316 19.7175 57.2997C17.8511 53.4679 16.8791 49.2623 16.8749 45C16.8603 39.2173 18.6507 33.5742 21.9964 28.8577C22.7989 29.2932 23.6962 29.5246 24.6092 29.5313C25.8677 29.5375 27.0923 29.1236 28.0889 28.3552C29.0856 27.5867 29.7973 26.5077 30.1114 25.289C30.4254 24.0703 30.3239 22.7817 29.8228 21.6273C29.3217 20.4729 28.4497 19.5186 27.345 18.9158C26.2402 18.313 24.9659 18.0961 23.724 18.2993C22.482 18.5026 21.3434 19.1145 20.4885 20.0381C19.6336 20.9616 19.1113 22.1441 19.0044 23.398C18.8975 24.6519 19.2121 25.9057 19.8983 26.9607C16.0899 32.2031 14.0462 38.5203 14.0624 45C14.0717 53.2023 17.3341 61.066 23.134 66.8659C28.9339 72.6658 36.7976 75.9282 44.9998 75.9375ZM24.6092 21.0938C25.1655 21.0938 25.7093 21.2587 26.1718 21.5678C26.6343 21.8768 26.9948 22.3161 27.2076 22.83C27.4205 23.3439 27.4762 23.9094 27.3677 24.455C27.2592 25.0005 26.9913 25.5017 26.598 25.895C26.2046 26.2884 25.7035 26.5562 25.1579 26.6647C24.6123 26.7733 24.0468 26.7176 23.5329 26.5047C23.019 26.2918 22.5798 25.9313 22.2707 25.4688C21.9617 25.0063 21.7967 24.4625 21.7967 23.9063C21.7967 23.1604 22.093 22.445 22.6205 21.9175C23.1479 21.3901 23.8633 21.0938 24.6092 21.0938Z" fill="white"/>
</svg>
