<svg width="90" height="90" viewBox="0 0 90 90" fill="none" xmlns="http://www.w3.org/2000/svg">
<path d="M75.2485 63.2812L73.4625 68.7516C73.4225 68.8809 73.357 69.001 73.2699 69.1046C73.1827 69.2083 73.0757 69.2934 72.9551 69.355C72.8345 69.4166 72.7028 69.4535 72.5678 69.4633C72.4327 69.4732 72.297 69.4559 72.1688 69.4125L69.736 68.625C69.5066 68.5523 69.2591 68.5616 69.0359 68.6514C68.8126 68.7412 68.6276 68.9059 68.5125 69.1172C67.4177 71.1227 66.0708 72.98 64.5047 74.6438C64.3397 74.8173 64.2408 75.0433 64.2254 75.2824C64.21 75.5214 64.279 75.7582 64.4203 75.9516L65.911 78.0187C65.9915 78.1286 66.0495 78.2532 66.0818 78.3855C66.1141 78.5178 66.12 78.6551 66.0991 78.7897C66.0782 78.9242 66.0309 79.0533 65.96 79.1696C65.8891 79.2859 65.796 79.387 65.686 79.4672L60.6797 83.0953C60.5712 83.1758 60.4477 83.2339 60.3165 83.2662C60.1852 83.2985 60.0489 83.3044 59.9154 83.2834C59.7819 83.2625 59.6539 83.2152 59.5388 83.1442C59.4238 83.0733 59.324 82.9802 59.2453 82.8703L57.7407 80.8031C57.5996 80.607 57.393 80.4679 57.1582 80.4112C56.9234 80.3544 56.676 80.3837 56.461 80.4938C54.3965 81.4646 52.2186 82.1732 49.9781 82.6031C49.7385 82.6431 49.5207 82.7667 49.3636 82.9521C49.2066 83.1375 49.1204 83.3726 49.1203 83.6156V86.1609C49.1207 86.2959 49.0944 86.4295 49.0429 86.5542C48.9915 86.6789 48.9159 86.7923 48.8205 86.8877C48.7251 86.9831 48.6118 87.0587 48.4871 87.1101C48.3623 87.1616 48.2287 87.1879 48.0938 87.1875H41.9063C41.7714 87.1879 41.6377 87.1616 41.513 87.1101C41.3883 87.0587 41.275 86.9831 41.1796 86.8877C41.0842 86.7923 41.0086 86.6789 40.9571 86.5542C40.9056 86.4295 40.8793 86.2959 40.8797 86.1609V83.6156C40.8797 83.3726 40.7935 83.1375 40.6364 82.9521C40.4793 82.7667 40.2616 82.6431 40.0219 82.6031C37.7814 82.1732 35.6036 81.4646 33.5391 80.4938C33.324 80.3837 33.0767 80.3544 32.8419 80.4112C32.6071 80.4679 32.4004 80.607 32.2594 80.8031L30.7547 82.8703C30.676 82.9802 30.5763 83.0733 30.4612 83.1442C30.3462 83.2152 30.2182 83.2625 30.0847 83.2834C29.9512 83.3044 29.8148 83.2985 29.6836 83.2662C29.5524 83.2339 29.4289 83.1758 29.3203 83.0953L24.3141 79.4672C24.204 79.387 24.1109 79.2859 24.04 79.1696C23.9691 79.0533 23.9219 78.9242 23.901 78.7897C23.8801 78.6551 23.886 78.5178 23.9182 78.3855C23.9505 78.2532 24.0086 78.1286 24.0891 78.0187L25.5797 75.9516C25.7211 75.7582 25.7901 75.5214 25.7746 75.2824C25.7592 75.0433 25.6604 74.8173 25.4953 74.6438C23.9293 72.98 22.5824 71.1227 21.4875 69.1172C21.3724 68.9059 21.1874 68.7412 20.9642 68.6514C20.741 68.5616 20.4934 68.5523 20.2641 68.625L17.8313 69.4125C17.703 69.4559 17.5673 69.4732 17.4323 69.4633C17.2972 69.4535 17.1655 69.4166 17.0449 69.355C16.9243 69.2934 16.8173 69.2083 16.7302 69.1046C16.643 69.001 16.5775 68.8809 16.5375 68.7516L14.7516 63.2812H28.125C29.5132 66.6128 31.8564 69.4589 34.8594 71.4609C37.8624 73.4629 41.3909 74.5312 45 74.5312C48.6092 74.5312 52.1376 73.4629 55.1406 71.4609C58.1437 69.4589 60.4869 66.6128 61.875 63.2812H75.2485Z" fill="#005FB7"/>
<path d="M22.5141 79.0031C22.5622 79.3192 22.6728 79.6224 22.8394 79.8953C23.006 80.1681 23.2252 80.405 23.4844 80.5922L28.4906 84.2344C29.0137 84.6143 29.6661 84.7711 30.3047 84.6703C30.6207 84.6222 30.924 84.5116 31.1968 84.345C31.4696 84.1784 31.7066 83.9591 31.8938 83.7L33.2156 81.8859C35.212 82.8148 37.3131 83.4994 39.4734 83.925V86.1609C39.4738 86.806 39.7302 87.4246 40.1864 87.8808C40.6426 88.3369 41.2611 88.5934 41.9062 88.5938H48.0938C48.7389 88.5934 49.3574 88.3369 49.8136 87.8808C50.2698 87.4246 50.5262 86.806 50.5266 86.1609V83.925C52.6869 83.4994 54.788 82.8148 56.7844 81.8859L58.1062 83.7C58.2934 83.9591 58.5304 84.1784 58.8032 84.345C59.076 84.5116 59.3793 84.6222 59.6953 84.6703C60.3338 84.7695 60.9857 84.6129 61.5094 84.2344L66.5156 80.5922C66.7748 80.405 66.994 80.1681 67.1606 79.8953C67.3272 79.6224 67.4378 79.3192 67.4859 79.0031C67.5834 78.3647 67.4269 77.7135 67.05 77.1891L65.7422 75.3891C67.2296 73.7652 68.527 71.9771 69.6094 70.0594L71.7328 70.7484C72.0363 70.8481 72.3564 70.8869 72.6749 70.8628C72.9934 70.8387 73.3041 70.752 73.5891 70.6078C73.8762 70.4651 74.1313 70.2656 74.3392 70.0215C74.5471 69.7774 74.7033 69.4937 74.7984 69.1875L76.7109 63.2953L73.7719 63.2812L72.2531 67.9641L70.1719 67.2891C69.6323 67.1144 69.0487 67.1342 68.5221 67.3448C67.9956 67.5554 67.5593 67.9436 67.2891 68.4422C66.2551 70.3429 64.9788 72.1013 63.4922 73.6734C63.0983 74.0846 62.8614 74.621 62.8228 75.1891C62.7843 75.7571 62.9465 76.3207 63.2812 76.7812L64.5609 78.5391L60.1594 81.7453L58.8797 79.9734C58.543 79.5147 58.0567 79.1878 57.5048 79.0492C56.9528 78.9105 56.3698 78.9688 55.8563 79.2141C53.9011 80.1416 51.8362 80.8173 49.7109 81.225C49.1516 81.3283 48.646 81.6237 48.2814 82.0602C47.9167 82.4967 47.7161 83.0469 47.7141 83.6156V85.7812H42.2859V83.6156C42.2821 83.0458 42.081 82.495 41.717 82.0566C41.353 81.6182 40.8484 81.3194 40.2891 81.2109C38.1627 80.8146 36.0969 80.1433 34.1438 79.2141C33.6296 78.9721 33.0476 78.9156 32.4965 79.054C31.9454 79.1924 31.4591 79.5173 31.1203 79.9734L29.8406 81.7453L25.4391 78.5391L26.7188 76.7812C27.0535 76.3207 27.2157 75.7571 27.1772 75.1891C27.1386 74.621 26.9017 74.0846 26.5078 73.6734C25.0212 72.1013 23.7449 70.3429 22.7109 68.4422C22.4407 67.9436 22.0044 67.5554 21.4779 67.3448C20.9513 67.1342 20.3677 67.1144 19.8281 67.2891L17.7469 67.9641L16.2281 63.2812H13.2891V63.3094L15.2016 69.1875C15.2967 69.4937 15.4529 69.7774 15.6608 70.0215C15.8686 70.2656 16.1238 70.4651 16.4109 70.6078C16.6959 70.752 17.0066 70.8387 17.3251 70.8628C17.6436 70.8869 17.9637 70.8481 18.2672 70.7484L20.3906 70.0594C21.473 71.9771 22.7704 73.7652 24.2578 75.3891L22.95 77.1891C22.5731 77.7135 22.4166 78.3647 22.5141 79.0031Z" fill="white"/>
<path d="M45 75.9375C48.9845 75.9356 52.8746 74.7248 56.1563 72.465C59.4379 70.2052 61.9567 67.0029 63.3797 63.2812H60.3422C58.9964 66.2195 56.8352 68.7095 54.1154 70.4552C51.3957 72.2009 48.2318 73.129 45 73.129C41.7682 73.129 38.6044 72.2009 35.8847 70.4552C33.1649 68.7095 31.0037 66.2195 29.6579 63.2812H26.6204C28.0434 67.0029 30.5622 70.2052 33.8438 72.465C37.1255 74.7248 41.0156 75.9356 45 75.9375Z" fill="white"/>
<path d="M35.1562 54.8605H54.8438C55.2167 54.8605 55.5744 54.7124 55.8381 54.4486C56.1018 54.1849 56.25 53.8272 56.25 53.4543V52.048H68.9062C69.2792 52.048 69.6369 51.8999 69.9006 51.6361C70.1643 51.3724 70.3125 51.0147 70.3125 50.6418V40.798C70.3085 39.4439 69.8153 38.1369 68.9237 37.1178C68.0322 36.0986 66.8024 35.4359 65.4609 35.2518C66.3529 34.5138 66.9953 33.5185 67.3007 32.4019C67.6061 31.2852 67.5596 30.1015 67.1674 29.0123C66.7752 27.9231 66.0564 26.9814 65.1093 26.3158C64.1621 25.6502 63.0327 25.293 61.875 25.293C60.7173 25.293 59.5879 25.6502 58.6407 26.3158C57.6936 26.9814 56.9748 27.9231 56.5826 29.0123C56.1904 30.1015 56.1439 31.2852 56.4493 32.4019C56.7547 33.5185 57.3971 34.5138 58.2891 35.2518C57.293 35.389 56.3529 35.7944 55.5694 36.4246C55.0059 35.2141 54.1095 34.1891 52.9849 33.4694C51.8602 32.7497 50.5539 32.365 49.2188 32.3605H48.9291C49.959 31.5447 50.7095 30.4286 51.0764 29.1669C51.4433 27.9052 51.4084 26.5607 50.9765 25.3198C50.5446 24.0789 49.7371 23.0032 48.6662 22.242C47.5952 21.4808 46.3139 21.0718 45 21.0718C43.6861 21.0718 42.4048 21.4808 41.3338 22.242C40.2629 23.0032 39.4554 24.0789 39.0235 25.3198C38.5916 26.5607 38.5567 27.9052 38.9236 29.1669C39.2905 30.4286 40.041 31.5447 41.0709 32.3605H40.7812C39.4461 32.365 38.1398 32.7497 37.0151 33.4694C35.8905 34.1891 34.9941 35.2141 34.4306 36.4246C33.6471 35.7944 32.707 35.389 31.7109 35.2518C32.6029 34.5138 33.2454 33.5185 33.5507 32.4019C33.8561 31.2852 33.8096 30.1015 33.4174 29.0123C33.0252 27.9231 32.3064 26.9814 31.3593 26.3158C30.4121 25.6502 29.2827 25.293 28.125 25.293C26.9673 25.293 25.8379 25.6502 24.8907 26.3158C23.9436 26.9814 23.2248 27.9231 22.8326 29.0123C22.4404 30.1015 22.3939 31.2852 22.6993 32.4019C23.0046 33.5185 23.6471 34.5138 24.5391 35.2518C23.1976 35.4359 21.9678 36.0986 21.0763 37.1178C20.1847 38.1369 19.6915 39.4439 19.6875 40.798V50.6418C19.6875 51.0147 19.8357 51.3724 20.0994 51.6361C20.3631 51.8999 20.7208 52.048 21.0938 52.048H33.75V53.4543C33.75 53.8272 33.8982 54.1849 34.1619 54.4486C34.4256 54.7124 34.7833 54.8605 35.1562 54.8605ZM61.875 28.1418C62.4313 28.1418 62.975 28.3067 63.4375 28.6158C63.9001 28.9248 64.2605 29.364 64.4734 29.878C64.6863 30.3919 64.742 30.9574 64.6335 31.503C64.5249 32.0485 64.2571 32.5497 63.8637 32.943C63.4704 33.3363 62.9693 33.6042 62.4237 33.7127C61.8781 33.8212 61.3126 33.7655 60.7987 33.5527C60.2848 33.3398 59.8455 32.9793 59.5365 32.5168C59.2274 32.0543 59.0625 31.5105 59.0625 30.9543C59.0625 30.2083 59.3588 29.493 59.8863 28.9655C60.4137 28.4381 61.1291 28.1418 61.875 28.1418ZM56.25 40.798C56.25 40.0521 56.5463 39.3367 57.0738 38.8093C57.6012 38.2818 58.3166 37.9855 59.0625 37.9855H64.6875C65.4334 37.9855 66.1488 38.2818 66.6762 38.8093C67.2037 39.3367 67.5 40.0521 67.5 40.798V49.2355H56.25V40.798ZM45 23.923C45.6953 23.923 46.375 24.1292 46.9532 24.5155C47.5313 24.9018 47.9819 25.4509 48.248 26.0933C48.5141 26.7357 48.5837 27.4425 48.4481 28.1245C48.3124 28.8065 47.9776 29.4329 47.4859 29.9246C46.9943 30.4162 46.3678 30.7511 45.6859 30.8867C45.0039 31.0224 44.297 30.9527 43.6546 30.6867C43.0122 30.4206 42.4632 29.97 42.0769 29.3918C41.6906 28.8137 41.4844 28.134 41.4844 27.4386C41.4844 26.5062 41.8548 25.612 42.5141 24.9527C43.1734 24.2934 44.0676 23.923 45 23.923ZM36.5625 40.798V39.3918C36.5625 38.2729 37.007 37.1998 37.7981 36.4087C38.5893 35.6175 39.6624 35.173 40.7812 35.173H49.2188C50.3376 35.173 51.4107 35.6175 52.2019 36.4087C52.993 37.1998 53.4375 38.2729 53.4375 39.3918V52.048H36.5625V40.798ZM28.125 28.1418C28.6813 28.1418 29.225 28.3067 29.6875 28.6158C30.1501 28.9248 30.5105 29.364 30.7234 29.878C30.9363 30.3919 30.992 30.9574 30.8835 31.503C30.7749 32.0485 30.5071 32.5497 30.1137 32.943C29.7204 33.3363 29.2193 33.6042 28.6737 33.7127C28.1281 33.8212 27.5626 33.7655 27.0487 33.5527C26.5348 33.3398 26.0955 32.9793 25.7865 32.5168C25.4775 32.0543 25.3125 31.5105 25.3125 30.9543C25.3125 30.2083 25.6088 29.493 26.1363 28.9655C26.6637 28.4381 27.3791 28.1418 28.125 28.1418ZM22.5 49.2355V40.798C22.5 40.0521 22.7963 39.3367 23.3238 38.8093C23.8512 38.2818 24.5666 37.9855 25.3125 37.9855H30.9375C31.6834 37.9855 32.3988 38.2818 32.9262 38.8093C33.4537 39.3367 33.75 40.0521 33.75 40.798V49.2355H22.5Z" fill="white"/>
<path d="M7.03125 57.6562H82.9688V60.4688H7.03125V57.6562Z" fill="white"/>
<path d="M35.2308 9.71432L54.3713 16.5515C54.5499 16.6151 54.7395 16.6418 54.9287 16.6302C55.1179 16.6186 55.3028 16.5689 55.4723 16.484L71.7694 8.32775L73.1756 10.8829C73.2955 11.1008 73.4709 11.283 73.6841 11.4109C73.8973 11.5389 74.1406 11.6081 74.3892 11.6113H74.4075C74.6539 11.6108 74.8958 11.5456 75.109 11.4222C75.3223 11.2988 75.4993 11.1216 75.6225 10.9082L79.7541 3.82635C79.8754 3.61667 79.9405 3.37922 79.943 3.13699C79.9456 2.89476 79.8855 2.65599 79.7687 2.44379C79.6518 2.2316 79.4822 2.05319 79.2761 1.92585C79.07 1.79851 78.8346 1.72656 78.5925 1.71697L70.3969 1.40619C70.1486 1.40013 69.9029 1.45847 69.6838 1.57552C69.4647 1.69258 69.2797 1.86437 69.1467 2.07416C69.0163 2.28581 68.9444 2.52825 68.9382 2.77676C68.9321 3.02527 68.9919 3.27098 69.1116 3.48885L70.4152 5.8626L54.7523 13.6996L35.6273 6.87088C35.2773 6.74594 34.8921 6.76464 34.5558 6.92291L10.6495 18.1729L11.8477 20.7168L35.2308 9.71432ZM76.1414 4.44088L74.4427 7.35322L72.7706 4.3115L76.1414 4.44088Z" fill="white"/>
</svg>
