<svg width="103" height="103" viewBox="0 0 103 103" fill="none" xmlns="http://www.w3.org/2000/svg">
<circle cx="51.4902" cy="51.9414" r="51" fill="white"/>
<g clip-path="url(#clip0_2356_38547)">
<path d="M30.3584 61.3142C31.4175 62.3661 32.5898 63.2976 33.854 64.0914L28.5735 69.3757C28.0574 69.8914 27.7675 70.5908 27.7675 71.3205C27.7675 72.0502 28.0574 72.75 28.5735 73.2657L31.1678 75.8596C31.6835 76.3757 32.3829 76.6656 33.1126 76.6656C33.8422 76.6656 34.5421 76.3757 35.0578 75.8596L43.747 67.1704H43.8322C44.0407 67.1678 44.2476 67.1292 44.4427 67.0567C44.5111 67.0516 44.5782 67.0382 44.6437 67.0172C48.6297 65.3745 51.845 65.0007 54.7628 65.8457C55.6851 66.1138 56.5679 66.5032 57.3878 67.0034C57.4264 67.423 57.6093 67.8161 57.9059 68.1153L68.9243 79.1328C69.998 80.2061 71.7384 80.2061 72.8126 79.1328L75.4048 76.5406C75.9205 76.0249 76.21 75.3254 76.21 74.5962C76.21 73.8665 75.9205 73.1671 75.4048 72.6514L71.5135 68.7669L65.6721 62.9254C66.1542 62.7689 66.6392 62.5935 67.1251 62.3938C72.0212 60.3408 75.9146 56.4466 77.9672 51.5504C78.9423 49.2226 79.4584 46.7285 79.4882 44.2047C79.5247 41.7027 79.0699 39.2175 78.1497 36.8905C76.2234 32.0468 72.3871 28.2105 67.5438 26.2834C65.2156 25.3666 62.7308 24.9121 60.2284 24.9453C57.7054 24.9747 55.2114 25.4903 52.8839 26.4642C51.3633 27.1011 49.9275 27.9244 48.6096 28.915C47.0256 28.482 45.3935 28.25 43.7516 28.2239C41.2492 28.1887 38.7636 28.6423 36.4353 29.5603C31.5878 31.4816 27.7499 35.3204 25.8294 40.1683C24.9109 42.4962 24.4565 44.981 24.4922 47.4834C24.5228 50.0059 25.0381 52.4987 26.0098 54.8266C27.0189 57.2539 28.4967 59.4584 30.3584 61.3142ZM35.7019 72.6195L33.7562 70.6735C33.3916 70.3676 32.8537 70.3915 32.518 70.7285C32.1819 71.0654 32.1597 71.6033 32.4664 71.9667L34.4125 73.9127L33.7634 74.561C33.4 74.9059 32.8302 74.9059 32.4664 74.561L29.8696 71.9667C29.6976 71.795 29.6011 71.5618 29.6011 71.3184C29.6011 71.075 29.6976 70.8417 29.8696 70.6697L33.108 67.4313L35.054 69.3774C35.4136 69.7248 35.9855 69.7198 36.3388 69.3661C36.6925 69.0128 36.6975 68.4409 36.3501 68.0813L34.4041 66.1352L35.5088 65.0309C35.9486 65.2537 36.3896 65.4752 36.8469 65.6661C38.3062 66.2674 39.8327 66.692 41.3931 66.9299L35.7019 72.6195ZM47.6525 64.1116L60.3807 51.3834C59.7009 53.8749 59.6921 56.502 60.3559 58.9977C60.6446 59.9959 61.0549 60.955 61.5777 61.8529L58.1229 65.3078C57.2258 64.7842 56.2675 64.373 55.2697 64.0839C52.7727 63.4201 50.1444 63.4293 47.6525 64.1116ZM74.1087 75.2474L71.5135 77.8396C71.1556 78.1971 70.5753 78.1971 70.2174 77.8396L69.5721 77.1913L71.5135 75.2466C71.7519 75.0162 71.8475 74.6755 71.7636 74.3549C71.6797 74.0344 71.4296 73.7843 71.1091 73.7004C70.7885 73.6165 70.4478 73.7121 70.2174 73.9505L68.2735 75.8952L64.3844 72.0061L66.3283 70.0622C66.6757 69.7026 66.6707 69.1307 66.3174 68.7774C65.9637 68.4237 65.3922 68.4186 65.0322 68.7661L63.0883 70.71L59.1991 66.8209L63.0883 62.9317L64.3844 64.2291L62.4392 66.173C62.2075 66.4046 62.1169 66.742 62.2017 67.0583C62.2864 67.3747 62.5336 67.6223 62.8499 67.707C63.1659 67.7918 63.5036 67.7016 63.7353 67.47L65.6796 65.5247L69.5688 69.4139L67.6244 71.3583C67.3861 71.5882 67.2908 71.9293 67.3743 72.2495C67.4582 72.57 67.7087 72.8205 68.0293 72.904C68.3494 72.9879 68.6906 72.8927 68.9205 72.6544L70.872 70.71L74.112 73.9505C74.2837 74.1229 74.3797 74.3562 74.3793 74.5996C74.3785 74.8429 74.2811 75.0758 74.1087 75.2474ZM53.5884 28.1535C55.7002 27.2715 57.9622 26.8045 60.2506 26.7785C62.5143 26.7428 64.7632 27.154 66.8683 27.9881C71.2412 29.7286 74.7049 33.1927 76.4449 37.566C77.2774 39.6711 77.6882 41.9192 77.655 44.1829C77.6286 46.4713 77.162 48.7329 76.28 50.8447C74.4133 55.2931 70.8745 58.8315 66.4256 60.6974C65.6867 60.9991 64.9281 61.2496 64.1553 61.4468C63.896 61.2618 63.5926 61.148 63.2754 61.1178C62.7752 60.2975 62.3863 59.4152 62.1177 58.4929C61.2744 55.5751 61.6474 52.3606 63.2901 48.3763C63.309 48.315 63.3211 48.2521 63.3266 48.1883C63.4084 47.9693 63.4478 47.7364 63.442 47.5027C63.3618 45.1232 62.8516 42.7781 61.9352 40.5808C59.886 35.6833 55.9922 31.7892 51.0956 29.7399C50.9954 29.6988 50.893 29.6703 50.7919 29.6308C51.6797 29.0585 52.6154 28.5642 53.5884 28.1535ZM27.535 40.8417C29.2688 36.4663 32.7345 33.0018 37.1108 31.2697C39.1471 30.4658 41.3168 30.055 43.5062 30.0601H43.7306C46.0186 30.0869 48.2806 30.5535 50.3924 31.4346C54.8396 33.2984 58.3763 36.836 60.2393 41.2836C61.0726 43.2783 61.5341 45.4081 61.6004 47.5686L48.0247 61.151L48.0146 61.1573L48.0083 61.1665L43.8376 65.3372L43.833 65.3435C41.6742 65.2713 39.5465 64.8081 37.5526 63.9769C33.1025 62.1131 29.5633 58.5739 27.6999 54.1233C26.82 52.0111 26.353 49.7496 26.3254 47.4616C26.2922 45.197 26.7034 42.9481 27.535 40.8417Z" fill="#002756"/>
<path d="M46.4902 74.4416C46.4902 77.479 48.9528 79.9411 51.9902 79.9411C55.0276 79.9411 57.4897 77.479 57.4897 74.4416C57.4897 71.4042 55.0276 68.9417 51.9902 68.9417C48.954 68.945 46.4936 71.4055 46.4902 74.4416ZM55.6565 74.4416C55.6565 76.4665 54.0151 78.1079 51.9902 78.1079C49.9652 78.1079 48.3234 76.4665 48.3234 74.4416C48.3234 72.4167 49.9652 70.7748 51.9902 70.7748C54.0151 70.7748 55.6565 72.4167 55.6565 74.4416Z" fill="#005FB7"/>
</g>
<defs>
<clipPath id="clip0_2356_38547">
<rect width="55" height="54.996" fill="white" transform="translate(24.4902 24.9414)"/>
</clipPath>
</defs>
</svg>
