<svg width="60" height="61" viewBox="0 0 60 61" fill="none" xmlns="http://www.w3.org/2000/svg">
<path d="M32.6681 59.8961C17.8681 59.8961 5.82812 47.8561 5.82812 33.0561C5.82812 30.3894 6.21479 27.7627 6.98813 25.2294C7.09479 24.8827 7.46812 24.6827 7.81479 24.7894C8.16146 24.8961 8.36146 25.2694 8.25479 25.6161C7.52146 28.0161 7.14812 30.5227 7.14812 33.0561C7.14812 47.1227 18.5881 58.5627 32.6548 58.5627C46.7215 58.5627 58.1615 47.1227 58.1615 33.0561C58.1615 18.9894 46.7215 7.5494 32.6548 7.5494C29.9748 7.5494 27.3215 7.96273 24.7881 8.7894C24.4415 8.9094 24.0681 8.7094 23.9481 8.36273C23.8281 8.01606 24.0281 7.64273 24.3748 7.52273C27.0415 6.65606 29.8281 6.21606 32.6548 6.21606C47.4548 6.21606 59.4948 18.2561 59.4948 33.0561C59.5081 47.8561 47.4681 59.8961 32.6681 59.8961Z" fill="#002756"/>
<path d="M32.6667 12.6427C32.2933 12.6427 32 12.3494 32 11.9761V6.88273C32 6.5094 32.2933 6.21606 32.6667 6.21606C33.04 6.21606 33.3333 6.5094 33.3333 6.88273V11.9761C33.3333 12.3361 33.0267 12.6427 32.6667 12.6427Z" fill="#002756"/>
<path d="M47.5573 18.8161C47.384 18.8161 47.2106 18.7494 47.0906 18.6161C46.824 18.3494 46.824 17.9361 47.0906 17.6694L50.6906 14.0694C50.9573 13.8028 51.3706 13.8028 51.6373 14.0694C51.904 14.3361 51.904 14.7494 51.6373 15.0161L48.0373 18.6161C47.904 18.7494 47.7306 18.8161 47.5573 18.8161Z" fill="#002756"/>
<path d="M58.8381 33.7227H53.7448C53.3715 33.7227 53.0781 33.4294 53.0781 33.0561C53.0781 32.6827 53.3715 32.3894 53.7448 32.3894H58.8381C59.2115 32.3894 59.5048 32.6827 59.5048 33.0561C59.5048 33.4294 59.1981 33.7227 58.8381 33.7227Z" fill="#002756"/>
<path d="M51.1729 52.2294C50.9996 52.2294 50.8262 52.1628 50.7062 52.0294L47.1062 48.4294C46.8396 48.1628 46.8396 47.7494 47.1062 47.4828C47.3729 47.2161 47.7863 47.2161 48.0529 47.4828L51.6529 51.0828C51.9196 51.3494 51.9196 51.7628 51.6529 52.0294C51.5063 52.1628 51.3329 52.2294 51.1729 52.2294Z" fill="#002756"/>
<path d="M32.6667 59.8961C32.2933 59.8961 32 59.6028 32 59.2294V54.1361C32 53.7628 32.2933 53.4694 32.6667 53.4694C33.04 53.4694 33.3333 53.7628 33.3333 54.1361V59.2294C33.3333 59.5894 33.0267 59.8961 32.6667 59.8961Z" fill="#002756"/>
<path d="M14.1432 52.2294C13.9699 52.2294 13.7966 52.1628 13.6766 52.0294C13.4099 51.7628 13.4099 51.3494 13.6766 51.0828L17.2766 47.4828C17.5432 47.2161 17.9566 47.2161 18.2232 47.4828C18.4899 47.7494 18.4899 48.1628 18.2232 48.4294L14.6232 52.0294C14.4899 52.1628 14.3166 52.2294 14.1432 52.2294Z" fill="#002756"/>
<path d="M11.5858 33.7227H6.47917C6.10583 33.7227 5.8125 33.4294 5.8125 33.0561C5.8125 32.6827 6.10583 32.3894 6.47917 32.3894H11.5725C11.9458 32.3894 12.2392 32.6827 12.2392 33.0561C12.2392 33.4294 11.9458 33.7227 11.5858 33.7227Z" fill="#002756"/>
<path d="M32.6667 30.4561C32.2933 30.4561 32 30.1628 32 29.7894V16.9494C32 16.5761 32.2933 16.2828 32.6667 16.2828C33.04 16.2828 33.3333 16.5761 33.3333 16.9494V29.7894C33.3333 30.1628 33.0267 30.4561 32.6667 30.4561Z" fill="#002756"/>
<path d="M40.2435 41.2961C40.0702 41.2961 39.8969 41.2294 39.7769 41.0961L34.4969 35.8294C34.2302 35.5627 34.2302 35.1494 34.4969 34.8827C34.7635 34.6161 35.1769 34.6161 35.4435 34.8827L40.7235 40.1627C40.9902 40.4294 40.9902 40.8427 40.7235 41.1094C40.5902 41.2427 40.4169 41.2961 40.2435 41.2961Z" fill="#002756"/>
<path d="M32.6677 36.9894C30.4944 36.9894 28.7344 35.2294 28.7344 33.0561C28.7344 30.8827 30.4944 29.1227 32.6677 29.1227C34.841 29.1227 36.601 30.8827 36.601 33.0561C36.601 35.2294 34.8277 36.9894 32.6677 36.9894ZM32.6677 30.4561C31.241 30.4561 30.0677 31.6161 30.0677 33.0561C30.0677 34.4827 31.2277 35.6561 32.6677 35.6561C34.0944 35.6561 35.2677 34.4961 35.2677 33.0561C35.2544 31.6161 34.0944 30.4561 32.6677 30.4561Z" fill="#002756"/>
<path d="M13.7703 27.6961C6.49031 27.6961 0.570312 21.7761 0.570312 14.4961C0.570312 7.21608 6.49031 1.29608 13.7703 1.29608C21.0503 1.29608 26.9703 7.21608 26.9703 14.4961C26.9703 21.7761 21.0503 27.6961 13.7703 27.6961ZM13.7703 2.62941C7.22365 2.62941 1.90365 7.94941 1.90365 14.4961C1.90365 21.0427 7.22365 26.3627 13.7703 26.3627C20.317 26.3627 25.637 21.0427 25.637 14.4961C25.637 7.94941 20.317 2.62941 13.7703 2.62941Z" fill="#005FB7"/>
<path d="M23.2802 23.3228C23.0935 23.3228 22.9069 23.2428 22.7735 23.0961C20.5202 20.4694 17.2269 18.9494 13.7602 18.9494C10.2935 18.9494 7.01355 20.4561 4.74688 23.0961C4.50688 23.3761 4.08022 23.4028 3.80022 23.1628C3.52022 22.9228 3.49355 22.4961 3.73355 22.2161C6.25355 19.2961 9.89355 17.6161 13.7469 17.6161C17.6002 17.6161 21.2535 19.2961 23.7602 22.2161C24.0002 22.4961 23.9735 22.9228 23.6935 23.1628C23.5869 23.2694 23.4402 23.3228 23.2802 23.3228Z" fill="#005FB7"/>
<path d="M13.7708 15.5494C10.8375 15.5494 8.4375 13.1628 8.4375 10.2161C8.4375 7.28275 10.8242 4.88275 13.7708 4.88275C16.7175 4.88275 19.1042 7.26942 19.1042 10.2161C19.0908 13.1494 16.7042 15.5494 13.7708 15.5494ZM13.7708 6.21608C11.5708 6.21608 9.77083 8.00275 9.77083 10.2161C9.77083 12.4161 11.5575 14.2161 13.7708 14.2161C15.9842 14.2161 17.7708 12.4294 17.7708 10.2161C17.7575 8.01608 15.9708 6.21608 13.7708 6.21608Z" fill="#005FB7"/>
<path d="M39.2021 48.3361H26.1354C25.7621 48.3361 25.4688 48.0428 25.4688 47.6694V44.6028C25.4688 44.2294 25.7621 43.9361 26.1354 43.9361H39.2021C39.5754 43.9361 39.8688 44.2294 39.8688 44.6028V47.6694C39.8688 48.0294 39.5621 48.3361 39.2021 48.3361ZM26.8021 47.0028H38.5354V45.2694H26.8021V47.0028Z" fill="#002756"/>
</svg>
