<?xml version="1.0" encoding="utf-8"?><svg viewBox="0 0 66 66" xmlns="http://www.w3.org/2000/svg" xmlns:xlink="http://www.w3.org/1999/xlink"><style>:root>svg{display:none}:root>svg:target{display:block}</style><svg viewBox="0 0 35 35" id="arrow-left" xmlns="http://www.w3.org/2000/svg"><g clip-path="url(#aclip0_565_3998)"><path d="M26.551 34.578c.57-.57.57-1.492 0-2.062l-15.01-15.01 15.01-15.01c.57-.57.57-1.492 0-2.063a1.457 1.457 0 00-2.062 0L8.448 16.475a1.454 1.454 0 000 2.062l16.041 16.041c.57.57 1.492.57 2.062 0z"/></g><defs><clipPath id="aclip0_565_3998"><path transform="rotate(90 17.497 17.503)" d="M0 0h35v35H0z"/></clipPath></defs></svg><svg viewBox="0 0 18 18" id="gps" xmlns="http://www.w3.org/2000/svg"><path d="M8.848.554a5.872 5.872 0 00-5.866 5.865c0 4.066 5.872 11.01 5.872 11.01s5.86-7.144 5.86-11.01A5.872 5.872 0 008.848.554zm1.77 7.583a2.495 2.495 0 01-1.77.732c-.64 0-1.282-.244-1.77-.732a2.506 2.506 0 010-3.54 2.486 2.486 0 011.77-.733c.669 0 1.297.26 1.77.733a2.506 2.506 0 010 3.54z"/></svg><svg viewBox="0 0 66 66" id="logotype" xmlns="http://www.w3.org/2000/svg"><path d="M55.379 50.94a.99.99 0 10-.889-1.771.99.99 0 00.889 1.77zm-3.32-2.807a1.128 1.128 0 00-.893-2.068 1.126 1.126 0 00.894 2.068zm-3.195-3.087a1.263 1.263 0 10-.865-2.372 1.263 1.263 0 00.865 2.372zm-3.052-3.362a1.399 1.399 0 10-.803-2.68 1.399 1.399 0 00.803 2.68zm-2.884-3.631a1.534 1.534 0 10-.708-2.986 1.534 1.534 0 00.708 2.986zm-2.697-3.891a1.671 1.671 0 10-.581-3.292 1.671 1.671 0 00.581 3.292zm-2.489-4.142a1.806 1.806 0 10-.418-3.588 1.806 1.806 0 00.418 3.588zM58.73 45.24a.583.583 0 10-.472-1.067.583.583 0 00.472 1.067zm-3.042-2.678a.718.718 0 10-.503-1.345.718.718 0 00.503 1.345zm-2.922-2.945a.853.853 0 10-.503-1.63.853.853 0 00.503 1.63zm-2.78-3.206a.99.99 0 10-.474-1.923.99.99 0 00.474 1.923zm-2.62-3.463a1.126 1.126 0 10-.408-2.214 1.126 1.126 0 00.409 2.214zm-2.435-3.709a1.263 1.263 0 10-.316-2.505 1.263 1.263 0 00.316 2.505zm-2.236-3.946a1.398 1.398 0 10-.186-2.79 1.398 1.398 0 00.186 2.79zm22.72 16.912c.018-.008.027-.03.018-.048a.038.038 0 00-.05-.02.037.037 0 00-.018.05c.008.018.03.027.05.018zm-2.88-2.266a.172.172 0 00.1-.224.171.171 0 00-.224-.1.173.173 0 00.124.324zm-2.784-2.526a.31.31 0 10-.187-.59.31.31 0 00.187.59zm-2.67-2.78a.447.447 0 00-.22-.864.445.445 0 00.22.864zm-2.532-3.03a.582.582 0 10-.222-1.143.582.582 0 00.222 1.142zm-2.377-3.275a.717.717 0 10-.19-1.421.717.717 0 00.19 1.421zM49.97 24.82a.854.854 0 10-.128-1.703.854.854 0 00.128 1.703zm-2.007-3.734a.99.99 0 10-.033-1.979.99.99 0 00.033 1.98zm13.816 9.035a.037.037 0 10-.015-.072.036.036 0 00-.029.043c.004.02.024.033.044.03zm-2.31-2.834c.095-.014.16-.101.147-.196a.173.173 0 10-.147.195zm-2.16-3.067a.31.31 0 10-.052-.617.31.31 0 00.052.617zm-1.992-3.29a.445.445 0 10-.023-.89.445.445 0 00.023.89zm-1.806-3.505a.581.581 0 10.04-1.163.581.581 0 00-.04 1.163zm7.418.165c.02 0 .037-.016.038-.036a.037.037 0 00-.036-.038.037.037 0 00-.038.036c0 .02.015.037.036.038zm-1.632-3.263a.173.173 0 00.188-.158.174.174 0 00-.159-.188.173.173 0 10-.029.346zm-7.935-4.258a.99.99 0 10-1.77.89.99.99 0 001.77-.89zm-2.806 3.32a1.127 1.127 0 10-2.07.894 1.127 1.127 0 002.07-.894zm-3.087 3.195a1.264 1.264 0 10-2.374.868 1.264 1.264 0 002.374-.868zm-3.363 3.052a1.399 1.399 0 10-2.68.802 1.399 1.399 0 002.68-.802zm-3.63 2.884a1.535 1.535 0 10-2.987.709 1.535 1.535 0 002.987-.709zm-3.891 2.697a1.671 1.671 0 10-3.292.581 1.671 1.671 0 003.292-.581zm-4.142 2.489a1.807 1.807 0 10-3.588.418 1.807 1.807 0 003.588-.418zM45.661 6.719a.583.583 0 10-1.065.472.583.583 0 001.065-.472zm-2.678 3.042a.717.717 0 10-1.344.502.717.717 0 001.344-.502zm-2.944 2.922a.854.854 0 10-1.631.503.854.854 0 001.631-.503zm-3.206 2.78a.99.99 0 10-1.925.475.99.99 0 001.925-.475zm-3.463 2.62a1.125 1.125 0 10-2.214.408 1.125 1.125 0 002.214-.409zm-3.709 2.436a1.263 1.263 0 10-2.506.315 1.263 1.263 0 002.506-.316zm-3.946 2.235a1.399 1.399 0 10-2.79.187 1.399 1.399 0 002.79-.187zM42.627.035c-.008-.02-.03-.028-.049-.02a.038.038 0 00-.018.05c.008.019.03.027.049.019a.036.036 0 00.018-.049zm-2.267 2.88a.172.172 0 00-.223-.1.173.173 0 10.224.1zm-2.525 2.783a.31.31 0 10-.59.188.31.31 0 00.59-.188zm-2.78 2.67a.447.447 0 00-.864.22.445.445 0 00.864-.22zm-3.03 2.532a.582.582 0 10-1.144.223.582.582 0 001.143-.223zm-3.275 2.377a.717.717 0 10-1.421.189.717.717 0 001.421-.188zm-3.508 2.202a.854.854 0 10-1.702.128.854.854 0 001.703-.128zm-3.733 2.006a.99.99 0 10-1.979.032.99.99 0 001.979-.032zM30.544 3.67a.037.037 0 10-.073.015.037.037 0 00.073-.015zM27.71 5.98a.173.173 0 00-.195-.147.173.173 0 10.195.147zm-3.066 2.16a.309.309 0 10-.616.051.309.309 0 00.616-.05zm-3.29 1.992a.446.446 0 10-.891.024.446.446 0 00.89-.024zm-3.506 1.806a.581.581 0 10-1.161-.04.581.581 0 001.162.04zm.166-7.418a.037.037 0 10-.074-.002.037.037 0 00.074.002zM14.75 6.151a.173.173 0 00-.158-.188.174.174 0 00-.188.159.174.174 0 00.346.029zm-4.257 7.935a.99.99 0 10.887 1.77.99.99 0 00-.887-1.77zm3.319 2.806a1.128 1.128 0 00.893 2.069 1.126 1.126 0 00-.893-2.069zm3.196 3.087a1.264 1.264 0 00.864 2.373 1.263 1.263 0 10-.864-2.373zm3.05 3.363a1.399 1.399 0 10.804 2.68 1.399 1.399 0 00-.803-2.68zm2.885 3.63a1.535 1.535 0 10.71 2.987 1.535 1.535 0 00-.71-2.987zm2.697 3.891a1.67 1.67 0 10.58 3.291 1.67 1.67 0 00-.58-3.29zm2.489 4.142a1.807 1.807 0 10.418 3.589 1.807 1.807 0 00-.418-3.59zM7.142 19.787a.583.583 0 10.472 1.065.583.583 0 00-.472-1.065zm3.042 2.678a.718.718 0 10.502 1.344.718.718 0 00-.502-1.344zm2.922 2.944a.854.854 0 10.503 1.632.854.854 0 00-.503-1.632zm2.78 3.207a.99.99 0 10.475 1.924.99.99 0 00-.475-1.924zm2.62 3.462a1.126 1.126 0 10.409 2.214 1.126 1.126 0 00-.41-2.214zm2.436 3.709a1.263 1.263 0 10.314 2.505 1.263 1.263 0 00-.314-2.505zm2.235 3.946a1.399 1.399 0 10.187 2.79 1.399 1.399 0 00-.187-2.79zM.458 22.82c-.02.008-.028.03-.02.049.01.019.031.026.05.018a.037.037 0 00.019-.049.036.036 0 00-.049-.018zm2.88 2.267a.172.172 0 00-.1.223c.034.09.133.135.223.1a.173.173 0 00-.124-.324zm2.783 2.525a.31.31 0 10.187.59.31.31 0 00-.187-.59zm2.67 2.78a.446.446 0 10.221.865.446.446 0 00-.222-.864zm2.532 3.031a.582.582 0 10.222 1.143.582.582 0 00-.222-1.143zm2.377 3.274a.717.717 0 10.19 1.422.717.717 0 00-.19-1.422zm2.201 3.508a.854.854 0 10.13 1.703.854.854 0 00-.13-1.703zm2.007 3.733a.99.99 0 10.032 1.98.99.99 0 00-.032-1.98zM4.092 34.904a.037.037 0 10.015.073.037.037 0 00-.015-.073zm2.31 2.835a.173.173 0 00-.147.195.173.173 0 10.147-.196zm2.16 3.066a.31.31 0 10.052.617.31.31 0 00-.052-.617zm1.992 3.29a.445.445 0 10.023.891.445.445 0 00-.023-.89zm1.806 3.506a.581.581 0 10-.04 1.161.581.581 0 00.04-1.161zm-7.418-.166a.037.037 0 10-.002.075.037.037 0 00.002-.075zm1.631 3.263a.174.174 0 00-.029.346.174.174 0 00.03-.346zm7.936 4.258a.991.991 0 101.771-.89.991.991 0 00-1.771.89zm2.806-3.32a1.127 1.127 0 102.07-.894 1.127 1.127 0 00-2.07.895zm3.087-3.195a1.264 1.264 0 102.374-.868 1.264 1.264 0 00-2.374.868zm3.363-3.052a1.4 1.4 0 102.68-.803 1.4 1.4 0 00-2.68.803zm3.63-2.884a1.535 1.535 0 102.987-.709 1.535 1.535 0 00-2.987.71zm3.891-2.697a1.671 1.671 0 103.291-.581 1.671 1.671 0 00-3.29.581zm4.142-2.489a1.807 1.807 0 103.589-.419 1.807 1.807 0 00-3.59.42zM20.21 58.306a.582.582 0 101.065-.471.582.582 0 00-1.065.471zm2.677-3.042a.718.718 0 101.344-.502.718.718 0 00-1.344.502zm2.945-2.922a.854.854 0 101.631-.503.854.854 0 00-1.631.503zm3.207-2.78a.99.99 0 101.923-.474.99.99 0 00-1.923.474zm3.462-2.62a1.126 1.126 0 102.214-.409 1.126 1.126 0 00-2.214.41zm3.709-2.435a1.263 1.263 0 102.505-.316 1.263 1.263 0 00-2.505.316zm3.946-2.236a1.398 1.398 0 102.79-.186 1.398 1.398 0 00-2.79.186zm-16.912 22.72c.008.019.03.027.049.019a.038.038 0 00.018-.05.037.037 0 00-.049-.018.036.036 0 00-.018.048zm2.266-2.88c.035.09.135.134.224.1a.173.173 0 10-.223-.1zm2.526-2.784a.31.31 0 10.59-.187.31.31 0 00-.59.187zm2.78-2.67a.446.446 0 10.865-.22.446.446 0 00-.864.22zm3.03-2.532a.582.582 0 101.143-.222.582.582 0 00-1.142.222zm3.275-2.377a.717.717 0 101.422-.188.717.717 0 00-1.422.188zm3.507-2.201a.855.855 0 101.704-.13.855.855 0 00-1.704.13zm3.734-2.007a.99.99 0 101.98-.033.99.99 0 00-1.98.033zm-9.035 13.816a.037.037 0 00.073-.015.037.037 0 00-.044-.029.037.037 0 00-.03.044zm2.834-2.31a.173.173 0 10.343-.049.173.173 0 00-.343.05zm3.067-2.16a.31.31 0 10.616-.051.31.31 0 00-.616.05zm3.29-1.992a.445.445 0 10.891-.023.445.445 0 00-.89.023zm3.505-1.805a.581.581 0 101.162.04.581.581 0 00-1.162-.04zm-.165 7.417c0 .02.016.037.036.038.02 0 .038-.015.038-.036a.037.037 0 10-.074-.002zm3.45-1.79a.173.173 0 11-.028.346.173.173 0 01.028-.346z"/><path d="M55.379 50.94a.99.99 0 10-.889-1.771.99.99 0 00.889 1.77zm-3.32-2.807a1.127 1.127 0 10-.895-2.07 1.127 1.127 0 00.895 2.07zm-3.195-3.087A1.263 1.263 0 1048 42.674a1.263 1.263 0 00.864 2.372zm-3.052-3.362a1.399 1.399 0 10-.803-2.68 1.399 1.399 0 00.803 2.68zm-2.884-3.631a1.534 1.534 0 10-.708-2.986 1.534 1.534 0 00.708 2.986zm-2.697-3.891a1.671 1.671 0 10-.58-3.291 1.671 1.671 0 00.58 3.29zm-2.489-4.142a1.806 1.806 0 10-.418-3.588 1.806 1.806 0 00.418 3.588zM58.73 45.24a.583.583 0 10-.472-1.067.583.583 0 00.472 1.067zm-3.042-2.678a.718.718 0 10-.503-1.345.718.718 0 00.503 1.345zm-2.922-2.945a.854.854 0 10-.503-1.63.854.854 0 00.503 1.63zm-2.78-3.206a.99.99 0 10-.474-1.923.99.99 0 00.474 1.923zm-2.62-3.463a1.126 1.126 0 10-.408-2.214 1.126 1.126 0 00.409 2.214zm-2.435-3.709a1.263 1.263 0 10-.316-2.506 1.263 1.263 0 00.316 2.506zm-2.236-3.946a1.398 1.398 0 10-.186-2.79 1.398 1.398 0 00.186 2.79zm22.72 16.912c.018-.008.027-.03.018-.048a.038.038 0 00-.05-.02.037.037 0 00-.018.05c.008.018.03.027.05.018zm-2.88-2.266a.172.172 0 00.1-.224.171.171 0 00-.224-.1.173.173 0 00.124.324zm-2.784-2.526a.31.31 0 10-.187-.59.31.31 0 00.187.59zm-2.67-2.78a.447.447 0 00-.22-.864.445.445 0 00.22.864zm-2.532-3.03a.582.582 0 10-.222-1.143.582.582 0 00.222 1.142zm-2.377-3.275a.717.717 0 10-.19-1.421.717.717 0 00.19 1.421zM49.97 24.82a.854.854 0 10-.128-1.703.854.854 0 00.128 1.703zm-2.007-3.734a.99.99 0 10-.033-1.979.99.99 0 00.033 1.98zm13.816 9.035a.037.037 0 10-.015-.072.036.036 0 00-.029.043c.004.02.024.033.044.03zm-2.31-2.834c.095-.014.16-.101.147-.196a.173.173 0 10-.147.195zm-2.16-3.067a.31.31 0 10-.052-.617.31.31 0 00.052.617zm-1.992-3.29a.445.445 0 10-.022-.89.445.445 0 00.022.89zm-1.806-3.505a.581.581 0 10.04-1.162.581.581 0 00-.04 1.162zm7.418.165c.02 0 .037-.016.038-.036a.037.037 0 00-.036-.038.037.037 0 00-.038.036c0 .02.015.037.036.038zm-1.632-3.263a.173.173 0 00.188-.158.174.174 0 00-.159-.188.173.173 0 10-.029.346zm-7.935-4.258a.99.99 0 10-1.77.89.99.99 0 001.77-.89zm-2.806 3.32a1.127 1.127 0 10-2.07.894 1.127 1.127 0 002.07-.894zm-3.087 3.195a1.264 1.264 0 10-2.374.868 1.264 1.264 0 002.374-.868zm-3.363 3.052a1.399 1.399 0 10-2.68.802 1.399 1.399 0 002.68-.802zm-3.63 2.884a1.535 1.535 0 10-2.987.709 1.535 1.535 0 002.987-.709zm-3.891 2.697a1.671 1.671 0 10-3.292.581 1.671 1.671 0 003.292-.581zm-4.142 2.489a1.806 1.806 0 10-3.588.418 1.806 1.806 0 003.588-.418zM45.661 6.719a.583.583 0 10-1.065.472.583.583 0 001.065-.472zm-2.678 3.042a.717.717 0 10-1.344.502.717.717 0 001.344-.502zm-2.944 2.922a.854.854 0 10-1.631.503.854.854 0 001.631-.503zm-3.206 2.78a.99.99 0 10-1.925.475.99.99 0 001.925-.475zm-3.463 2.62a1.125 1.125 0 10-2.214.408 1.125 1.125 0 002.214-.409zm-3.709 2.436a1.263 1.263 0 10-2.505.315 1.263 1.263 0 002.505-.316zm-3.946 2.235a1.399 1.399 0 10-2.79.187 1.399 1.399 0 002.79-.187zM42.627.035a.036.036 0 00-.049-.02.038.038 0 00-.018.05c.008.019.03.027.049.019a.036.036 0 00.018-.049zm-2.267 2.88a.172.172 0 00-.223-.1.173.173 0 10.224.1zm-2.525 2.783a.31.31 0 10-.59.188.31.31 0 00.59-.188zm-2.78 2.67a.447.447 0 00-.864.22.445.445 0 00.864-.22zm-3.03 2.532a.582.582 0 10-1.144.223.582.582 0 001.143-.223zm-3.275 2.377a.717.717 0 10-1.422.189.717.717 0 001.422-.188zm-3.508 2.201a.854.854 0 10-1.702.129.854.854 0 001.703-.129zm-3.733 2.007a.99.99 0 10-1.978.032.99.99 0 001.978-.032zM30.544 3.67a.037.037 0 10-.073.015.037.037 0 00.073-.015zM27.71 5.98a.173.173 0 00-.195-.147.173.173 0 10.195.147zm-3.066 2.16a.309.309 0 10-.616.051.309.309 0 00.616-.05zm-3.29 1.992a.446.446 0 10-.891.024.446.446 0 00.89-.024zm-3.506 1.806a.581.581 0 10-1.161-.04.581.581 0 001.162.04zm.166-7.418a.037.037 0 10-.074-.002.037.037 0 00.074.002zM14.75 6.151a.173.173 0 00-.158-.188.174.174 0 00-.188.159.174.174 0 00.346.029zm-4.257 7.935a.99.99 0 10.888 1.77.99.99 0 00-.888-1.77zm3.319 2.806a1.128 1.128 0 00.893 2.069 1.126 1.126 0 00-.893-2.069zm3.196 3.087a1.264 1.264 0 00.864 2.373 1.263 1.263 0 10-.864-2.373zm3.05 3.363a1.399 1.399 0 10.804 2.68 1.399 1.399 0 00-.803-2.68zm2.885 3.63a1.535 1.535 0 10.71 2.987 1.535 1.535 0 00-.71-2.987zm2.697 3.891a1.67 1.67 0 10.58 3.291 1.67 1.67 0 00-.58-3.29zm2.489 4.142a1.807 1.807 0 10.418 3.589 1.807 1.807 0 00-.418-3.59zM7.142 19.787a.582.582 0 10.471 1.065.582.582 0 00-.47-1.065zm3.042 2.678a.718.718 0 10.502 1.344.718.718 0 00-.502-1.344zm2.922 2.944a.854.854 0 10.503 1.632.854.854 0 00-.503-1.632zm2.78 3.207a.99.99 0 10.475 1.924.99.99 0 00-.475-1.924zm2.62 3.462a1.126 1.126 0 10.408 2.214 1.126 1.126 0 00-.409-2.214zm2.436 3.709a1.263 1.263 0 10.314 2.505 1.263 1.263 0 00-.314-2.505zm2.235 3.946a1.399 1.399 0 10.187 2.79 1.399 1.399 0 00-.187-2.79zM.458 22.82c-.02.008-.028.03-.02.049.01.019.031.026.05.018a.037.037 0 00.019-.049.036.036 0 00-.049-.018zm2.88 2.266a.172.172 0 00-.1.224c.034.09.133.135.223.1a.173.173 0 00-.124-.324zm2.783 2.526a.31.31 0 10.187.59.31.31 0 00-.187-.59zm2.67 2.78a.446.446 0 10.221.865.446.446 0 00-.222-.864zm2.532 3.031a.582.582 0 10.222 1.143.582.582 0 00-.222-1.143zm2.377 3.274a.717.717 0 10.19 1.422.717.717 0 00-.19-1.422zm2.201 3.508a.854.854 0 10.13 1.703.854.854 0 00-.13-1.703zm2.007 3.733a.99.99 0 10.032 1.98.99.99 0 00-.032-1.98zM4.092 34.904a.037.037 0 10.015.073.037.037 0 00-.015-.073zm2.31 2.835a.173.173 0 00-.147.195.173.173 0 10.147-.196zm2.16 3.066a.31.31 0 10.052.617.31.31 0 00-.052-.617zm1.992 3.29a.445.445 0 10.023.891.445.445 0 00-.023-.89zm1.806 3.506a.581.581 0 10-.04 1.161.581.581 0 00.04-1.161zm-7.418-.166a.037.037 0 10-.002.075.037.037 0 00.002-.075zm1.631 3.263a.174.174 0 00-.029.346.174.174 0 00.03-.346zm7.936 4.258a.991.991 0 101.771-.89.991.991 0 00-1.771.89zm2.806-3.32a1.127 1.127 0 102.07-.894 1.127 1.127 0 00-2.07.895zm3.087-3.195a1.264 1.264 0 102.374-.868 1.264 1.264 0 00-2.374.868zm3.363-3.052a1.4 1.4 0 102.68-.803 1.4 1.4 0 00-2.68.803zm3.63-2.884a1.535 1.535 0 102.987-.709 1.535 1.535 0 00-2.987.71zm3.891-2.697a1.671 1.671 0 103.291-.581 1.671 1.671 0 00-3.29.581zm4.142-2.489a1.807 1.807 0 103.589-.419 1.807 1.807 0 00-3.59.42zM20.21 58.306a.582.582 0 101.065-.471.582.582 0 00-1.065.471zm2.677-3.042a.717.717 0 101.344-.502.717.717 0 00-1.344.502zm2.945-2.922a.854.854 0 101.631-.503.854.854 0 00-1.631.503zm3.207-2.78a.99.99 0 101.923-.474.99.99 0 00-1.923.474zm3.462-2.62a1.126 1.126 0 102.214-.409 1.126 1.126 0 00-2.214.41zm3.709-2.435a1.263 1.263 0 102.505-.316 1.263 1.263 0 00-2.505.316zm3.946-2.236a1.398 1.398 0 102.79-.186 1.398 1.398 0 00-2.79.186zm-16.912 22.72c.008.019.03.027.049.019a.038.038 0 00.018-.05.037.037 0 00-.049-.018.036.036 0 00-.018.048zm2.266-2.88c.035.09.135.134.224.1a.173.173 0 10-.223-.1zm2.526-2.784a.31.31 0 10.59-.187.31.31 0 00-.59.187zm2.78-2.67a.446.446 0 10.865-.22.446.446 0 00-.864.22zm3.03-2.532a.582.582 0 101.143-.222.582.582 0 00-1.142.222zm3.275-2.377a.717.717 0 101.422-.188.717.717 0 00-1.422.188zm3.507-2.201a.855.855 0 101.704-.13.855.855 0 00-1.704.13zm3.734-2.007a.99.99 0 101.98-.033.99.99 0 00-1.98.033zm-9.035 13.816a.037.037 0 00.073-.015.037.037 0 00-.044-.029.038.038 0 00-.03.044zm2.834-2.31c.014.095.101.16.196.147a.174.174 0 10-.196-.147zm3.067-2.16a.309.309 0 10.616-.051.309.309 0 00-.616.05zm3.29-1.992a.446.446 0 10.891-.023.446.446 0 00-.89.023zm3.505-1.805a.581.581 0 101.162.04.581.581 0 00-1.162-.04zm-.165 7.417c0 .02.016.037.036.038.02 0 .038-.015.038-.036a.037.037 0 10-.074-.002zm3.45-1.79a.173.173 0 11-.028.346.173.173 0 01.028-.346z"/></svg><svg viewBox="0 0 16 17" id="mail" xmlns="http://www.w3.org/2000/svg"><path d="M15.43 2.786H.571l7.429 6.119 7.512-6.102a.518.518 0 00-.084-.017z"/><path d="M8.36 10.086a.571.571 0 01-.723 0L0 3.795v9.848c0 .316.256.571.571.571H15.43a.571.571 0 00.571-.571V3.879l-7.64 6.207z"/></svg><svg viewBox="0 0 19 19" id="phone" xmlns="http://www.w3.org/2000/svg"><path d="M15.435 12.013v3c-2.068 0-3.802-.372-5.25-.994-2.88-1.24-4.631-3.473-5.624-5.756-.825-1.896-1.125-3.827-1.125-5.25h3l.75 3-2.625 2.25c.993 2.283 2.744 4.517 5.624 5.756l2.25-2.756 3 .75z"/><path d="M10.185 14.019c-2.88-1.24-4.631-3.473-5.624-5.756m5.624 5.756c1.448.622 3.182.994 5.25.994v-3l-3-.75-2.25 2.756zM4.561 8.263c-.825-1.896-1.125-3.827-1.125-5.25h3l.75 3-2.625 2.25z" stroke-linecap="round" stroke-linejoin="round"/></svg><svg viewBox="0 0 21 20" id="telegram" xmlns="http://www.w3.org/2000/svg"><g clip-path="url(#fclip0_1400_57634)"><path d="M8.348 12.65l-.331 4.654c.473 0 .678-.203.924-.447l2.22-2.121 4.598 3.367c.843.47 1.437.223 1.665-.776l3.018-14.143c.268-1.247-.45-1.735-1.272-1.43L1.428 8.548c-1.21.47-1.192 1.145-.205 1.451l4.535 1.411 10.536-6.592c.496-.329.947-.147.576.181l-8.522 7.653z"/></g><defs><clipPath id="fclip0_1400_57634"><path transform="translate(.5)" d="M0 0h20v20H0z"/></clipPath></defs></svg><svg viewBox="0 0 26 25" id="tick" xmlns="http://www.w3.org/2000/svg"><g clip-path="url(#gclip0_19_811)"><path d="M24.817 3.687a1.25 1.25 0 00-1.768 0L8.073 18.663l-5.756-5.757a1.25 1.25 0 10-1.768 1.768l6.64 6.64a1.25 1.25 0 001.768 0l15.86-15.86a1.25 1.25 0 000-1.767z"/></g><defs><clipPath id="gclip0_19_811"><path transform="translate(.183)" d="M0 0h25v25H0z"/></clipPath></defs></svg><svg viewBox="0 0 21 20" id="viber" xmlns="http://www.w3.org/2000/svg"><g clip-path="url(#hclip0_1400_57639)"><path d="M19.796 11.578c.597-5.023-.286-8.194-1.88-9.628h.001C15.346-.5 6.661-.863 3.584 2.06 2.202 3.487 1.716 5.585 1.662 8.182c-.053 2.597-.116 7.463 4.418 8.783h.004l-.004 2.016s-.031.816.49.98c.597.194.867-.185 2.723-2.402 3.103.27 5.487-.348 5.758-.438.626-.21 4.172-.679 4.745-5.544zM9.6 16.142s-1.964 2.449-2.575 3.085c-.2.206-.42.187-.416-.223 0-.269.015-3.347.015-3.347-3.844-1.101-3.617-5.245-3.576-7.412.042-2.168.439-3.944 1.609-5.14C7.355.575 14.969 1.14 16.909 2.963c2.372 2.103 1.527 8.043 1.532 8.245-.487 4.062-3.36 4.32-3.889 4.495-.226.075-2.321.614-4.953.439z"/><path d="M10.686 3.58c-.32 0-.32.5 0 .505 2.49.02 4.54 1.754 4.562 4.937 0 .335.491.331.487-.005-.027-3.429-2.266-5.417-5.05-5.436z"/><path d="M13.96 8.494c-.008.332.483.348.487.012.04-1.891-1.125-3.448-3.316-3.613-.32-.023-.354.481-.034.505 1.9.144 2.9 1.44 2.862 3.096zM13.434 10.645c-.411-.238-.83-.09-1.004.144l-.362.47c-.184.238-.528.206-.528.206-2.512-.664-3.184-3.292-3.184-3.292s-.03-.356.2-.547l.453-.375c.226-.18.37-.613.139-1.04-.617-1.113-1.031-1.498-1.242-1.793-.221-.277-.555-.34-.901-.152h-.008c-.72.422-1.51 1.21-1.257 2.023.43.857 1.222 3.588 3.745 5.651 1.186.976 3.063 1.976 3.86 2.207l.007.011c.785.262 1.548-.558 1.956-1.3v-.006c.18-.36.12-.7-.143-.922-.469-.457-1.175-.96-1.73-1.285z"/><path d="M11.475 6.753c.8.047 1.19.465 1.23 1.324.016.336.503.313.488-.023-.053-1.122-.638-1.747-1.691-1.805-.321-.02-.351.485-.027.504z"/></g><defs><clipPath id="hclip0_1400_57639"><path transform="translate(.5)" d="M0 0h20v20H0z"/></clipPath></defs></svg><svg viewBox="0 0 21 20" id="vk" xmlns="http://www.w3.org/2000/svg"><g clip-path="url(#iclip0_1400_57630)"><path d="M17.096 10.857c-.323-.409-.231-.59 0-.955.004-.004 2.673-3.693 2.948-4.944h.002c.137-.456 0-.791-.661-.791h-2.187c-.556 0-.813.287-.95.609 0 0-1.114 2.665-2.689 4.392-.508.5-.743.66-1.02.66-.137 0-.35-.16-.35-.616V4.958c0-.547-.156-.791-.617-.791H8.134c-.349 0-.557.255-.557.492 0 .519.788.638.87 2.096V9.92c0 .694-.126.821-.405.821-.744 0-2.548-2.676-3.617-5.738-.216-.594-.427-.834-.987-.834H1.25c-.624 0-.75.287-.75.609 0 .568.743 3.394 3.457 7.127 1.808 2.549 4.355 3.93 6.671 3.93 1.393 0 1.563-.307 1.563-.835 0-2.435-.126-2.665.571-2.665.324 0 .88.16 2.18 1.39 1.486 1.457 1.73 2.11 2.562 2.11h2.187c.623 0 .939-.307.757-.912-.416-1.273-3.226-3.89-3.352-4.065z"/></g><defs><clipPath id="iclip0_1400_57630"><path transform="translate(.5)" d="M0 0h20v20H0z"/></clipPath></defs></svg><svg viewBox="0 0 21 20" id="whatsapp" xmlns="http://www.w3.org/2000/svg"><g clip-path="url(#jclip0_1400_57648)"><path d="M17.528 2.904A9.912 9.912 0 0010.49 0 9.963 9.963 0 003.44 2.902 9.812 9.812 0 00.5 9.907v.005c0 1.598.42 3.21 1.217 4.681L.527 20l5.47-1.244a10.012 10.012 0 004.49 1.067h.003a9.964 9.964 0 007.049-2.902c1.896-1.877 2.94-4.364 2.942-7.006 0-2.623-1.048-5.113-2.953-7.01zM10.49 18.262h-.004c-1.4 0-2.786-.352-4.01-1.017l-.259-.14-3.636.827.79-3.59-.153-.263c-.757-1.305-1.157-2.747-1.157-4.168.003-4.602 3.784-8.35 8.429-8.35 2.244 0 4.352.87 5.937 2.45 1.608 1.602 2.493 3.699 2.493 5.904-.002 4.602-3.784 8.347-8.43 8.347z"/><path d="M7.77 5.542h-.437a.84.84 0 00-.61.284c-.209.228-.8.78-.8 1.9 0 1.12.82 2.203.934 2.356.114.151 1.58 2.524 3.903 3.437 1.93.76 2.324.608 2.743.57.419-.038 1.352-.55 1.542-1.082.19-.532.19-.988.133-1.083-.057-.095-.21-.152-.438-.266-.228-.114-1.348-.674-1.558-.75-.21-.076-.362-.114-.514.114-.152.227-.601.754-.734.906-.134.152-.267.171-.496.057-.228-.114-.957-.359-1.83-1.134-.68-.604-1.15-1.374-1.284-1.602-.133-.228-.014-.351.1-.465.103-.102.242-.241.356-.374.114-.133.147-.228.223-.38.076-.152.038-.285-.019-.399-.057-.114-.496-1.24-.699-1.69-.171-.38-.351-.393-.514-.4z"/></g><defs><clipPath id="jclip0_1400_57648"><path transform="translate(.5)" d="M0 0h20v20H0z"/></clipPath></defs></svg></svg>