<?xml version="1.0" encoding="utf-8"?><svg viewBox="0 0 66 69" xmlns="http://www.w3.org/2000/svg" xmlns:xlink="http://www.w3.org/1999/xlink"><style>:root>svg{display:none}:root>svg:target{display:block}</style><svg viewBox="0 0 35 35" id="arrow-left" xmlns="http://www.w3.org/2000/svg"><g clip-path="url(#aclip0_565_3998)"><path d="M26.551 34.578c.57-.57.57-1.492 0-2.062l-15.01-15.01 15.01-15.01c.57-.57.57-1.492 0-2.063a1.457 1.457 0 00-2.062 0L8.448 16.475a1.454 1.454 0 000 2.062l16.041 16.041c.57.57 1.492.57 2.062 0z"/></g><defs><clipPath id="aclip0_565_3998"><path transform="rotate(90 17.497 17.503)" d="M0 0h35v35H0z"/></clipPath></defs></svg><svg viewBox="0 0 16 16" id="close" xmlns="http://www.w3.org/2000/svg"><g clip-path="url(#bclip0_418_4019)"><path d="M8.938 7.996l6.859 6.858a.666.666 0 11-.943.943L7.996 8.938l-6.859 6.859a.666.666 0 01-.942-.943l6.859-6.858L.195 1.137a.666.666 0 01.942-.942l6.859 6.859L14.854.195a.666.666 0 01.943.942L8.938 7.996z"/></g><defs><clipPath id="bclip0_418_4019"><path transform="matrix(1 0 0 -1 0 16)" d="M0 0h16v16H0z"/></clipPath></defs></svg><svg viewBox="0 0 66 66" id="features1" xmlns="http://www.w3.org/2000/svg"><g clip-path="url(#cclip0_2440_40572)"><path d="M55.81 55.789l-5.554-6.034-.306-.622c-.843-1.728-1.589-5.635-2.31-9.412-.72-3.777-1.406-7.4-2.25-9.257-1.462-3.235-2.956-7.245-4.155-10.48-.53-1.437-1.03-2.767-1.455-3.86l-.134-.34C38.482 12.796 37.78 11 35.61 11a2.64 2.64 0 00-1.181.306c-.366.193-.684.47-.928.808a3.618 3.618 0 00-.243-.28 2.646 2.646 0 00-.852-.608A2.596 2.596 0 0031.392 11c-2.169 0-2.872 1.797-4.036 4.783l-.133.342a244.451 244.451 0 00-1.456 3.86c-1.198 3.234-2.693 7.248-4.155 10.482-.837 1.858-1.522 5.452-2.25 9.258-.728 3.806-1.466 7.683-2.31 9.412l-.306.622-5.554 6.03a.729.729 0 00.031 1.017.695.695 0 00.995-.032l5.368-5.833 10.062 1.606-1.142 3.508a.733.733 0 00.207.77.702.702 0 00.46.175.694.694 0 00.412-.136.718.718 0 00.257-.356l1.335-4.097a12.186 12.186 0 003.562-4.464c.326-.773.581-1.575.763-2.397.181.822.437 1.624.763 2.397a12.186 12.186 0 003.561 4.464l1.336 4.097a.718.718 0 00.256.356.694.694 0 001.041-.26.73.73 0 00.039-.55l-1.143-3.507 10.062-1.606 5.368 5.833a.695.695 0 00.995.032.729.729 0 00.032-1.017zM33.533 18.055c.454 1.505 1.786 5.534 2.461 7.518h-.112c-.459.005-.91.116-1.322.323a3.096 3.096 0 00-1.058.873 3.097 3.097 0 00-1.05-.873 3.028 3.028 0 00-1.313-.33h-.116c.654-1.98 1.983-6.027 2.461-7.515 0-.029.021-.068.032-.115.004.035.01.07.017.104v.015zm-2.08 29.325a10.86 10.86 0 01-3.056 3.845l-6.68-1.078-3.332-.532c.892-1.952 1.603-5.678 2.355-9.617.678-3.558 1.378-7.234 2.148-8.93 1.473-3.282 2.988-7.325 4.194-10.577.528-1.416 1.023-2.753 1.449-3.834l.133-.36c1.125-2.864 1.572-3.86 2.728-3.86.33.018.64.166.865.414.351.37.546.867.542 1.383a30.587 30.587 0 01-.672 3.379c-.552 1.796-2.38 7.324-2.746 8.42a3.06 3.06 0 00-.38.309c-1.35 1.283-1.827 3.96-1.827 5.861 0 3.324-1.902 7.87-1.923 7.906a.733.733 0 00-.004.546c.07.175.203.316.373.39.17.076.361.08.534.011a.71.71 0 00.387-.375c.084-.19 2.039-4.855 2.039-8.478 0-1.685.432-3.906 1.378-4.808A1.322 1.322 0 0131.04 27c.868.064 1.758.391 1.758 2.328V38.237c-.022 2.591-.197 6.494-1.347 9.128v.014zm4.098 0c-1.15-2.65-1.325-6.552-1.346-9.143v-8.909c0-1.937.893-2.264 1.758-2.329h.123c.358 0 .701.143.956.4.95.898 1.382 3.119 1.382 4.804 0 3.623 1.954 8.287 2.039 8.485a.72.72 0 00.389.381.69.69 0 00.764-.172.72.72 0 00.196-.513.733.733 0 00-.06-.275c-.02-.036-1.922-4.578-1.922-7.906 0-1.901-.478-4.578-1.828-5.861a2.838 2.838 0 00-.383-.31c-.352-1.078-2.205-6.637-2.743-8.416a33.302 33.302 0 01-.671-3.382c0-.973.647-1.796 1.406-1.796 1.157 0 1.603.995 2.728 3.877l.134.36c.425 1.078.92 2.418 1.448 3.834 1.206 3.252 2.71 7.295 4.19 10.576.77 1.697 1.47 5.391 2.149 8.93.752 3.954 1.462 7.666 2.355 9.618l-2.858.456-7.15 1.14a10.76 10.76 0 01-3.056-3.864v.014z"/></g><defs><clipPath id="cclip0_2440_40572"><path transform="translate(10.75 10.793)" d="M0 0h45v46H0z"/></clipPath></defs></svg><svg viewBox="0 0 66 66" id="features2" xmlns="http://www.w3.org/2000/svg"><path d="M51.176 51.01c3.51-2.956 5.511-7.105 5.511-11.467 0-3.534-1.333-6.997-3.755-9.75-2.243-2.552-5.343-4.416-8.78-5.295C43.594 16.338 36.115 9.855 27 9.855c-9.477 0-17.188 7.01-17.188 15.625 0 4.363 2.002 8.512 5.511 11.467L13.76 41.64c-.224.6.434 1.226 1.021.976l6.356-2.444c.4.132.803.25 1.21.353.264 3.88 2.083 7.489 5.167 10.216 3.225 2.855 7.483 4.427 11.987 4.427a18.66 18.66 0 005.864-.934l6.355 2.444c.588.25 1.245-.375 1.022-.976l-1.565-4.693zM42.81 31.608a8.595 8.595 0 11-11.826 9.072c5.332-1.155 9.708-4.573 11.826-9.072zm-21.97 7.003l-5.074 1.951 1.211-3.634a.781.781 0 00-.258-.861c-3.395-2.674-5.343-6.533-5.343-10.587 0-7.754 7.01-14.063 15.625-14.063 8.616 0 15.625 6.309 15.625 14.063 0 7.753-7.01 14.062-15.625 14.062a17.087 17.087 0 01-5.625-.94.78.78 0 00-.536.009zm28.684 12.38l1.212 3.634-5.074-1.952a.78.78 0 00-.537-.009 17.08 17.08 0 01-5.624.94c-8.049 0-14.81-5.633-15.557-12.746 1.819.296 3.67.326 5.497.088A10.156 10.156 0 1043.4 30.162c.451-1.303.712-2.664.773-4.042 6.496 1.821 10.953 7.22 10.953 13.423 0 4.055-1.948 7.914-5.344 10.587a.781.781 0 00-.258.861z"/><path d="M36.375 40.324a.781.781 0 100-1.562.781.781 0 000 1.562zM42.625 40.324a.781.781 0 100-1.562.781.781 0 000 1.562zM42.41 42.147a3.906 3.906 0 01-5.824 0 .781.781 0 10-1.164 1.042 5.47 5.47 0 008.152 0 .782.782 0 00-1.164-1.042zM31.725 33.594a.78.78 0 001.133-.824l-.893-5.21 3.785-3.69a.78.78 0 00-.433-1.332l-5.231-.76-2.34-4.74a.78.78 0 00-1.4 0l-2.34 4.74-5.232.76a.782.782 0 00-.433 1.332l3.786 3.69-.894 5.21c-.127.616.589 1.134 1.134.824l4.679-2.46 4.679 2.46zm-8.684-2.12l.695-4.054a.782.782 0 00-.224-.692l-2.946-2.871 4.07-.592a.78.78 0 00.59-.427l1.82-3.69 1.82 3.69a.782.782 0 00.59.427l4.07.591-2.946 2.872a.781.781 0 00-.224.692l.695 4.054-3.641-1.914a.782.782 0 00-.727 0l-3.642 1.914z"/></svg><svg viewBox="0 0 66 66" id="features3" xmlns="http://www.w3.org/2000/svg"><g clip-path="url(#eclip0_2440_40572)"><path d="M56.198 55.172L45.465 27.514a.766.766 0 00-1.43 0L40.059 37.77l-5.735-16.15.94.682a1.53 1.53 0 001.801 0c.538-.391.763-1.085.557-1.717l-.766-2.375 2.016-1.467a1.538 1.538 0 00-.902-2.78h-2.491l-.767-2.373a1.533 1.533 0 00-2.913 0l-.767 2.373h-2.5a1.538 1.538 0 00-.901 2.78l2.015 1.467-.767 2.375c-.212.632.014 1.33.557 1.717a1.509 1.509 0 001.803 0l.938-.683-5.734 16.151-3.978-10.256a.766.766 0 00-1.428 0L10.301 55.172a.77.77 0 00.715 1.046h44.467a.766.766 0 00.714-1.046zM30.337 21.059l.766-2.374a1.533 1.533 0 00-.556-1.717L28.53 15.5h2.491a1.534 1.534 0 001.462-1.062l.766-2.381v.009l.767 2.374a1.533 1.533 0 001.46 1.06h2.492l-2.016 1.468a1.533 1.533 0 00-.556 1.717l.77 2.374-2.015-1.466a1.526 1.526 0 00-1.804 0l-2.011 1.466zm-8.587 8.854l3.91 10.073-5.218 14.696h-8.305l9.613-24.77zm.32 24.769l11.18-31.51 11.18 31.51H22.07zm23.988 0L40.84 39.986l3.91-10.073 9.612 24.769h-8.304z"/></g><defs><clipPath id="eclip0_2440_40572"><path transform="translate(10.25 10.293)" d="M0 0h46v46H0z"/></clipPath></defs></svg><svg viewBox="0 0 61 69" id="features4" xmlns="http://www.w3.org/2000/svg"><g clip-path="url(#fclip0_2440_24875)"><path d="M26.136 58.44a.676.676 0 01-.676-.486l-1.581-5.405-6.906-.156a2.912 2.912 0 01-2.83-2.892v-7.473h-2.244a1.351 1.351 0 01-1.243-1.912l3.689-8.784a17.905 17.905 0 1134.06 5.129 16.216 16.216 0 00-1.127 10.844l1.216 4.649a.676.676 0 01-.487.818L26.305 58.44a.723.723 0 01-.17 0zm5.898-45.945a17.74 17.74 0 00-2.973.256 16.534 16.534 0 00-13.385 18.561c.02.121.005.245-.04.358l-3.764 8.973 2.973.034a.676.676 0 01.676.676v8.155a1.554 1.554 0 001.506 1.54l7.433.17a.675.675 0 01.635.48l1.54 5.25 20.393-5.312-1.061-4.006a17.567 17.567 0 011.175-11.744 16.547 16.547 0 00-15.108-23.391z"/><path d="M27.393 39.812a.675.675 0 01-.635-.899l2.391-6.878h-2.763a.676.676 0 01-.575-.324.676.676 0 01-.033-.676l4.473-9.04a.675.675 0 01.601-.379h5.48a.675.675 0 01.588.345.676.676 0 010 .676l-3.04 4.885 3.377.196a.676.676 0 01.426 1.148l-9.79 10.723a.676.676 0 01-.5.223zm.074-9.128h2.635a.675.675 0 01.635.898l-1.621 4.663 6.621-7.25-3.101-.19a.676.676 0 01-.534-1.027l3-4.817h-3.838l-3.797 7.723z"/></g><defs><clipPath id="fclip0_2440_24875"><path transform="translate(10.25 10.792)" d="M0 0h40v48H0z"/></clipPath></defs></svg><svg viewBox="0 0 66 66" id="features5" xmlns="http://www.w3.org/2000/svg"><g clip-path="url(#gclip0_2440_40574)"><path d="M57.029 32.444h-5.945c-.17-1.869-.51-3.567-1.019-5.095l3.907-1.699c.509-.17.679-.68.509-1.189-.17-.51-.68-.679-1.189-.51l-3.906 1.7c-.68-1.53-1.699-3.058-2.887-4.417l4.246-4.246a.82.82 0 000-1.188.82.82 0 00-1.19 0l-4.245 4.246c-1.359-1.19-2.718-2.208-4.416-2.888l1.698-3.906c.17-.51 0-.85-.51-1.189-.509-.17-.848 0-1.188.51l-1.698 3.906c-1.699-.51-3.397-1.019-5.096-1.019V9.516c0-.51-.34-.85-.849-.85-.51 0-.849.34-.849.85v5.944c-1.868.17-3.566.51-5.095 1.019l-1.698-3.906c-.17-.51-.68-.68-1.19-.51-.509.17-.678.68-.509 1.19l1.699 3.905c-1.529.68-3.057 1.699-4.416 2.888L17.117 15.8a.82.82 0 00-1.189 0 .82.82 0 000 1.188l4.246 4.246c-1.359 1.36-2.208 2.888-3.057 4.416l-3.906-1.698c-.51-.17-.85 0-1.19.51-.17.509 0 .849.51 1.188l3.906 1.699c-.509 1.698-1.019 3.396-1.019 5.095H9.474c-.51 0-.849.34-.849.849 0 .51.34.849.85.849h5.944c.17 1.868.509 3.567 1.018 5.095l-3.906 1.698c-.51.17-.68.68-.51 1.19.17.509.68.679 1.19.509l3.906-1.699c.68 1.53 1.698 3.058 2.887 4.416l-4.246 4.246a.82.82 0 000 1.19c.34.339.85.339 1.189 0l4.246-4.247c1.359 1.189 2.717 2.208 4.416 2.887l-1.699 3.907c-.17.51 0 .849.51 1.188.51.17.849 0 1.189-.509l1.698-3.906c1.698.51 3.397 1.019 5.095 1.019v5.944c0 .51.34.85.85.85.509 0 .848-.34.848-.85v-5.944c1.869-.17 3.567-.51 5.096-1.02l1.698 3.907c.17.51.68.68 1.189.51.51-.17.68-.68.51-1.19l-1.699-3.906c1.529-.679 3.057-1.698 4.416-2.887l4.246 4.246c.34.34.849.34 1.189 0 .34-.34.34-.85 0-1.189l-4.246-4.246c1.188-1.358 2.207-2.717 2.887-4.416l3.906 1.699c.51.17.85 0 1.189-.51.17-.51 0-.849-.51-1.189l-3.906-1.698c.51-1.698 1.02-3.397 1.02-5.095h5.944c.509 0 .849-.34.849-.85 0-.509-.34-.848-.85-.848zM33.25 49.427c-8.831 0-16.134-7.303-16.134-16.134 0-8.832 7.303-16.135 16.134-16.135 8.832 0 16.135 7.303 16.135 16.135 0 8.831-7.303 16.134-16.135 16.134z"/></g><defs><clipPath id="gclip0_2440_40574"><path transform="translate(8.25 8.293)" d="M0 0h50v50H0z"/></clipPath></defs></svg><svg viewBox="0 0 18 18" id="gps" xmlns="http://www.w3.org/2000/svg"><path d="M8.848.554a5.872 5.872 0 00-5.866 5.865c0 4.066 5.872 11.01 5.872 11.01s5.86-7.144 5.86-11.01A5.872 5.872 0 008.848.554zm1.77 7.583a2.495 2.495 0 01-1.77.732c-.64 0-1.282-.244-1.77-.732a2.506 2.506 0 010-3.54 2.486 2.486 0 011.77-.733c.669 0 1.297.26 1.77.733a2.506 2.506 0 010 3.54z"/></svg><svg viewBox="0 0 66 66" id="logotype" xmlns="http://www.w3.org/2000/svg"><path d="M55.379 50.94a.99.99 0 10-.889-1.771.99.99 0 00.889 1.77zm-3.32-2.807a1.128 1.128 0 00-.893-2.068 1.126 1.126 0 00.894 2.068zm-3.195-3.087a1.263 1.263 0 10-.865-2.372 1.263 1.263 0 00.865 2.372zm-3.052-3.362a1.399 1.399 0 10-.803-2.68 1.399 1.399 0 00.803 2.68zm-2.884-3.631a1.534 1.534 0 10-.708-2.986 1.534 1.534 0 00.708 2.986zm-2.697-3.891a1.671 1.671 0 10-.581-3.292 1.671 1.671 0 00.581 3.292zm-2.489-4.142a1.806 1.806 0 10-.418-3.588 1.806 1.806 0 00.418 3.588zM58.73 45.24a.583.583 0 10-.472-1.067.583.583 0 00.472 1.067zm-3.042-2.678a.718.718 0 10-.503-1.345.718.718 0 00.503 1.345zm-2.922-2.945a.853.853 0 10-.503-1.63.853.853 0 00.503 1.63zm-2.78-3.206a.99.99 0 10-.474-1.923.99.99 0 00.474 1.923zm-2.62-3.463a1.126 1.126 0 10-.408-2.214 1.126 1.126 0 00.409 2.214zm-2.435-3.709a1.263 1.263 0 10-.316-2.505 1.263 1.263 0 00.316 2.505zm-2.236-3.946a1.398 1.398 0 10-.186-2.79 1.398 1.398 0 00.186 2.79zm22.72 16.912c.018-.008.027-.03.018-.048a.038.038 0 00-.05-.02.037.037 0 00-.018.05c.008.018.03.027.05.018zm-2.88-2.266a.172.172 0 00.1-.224.171.171 0 00-.224-.1.173.173 0 00.124.324zm-2.784-2.526a.31.31 0 10-.187-.59.31.31 0 00.187.59zm-2.67-2.78a.447.447 0 00-.22-.864.445.445 0 00.22.864zm-2.532-3.03a.582.582 0 10-.222-1.143.582.582 0 00.222 1.142zm-2.377-3.275a.717.717 0 10-.19-1.421.717.717 0 00.19 1.421zM49.97 24.82a.854.854 0 10-.128-1.703.854.854 0 00.128 1.703zm-2.007-3.734a.99.99 0 10-.033-1.979.99.99 0 00.033 1.98zm13.816 9.035a.037.037 0 10-.015-.072.036.036 0 00-.029.043c.004.02.024.033.044.03zm-2.31-2.834c.095-.014.16-.101.147-.196a.173.173 0 10-.147.195zm-2.16-3.067a.31.31 0 10-.052-.617.31.31 0 00.052.617zm-1.992-3.29a.445.445 0 10-.023-.89.445.445 0 00.023.89zm-1.806-3.505a.581.581 0 10.04-1.163.581.581 0 00-.04 1.163zm7.418.165c.02 0 .037-.016.038-.036a.037.037 0 00-.036-.038.037.037 0 00-.038.036c0 .02.015.037.036.038zm-1.632-3.263a.173.173 0 00.188-.158.174.174 0 00-.159-.188.173.173 0 10-.029.346zm-7.935-4.258a.99.99 0 10-1.77.89.99.99 0 001.77-.89zm-2.806 3.32a1.127 1.127 0 10-2.07.894 1.127 1.127 0 002.07-.894zm-3.087 3.195a1.264 1.264 0 10-2.374.868 1.264 1.264 0 002.374-.868zm-3.363 3.052a1.399 1.399 0 10-2.68.802 1.399 1.399 0 002.68-.802zm-3.63 2.884a1.535 1.535 0 10-2.987.709 1.535 1.535 0 002.987-.709zm-3.891 2.697a1.671 1.671 0 10-3.292.581 1.671 1.671 0 003.292-.581zm-4.142 2.489a1.807 1.807 0 10-3.588.418 1.807 1.807 0 003.588-.418zM45.661 6.719a.583.583 0 10-1.065.472.583.583 0 001.065-.472zm-2.678 3.042a.717.717 0 10-1.344.502.717.717 0 001.344-.502zm-2.944 2.922a.854.854 0 10-1.631.503.854.854 0 001.631-.503zm-3.206 2.78a.99.99 0 10-1.925.475.99.99 0 001.925-.475zm-3.463 2.62a1.125 1.125 0 10-2.214.408 1.125 1.125 0 002.214-.409zm-3.709 2.436a1.263 1.263 0 10-2.506.315 1.263 1.263 0 002.506-.316zm-3.946 2.235a1.399 1.399 0 10-2.79.187 1.399 1.399 0 002.79-.187zM42.627.035c-.008-.02-.03-.028-.049-.02a.038.038 0 00-.018.05c.008.019.03.027.049.019a.036.036 0 00.018-.049zm-2.267 2.88a.172.172 0 00-.223-.1.173.173 0 10.224.1zm-2.525 2.783a.31.31 0 10-.59.188.31.31 0 00.59-.188zm-2.78 2.67a.447.447 0 00-.864.22.445.445 0 00.864-.22zm-3.03 2.532a.582.582 0 10-1.144.223.582.582 0 001.143-.223zm-3.275 2.377a.717.717 0 10-1.421.189.717.717 0 001.421-.188zm-3.508 2.202a.854.854 0 10-1.702.128.854.854 0 001.703-.128zm-3.733 2.006a.99.99 0 10-1.979.032.99.99 0 001.979-.032zM30.544 3.67a.037.037 0 10-.073.015.037.037 0 00.073-.015zM27.71 5.98a.173.173 0 00-.195-.147.173.173 0 10.195.147zm-3.066 2.16a.309.309 0 10-.616.051.309.309 0 00.616-.05zm-3.29 1.992a.446.446 0 10-.891.024.446.446 0 00.89-.024zm-3.506 1.806a.581.581 0 10-1.161-.04.581.581 0 001.162.04zm.166-7.418a.037.037 0 10-.074-.002.037.037 0 00.074.002zM14.75 6.151a.173.173 0 00-.158-.188.174.174 0 00-.188.159.174.174 0 00.346.029zm-4.257 7.935a.99.99 0 10.887 1.77.99.99 0 00-.887-1.77zm3.319 2.806a1.128 1.128 0 00.893 2.069 1.126 1.126 0 00-.893-2.069zm3.196 3.087a1.264 1.264 0 00.864 2.373 1.263 1.263 0 10-.864-2.373zm3.05 3.363a1.399 1.399 0 10.804 2.68 1.399 1.399 0 00-.803-2.68zm2.885 3.63a1.535 1.535 0 10.71 2.987 1.535 1.535 0 00-.71-2.987zm2.697 3.891a1.67 1.67 0 10.58 3.291 1.67 1.67 0 00-.58-3.29zm2.489 4.142a1.807 1.807 0 10.418 3.589 1.807 1.807 0 00-.418-3.59zM7.142 19.787a.583.583 0 10.472 1.065.583.583 0 00-.472-1.065zm3.042 2.678a.718.718 0 10.502 1.344.718.718 0 00-.502-1.344zm2.922 2.944a.854.854 0 10.503 1.632.854.854 0 00-.503-1.632zm2.78 3.207a.99.99 0 10.475 1.924.99.99 0 00-.475-1.924zm2.62 3.462a1.126 1.126 0 10.409 2.214 1.126 1.126 0 00-.41-2.214zm2.436 3.709a1.263 1.263 0 10.314 2.505 1.263 1.263 0 00-.314-2.505zm2.235 3.946a1.399 1.399 0 10.187 2.79 1.399 1.399 0 00-.187-2.79zM.458 22.82c-.02.008-.028.03-.02.049.01.019.031.026.05.018a.037.037 0 00.019-.049.036.036 0 00-.049-.018zm2.88 2.267a.172.172 0 00-.1.223c.034.09.133.135.223.1a.173.173 0 00-.124-.324zm2.783 2.525a.31.31 0 10.187.59.31.31 0 00-.187-.59zm2.67 2.78a.446.446 0 10.221.865.446.446 0 00-.222-.864zm2.532 3.031a.582.582 0 10.222 1.143.582.582 0 00-.222-1.143zm2.377 3.274a.717.717 0 10.19 1.422.717.717 0 00-.19-1.422zm2.201 3.508a.854.854 0 10.13 1.703.854.854 0 00-.13-1.703zm2.007 3.733a.99.99 0 10.032 1.98.99.99 0 00-.032-1.98zM4.092 34.904a.037.037 0 10.015.073.037.037 0 00-.015-.073zm2.31 2.835a.173.173 0 00-.147.195.173.173 0 10.147-.196zm2.16 3.066a.31.31 0 10.052.617.31.31 0 00-.052-.617zm1.992 3.29a.445.445 0 10.023.891.445.445 0 00-.023-.89zm1.806 3.506a.581.581 0 10-.04 1.161.581.581 0 00.04-1.161zm-7.418-.166a.037.037 0 10-.002.075.037.037 0 00.002-.075zm1.631 3.263a.174.174 0 00-.029.346.174.174 0 00.03-.346zm7.936 4.258a.991.991 0 101.771-.89.991.991 0 00-1.771.89zm2.806-3.32a1.127 1.127 0 102.07-.894 1.127 1.127 0 00-2.07.895zm3.087-3.195a1.264 1.264 0 102.374-.868 1.264 1.264 0 00-2.374.868zm3.363-3.052a1.4 1.4 0 102.68-.803 1.4 1.4 0 00-2.68.803zm3.63-2.884a1.535 1.535 0 102.987-.709 1.535 1.535 0 00-2.987.71zm3.891-2.697a1.671 1.671 0 103.291-.581 1.671 1.671 0 00-3.29.581zm4.142-2.489a1.807 1.807 0 103.589-.419 1.807 1.807 0 00-3.59.42zM20.21 58.306a.582.582 0 101.065-.471.582.582 0 00-1.065.471zm2.677-3.042a.718.718 0 101.344-.502.718.718 0 00-1.344.502zm2.945-2.922a.854.854 0 101.631-.503.854.854 0 00-1.631.503zm3.207-2.78a.99.99 0 101.923-.474.99.99 0 00-1.923.474zm3.462-2.62a1.126 1.126 0 102.214-.409 1.126 1.126 0 00-2.214.41zm3.709-2.435a1.263 1.263 0 102.505-.316 1.263 1.263 0 00-2.505.316zm3.946-2.236a1.398 1.398 0 102.79-.186 1.398 1.398 0 00-2.79.186zm-16.912 22.72c.008.019.03.027.049.019a.038.038 0 00.018-.05.037.037 0 00-.049-.018.036.036 0 00-.018.048zm2.266-2.88c.035.09.135.134.224.1a.173.173 0 10-.223-.1zm2.526-2.784a.31.31 0 10.59-.187.31.31 0 00-.59.187zm2.78-2.67a.446.446 0 10.865-.22.446.446 0 00-.864.22zm3.03-2.532a.582.582 0 101.143-.222.582.582 0 00-1.142.222zm3.275-2.377a.717.717 0 101.422-.188.717.717 0 00-1.422.188zm3.507-2.201a.855.855 0 101.704-.13.855.855 0 00-1.704.13zm3.734-2.007a.99.99 0 101.98-.033.99.99 0 00-1.98.033zm-9.035 13.816a.037.037 0 00.073-.015.037.037 0 00-.044-.029.037.037 0 00-.03.044zm2.834-2.31a.173.173 0 10.343-.049.173.173 0 00-.343.05zm3.067-2.16a.31.31 0 10.616-.051.31.31 0 00-.616.05zm3.29-1.992a.445.445 0 10.891-.023.445.445 0 00-.89.023zm3.505-1.805a.581.581 0 101.162.04.581.581 0 00-1.162-.04zm-.165 7.417c0 .02.016.037.036.038.02 0 .038-.015.038-.036a.037.037 0 10-.074-.002zm3.45-1.79a.173.173 0 11-.028.346.173.173 0 01.028-.346z"/><path d="M55.379 50.94a.99.99 0 10-.889-1.771.99.99 0 00.889 1.77zm-3.32-2.807a1.127 1.127 0 10-.895-2.07 1.127 1.127 0 00.895 2.07zm-3.195-3.087A1.263 1.263 0 1048 42.674a1.263 1.263 0 00.864 2.372zm-3.052-3.362a1.399 1.399 0 10-.803-2.68 1.399 1.399 0 00.803 2.68zm-2.884-3.631a1.534 1.534 0 10-.708-2.986 1.534 1.534 0 00.708 2.986zm-2.697-3.891a1.671 1.671 0 10-.58-3.291 1.671 1.671 0 00.58 3.29zm-2.489-4.142a1.806 1.806 0 10-.418-3.588 1.806 1.806 0 00.418 3.588zM58.73 45.24a.583.583 0 10-.472-1.067.583.583 0 00.472 1.067zm-3.042-2.678a.718.718 0 10-.503-1.345.718.718 0 00.503 1.345zm-2.922-2.945a.854.854 0 10-.503-1.63.854.854 0 00.503 1.63zm-2.78-3.206a.99.99 0 10-.474-1.923.99.99 0 00.474 1.923zm-2.62-3.463a1.126 1.126 0 10-.408-2.214 1.126 1.126 0 00.409 2.214zm-2.435-3.709a1.263 1.263 0 10-.316-2.506 1.263 1.263 0 00.316 2.506zm-2.236-3.946a1.398 1.398 0 10-.186-2.79 1.398 1.398 0 00.186 2.79zm22.72 16.912c.018-.008.027-.03.018-.048a.038.038 0 00-.05-.02.037.037 0 00-.018.05c.008.018.03.027.05.018zm-2.88-2.266a.172.172 0 00.1-.224.171.171 0 00-.224-.1.173.173 0 00.124.324zm-2.784-2.526a.31.31 0 10-.187-.59.31.31 0 00.187.59zm-2.67-2.78a.447.447 0 00-.22-.864.445.445 0 00.22.864zm-2.532-3.03a.582.582 0 10-.222-1.143.582.582 0 00.222 1.142zm-2.377-3.275a.717.717 0 10-.19-1.421.717.717 0 00.19 1.421zM49.97 24.82a.854.854 0 10-.128-1.703.854.854 0 00.128 1.703zm-2.007-3.734a.99.99 0 10-.033-1.979.99.99 0 00.033 1.98zm13.816 9.035a.037.037 0 10-.015-.072.036.036 0 00-.029.043c.004.02.024.033.044.03zm-2.31-2.834c.095-.014.16-.101.147-.196a.173.173 0 10-.147.195zm-2.16-3.067a.31.31 0 10-.052-.617.31.31 0 00.052.617zm-1.992-3.29a.445.445 0 10-.022-.89.445.445 0 00.022.89zm-1.806-3.505a.581.581 0 10.04-1.162.581.581 0 00-.04 1.162zm7.418.165c.02 0 .037-.016.038-.036a.037.037 0 00-.036-.038.037.037 0 00-.038.036c0 .02.015.037.036.038zm-1.632-3.263a.173.173 0 00.188-.158.174.174 0 00-.159-.188.173.173 0 10-.029.346zm-7.935-4.258a.99.99 0 10-1.77.89.99.99 0 001.77-.89zm-2.806 3.32a1.127 1.127 0 10-2.07.894 1.127 1.127 0 002.07-.894zm-3.087 3.195a1.264 1.264 0 10-2.374.868 1.264 1.264 0 002.374-.868zm-3.363 3.052a1.399 1.399 0 10-2.68.802 1.399 1.399 0 002.68-.802zm-3.63 2.884a1.535 1.535 0 10-2.987.709 1.535 1.535 0 002.987-.709zm-3.891 2.697a1.671 1.671 0 10-3.292.581 1.671 1.671 0 003.292-.581zm-4.142 2.489a1.806 1.806 0 10-3.588.418 1.806 1.806 0 003.588-.418zM45.661 6.719a.583.583 0 10-1.065.472.583.583 0 001.065-.472zm-2.678 3.042a.717.717 0 10-1.344.502.717.717 0 001.344-.502zm-2.944 2.922a.854.854 0 10-1.631.503.854.854 0 001.631-.503zm-3.206 2.78a.99.99 0 10-1.925.475.99.99 0 001.925-.475zm-3.463 2.62a1.125 1.125 0 10-2.214.408 1.125 1.125 0 002.214-.409zm-3.709 2.436a1.263 1.263 0 10-2.505.315 1.263 1.263 0 002.505-.316zm-3.946 2.235a1.399 1.399 0 10-2.79.187 1.399 1.399 0 002.79-.187zM42.627.035a.036.036 0 00-.049-.02.038.038 0 00-.018.05c.008.019.03.027.049.019a.036.036 0 00.018-.049zm-2.267 2.88a.172.172 0 00-.223-.1.173.173 0 10.224.1zm-2.525 2.783a.31.31 0 10-.59.188.31.31 0 00.59-.188zm-2.78 2.67a.447.447 0 00-.864.22.445.445 0 00.864-.22zm-3.03 2.532a.582.582 0 10-1.144.223.582.582 0 001.143-.223zm-3.275 2.377a.717.717 0 10-1.422.189.717.717 0 001.422-.188zm-3.508 2.201a.854.854 0 10-1.702.129.854.854 0 001.703-.129zm-3.733 2.007a.99.99 0 10-1.978.032.99.99 0 001.978-.032zM30.544 3.67a.037.037 0 10-.073.015.037.037 0 00.073-.015zM27.71 5.98a.173.173 0 00-.195-.147.173.173 0 10.195.147zm-3.066 2.16a.309.309 0 10-.616.051.309.309 0 00.616-.05zm-3.29 1.992a.446.446 0 10-.891.024.446.446 0 00.89-.024zm-3.506 1.806a.581.581 0 10-1.161-.04.581.581 0 001.162.04zm.166-7.418a.037.037 0 10-.074-.002.037.037 0 00.074.002zM14.75 6.151a.173.173 0 00-.158-.188.174.174 0 00-.188.159.174.174 0 00.346.029zm-4.257 7.935a.99.99 0 10.888 1.77.99.99 0 00-.888-1.77zm3.319 2.806a1.128 1.128 0 00.893 2.069 1.126 1.126 0 00-.893-2.069zm3.196 3.087a1.264 1.264 0 00.864 2.373 1.263 1.263 0 10-.864-2.373zm3.05 3.363a1.399 1.399 0 10.804 2.68 1.399 1.399 0 00-.803-2.68zm2.885 3.63a1.535 1.535 0 10.71 2.987 1.535 1.535 0 00-.71-2.987zm2.697 3.891a1.67 1.67 0 10.58 3.291 1.67 1.67 0 00-.58-3.29zm2.489 4.142a1.807 1.807 0 10.418 3.589 1.807 1.807 0 00-.418-3.59zM7.142 19.787a.582.582 0 10.471 1.065.582.582 0 00-.47-1.065zm3.042 2.678a.718.718 0 10.502 1.344.718.718 0 00-.502-1.344zm2.922 2.944a.854.854 0 10.503 1.632.854.854 0 00-.503-1.632zm2.78 3.207a.99.99 0 10.475 1.924.99.99 0 00-.475-1.924zm2.62 3.462a1.126 1.126 0 10.408 2.214 1.126 1.126 0 00-.409-2.214zm2.436 3.709a1.263 1.263 0 10.314 2.505 1.263 1.263 0 00-.314-2.505zm2.235 3.946a1.399 1.399 0 10.187 2.79 1.399 1.399 0 00-.187-2.79zM.458 22.82c-.02.008-.028.03-.02.049.01.019.031.026.05.018a.037.037 0 00.019-.049.036.036 0 00-.049-.018zm2.88 2.266a.172.172 0 00-.1.224c.034.09.133.135.223.1a.173.173 0 00-.124-.324zm2.783 2.526a.31.31 0 10.187.59.31.31 0 00-.187-.59zm2.67 2.78a.446.446 0 10.221.865.446.446 0 00-.222-.864zm2.532 3.031a.582.582 0 10.222 1.143.582.582 0 00-.222-1.143zm2.377 3.274a.717.717 0 10.19 1.422.717.717 0 00-.19-1.422zm2.201 3.508a.854.854 0 10.13 1.703.854.854 0 00-.13-1.703zm2.007 3.733a.99.99 0 10.032 1.98.99.99 0 00-.032-1.98zM4.092 34.904a.037.037 0 10.015.073.037.037 0 00-.015-.073zm2.31 2.835a.173.173 0 00-.147.195.173.173 0 10.147-.196zm2.16 3.066a.31.31 0 10.052.617.31.31 0 00-.052-.617zm1.992 3.29a.445.445 0 10.023.891.445.445 0 00-.023-.89zm1.806 3.506a.581.581 0 10-.04 1.161.581.581 0 00.04-1.161zm-7.418-.166a.037.037 0 10-.002.075.037.037 0 00.002-.075zm1.631 3.263a.174.174 0 00-.029.346.174.174 0 00.03-.346zm7.936 4.258a.991.991 0 101.771-.89.991.991 0 00-1.771.89zm2.806-3.32a1.127 1.127 0 102.07-.894 1.127 1.127 0 00-2.07.895zm3.087-3.195a1.264 1.264 0 102.374-.868 1.264 1.264 0 00-2.374.868zm3.363-3.052a1.4 1.4 0 102.68-.803 1.4 1.4 0 00-2.68.803zm3.63-2.884a1.535 1.535 0 102.987-.709 1.535 1.535 0 00-2.987.71zm3.891-2.697a1.671 1.671 0 103.291-.581 1.671 1.671 0 00-3.29.581zm4.142-2.489a1.807 1.807 0 103.589-.419 1.807 1.807 0 00-3.59.42zM20.21 58.306a.582.582 0 101.065-.471.582.582 0 00-1.065.471zm2.677-3.042a.717.717 0 101.344-.502.717.717 0 00-1.344.502zm2.945-2.922a.854.854 0 101.631-.503.854.854 0 00-1.631.503zm3.207-2.78a.99.99 0 101.923-.474.99.99 0 00-1.923.474zm3.462-2.62a1.126 1.126 0 102.214-.409 1.126 1.126 0 00-2.214.41zm3.709-2.435a1.263 1.263 0 102.505-.316 1.263 1.263 0 00-2.505.316zm3.946-2.236a1.398 1.398 0 102.79-.186 1.398 1.398 0 00-2.79.186zm-16.912 22.72c.008.019.03.027.049.019a.038.038 0 00.018-.05.037.037 0 00-.049-.018.036.036 0 00-.018.048zm2.266-2.88c.035.09.135.134.224.1a.173.173 0 10-.223-.1zm2.526-2.784a.31.31 0 10.59-.187.31.31 0 00-.59.187zm2.78-2.67a.446.446 0 10.865-.22.446.446 0 00-.864.22zm3.03-2.532a.582.582 0 101.143-.222.582.582 0 00-1.142.222zm3.275-2.377a.717.717 0 101.422-.188.717.717 0 00-1.422.188zm3.507-2.201a.855.855 0 101.704-.13.855.855 0 00-1.704.13zm3.734-2.007a.99.99 0 101.98-.033.99.99 0 00-1.98.033zm-9.035 13.816a.037.037 0 00.073-.015.037.037 0 00-.044-.029.038.038 0 00-.03.044zm2.834-2.31c.014.095.101.16.196.147a.174.174 0 10-.196-.147zm3.067-2.16a.309.309 0 10.616-.051.309.309 0 00-.616.05zm3.29-1.992a.446.446 0 10.891-.023.446.446 0 00-.89.023zm3.505-1.805a.581.581 0 101.162.04.581.581 0 00-1.162-.04zm-.165 7.417c0 .02.016.037.036.038.02 0 .038-.015.038-.036a.037.037 0 10-.074-.002zm3.45-1.79a.173.173 0 11-.028.346.173.173 0 01.028-.346z"/></svg><svg viewBox="0 0 16 17" id="mail" xmlns="http://www.w3.org/2000/svg"><path d="M15.43 2.786H.571l7.429 6.119 7.512-6.102a.518.518 0 00-.084-.017z"/><path d="M8.36 10.086a.571.571 0 01-.723 0L0 3.795v9.848c0 .316.256.571.571.571H15.43a.571.571 0 00.571-.571V3.879l-7.64 6.207z"/></svg><svg viewBox="0 0 19 19" id="phone" xmlns="http://www.w3.org/2000/svg"><path d="M15.435 12.013v3c-2.068 0-3.802-.372-5.25-.994-2.88-1.24-4.631-3.473-5.624-5.756-.825-1.896-1.125-3.827-1.125-5.25h3l.75 3-2.625 2.25c.993 2.283 2.744 4.517 5.624 5.756l2.25-2.756 3 .75z"/><path d="M10.185 14.019c-2.88-1.24-4.631-3.473-5.624-5.756m5.624 5.756c1.448.622 3.182.994 5.25.994v-3l-3-.75-2.25 2.756zM4.561 8.263c-.825-1.896-1.125-3.827-1.125-5.25h3l.75 3-2.625 2.25z" stroke-linecap="round" stroke-linejoin="round"/></svg><svg viewBox="0 0 21 20" id="telegram" xmlns="http://www.w3.org/2000/svg"><g clip-path="url(#lclip0_1400_57634)"><path d="M8.348 12.65l-.331 4.654c.473 0 .678-.203.924-.447l2.22-2.121 4.598 3.367c.843.47 1.437.223 1.665-.776l3.018-14.143c.268-1.247-.45-1.735-1.272-1.43L1.428 8.548c-1.21.47-1.192 1.145-.205 1.451l4.535 1.411 10.536-6.592c.496-.329.947-.147.576.181l-8.522 7.653z"/></g><defs><clipPath id="lclip0_1400_57634"><path transform="translate(.5)" d="M0 0h20v20H0z"/></clipPath></defs></svg><svg viewBox="0 0 26 25" id="tick" xmlns="http://www.w3.org/2000/svg"><g clip-path="url(#mclip0_19_811)"><path d="M24.817 3.687a1.25 1.25 0 00-1.768 0L8.073 18.663l-5.756-5.757a1.25 1.25 0 10-1.768 1.768l6.64 6.64a1.25 1.25 0 001.768 0l15.86-15.86a1.25 1.25 0 000-1.767z"/></g><defs><clipPath id="mclip0_19_811"><path transform="translate(.183)" d="M0 0h25v25H0z"/></clipPath></defs></svg><svg viewBox="0 0 21 20" id="viber" xmlns="http://www.w3.org/2000/svg"><g clip-path="url(#nclip0_1400_57639)"><path d="M19.796 11.578c.597-5.023-.286-8.194-1.88-9.628h.001C15.346-.5 6.661-.863 3.584 2.06 2.202 3.487 1.716 5.585 1.662 8.182c-.053 2.597-.116 7.463 4.418 8.783h.004l-.004 2.016s-.031.816.49.98c.597.194.867-.185 2.723-2.402 3.103.27 5.487-.348 5.758-.438.626-.21 4.172-.679 4.745-5.544zM9.6 16.142s-1.964 2.449-2.575 3.085c-.2.206-.42.187-.416-.223 0-.269.015-3.347.015-3.347-3.844-1.101-3.617-5.245-3.576-7.412.042-2.168.439-3.944 1.609-5.14C7.355.575 14.969 1.14 16.909 2.963c2.372 2.103 1.527 8.043 1.532 8.245-.487 4.062-3.36 4.32-3.889 4.495-.226.075-2.321.614-4.953.439z"/><path d="M10.686 3.58c-.32 0-.32.5 0 .505 2.49.02 4.54 1.754 4.562 4.937 0 .335.491.331.487-.005-.027-3.429-2.266-5.417-5.05-5.436z"/><path d="M13.96 8.494c-.008.332.483.348.487.012.04-1.891-1.125-3.448-3.316-3.613-.32-.023-.354.481-.034.505 1.9.144 2.9 1.44 2.862 3.096zM13.434 10.645c-.411-.238-.83-.09-1.004.144l-.362.47c-.184.238-.528.206-.528.206-2.512-.664-3.184-3.292-3.184-3.292s-.03-.356.2-.547l.453-.375c.226-.18.37-.613.139-1.04-.617-1.113-1.031-1.498-1.242-1.793-.221-.277-.555-.34-.901-.152h-.008c-.72.422-1.51 1.21-1.257 2.023.43.857 1.222 3.588 3.745 5.651 1.186.976 3.063 1.976 3.86 2.207l.007.011c.785.262 1.548-.558 1.956-1.3v-.006c.18-.36.12-.7-.143-.922-.469-.457-1.175-.96-1.73-1.285z"/><path d="M11.475 6.753c.8.047 1.19.465 1.23 1.324.016.336.503.313.488-.023-.053-1.122-.638-1.747-1.691-1.805-.321-.02-.351.485-.027.504z"/></g><defs><clipPath id="nclip0_1400_57639"><path transform="translate(.5)" d="M0 0h20v20H0z"/></clipPath></defs></svg><svg viewBox="0 0 21 20" id="vk" xmlns="http://www.w3.org/2000/svg"><g clip-path="url(#oclip0_1400_57630)"><path d="M17.096 10.857c-.323-.409-.231-.59 0-.955.004-.004 2.673-3.693 2.948-4.944h.002c.137-.456 0-.791-.661-.791h-2.187c-.556 0-.813.287-.95.609 0 0-1.114 2.665-2.689 4.392-.508.5-.743.66-1.02.66-.137 0-.35-.16-.35-.616V4.958c0-.547-.156-.791-.617-.791H8.134c-.349 0-.557.255-.557.492 0 .519.788.638.87 2.096V9.92c0 .694-.126.821-.405.821-.744 0-2.548-2.676-3.617-5.738-.216-.594-.427-.834-.987-.834H1.25c-.624 0-.75.287-.75.609 0 .568.743 3.394 3.457 7.127 1.808 2.549 4.355 3.93 6.671 3.93 1.393 0 1.563-.307 1.563-.835 0-2.435-.126-2.665.571-2.665.324 0 .88.16 2.18 1.39 1.486 1.457 1.73 2.11 2.562 2.11h2.187c.623 0 .939-.307.757-.912-.416-1.273-3.226-3.89-3.352-4.065z"/></g><defs><clipPath id="oclip0_1400_57630"><path transform="translate(.5)" d="M0 0h20v20H0z"/></clipPath></defs></svg><svg viewBox="0 0 21 20" id="whatsapp" xmlns="http://www.w3.org/2000/svg"><g clip-path="url(#pclip0_1400_57648)"><path d="M17.528 2.904A9.912 9.912 0 0010.49 0 9.963 9.963 0 003.44 2.902 9.812 9.812 0 00.5 9.907v.005c0 1.598.42 3.21 1.217 4.681L.527 20l5.47-1.244a10.012 10.012 0 004.49 1.067h.003a9.964 9.964 0 007.049-2.902c1.896-1.877 2.94-4.364 2.942-7.006 0-2.623-1.048-5.113-2.953-7.01zM10.49 18.262h-.004c-1.4 0-2.786-.352-4.01-1.017l-.259-.14-3.636.827.79-3.59-.153-.263c-.757-1.305-1.157-2.747-1.157-4.168.003-4.602 3.784-8.35 8.429-8.35 2.244 0 4.352.87 5.937 2.45 1.608 1.602 2.493 3.699 2.493 5.904-.002 4.602-3.784 8.347-8.43 8.347z"/><path d="M7.77 5.542h-.437a.84.84 0 00-.61.284c-.209.228-.8.78-.8 1.9 0 1.12.82 2.203.934 2.356.114.151 1.58 2.524 3.903 3.437 1.93.76 2.324.608 2.743.57.419-.038 1.352-.55 1.542-1.082.19-.532.19-.988.133-1.083-.057-.095-.21-.152-.438-.266-.228-.114-1.348-.674-1.558-.75-.21-.076-.362-.114-.514.114-.152.227-.601.754-.734.906-.134.152-.267.171-.496.057-.228-.114-.957-.359-1.83-1.134-.68-.604-1.15-1.374-1.284-1.602-.133-.228-.014-.351.1-.465.103-.102.242-.241.356-.374.114-.133.147-.228.223-.38.076-.152.038-.285-.019-.399-.057-.114-.496-1.24-.699-1.69-.171-.38-.351-.393-.514-.4z"/></g><defs><clipPath id="pclip0_1400_57648"><path transform="translate(.5)" d="M0 0h20v20H0z"/></clipPath></defs></svg></svg>