<svg width="16" height="16" viewBox="0 0 16 16" fill="none" xmlns="http://www.w3.org/2000/svg">
<g clip-path="url(#clip0_418_4019)">
<path d="M8.93805 7.99584L15.7966 14.8544C16.0613 15.11 16.0686 15.5319 15.813 15.7966C15.5573 16.0613 15.1355 16.0686 14.8708 15.813C14.8653 15.8076 14.8598 15.8021 14.8544 15.7966L7.99583 8.93802L1.13729 15.7966C0.872579 16.0523 0.45076 16.0449 0.195107 15.7802C-0.0542989 15.522 -0.0542989 15.1126 0.195107 14.8544L7.05365 7.99584L0.195107 1.13729C-0.0650357 0.877112 -0.0650357 0.455294 0.195107 0.195111C0.455289 -0.0649929 0.877108 -0.0649929 1.13729 0.195111L7.99583 7.05365L14.8544 0.195111C15.1191 -0.0605412 15.5409 -0.0532017 15.7966 0.211509C16.0459 0.469738 16.0459 0.879103 15.7966 1.13729L8.93805 7.99584Z" fill="white"/>
</g>
<defs>
<clipPath id="clip0_418_4019">
<rect width="16" height="16" fill="white" transform="matrix(1 0 0 -1 0 16)"/>
</clipPath>
</defs>
</svg>
