<svg width="66" height="66" viewBox="0 0 66 66" fill="none" xmlns="http://www.w3.org/2000/svg">
<path d="M51.1765 51.0091C54.6862 48.0544 56.6875 43.9054 56.6875 39.543C56.6875 36.009 55.3539 32.5463 52.9322 29.7925C50.6889 27.2415 47.5889 25.3767 44.1529 24.4984C43.5931 16.3386 36.1144 9.85547 27 9.85547C17.5228 9.85547 9.8125 16.8647 9.8125 25.4805C9.8125 29.8429 11.8137 33.9919 15.3231 36.9467L13.7589 41.6396C13.5354 42.2406 14.1931 42.8656 14.7805 42.6162L21.1358 40.1719C21.5353 40.3036 21.9389 40.4213 22.3468 40.5248C22.6104 44.405 24.4294 48.0135 27.5128 50.7414C30.7383 53.5957 34.9957 55.168 39.5 55.168C41.492 55.1716 43.4718 54.8563 45.3641 54.2339L51.7195 56.6784C52.307 56.9282 52.9645 56.3028 52.7411 55.7019L51.1765 51.0091ZM42.8095 31.609C44.2005 32.1889 45.4146 33.1245 46.33 34.3217C47.2454 35.519 47.8298 36.9359 48.0247 38.4304C48.2196 39.9248 48.0181 41.4442 47.4405 42.8362C46.8628 44.2282 45.9293 45.4439 44.7335 46.3612C43.5377 47.2785 42.1217 47.8653 40.6276 48.0626C39.1335 48.26 37.6137 48.061 36.2208 47.4856C34.8279 46.9102 33.6107 45.9786 32.6914 44.7843C31.7722 43.5901 31.1831 42.1751 30.9833 40.6813C36.3148 39.5264 40.6914 36.1079 42.8095 31.609ZM20.8386 38.6118L15.7646 40.5633L16.9761 36.9288C17.0269 36.7762 17.0295 36.6117 16.9833 36.4576C16.9372 36.3035 16.8446 36.1675 16.7183 36.068C13.3226 33.3942 11.375 29.5353 11.375 25.4805C11.375 17.7266 18.3844 11.418 27 11.418C35.6156 11.418 42.625 17.7266 42.625 25.4805C42.625 33.2344 35.6156 39.543 27 39.543C25.0857 39.5469 23.1844 39.2292 21.3755 38.603C21.2011 38.5423 21.0109 38.5455 20.8386 38.6118ZM49.5235 50.9912L50.7353 54.6257L45.6613 52.6741C45.489 52.6077 45.2986 52.6046 45.1242 52.6654C43.3154 53.2917 41.4142 53.6095 39.5 53.6055C31.451 53.6055 24.6902 47.9718 23.9434 40.8585C25.7617 41.1548 27.6136 41.1847 29.4405 40.9472C29.687 42.7087 30.3918 44.3745 31.4844 45.7781C32.5769 47.1817 34.0189 48.2737 35.6661 48.9449C37.3132 49.6161 39.1078 49.843 40.8701 49.6028C42.6325 49.3627 44.3009 48.6639 45.7084 47.5764C47.1159 46.4889 48.2131 45.0508 48.8902 43.4061C49.5674 41.7614 49.8007 39.9677 49.5669 38.2044C49.333 36.4412 48.6403 34.7703 47.5578 33.3589C46.4754 31.9475 45.0413 30.8452 43.399 30.1621C43.8505 28.8591 44.1109 27.4976 44.172 26.12C50.668 27.9414 55.125 33.3408 55.125 39.543C55.125 43.5978 53.1773 47.4567 49.7813 50.1303C49.655 50.2298 49.5624 50.3659 49.5163 50.52C49.4701 50.674 49.4727 50.8386 49.5235 50.9912Z" fill="white"/>
<path d="M36.375 40.3242C36.8065 40.3242 37.1562 39.9744 37.1562 39.543C37.1562 39.1115 36.8065 38.7617 36.375 38.7617C35.9435 38.7617 35.5938 39.1115 35.5938 39.543C35.5938 39.9744 35.9435 40.3242 36.375 40.3242Z" fill="white"/>
<path d="M42.625 40.3242C43.0565 40.3242 43.4062 39.9744 43.4062 39.543C43.4062 39.1115 43.0565 38.7617 42.625 38.7617C42.1935 38.7617 41.8438 39.1115 41.8438 39.543C41.8438 39.9744 42.1935 40.3242 42.625 40.3242Z" fill="white"/>
<path d="M42.41 42.1471C42.0436 42.5568 41.5949 42.8846 41.0931 43.109C40.5913 43.3335 40.0479 43.4495 39.4982 43.4495C38.9485 43.4495 38.4051 43.3335 37.9033 43.109C37.4015 42.8846 36.9528 42.5568 36.5864 42.1471C36.5182 42.0697 36.4354 42.0065 36.3427 41.9613C36.2501 41.916 36.1494 41.8896 36.0464 41.8835C35.9435 41.8773 35.8403 41.8917 35.7429 41.9256C35.6455 41.9595 35.5558 42.0124 35.479 42.0812C35.4021 42.15 35.3397 42.2333 35.2952 42.3263C35.2507 42.4194 35.2251 42.5203 35.2198 42.6233C35.2145 42.7263 35.2296 42.8293 35.2644 42.9264C35.2991 43.0235 35.3527 43.1128 35.4221 43.1891C35.9351 43.7625 36.5633 44.2213 37.2656 44.5354C37.968 44.8495 38.7288 45.0119 39.4982 45.0119C40.2676 45.0119 41.0284 44.8495 41.7307 44.5354C42.4331 44.2213 43.0613 43.7625 43.5743 43.1891C43.7105 43.0344 43.78 42.8321 43.7678 42.6264C43.7555 42.4207 43.6625 42.2281 43.5089 42.0907C43.3553 41.9532 43.1537 41.882 42.9478 41.8926C42.742 41.9032 42.5487 41.9946 42.41 42.1471Z" fill="white"/>
<path d="M31.7247 33.594C31.8538 33.6618 31.9992 33.6922 32.1446 33.6816C32.29 33.6711 32.4295 33.6201 32.5475 33.5344C32.6654 33.4488 32.757 33.3318 32.8119 33.1967C32.8668 33.0617 32.8829 32.914 32.8582 32.7703L31.9647 27.5603L35.75 23.8704C35.8544 23.7687 35.9283 23.6397 35.9632 23.4982C35.9982 23.3567 35.9928 23.2082 35.9478 23.0695C35.9027 22.9309 35.8198 22.8076 35.7083 22.7136C35.5968 22.6197 35.4613 22.5588 35.317 22.5378L30.0859 21.7777L27.7463 17.0373C27.6818 16.9066 27.582 16.7965 27.4582 16.7196C27.3344 16.6426 27.1915 16.6018 27.0457 16.6018C26.8999 16.6018 26.7571 16.6426 26.6333 16.7196C26.5095 16.7965 26.4097 16.9066 26.3451 17.0373L24.0057 21.7777L18.7744 22.5378C18.6302 22.5588 18.4946 22.6197 18.3832 22.7136C18.2717 22.8076 18.1888 22.9309 18.1437 23.0695C18.0987 23.2082 18.0933 23.3567 18.1282 23.4982C18.1632 23.6397 18.237 23.7687 18.3414 23.8704L22.1269 27.5607L21.2332 32.7707C21.1063 33.386 21.8217 33.9045 22.3667 33.5944L27.0457 31.1345L31.7247 33.594ZM23.0407 31.4743L23.7363 27.4196C23.7577 27.2947 23.7484 27.1665 23.7093 27.0461C23.6702 26.9256 23.6023 26.8165 23.5116 26.728L20.5657 23.857L24.6369 23.2654C24.7623 23.2472 24.8813 23.1988 24.9838 23.1243C25.0863 23.0499 25.1691 22.9516 25.2251 22.838L27.0458 19.1488L28.8668 22.8375C28.9229 22.9511 29.0057 23.0494 29.1082 23.1239C29.2107 23.1983 29.3297 23.2467 29.4551 23.265L33.5263 23.8565L30.5803 26.728C30.4896 26.8165 30.4218 26.9256 30.3827 27.0461C30.3435 27.1665 30.3343 27.2947 30.3557 27.4196L31.0511 31.4743L27.4098 29.5603C27.2976 29.5014 27.1729 29.4706 27.0462 29.4706C26.9196 29.4706 26.7948 29.5014 26.6826 29.5603L23.0407 31.4743Z" fill="white"/>
</svg>
