<svg width="66" height="66" viewBox="0 0 66 66" fill="none" xmlns="http://www.w3.org/2000/svg">
<g clip-path="url(#clip0_2440_40574)">
<path d="M57.0285 32.4437H51.0842C50.9144 30.5755 50.5747 28.8771 50.0652 27.3486L53.9715 25.6502C54.481 25.4804 54.6508 24.9709 54.481 24.4613C54.3111 23.9518 53.8016 23.782 53.2921 23.9518L49.3859 25.6502C48.7065 24.1217 47.6875 22.5931 46.4986 21.2344L50.7446 16.9885C51.0842 16.6488 51.0842 16.1393 50.7446 15.7997C50.4049 15.46 49.8954 15.46 49.5557 15.7997L45.3098 20.0456C43.9511 18.8567 42.5924 17.8377 40.894 17.1584L42.5924 13.2521C42.7622 12.7426 42.5924 12.4029 42.0829 12.0632C41.5734 11.8934 41.2337 12.0632 40.894 12.5728L39.1957 16.479C37.4973 15.9695 35.7989 15.46 34.1005 15.46V9.51569C34.1005 9.00618 33.7609 8.6665 33.2514 8.6665C32.7418 8.6665 32.4022 9.00618 32.4022 9.51569V15.46C30.534 15.6298 28.8356 15.9695 27.3071 16.479L25.6087 12.5728C25.4389 12.0632 24.9293 11.8934 24.4198 12.0632C23.9103 12.2331 23.7405 12.7426 23.9103 13.2521L25.6087 17.1584C24.0802 17.8377 22.5516 18.8567 21.1929 20.0456L17.1168 15.7997C16.7772 15.46 16.2677 15.46 15.928 15.7997C15.5883 16.1393 15.5883 16.6488 15.928 16.9885L20.1739 21.2344C18.8152 22.5931 17.966 24.1217 17.1168 25.6502L13.2106 23.9518C12.7011 23.782 12.3614 23.9518 12.0217 24.4613C11.8519 24.9709 12.0217 25.3105 12.5312 25.6502L16.4375 27.3486C15.928 29.0469 15.4185 30.7453 15.4185 32.4437H9.47418C8.96467 32.4437 8.625 32.7834 8.625 33.2929C8.625 33.8024 8.96467 34.142 9.47418 34.142H15.4185C15.5883 36.0103 15.928 37.7086 16.4375 39.2372L12.5312 40.9355C12.0217 41.1054 11.8519 41.6149 12.0217 42.1244C12.1916 42.6339 12.7011 42.8037 13.2106 42.6339L17.1168 40.9355C17.7962 42.4641 18.8152 43.9926 20.0041 45.3513L15.7582 49.5972C15.4185 49.9369 15.4185 50.4464 15.7582 50.7861C16.0978 51.1257 16.6073 51.1257 16.947 50.7861L21.1929 46.5401C22.5516 47.729 23.9103 48.748 25.6087 49.4274L23.9103 53.3336C23.7405 53.8431 23.9103 54.1828 24.4198 54.5225C24.9293 54.6923 25.269 54.5225 25.6087 54.013L27.3071 50.1067C29.0054 50.6162 30.7038 51.1257 32.4022 51.1257V57.07C32.4022 57.5795 32.7418 57.9192 33.2514 57.9192C33.7609 57.9192 34.1005 57.5795 34.1005 57.07V51.1257C35.9687 50.9559 37.6671 50.6162 39.1957 50.1067L40.894 54.013C41.0639 54.5225 41.5734 54.6923 42.0829 54.5225C42.5924 54.3526 42.7622 53.8431 42.5924 53.3336L40.894 49.4274C42.4226 48.748 43.9511 47.729 45.3098 46.5401L49.5557 50.7861C49.8954 51.1257 50.4049 51.1257 50.7446 50.7861C51.0842 50.4464 51.0842 49.9369 50.7446 49.5972L46.4986 45.3513C47.6875 43.9926 48.7065 42.6339 49.3859 40.9355L53.2921 42.6339C53.8016 42.8037 54.1413 42.6339 54.481 42.1244C54.6508 41.6149 54.481 41.2752 53.9715 40.9355L50.0652 39.2372C50.5747 37.5388 51.0842 35.8404 51.0842 34.142H57.0285C57.538 34.142 57.8777 33.8024 57.8777 33.2929C57.8777 32.7834 57.538 32.4437 57.0285 32.4437ZM33.2514 49.4274C24.4198 49.4274 17.1168 42.1244 17.1168 33.2929C17.1168 24.4613 24.4198 17.1584 33.2514 17.1584C42.0829 17.1584 49.3859 24.4613 49.3859 33.2929C49.3859 42.1244 42.0829 49.4274 33.2514 49.4274Z" fill="white"/>
</g>
<defs>
<clipPath id="clip0_2440_40574">
<rect width="50" height="50" fill="white" transform="translate(8.25 8.29297)"/>
</clipPath>
</defs>
</svg>
