<svg width="61" height="69" viewBox="0 0 61 69" fill="none" xmlns="http://www.w3.org/2000/svg">
<g clip-path="url(#clip0_2440_24875)">
<path d="M26.1356 58.4405C25.9848 58.4465 25.8364 58.4019 25.7139 58.3137C25.5914 58.2256 25.502 58.0989 25.4599 57.954L23.8788 52.5486L16.9734 52.3932C16.2187 52.3722 15.5016 52.0589 14.9735 51.5194C14.4453 50.9799 14.1473 50.2563 14.1423 49.5013V42.0284H11.8991C11.6713 42.031 11.4466 41.976 11.2458 41.8685C11.0449 41.761 10.8746 41.6045 10.7504 41.4135C10.6268 41.2227 10.5533 41.0038 10.5368 40.777C10.5202 40.5502 10.5612 40.3229 10.6558 40.1162L14.345 31.3324C13.9924 28.5854 14.2819 25.7939 15.1907 23.1777C16.0994 20.5614 17.6027 18.1916 19.5824 16.2547C21.562 14.3177 23.9639 12.8664 26.5994 12.0148C29.2348 11.1633 32.0319 10.9347 34.7706 11.347C37.5094 11.7594 40.1151 12.8015 42.3829 14.3913C44.6508 15.9811 46.5189 18.0754 47.8404 20.5094C49.1619 22.9434 49.9008 25.6507 49.9989 28.4186C50.097 31.1865 49.5517 33.9394 48.4058 36.4608C46.7893 39.8371 46.3906 43.6686 47.2775 47.3054L48.4937 51.954C48.5368 52.1269 48.5098 52.3098 48.4187 52.463C48.3276 52.6161 48.1797 52.727 48.0072 52.7716L26.3045 58.4405C26.2484 58.4471 26.1917 58.4471 26.1356 58.4405ZM32.0342 12.4946C31.0378 12.4965 30.0433 12.5824 29.0612 12.7513C24.8672 13.522 21.1331 15.8833 18.6388 19.342C16.1446 22.8007 15.0831 27.0893 15.6761 31.3122C15.6953 31.433 15.6813 31.5568 15.6356 31.6703L11.8721 40.6432L14.845 40.677C15.0242 40.677 15.1961 40.7482 15.3228 40.8749C15.4495 41.0016 15.5207 41.1735 15.5207 41.3527V49.5081C15.524 49.9099 15.6828 50.2947 15.9637 50.5819C16.2446 50.8692 16.6259 51.0364 17.0275 51.0486L24.4599 51.2176C24.6029 51.22 24.7415 51.2678 24.8556 51.354C24.9697 51.4402 25.0536 51.5604 25.095 51.6973L26.6356 56.9473L47.0275 51.6365L45.9667 47.6297C44.9926 43.6969 45.408 39.5482 47.1423 35.8865C48.289 33.3626 48.7832 30.5912 48.5796 27.8266C48.376 25.062 47.4812 22.3928 45.9772 20.0641C44.4732 17.7355 42.4083 15.822 39.972 14.4994C37.5358 13.1768 34.8063 12.4874 32.0342 12.4946Z" fill="white"/>
<path d="M27.3926 39.8122C27.2716 39.8102 27.153 39.7777 27.048 39.7176C26.9143 39.6376 26.8123 39.5139 26.7594 39.3673C26.7064 39.2208 26.7058 39.0605 26.7575 38.9135L29.1494 32.0351H26.3858C26.2704 32.0346 26.157 32.0046 26.0564 31.9478C25.9559 31.891 25.8716 31.8094 25.8115 31.7108C25.747 31.6111 25.7099 31.4961 25.704 31.3775C25.698 31.2589 25.7235 31.1408 25.7777 31.0351L30.2507 21.9946C30.3059 21.8819 30.3914 21.7868 30.4976 21.72C30.6038 21.6531 30.7266 21.6172 30.8521 21.6162H36.3318C36.4515 21.6164 36.569 21.6484 36.6723 21.709C36.7756 21.7695 36.861 21.8564 36.9196 21.9608C36.9789 22.0635 37.0101 22.18 37.0101 22.2986C37.0101 22.4172 36.9789 22.5338 36.9196 22.6365L33.8791 27.5216L37.2575 27.7176C37.3857 27.728 37.5083 27.7748 37.6109 27.8525C37.7134 27.9302 37.7916 28.0356 37.8364 28.1562C37.8811 28.2769 37.8904 28.4078 37.8633 28.5336C37.8361 28.6593 37.7736 28.7747 37.6831 28.8662L27.8926 39.5892C27.8294 39.6592 27.7523 39.7152 27.6662 39.7536C27.5801 39.792 27.4869 39.8119 27.3926 39.8122ZM27.4669 30.6838H30.1021C30.2097 30.6842 30.3157 30.7104 30.4112 30.7601C30.5067 30.8097 30.589 30.8815 30.6511 30.9695C30.7133 31.0574 30.7535 31.1589 30.7685 31.2655C30.7834 31.3721 30.7727 31.4808 30.7372 31.5824L29.1156 36.2446L35.7372 28.9946L32.6358 28.8054C32.5196 28.7981 32.4072 28.7608 32.3096 28.6973C32.2121 28.6337 32.1325 28.546 32.0788 28.4427C32.0251 28.3393 31.999 28.2239 32.0031 28.1075C32.0072 27.9911 32.0413 27.8777 32.1021 27.7784L35.1021 22.9608H31.2642L27.4669 30.6838Z" fill="white"/>
</g>
<defs>
<clipPath id="clip0_2440_24875">
<rect width="40" height="48" fill="white" transform="translate(10.25 10.792)"/>
</clipPath>
</defs>
</svg>
