<svg width="66" height="66" viewBox="0 0 66 66" fill="none" xmlns="http://www.w3.org/2000/svg">
<g clip-path="url(#clip0_2440_40572)">
<path d="M55.8109 55.7889L50.2562 49.755L49.9504 49.1333C49.1066 47.4047 48.3613 43.4983 47.6406 39.7212C46.9199 35.9442 46.2343 32.3217 45.3906 30.4637C43.9281 27.2294 42.434 23.2188 41.2351 19.9844C40.7043 18.5469 40.205 17.2172 39.7797 16.1247L39.6461 15.7833C38.4824 12.7969 37.7793 11 35.6101 11C35.1985 11.008 34.7942 11.1127 34.4285 11.3058C34.0627 11.499 33.7453 11.7755 33.5007 12.1141C33.4246 12.0164 33.3437 11.9229 33.2582 11.8337C33.0164 11.5755 32.7269 11.3688 32.4065 11.2257C32.086 11.0826 31.741 11.0059 31.3914 11C29.2222 11 28.5191 12.7969 27.3554 15.7833L27.2218 16.1247C26.7964 17.2172 26.2972 18.5469 25.7664 19.9844C24.5675 23.2188 23.0734 27.233 21.6109 30.4673C20.7742 32.3253 20.0886 35.9191 19.3609 39.7248C18.6332 43.5306 17.8949 47.4083 17.0511 49.1369L16.7453 49.7586L11.1906 55.7889C11.0629 55.9281 10.9944 56.1134 11.0004 56.3041C11.0063 56.4948 11.0861 56.6754 11.2222 56.8059C11.3584 56.9365 11.5397 57.0065 11.7262 57.0004C11.9128 56.9943 12.0894 56.9128 12.2172 56.7736L17.5855 50.9409L27.6472 52.5473L26.5047 56.0548C26.4755 56.1445 26.4639 56.2392 26.4706 56.3334C26.4772 56.4277 26.502 56.5196 26.5435 56.6041C26.5849 56.6885 26.6423 56.7638 26.7122 56.8256C26.7822 56.8873 26.8634 56.9344 26.9511 56.9641C27.0226 56.9881 27.0974 57.0002 27.1726 57C27.3205 57.0001 27.4646 56.9526 27.5845 56.8643C27.7044 56.7759 27.794 56.6511 27.8406 56.5077L29.1765 52.4108C30.6942 51.2338 31.9151 49.7036 32.7379 47.9473C33.0639 47.1741 33.3193 46.3717 33.5007 45.5503C33.6822 46.3717 33.9376 47.1741 34.2636 47.9473C35.0864 49.7036 36.3073 51.2338 37.825 52.4108L39.1609 56.5077C39.2075 56.6511 39.2971 56.7759 39.417 56.8643C39.5369 56.9526 39.681 57.0001 39.8289 57C39.9041 57.0002 39.9789 56.9881 40.0504 56.9641C40.1381 56.9344 40.2193 56.8873 40.2893 56.8256C40.3592 56.7638 40.4166 56.6885 40.458 56.6041C40.4995 56.5196 40.5243 56.4277 40.5309 56.3334C40.5376 56.2392 40.526 56.1445 40.4968 56.0548L39.3543 52.5473L49.416 50.9409L54.7843 56.7736C54.9121 56.9128 55.0887 56.9943 55.2753 57.0004C55.4618 57.0065 55.6431 56.9365 55.7793 56.8059C55.9154 56.6754 55.9952 56.4948 56.0011 56.3041C56.0071 56.1134 55.9386 55.9281 55.8109 55.7889ZM33.5324 18.0545C33.9859 19.5603 35.3183 23.5889 35.9933 25.5727H35.8808C35.422 25.5785 34.9702 25.689 34.5585 25.896C34.1467 26.103 33.7853 26.4014 33.5007 26.7694C33.2187 26.4024 32.8605 26.1041 32.4519 25.8959C32.0434 25.6877 31.5947 25.5748 31.1382 25.5655H31.0222C31.6761 23.5853 33.005 19.5388 33.4832 18.0509C33.4832 18.0222 33.5043 17.9827 33.5148 17.9359C33.519 17.9709 33.5249 18.0057 33.5324 18.0402V18.0545ZM31.4511 47.3795C30.7349 48.8839 29.6895 50.1997 28.3961 51.2248L21.7164 50.1467L18.3836 49.6148C19.2765 47.6634 19.9867 43.9367 20.739 39.998C21.4175 36.4402 22.1172 32.7637 22.8871 31.0675C24.3601 27.7864 25.8754 23.7434 27.0812 20.4911C27.6086 19.0752 28.1043 17.7383 28.5297 16.6566L28.6632 16.2972C29.7882 13.433 30.2347 12.4375 31.3914 12.4375C31.7213 12.455 32.0315 12.6032 32.2562 12.8508C32.6073 13.2215 32.8018 13.7184 32.7976 14.2344C32.6373 15.3726 32.4131 16.5005 32.1261 17.6125C31.5742 19.4094 29.7461 24.9366 29.3804 26.0327C29.246 26.1252 29.1191 26.2285 29.0007 26.3417C27.6507 27.6247 27.1726 30.302 27.1726 32.2031C27.1726 35.5273 25.2707 40.0734 25.2496 40.1094C25.1784 40.2837 25.1773 40.4797 25.2464 40.6549C25.3156 40.8301 25.4494 40.9705 25.619 41.0456C25.7886 41.1207 25.9803 41.1245 26.1526 41.0562C26.3249 40.988 26.464 40.8531 26.5398 40.6808C26.6242 40.4903 28.5789 35.8256 28.5789 32.2031C28.5789 30.5177 29.0113 28.2967 29.957 27.3947C30.0979 27.2514 30.268 27.1416 30.4552 27.0733C30.6424 27.005 30.842 26.9797 31.0398 26.9994C31.9082 27.0641 32.7976 27.3911 32.7976 29.3281V36.8462V38.237C32.7765 40.8281 32.6007 44.7309 31.4511 47.3652V47.3795ZM35.5504 47.3795C34.4007 44.7309 34.225 40.8281 34.2039 38.237C34.2039 37.7159 34.2039 37.2452 34.2039 36.8462V29.3281C34.2039 27.3911 35.0968 27.0641 35.9617 26.9994H36.0847C36.4425 26.9983 36.7861 27.1417 37.041 27.3983C37.9902 28.2967 38.4226 30.5177 38.4226 32.2031C38.4226 35.8256 40.3773 40.4903 40.4617 40.688C40.4989 40.7746 40.5523 40.8528 40.6191 40.9183C40.6859 40.9838 40.7646 41.0352 40.8508 41.0695C40.9369 41.1039 41.0289 41.1206 41.1214 41.1186C41.2139 41.1167 41.3051 41.0961 41.3898 41.0581C41.4745 41.0201 41.5511 40.9655 41.6151 40.8972C41.6792 40.829 41.7295 40.7485 41.7631 40.6604C41.7967 40.5723 41.813 40.4783 41.8111 40.3838C41.8092 40.2892 41.7891 40.196 41.7519 40.1094C41.7308 40.0734 39.8289 35.5309 39.8289 32.2031C39.8289 30.302 39.3507 27.6247 38.0007 26.3417C37.8819 26.2276 37.7537 26.1242 37.6175 26.0327C37.266 24.9545 35.4132 19.395 34.8754 17.6161C34.5934 16.5017 34.3693 15.3729 34.2039 14.2344C34.2039 13.2605 34.8507 12.4375 35.6101 12.4375C36.7668 12.4375 37.2132 13.433 38.3382 16.3152L38.4718 16.6745C38.8972 17.7527 39.3929 19.0931 39.9203 20.5091C41.1261 23.7614 42.6308 27.8044 44.1109 31.0855C44.8808 32.7817 45.5804 36.4761 46.259 40.0159C47.0113 43.9691 47.7215 47.6814 48.6144 49.6328L45.7562 50.0892L38.6054 51.2284C37.3073 50.2008 36.2613 48.878 35.5504 47.3652V47.3795Z" fill="white"/>
</g>
<defs>
<clipPath id="clip0_2440_40572">
<rect width="45" height="46" fill="white" transform="translate(10.75 10.793)"/>
</clipPath>
</defs>
</svg>
