<svg width="66" height="66" viewBox="0 0 66 66" fill="none" xmlns="http://www.w3.org/2000/svg">
<g clip-path="url(#clip0_2440_40572)">
<path d="M56.1979 55.172L45.4645 27.5144C45.35 27.2188 45.0662 27.0244 44.7503 27.0244C44.4339 27.0244 44.1502 27.2188 44.0356 27.5144L40.0581 37.7704L34.3234 21.6192L35.2627 22.3023C35.7999 22.6932 36.5273 22.6928 37.0644 22.3016C37.6016 21.9107 37.8266 21.2174 37.6215 20.5846L36.8548 18.2104L38.8707 16.7432C39.4079 16.352 39.6329 15.6584 39.4274 15.0251C39.2222 14.3919 38.6334 13.9635 37.9689 13.9635H35.4779L34.7113 11.5897C34.5046 10.9591 33.9169 10.533 33.2547 10.533C32.5924 10.533 32.0047 10.9591 31.7981 11.5897L31.0314 13.9635H28.5311C27.867 13.9635 27.2782 14.3919 27.0726 15.0251C26.8671 15.6584 27.0921 16.352 27.6297 16.7432L29.6452 18.2104L28.8785 20.5846C28.6655 21.2174 28.8916 21.9155 29.4352 22.3023C29.9701 22.7007 30.7023 22.7007 31.2377 22.3023L32.1765 21.6192L26.4419 37.7704L22.4644 27.5144C22.3498 27.2188 22.0661 27.0244 21.7501 27.0244C21.4338 27.0244 21.15 27.2188 21.0355 27.5144L10.3021 55.172C10.2104 55.4083 10.2411 55.6747 10.3841 55.884C10.5271 56.0929 10.7637 56.2182 11.0167 56.2182H55.4836C55.7363 56.2182 55.9733 56.0929 56.1159 55.884C56.2589 55.6747 56.2896 55.4083 56.1979 55.172ZM30.3366 21.0591L31.1033 18.6853C31.3103 18.0524 31.0853 17.3581 30.5466 16.9676L28.5311 15.5001H31.022C31.6876 15.5012 32.2776 15.0724 32.4835 14.4384L33.2502 12.0567V12.0657L34.0169 14.4399C34.2227 15.0735 34.8131 15.5016 35.4779 15.5001H37.9689L35.9534 16.9676C35.4147 17.3581 35.1897 18.0524 35.3967 18.6853L36.1671 21.0591L34.1516 19.5927C33.6144 19.1996 32.8856 19.1996 32.3484 19.5927L30.3366 21.0591ZM21.7501 29.9126L25.6598 39.9856L20.4421 54.6817H12.1375L21.7501 29.9126ZM22.0698 54.6817L33.2502 23.1711L44.4306 54.6817H22.0698ZM46.0582 54.6817L40.8402 39.9856L44.7503 29.9126L54.3625 54.6817H46.0582Z" fill="white"/>
</g>
<defs>
<clipPath id="clip0_2440_40572">
<rect width="46" height="46" fill="white" transform="translate(10.25 10.293)"/>
</clipPath>
</defs>
</svg>
