<svg width="18" height="18" viewBox="0 0 18 18" fill="none" xmlns="http://www.w3.org/2000/svg">
<path d="M8.84809 0.553711C5.61378 0.553711 2.98242 3.18507 2.98242 6.41938C2.98242 10.4846 8.85386 17.4287 8.85386 17.4287C8.85386 17.4287 14.7138 10.2846 14.7138 6.41938C14.7138 3.18507 12.0825 0.553711 8.84809 0.553711ZM10.6179 8.13685C10.1299 8.62475 9.48904 8.86875 8.84809 8.86875C8.20724 8.86875 7.56619 8.62475 7.0784 8.13685C6.1025 7.16106 6.1025 5.57326 7.0784 4.59737C7.55095 4.12461 8.17954 3.86423 8.84809 3.86423C9.51664 3.86423 10.1451 4.12471 10.6179 4.59737C11.5938 5.57326 11.5938 7.16106 10.6179 8.13685Z" fill="white"/>
</svg>
