<svg width="66" height="66" viewBox="0 0 66 66" fill="none" xmlns="http://www.w3.org/2000/svg">
<path d="M55.3785 50.9393C55.8679 50.6938 56.0647 50.0981 55.8192 49.6094C55.574 49.121 54.9782 48.9237 54.4901 49.1693C54.0013 49.4148 53.8044 50.0103 54.0497 50.4988C54.2947 50.9878 54.8901 51.1844 55.3785 50.9393ZM52.0595 48.1332C52.6308 47.8861 52.8934 47.2229 52.6473 46.6521C52.4003 46.0811 51.7379 45.818 51.1662 46.0646C50.596 46.3109 50.3321 46.9736 50.5791 47.5446C50.8254 48.1162 51.4885 48.3793 52.0595 48.1332ZM48.8636 45.0462C49.5178 44.807 49.856 44.0827 49.6176 43.4275C49.3786 42.7727 48.6545 42.435 47.9992 42.6737C47.3436 42.9121 47.006 43.6367 47.2448 44.2918C47.4837 44.9463 48.208 45.2845 48.8636 45.0462ZM45.8123 41.6836C46.5524 41.4616 46.9724 40.6825 46.751 39.9424C46.5289 39.2028 45.7495 38.7824 45.0097 39.0041C44.27 39.2257 43.8497 40.0056 44.0711 40.7454C44.293 41.4853 45.0725 41.9055 45.8123 41.6836ZM42.9281 38.0527C43.7524 37.8571 44.2627 37.0301 44.0669 36.2056C43.8711 35.3804 43.0443 34.8703 42.2195 35.0665C41.3945 35.2622 40.885 36.0892 41.0806 36.9139C41.2761 37.7385 42.103 38.249 42.9281 38.0527ZM40.2311 34.1618C41.1394 34.0015 41.7469 33.1347 41.5863 32.2259C41.426 31.3172 40.559 30.711 39.6505 30.8713C38.7417 31.0313 38.1347 31.8988 38.295 32.807C38.4555 33.7157 39.3223 34.3226 40.2311 34.1618ZM37.7424 30.0203C38.7343 29.9045 39.4431 29.0068 39.3271 28.0155C39.2109 27.0243 38.3136 26.315 37.3221 26.4311C36.3304 26.5471 35.6218 27.4453 35.7374 28.4365C35.8536 29.4272 36.7512 30.1362 37.7424 30.0203ZM58.7288 45.2385C59.0226 45.1086 59.1557 44.7649 59.0267 44.4713C58.8959 44.1769 58.5531 44.0438 58.2589 44.1738C57.9647 44.3039 57.8314 44.6472 57.9617 44.9409C58.0916 45.2351 58.4355 45.368 58.7288 45.2385ZM55.6873 42.5609C56.0582 42.4223 56.247 42.0085 56.1082 41.6373C55.9695 41.2659 55.5555 41.0768 55.1845 41.2161C54.8131 41.3544 54.6248 41.768 54.7631 42.1392C54.9022 42.511 55.3157 42.6995 55.6873 42.5609ZM52.7654 39.6162C53.2162 39.4772 53.4686 38.9985 53.329 38.5483C53.1904 38.0974 52.7123 37.845 52.2619 37.9841C51.8111 38.1234 51.5585 38.6012 51.6976 39.0523C51.8364 39.5029 52.3145 39.755 52.7654 39.6162ZM49.9847 36.4096C50.5158 36.2784 50.84 35.7427 50.7093 35.2111C50.5788 34.6803 50.0428 34.3555 49.5114 34.4867C48.9806 34.6172 48.6562 35.1533 48.7864 35.6848C48.9176 36.2157 49.4537 36.5401 49.9847 36.4096ZM47.3656 32.9473C47.9774 32.8339 48.3818 32.2468 48.2681 31.635C48.1545 31.0236 47.5679 30.619 46.9552 30.732C46.3441 30.8459 45.9401 31.4338 46.053 32.0445C46.1666 32.6568 46.7544 33.0606 47.3656 32.9473ZM44.9296 29.2383C45.6209 29.1515 46.1112 28.5206 46.0248 27.8287C45.9371 27.1368 45.3062 26.6463 44.6146 26.7331C43.9227 26.8203 43.4322 27.4516 43.5186 28.1432C43.6062 28.8351 44.2369 29.3256 44.9296 29.2383ZM42.6942 25.2923C43.4648 25.241 44.0478 24.5744 43.9962 23.8035C43.9449 23.0329 43.2782 22.4503 42.5076 22.5018C41.7371 22.5527 41.1539 23.22 41.2058 23.9901C41.2572 24.761 41.9231 25.3441 42.6942 25.2923ZM65.4132 42.2041C65.4323 42.1962 65.4407 42.1739 65.4323 42.1555C65.4232 42.1366 65.4017 42.1289 65.3829 42.1369C65.364 42.1452 65.356 42.1673 65.3642 42.1858C65.3725 42.2042 65.3948 42.2133 65.4132 42.2041ZM62.534 39.9378C62.6236 39.9032 62.6681 39.8031 62.6333 39.7142C62.5995 39.6243 62.4999 39.5796 62.4103 39.6143C62.3203 39.6489 62.2758 39.7485 62.3107 39.8381C62.3446 39.927 62.4449 39.9719 62.534 39.9378ZM59.75 37.412C59.9129 37.3603 60.0024 37.1866 59.951 37.0238C59.8995 36.8607 59.7252 36.7708 59.5621 36.8223C59.3996 36.8741 59.3096 37.0483 59.3611 37.2106C59.4126 37.3738 59.5869 37.4638 59.75 37.412ZM57.0809 34.6318C57.319 34.5707 57.4632 34.3282 57.4027 34.0896C57.3416 33.8516 57.0997 33.7071 56.8603 33.7677C56.6222 33.8284 56.4782 34.0713 56.5394 34.3097C56.5998 34.5485 56.8419 34.6926 57.0809 34.6318ZM54.5477 31.6013C54.8635 31.5403 55.0692 31.2348 55.0083 30.9191C54.9473 30.604 54.6417 30.3977 54.3269 30.4587C54.0119 30.52 53.8051 30.8258 53.8663 31.1408C53.9269 31.4559 54.2325 31.6625 54.5477 31.6013ZM52.1708 28.3274C52.5634 28.2754 52.8399 27.914 52.787 27.5213C52.734 27.128 52.3731 26.852 51.9803 26.9048C51.5874 26.9576 51.3112 27.3188 51.3637 27.7117C51.4165 28.1049 51.7775 28.3806 52.1708 28.3274ZM49.9696 24.8196C50.4399 24.7843 50.7923 24.3741 50.7567 23.9039C50.7215 23.4338 50.3112 23.0812 49.8414 23.1164C49.3703 23.1517 49.0183 23.5617 49.0541 24.0324C49.0891 24.5023 49.4988 24.8548 49.9696 24.8196ZM47.9631 21.0862C48.5097 21.0774 48.9454 20.6264 48.9362 20.0796C48.9274 19.5325 48.4761 19.097 47.9295 19.106C47.3833 19.1156 46.9469 19.5659 46.9562 20.1133C46.9655 20.6598 47.416 21.0954 47.9631 21.0862ZM61.7788 30.1213C61.7989 30.1168 61.8118 30.0979 61.8077 30.0775C61.8037 30.0577 61.7842 30.0443 61.7636 30.0486C61.7436 30.0527 61.7307 30.0723 61.7353 30.0922C61.739 30.1121 61.7586 30.1253 61.7788 30.1213ZM59.469 27.2865C59.564 27.2728 59.6293 27.1858 59.6159 27.091C59.6024 26.9957 59.5154 26.9297 59.4199 26.9436C59.3252 26.9568 59.2596 27.0447 59.2728 27.1394C59.2867 27.2343 59.3747 27.3002 59.469 27.2865ZM57.3087 24.2198C57.4786 24.2058 57.6051 24.0565 57.5913 23.8862C57.5765 23.7159 57.4271 23.5889 57.2566 23.6032C57.0869 23.6175 56.9604 23.7666 56.9742 23.9379C56.989 24.1079 57.1383 24.2341 57.3087 24.2198ZM55.3168 20.9296C55.5629 20.9231 55.7572 20.7188 55.7506 20.4728C55.7445 20.2267 55.5405 20.0326 55.2941 20.0389C55.0483 20.0447 54.8532 20.2493 54.8595 20.4954C54.8663 20.7414 55.0707 20.9357 55.3168 20.9296ZM53.5114 17.4247C53.8329 17.4356 54.102 17.1837 54.1124 16.8624C54.1227 16.5413 53.8711 16.2724 53.5499 16.2617C53.2287 16.2511 52.9606 16.5027 52.9497 16.8237C52.9391 17.1454 53.1912 17.4138 53.5114 17.4247ZM60.9289 17.59C60.949 17.5906 60.9662 17.5744 60.967 17.5537C60.9674 17.5337 60.9515 17.5163 60.9309 17.5157C60.9101 17.5148 60.8932 17.5314 60.8927 17.552C60.8921 17.5728 60.9083 17.5892 60.9289 17.59ZM59.2974 14.3268C59.393 14.3351 59.4768 14.2641 59.4846 14.1689C59.4922 14.073 59.4218 13.9897 59.3263 13.9811C59.2307 13.9732 59.1474 14.0444 59.1389 14.14C59.1306 14.2349 59.2018 14.3188 59.2974 14.3268ZM51.362 10.0695C51.1165 9.58018 50.5209 9.38342 50.032 9.62875C49.5438 9.87409 49.3464 10.4699 49.5921 10.958C49.8376 11.4468 50.4331 11.6439 50.9216 11.3984C51.4105 11.1534 51.6075 10.5582 51.362 10.0695ZM48.5559 13.3886C48.3088 12.8172 47.6458 12.5547 47.0749 12.8008C46.5038 13.0477 46.2408 13.7104 46.4874 14.282C46.7337 14.8522 47.3965 15.116 47.9674 14.8691C48.539 14.6227 48.8021 13.9597 48.5559 13.3886ZM45.469 16.5845C45.2298 15.9302 44.5056 15.5919 43.8503 15.8305C43.1955 16.0695 42.8577 16.7935 43.0965 17.4489C43.3349 18.1043 44.0595 18.442 44.7147 18.2035C45.3694 17.9644 45.7073 17.2401 45.469 16.5845ZM42.1062 19.6358C41.8845 18.8958 41.1053 18.4757 40.3653 18.6971C39.6256 18.9193 39.205 19.6986 39.4271 20.4384C39.6487 21.1783 40.4282 21.5985 41.1683 21.377C41.908 21.1551 42.3282 20.3755 42.1062 19.6358ZM38.4756 22.5201C38.2801 21.6955 37.4529 21.1855 36.6283 21.381C35.8033 21.5769 35.2931 22.4037 35.4894 23.2286C35.685 24.0536 36.5118 24.5631 37.3368 24.3675C38.1614 24.172 38.6719 23.3451 38.4756 22.5201ZM34.5848 25.217C34.4245 24.3086 33.5576 23.7013 32.6487 23.8619C31.7402 24.0221 31.1337 24.8889 31.2942 25.7977C31.4541 26.7065 32.3217 27.3134 33.23 27.1529C34.1385 26.9925 34.7454 26.1259 34.5848 25.217ZM30.4432 27.7059C30.3273 26.7139 29.4298 26.005 28.4382 26.121C27.4471 26.2374 26.7378 27.1347 26.854 28.1258C26.9699 29.1176 27.8681 29.8263 28.8593 29.7109C29.85 29.5945 30.5591 28.6968 30.4432 27.7059ZM45.6611 6.71928C45.5316 6.42552 45.1878 6.29256 44.8941 6.42153C44.5999 6.55219 44.4666 6.89514 44.5966 7.18936C44.7268 7.48343 45.0701 7.61655 45.3638 7.48635C45.6579 7.35646 45.7909 7.01258 45.6611 6.71928ZM42.9835 9.7608C42.8451 9.38987 42.4316 9.20111 42.0602 9.33992C41.6887 9.47857 41.4996 9.89254 41.6389 10.2638C41.7774 10.635 42.1909 10.8235 42.5623 10.6848C42.9338 10.546 43.1221 10.1323 42.9835 9.7608ZM40.039 12.6827C39.9003 12.232 39.4213 11.9795 38.9711 12.1189C38.52 12.2578 38.2679 12.7359 38.4071 13.1862C38.546 13.637 39.0239 13.8896 39.4749 13.7506C39.9258 13.6115 40.1778 13.1334 40.039 12.6827ZM36.8325 15.4634C36.7012 14.9324 36.1655 14.6082 35.6339 14.7386C35.1033 14.8693 34.7783 15.4053 34.9094 15.9367C35.0401 16.4675 35.576 16.7918 36.1077 16.6615C36.6385 16.5305 36.9627 15.9942 36.8325 15.4634ZM33.3699 18.0825C33.2568 17.4708 32.6697 17.0664 32.0578 17.18C31.4464 17.2934 31.042 17.8802 31.1551 18.4929C31.2687 19.1041 31.8567 19.5081 32.4674 19.395C33.0795 19.2818 33.4835 18.6938 33.3699 18.0825ZM29.6613 20.5185C29.5742 19.8274 28.9434 19.3367 28.2516 19.4234C27.5597 19.5109 27.0692 20.1419 27.1562 20.8335C27.2431 21.5255 27.8744 22.0159 28.5658 21.9294C29.2579 21.842 29.7484 21.2113 29.6613 20.5185ZM25.7154 22.7541C25.6637 21.9833 24.9974 21.4002 24.2263 21.4519C23.4557 21.5031 22.8731 22.1699 22.9246 22.9405C22.9758 23.7111 23.6429 24.2942 24.4132 24.2422C25.1838 24.1909 25.7667 23.5248 25.7154 22.7541ZM42.6268 0.0350342C42.6192 0.0158157 42.5967 0.00736237 42.5783 0.0158157C42.5594 0.0248871 42.5518 0.046257 42.5598 0.0653229C42.5678 0.0839233 42.5904 0.0922241 42.6086 0.0837631C42.6272 0.0756226 42.6361 0.0534821 42.6268 0.0350342ZM40.3605 2.91422C40.326 2.82445 40.2259 2.78003 40.137 2.81492C40.0471 2.84859 40.0025 2.94804 40.0371 3.03797C40.0715 3.12774 40.1715 3.17218 40.2611 3.13774C40.3499 3.10361 40.3948 3.00323 40.3605 2.91422ZM37.8349 5.69796C37.7829 5.53517 37.6096 5.4457 37.4466 5.49704C37.2834 5.54869 37.1934 5.72287 37.2452 5.88596C37.297 6.0486 37.4712 6.13868 37.6334 6.08703C37.7968 6.03553 37.8867 5.86121 37.8349 5.69796ZM35.0547 8.36732C34.9935 8.12906 34.751 7.98487 34.5124 8.04528C34.2743 8.10646 34.1301 8.34857 34.1905 8.58761C34.2514 8.82588 34.4942 8.97007 34.7325 8.90873C34.9712 8.84847 35.1154 8.60636 35.0547 8.36732ZM32.0243 10.9002C31.9631 10.5847 31.6576 10.3789 31.342 10.4398C31.0268 10.5008 30.8206 10.8063 30.8816 11.1212C30.943 11.4364 31.2486 11.6428 31.5637 11.5818C31.8788 11.5212 32.0854 11.2158 32.0243 10.9002ZM28.7501 13.2775C28.6983 12.8847 28.3369 12.6083 27.944 12.6611C27.5508 12.7142 27.2747 13.0752 27.3275 13.4679C27.3803 13.8607 27.7416 14.1369 28.1345 14.0845C28.5277 14.0318 28.8033 13.6705 28.7501 13.2775ZM25.2425 15.4785C25.2072 15.0084 24.7971 14.6557 24.3268 14.6912C23.8566 14.7266 23.5041 15.1369 23.5393 15.6068C23.5745 16.0777 23.9845 16.4298 24.455 16.3942C24.9251 16.3588 25.2777 15.9493 25.2425 15.4785ZM21.5088 17.4851C21.5004 16.9383 21.0493 16.5027 20.5026 16.5118C19.9555 16.521 19.5198 16.972 19.5289 17.5186C19.5384 18.065 19.9888 18.5012 20.5362 18.4918C21.0827 18.4826 21.518 18.0321 21.5088 17.4851ZM30.5441 3.66931C30.5398 3.64917 30.5207 3.63641 30.5003 3.6404C30.4804 3.6444 30.4669 3.66392 30.4715 3.68437C30.4757 3.70451 30.4952 3.71758 30.5152 3.71297C30.5349 3.70897 30.5482 3.6896 30.5441 3.66931ZM27.7093 5.97912C27.6959 5.88427 27.6085 5.81878 27.5138 5.83215C27.4185 5.84568 27.3527 5.93269 27.3665 6.02815C27.3797 6.123 27.4675 6.18863 27.5622 6.17526C27.6572 6.16142 27.7231 6.07335 27.7093 5.97912ZM24.6426 8.13936C24.6286 7.96934 24.4793 7.84298 24.309 7.85697C24.1387 7.87157 24.0117 8.02099 24.026 8.19162C24.0405 8.36132 24.1894 8.48769 24.3608 8.4737C24.5307 8.45925 24.657 8.30983 24.6426 8.13936ZM21.3526 10.1311C21.3459 9.88532 21.1417 9.69071 20.8956 9.69732C20.6495 9.70362 20.4555 9.90776 20.4617 10.1539C20.4675 10.4 20.6721 10.5947 20.9182 10.5884C21.1643 10.5818 21.3585 10.3772 21.3526 10.1311ZM17.8475 11.9366C17.8586 11.6151 17.6066 11.3463 17.2853 11.3357C16.9642 11.3252 16.6952 11.5772 16.6844 11.8983C16.674 12.2194 16.9256 12.4877 17.2464 12.4986C17.5682 12.5089 17.8366 12.2569 17.8475 11.9366ZM18.0129 4.51938C18.0134 4.49909 17.9972 4.48203 17.9765 4.48126C17.9566 4.4808 17.9393 4.49663 17.9387 4.51707C17.9377 4.53798 17.9543 4.55489 17.9749 4.55535C17.9955 4.55597 18.0121 4.53983 18.0129 4.51938ZM14.7497 6.15052C14.7577 6.05506 14.687 5.97112 14.5917 5.96343C14.4959 5.95575 14.4124 6.02615 14.4038 6.12192C14.396 6.21738 14.4672 6.30086 14.5629 6.30901C14.6576 6.31731 14.7417 6.24613 14.7497 6.15052ZM10.4926 14.0861C10.0031 14.3315 9.8062 14.9274 10.0517 15.4159C10.2972 15.9041 10.8929 16.1015 11.3808 15.8558C11.8699 15.6103 12.0668 15.015 11.8212 14.5265C11.5763 14.0375 10.9811 13.8407 10.4926 14.0861ZM13.8116 16.8922C13.2403 17.1393 12.9776 17.8024 13.2237 18.3733C13.4706 18.9442 14.1333 19.2073 14.705 18.9607C15.275 18.7144 15.5389 18.0517 15.292 17.4807C15.0456 16.9091 14.3826 16.646 13.8116 16.8922ZM17.0076 19.9791C16.3533 20.2183 16.0148 20.9425 16.2534 21.5978C16.4924 22.2526 17.2163 22.5904 17.8716 22.3518C18.5272 22.1132 18.8648 21.3887 18.6264 20.7334C18.3874 20.0789 17.6629 19.7408 17.0076 19.9791ZM20.0589 23.3417C19.3188 23.5637 18.8986 24.3428 19.12 25.0828C19.3421 25.8225 20.1216 26.2429 20.8613 26.0211C21.6011 25.7993 22.0215 25.0198 21.8 24.2799C21.578 23.5399 20.7985 23.1199 20.0589 23.3417ZM22.943 26.9723C22.1185 27.1682 21.6083 27.9953 21.804 28.8197C22 29.6449 22.8265 30.1548 23.6515 29.9588C24.4764 29.7631 24.986 28.9361 24.7903 28.1114C24.5948 27.2867 23.7682 26.7762 22.943 26.9723ZM25.6399 30.8635C24.7314 31.0238 24.1242 31.8905 24.2849 32.7994C24.445 33.7081 25.312 34.3143 26.2207 34.154C27.1295 33.994 27.7365 33.1265 27.576 32.2182C27.4155 31.3096 26.5489 30.7025 25.6399 30.8635ZM28.1288 35.0049C27.1368 35.1208 26.4277 36.0185 26.5438 37.0097C26.6603 38.0009 27.5576 38.7103 28.5488 38.5942C29.5406 38.4782 30.2492 37.58 30.1338 36.5888C30.0174 35.5981 29.1197 34.8889 28.1288 35.0049ZM7.14222 19.7869C6.84846 19.9167 6.71549 20.2603 6.84461 20.5539C6.97512 20.8482 7.31807 20.9814 7.6123 20.8515C7.90621 20.7213 8.03964 20.378 7.90944 20.0842C7.77939 19.7902 7.43552 19.6572 7.14222 19.7869ZM10.1836 22.4646C9.81281 22.6028 9.62404 23.0166 9.76285 23.388C9.90151 23.7596 10.3155 23.9483 10.6867 23.8092C11.0578 23.6709 11.2464 23.2572 11.1079 22.886C10.9689 22.5143 10.5551 22.3258 10.1836 22.4646ZM13.1057 25.409C12.655 25.5479 12.4024 26.0268 12.5418 26.4769C12.6808 26.9279 13.1589 27.1802 13.6093 27.0412C14.06 26.9019 14.3125 26.424 14.1736 25.973C14.0344 25.5223 13.5565 25.2703 13.1057 25.409ZM15.8863 28.6157C15.3554 28.7467 15.0312 29.2826 15.1615 29.8142C15.2922 30.345 15.8282 30.6698 16.3595 30.5386C16.8904 30.4081 17.2148 29.872 17.0844 29.3405C16.9535 28.8096 16.4171 28.4852 15.8863 28.6157ZM18.5054 32.078C17.8938 32.1915 17.4895 32.7785 17.6031 33.3902C17.7164 34.0017 18.3031 34.4063 18.9159 34.2931C19.5269 34.1794 19.931 33.5915 19.8179 32.9807C19.7046 32.3685 19.1168 31.9647 18.5054 32.078ZM20.9416 35.787C20.2503 35.8738 19.7596 36.5047 19.8463 37.1966C19.9338 37.8885 20.5648 38.3787 21.2566 38.292C21.9486 38.205 22.4388 37.5737 22.3523 36.8821C22.265 36.1902 21.6343 35.6998 20.9416 35.787ZM23.1768 39.7328C22.4062 39.7842 21.8232 40.4509 21.8748 41.2219C21.9262 41.9922 22.5929 42.5748 23.3633 42.5233C24.1341 42.4725 24.717 41.8053 24.665 41.035C24.6138 40.2643 23.9478 39.6812 23.1768 39.7328ZM0.45797 22.8211C0.438755 22.8289 0.430454 22.8514 0.438755 22.8698C0.447671 22.8886 0.469346 22.8963 0.488254 22.8884C0.506854 22.8801 0.515001 22.8578 0.5067 22.8395C0.498552 22.8209 0.476416 22.812 0.45797 22.8211ZM3.33716 25.0876C3.24754 25.122 3.20312 25.2222 3.23786 25.3111C3.27152 25.401 3.37098 25.4457 3.46091 25.4111C3.55068 25.3764 3.59511 25.2769 3.56052 25.1873C3.52639 25.0982 3.42617 25.0534 3.33716 25.0876ZM6.12105 27.6132C5.95795 27.665 5.86864 27.8387 5.91998 28.0015C5.97163 28.1646 6.1458 28.2545 6.3089 28.2029C6.47153 28.1511 6.56161 27.977 6.50996 27.8147C6.45831 27.6513 6.28415 27.5614 6.12105 27.6132ZM8.79026 30.3935C8.55199 30.4546 8.4078 30.6971 8.46837 30.9357C8.5294 31.1737 8.77151 31.3182 9.0107 31.2574C9.24866 31.1969 9.393 30.954 9.33167 30.7156C9.27125 30.4767 9.02929 30.3327 8.79026 30.3935ZM11.3231 33.424C11.0077 33.485 10.8018 33.7905 10.8627 34.1062C10.9237 34.4212 11.2293 34.6275 11.5442 34.5666C11.8593 34.5051 12.0657 34.1995 12.0046 33.8845C11.9442 33.5694 11.6386 33.3628 11.3231 33.424ZM13.7004 36.6979C13.3078 36.7499 13.0313 37.1111 13.0841 37.504C13.1372 37.8973 13.4981 38.1735 13.8909 38.1205C14.2836 38.0676 14.5599 37.7063 14.5073 37.3137C14.4546 36.9204 14.0935 36.6447 13.7004 36.6979ZM15.9012 40.2055C15.4313 40.2411 15.0787 40.6512 15.1142 41.1213C15.1495 41.5916 15.5597 41.944 16.0297 41.9088C16.5006 41.8736 16.8528 41.4636 16.8171 40.9929C16.7817 40.523 16.3721 40.1705 15.9012 40.2055ZM17.9079 43.9391C17.3613 43.9477 16.9255 44.3989 16.9347 44.9455C16.9438 45.4926 17.3949 45.9283 17.9416 45.919C18.4879 45.9097 18.9242 45.4593 18.9148 44.9119C18.9056 44.3655 18.4548 43.9299 17.9079 43.9391ZM4.09224 34.904C4.07226 34.9083 4.05934 34.9272 4.06334 34.9478C4.06734 34.9677 4.08686 34.981 4.10731 34.9767C4.12744 34.9724 4.14035 34.9529 4.1359 34.9331C4.13205 34.9132 4.11253 34.9 4.09224 34.904ZM6.40205 37.7388C6.30705 37.7523 6.24172 37.8396 6.25509 37.9343C6.26847 38.0295 6.35563 38.0956 6.45109 38.0817C6.54578 38.0684 6.61157 37.9806 6.5982 37.8857C6.58436 37.7909 6.49628 37.7251 6.40205 37.7388ZM8.56229 40.8054C8.39243 40.8195 8.26592 40.9688 8.27991 41.1391C8.29451 41.3093 8.44393 41.4365 8.6144 41.4219C8.78426 41.4076 8.91062 41.2587 8.89663 41.0874C8.88203 40.9173 8.73277 40.7911 8.56229 40.8054ZM10.5542 44.0956C10.3083 44.1024 10.1136 44.3064 10.1204 44.5525C10.1264 44.7984 10.3305 44.9926 10.5768 44.9864C10.8228 44.9806 11.0177 44.7761 11.0114 44.5297C11.0048 44.2839 10.8002 44.0896 10.5542 44.0956ZM12.3595 47.6007C12.0381 47.5895 11.7691 47.8416 11.7586 48.1629C11.7482 48.4839 12.0001 48.753 12.3212 48.7636C12.6422 48.7741 12.9106 48.5225 12.9214 48.2016C12.932 47.8801 12.68 47.6114 12.3595 47.6007ZM4.94232 47.4355C4.92187 47.435 4.90481 47.4509 4.90419 47.4716C4.90373 47.4916 4.91957 47.5088 4.94001 47.5096C4.96092 47.5104 4.97798 47.4938 4.97829 47.4733C4.9789 47.4526 4.96276 47.436 4.94232 47.4355ZM6.57345 50.6984C6.47799 50.6902 6.39421 50.7612 6.38653 50.8562C6.37868 50.9523 6.44909 51.0356 6.54486 51.0441C6.64032 51.0521 6.72379 50.9809 6.73194 50.8853C6.74039 50.7905 6.66922 50.7065 6.57345 50.6984ZM14.5088 54.9557C14.7545 55.445 15.3501 55.6419 15.8388 55.3967C16.3269 55.1512 16.5243 54.5552 16.2788 54.0675C16.0331 53.5783 15.4378 53.3814 14.9492 53.6271C14.4604 53.8719 14.2635 54.4673 14.5088 54.9557ZM17.3152 51.6368C17.562 52.2079 18.225 52.4706 18.7961 52.2245C19.367 51.9773 19.6302 51.315 19.3835 50.7433C19.1374 50.1733 18.4745 49.9092 17.9034 50.1561C17.3319 50.4025 17.0687 51.0655 17.3152 51.6368ZM20.402 48.4408C20.6411 49.0949 21.3654 49.4334 22.0206 49.1947C22.6757 48.9558 23.013 48.2318 22.7746 47.5765C22.5361 46.921 21.8115 46.5834 21.1563 46.8217C20.5016 47.0607 20.1636 47.7854 20.402 48.4408ZM23.7645 45.3893C23.9863 46.1293 24.7657 46.5494 25.5056 46.3281C26.2454 46.106 26.6658 45.3266 26.444 44.5867C26.2222 43.8472 25.4425 43.4268 24.7028 43.6481C23.9627 43.8701 23.5427 44.6496 23.7645 45.3893ZM27.3953 42.5052C27.5911 43.3298 28.418 43.8398 29.2425 43.6443C30.0677 43.4483 30.5777 42.6217 30.3816 41.7967C30.1859 40.9718 29.3589 40.4621 28.534 40.6579C27.7096 40.8533 27.1991 41.68 27.3953 42.5052ZM31.2862 39.8083C31.4467 40.7165 32.3134 41.324 33.2222 41.1632C34.1308 41.0032 34.737 40.1362 34.5769 39.2274C34.4169 38.3188 33.5492 37.7117 32.6411 37.8724C31.7323 38.0327 31.1253 38.8994 31.2862 39.8083ZM35.4276 37.3194C35.5435 38.3114 36.4414 39.0203 37.4326 38.9043C38.4237 38.7879 39.1331 37.8908 39.0172 36.8993C38.9011 35.9075 38.0029 35.199 37.0117 35.3144C36.0207 35.4308 35.3117 36.3285 35.4276 37.3194ZM20.2097 58.306C20.3395 58.5998 20.683 58.7328 20.9768 58.6036C21.271 58.4731 21.4041 58.1302 21.2742 57.8359C21.1442 57.542 20.8008 57.4086 20.507 57.5388C20.2131 57.6687 20.08 58.0127 20.2097 58.306ZM22.8872 55.2644C23.0256 55.6353 23.4394 55.8244 23.8109 55.6852C24.1822 55.5467 24.3713 55.1328 24.2321 54.7615C24.0938 54.3901 23.6801 54.202 23.3089 54.3402C22.9372 54.4793 22.7486 54.893 22.8872 55.2644ZM25.8318 52.3424C25.971 52.7934 26.4496 53.0457 26.8997 52.9063C27.3505 52.7675 27.6031 52.2892 27.464 51.8391C27.3245 51.3881 26.8468 51.1356 26.3959 51.2747C25.9452 51.4136 25.6931 51.8917 25.8318 52.3424ZM29.0387 49.5619C29.1697 50.0929 29.7055 50.4172 30.2369 50.2866C30.7679 50.1561 31.0926 49.62 30.9614 49.0886C30.8309 48.5577 30.2947 48.2333 29.7633 48.3637C29.2322 48.4948 28.9082 49.031 29.0387 49.5619ZM32.5008 46.9428C32.6144 47.5543 33.2013 47.9588 33.813 47.8453C34.4245 47.7319 34.8294 47.145 34.7161 46.5322C34.602 45.9212 34.0145 45.5172 33.4034 45.6304C32.7912 45.7435 32.3876 46.3315 32.5008 46.9428ZM36.2098 44.5068C36.2965 45.1978 36.9276 45.6886 37.6195 45.6019C38.3113 45.5141 38.8017 44.8836 38.7151 44.1917C38.6279 43.4996 37.9968 43.0094 37.305 43.096C36.6131 43.1833 36.1226 43.814 36.2098 44.5068ZM40.1558 42.2714C40.207 43.042 40.8738 43.6249 41.6447 43.5734C42.4152 43.5221 42.9976 42.8554 42.9463 42.0849C42.8954 41.3142 42.2282 40.7311 41.458 40.7831C40.687 40.8343 40.1038 41.5003 40.1558 42.2714ZM23.2439 64.9903C23.2517 65.0095 23.2741 65.0178 23.2926 65.0095C23.3113 65.0004 23.3192 64.9789 23.3112 64.96C23.303 64.9412 23.2808 64.9332 23.2623 64.9415C23.2437 64.9497 23.235 64.9718 23.2439 64.9903ZM25.5103 62.1109C25.5448 62.2007 25.645 62.2451 25.7337 62.2104C25.8239 62.1769 25.8687 62.0771 25.8339 61.9875C25.799 61.8976 25.6997 61.8531 25.6101 61.8876C25.5211 61.9215 25.4764 62.0221 25.5103 62.1109ZM28.0363 59.3272C28.0878 59.49 28.2615 59.5796 28.4243 59.5283C28.5874 59.4768 28.6774 59.3023 28.6256 59.1392C28.5738 58.9767 28.3998 58.8866 28.2376 58.9381C28.0741 58.9898 27.9843 59.1639 28.0363 59.3272ZM30.8165 56.6578C30.8772 56.8963 31.1199 57.0404 31.3583 56.9799C31.5966 56.919 31.7409 56.6767 31.6804 56.4375C31.6197 56.1993 31.3768 56.0552 31.1384 56.1166C30.8996 56.1767 30.7554 56.4189 30.8165 56.6578ZM33.8469 54.1251C33.9076 54.4404 34.2132 54.6462 34.5288 54.5854C34.8441 54.5243 35.0506 54.2189 34.9894 53.9041C34.9279 53.5888 34.6224 53.3825 34.3075 53.4434C33.9923 53.5042 33.7857 53.8094 33.8469 54.1251ZM37.1209 51.7477C37.1727 52.1404 37.5339 52.4171 37.927 52.3643C38.32 52.3111 38.5961 51.9503 38.5432 51.5574C38.4904 51.1643 38.1291 50.8882 37.7365 50.9408C37.3433 50.9934 37.0675 51.3548 37.1209 51.7477ZM40.6283 49.5467C40.6638 50.0169 41.074 50.3693 41.5443 50.3341C42.0143 50.2986 42.3671 49.8884 42.3317 49.4185C42.2963 48.9475 41.8864 48.5953 41.4155 48.631C40.9459 48.6663 40.5934 49.076 40.6283 49.5467ZM44.3617 47.54C44.3707 48.0871 44.8217 48.5225 45.3685 48.5134C45.9154 48.5045 46.351 48.0533 46.342 47.5065C46.3324 46.9603 45.8823 46.5241 45.3346 46.5335C44.7883 46.5427 44.3528 46.9932 44.3617 47.54ZM35.3266 61.3558C35.3311 61.376 35.3502 61.3889 35.3708 61.3847C35.3904 61.3809 35.4038 61.3612 35.3997 61.3408C35.3954 61.3206 35.3757 61.3077 35.3557 61.3122C35.3359 61.3162 35.3229 61.3357 35.3266 61.3558ZM38.1614 59.0462C38.1752 59.1409 38.2624 59.2065 38.3571 59.193C38.4522 59.1795 38.5183 59.0926 38.5047 58.9972C38.4913 58.9025 38.4034 58.8367 38.3085 58.85C38.2138 58.8639 38.1479 58.9518 38.1614 59.0462ZM41.2284 56.8858C41.2423 57.0558 41.3917 57.1822 41.5619 57.1683C41.732 57.1536 41.8593 57.0045 41.8447 56.8338C41.8306 56.664 41.6813 56.5375 41.5104 56.5516C41.3402 56.5661 41.2141 56.7155 41.2284 56.8858ZM44.5185 54.894C44.5251 55.14 44.7294 55.3344 44.9754 55.3278C45.2213 55.3217 45.4155 55.1174 45.4092 54.8713C45.4034 54.6252 45.1987 54.4303 44.9528 54.4369C44.7067 54.4433 44.5124 54.6481 44.5185 54.894ZM48.0235 53.0887C48.0125 53.4102 48.2644 53.679 48.5857 53.6896C48.907 53.6998 49.1758 53.448 49.1864 53.127C49.1967 52.806 48.9454 52.5378 48.6244 52.5269C48.3027 52.5163 48.0343 52.7682 48.0235 53.0887ZM47.858 60.5059C47.8577 60.5262 47.8738 60.5431 47.8944 60.544C47.9145 60.5445 47.9316 60.5285 47.9325 60.5082C47.9333 60.4873 47.9165 60.4703 47.8961 60.4698C47.8755 60.4695 47.8587 60.4853 47.858 60.5059ZM51.3081 58.7162C51.4038 58.7243 51.475 58.8078 51.467 58.9032C51.4584 58.999 51.3751 59.0694 51.2793 59.0617C51.184 59.0542 51.1132 58.9703 51.1213 58.8749C51.1293 58.779 51.2132 58.708 51.3081 58.7162Z" fill="white"/>
<path d="M55.3785 50.9393C55.8679 50.6938 56.0647 50.0981 55.8192 49.6094C55.574 49.121 54.9782 48.9237 54.4901 49.1693C54.0013 49.4148 53.8044 50.0103 54.0497 50.4988C54.2947 50.9878 54.8901 51.1844 55.3785 50.9393ZM52.0595 48.1332C52.6309 47.8861 52.8934 47.2229 52.6473 46.6521C52.4003 46.0811 51.7379 45.818 51.1662 46.0646C50.5961 46.3109 50.3321 46.9736 50.5791 47.5446C50.8254 48.1162 51.4886 48.3793 52.0595 48.1332ZM48.8636 45.0462C49.5179 44.807 49.856 44.0827 49.6176 43.4275C49.3786 42.7727 48.6546 42.435 47.9992 42.6737C47.3436 42.9121 47.0061 43.6367 47.2448 44.2917C47.4837 44.9463 48.208 45.2845 48.8636 45.0462ZM45.8123 41.6836C46.5524 41.4616 46.9724 40.6825 46.751 39.9424C46.5289 39.2028 45.7495 38.7824 45.0097 39.0041C44.27 39.2257 43.8497 40.0055 44.0711 40.7454C44.293 41.4853 45.0726 41.9055 45.8123 41.6836ZM42.9281 38.0527C43.7524 37.8571 44.2627 37.0301 44.0669 36.2056C43.8711 35.3804 43.0444 34.8703 42.2195 35.0665C41.3945 35.2622 40.885 36.0892 41.0806 36.9139C41.2761 37.7385 42.103 38.249 42.9281 38.0527ZM40.2311 34.1618C41.1394 34.0015 41.747 33.1347 41.5863 32.2259C41.426 31.3172 40.559 30.711 39.6505 30.8713C38.7417 31.0313 38.1347 31.8988 38.295 32.8069C38.4555 33.7157 39.3223 34.3226 40.2311 34.1618ZM37.7424 30.0203C38.7343 29.9045 39.4431 29.0068 39.3271 28.0155C39.2109 27.0243 38.3136 26.315 37.3221 26.4311C36.3304 26.5471 35.6218 27.4453 35.7374 28.4365C35.8536 29.4272 36.7512 30.1362 37.7424 30.0203ZM58.7288 45.2385C59.0226 45.1086 59.1557 44.7649 59.0267 44.4713C58.8959 44.1769 58.5531 44.0438 58.2589 44.1738C57.9647 44.3039 57.8314 44.6472 57.9617 44.9409C58.0916 45.2351 58.4355 45.3679 58.7288 45.2385ZM55.6873 42.5609C56.0582 42.4223 56.247 42.0085 56.1082 41.6373C55.9695 41.2659 55.5555 41.0768 55.1845 41.2161C54.8131 41.3544 54.6248 41.768 54.7631 42.1392C54.9022 42.511 55.3157 42.6995 55.6873 42.5609ZM52.7654 39.6162C53.2162 39.4772 53.4686 38.9985 53.3291 38.5483C53.1904 38.0974 52.7123 37.845 52.2619 37.9841C51.8111 38.1234 51.5585 38.6012 51.6976 39.0523C51.8364 39.5029 52.3145 39.755 52.7654 39.6162ZM49.9847 36.4096C50.5158 36.2784 50.84 35.7427 50.7093 35.2111C50.5788 34.6803 50.0428 34.3555 49.5114 34.4867C48.9806 34.6172 48.6562 35.1533 48.7864 35.6848C48.9176 36.2157 49.4538 36.5401 49.9847 36.4096ZM47.3656 32.9473C47.9774 32.8339 48.3819 32.2468 48.2681 31.635C48.1545 31.0236 47.5679 30.619 46.9552 30.732C46.3441 30.8459 45.9402 31.4338 46.053 32.0445C46.1666 32.6568 46.7544 33.0606 47.3656 32.9473ZM44.9296 29.2383C45.6209 29.1515 46.1112 28.5206 46.0249 27.8287C45.9371 27.1368 45.3062 26.6463 44.6146 26.7331C43.9227 26.8203 43.4322 27.4516 43.5186 28.1432C43.6062 28.8351 44.2369 29.3256 44.9296 29.2383ZM42.6942 25.2923C43.4648 25.241 44.0478 24.5744 43.9962 23.8035C43.9449 23.0329 43.2782 22.4503 42.5076 22.5018C41.7371 22.5527 41.1539 23.22 41.2059 23.9901C41.2572 24.761 41.9231 25.3441 42.6942 25.2923ZM65.4132 42.2041C65.4323 42.1962 65.4407 42.1739 65.4323 42.1555C65.4232 42.1366 65.4017 42.1289 65.3829 42.1369C65.364 42.1452 65.356 42.1673 65.3642 42.1858C65.3725 42.2042 65.3948 42.2133 65.4132 42.2041ZM62.534 39.9378C62.6236 39.9032 62.6681 39.8031 62.6333 39.7142C62.5995 39.6243 62.4999 39.5796 62.4103 39.6143C62.3203 39.6489 62.2758 39.7485 62.3107 39.8381C62.3446 39.927 62.4449 39.9719 62.534 39.9378ZM59.75 37.412C59.9129 37.3603 60.0024 37.1866 59.951 37.0238C59.8995 36.8607 59.7252 36.7708 59.5621 36.8223C59.3996 36.8741 59.3096 37.0483 59.3611 37.2106C59.4126 37.3738 59.5869 37.4638 59.75 37.412ZM57.0809 34.6318C57.319 34.5707 57.4632 34.3282 57.4027 34.0896C57.3416 33.8516 57.0997 33.7071 56.8603 33.7677C56.6222 33.8284 56.4782 34.0713 56.5394 34.3097C56.5998 34.5485 56.8419 34.6926 57.0809 34.6318ZM54.5478 31.6013C54.8635 31.5403 55.0692 31.2348 55.0083 30.9191C54.9473 30.604 54.6417 30.3977 54.3269 30.4587C54.0119 30.52 53.8051 30.8258 53.8663 31.1408C53.9269 31.4559 54.2325 31.6625 54.5478 31.6013ZM52.1708 28.3274C52.5634 28.2754 52.8399 27.914 52.787 27.5213C52.734 27.128 52.3731 26.8519 51.9803 26.9048C51.5874 26.9576 51.3112 27.3188 51.3637 27.7117C51.4165 28.1049 51.7775 28.3806 52.1708 28.3274ZM49.9696 24.8196C50.4399 24.7843 50.7924 24.3741 50.7567 23.9039C50.7215 23.4338 50.3112 23.0812 49.8414 23.1164C49.3703 23.1517 49.0183 23.5617 49.0541 24.0324C49.0891 24.5023 49.4988 24.8548 49.9696 24.8196ZM47.9631 21.0862C48.5098 21.0774 48.9454 20.6264 48.9362 20.0796C48.9274 19.5325 48.4761 19.097 47.9295 19.106C47.3833 19.1156 46.9469 19.5659 46.9562 20.1133C46.9655 20.6598 47.416 21.0954 47.9631 21.0862ZM61.7788 30.1213C61.7989 30.1168 61.8118 30.0979 61.8077 30.0775C61.8037 30.0576 61.7842 30.0443 61.7636 30.0486C61.7436 30.0527 61.7307 30.0723 61.7353 30.0922C61.739 30.1121 61.7587 30.1253 61.7788 30.1213ZM59.469 27.2865C59.564 27.2728 59.6293 27.1858 59.6159 27.091C59.6024 26.9957 59.5154 26.9297 59.4199 26.9436C59.3252 26.9568 59.2596 27.0447 59.2728 27.1394C59.2867 27.2343 59.3747 27.3002 59.469 27.2865ZM57.3087 24.2198C57.4786 24.2058 57.6051 24.0565 57.5913 23.8862C57.5765 23.7159 57.4271 23.5889 57.2566 23.6032C57.0869 23.6175 56.9604 23.7666 56.9742 23.9379C56.989 24.1079 57.1383 24.2341 57.3087 24.2198ZM55.3168 20.9295C55.5629 20.9231 55.7572 20.7188 55.7506 20.4728C55.7445 20.2267 55.5405 20.0326 55.2941 20.0389C55.0483 20.0447 54.8532 20.2493 54.8595 20.4954C54.8663 20.7414 55.0707 20.9357 55.3168 20.9295ZM53.5114 17.4247C53.833 17.4356 54.102 17.1837 54.1124 16.8624C54.1227 16.5413 53.8711 16.2724 53.55 16.2617C53.2287 16.251 52.9606 16.5027 52.9497 16.8237C52.9391 17.1454 53.1912 17.4138 53.5114 17.4247ZM60.9289 17.59C60.949 17.5906 60.9662 17.5744 60.967 17.5537C60.9674 17.5337 60.9515 17.5163 60.9309 17.5157C60.9101 17.5148 60.8932 17.5314 60.8927 17.552C60.8921 17.5727 60.9083 17.5892 60.9289 17.59ZM59.2974 14.3268C59.393 14.3351 59.4768 14.2641 59.4847 14.1689C59.4922 14.073 59.4218 13.9897 59.3263 13.9811C59.2307 13.9732 59.1474 14.0444 59.1389 14.14C59.1306 14.2348 59.2018 14.3188 59.2974 14.3268ZM51.362 10.0695C51.1166 9.58018 50.5209 9.38341 50.032 9.62875C49.5438 9.87409 49.3465 10.4699 49.5921 10.958C49.8376 11.4468 50.4331 11.6439 50.9216 11.3984C51.4105 11.1534 51.6075 10.5582 51.362 10.0695ZM48.5559 13.3886C48.3088 12.8172 47.6458 12.5547 47.0749 12.8008C46.5038 13.0477 46.2408 13.7104 46.4874 14.282C46.7337 14.8522 47.3965 15.116 47.9674 14.8691C48.539 14.6227 48.8021 13.9597 48.5559 13.3886ZM45.469 16.5845C45.2298 15.9302 44.5056 15.5919 43.8503 15.8305C43.1955 16.0695 42.8577 16.7935 43.0965 17.4488C43.3349 18.1043 44.0595 18.442 44.7147 18.2035C45.3694 17.9644 45.7073 17.2401 45.469 16.5845ZM42.1062 19.6358C41.8845 18.8958 41.1053 18.4757 40.3653 18.6971C39.6256 18.9193 39.205 19.6986 39.4271 20.4384C39.6487 21.1783 40.4282 21.5985 41.1684 21.377C41.9081 21.1551 42.3282 20.3755 42.1062 19.6358ZM38.4756 22.5201C38.2801 21.6955 37.4529 21.1855 36.6283 21.381C35.8033 21.5769 35.2931 22.4037 35.4894 23.2286C35.685 24.0536 36.5118 24.563 37.3369 24.3675C38.1614 24.172 38.6719 23.3451 38.4756 22.5201ZM34.5848 25.217C34.4245 24.3086 33.5576 23.7013 32.6487 23.8619C31.7402 24.0221 31.1338 24.8889 31.2942 25.7977C31.4541 26.7065 32.3217 27.3134 33.23 27.1529C34.1385 26.9925 34.7454 26.1259 34.5848 25.217ZM30.4432 27.7059C30.3273 26.7139 29.4298 26.0049 28.4383 26.121C27.4471 26.2374 26.7378 27.1346 26.854 28.1258C26.9699 29.1176 27.8681 29.8263 28.8593 29.7108C29.85 29.5945 30.5591 28.6968 30.4432 27.7059ZM45.6611 6.71927C45.5316 6.42551 45.1878 6.29255 44.8941 6.42152C44.5999 6.55218 44.4666 6.89513 44.5966 7.18936C44.7268 7.48343 45.0701 7.61655 45.3639 7.48634C45.6579 7.35645 45.7909 7.01257 45.6611 6.71927ZM42.9835 9.7608C42.8451 9.38987 42.4316 9.2011 42.0602 9.33991C41.6887 9.47857 41.4996 9.89254 41.6389 10.2638C41.7774 10.635 42.1909 10.8235 42.5623 10.6848C42.9338 10.546 43.1221 10.1323 42.9835 9.7608ZM40.039 12.6827C39.9003 12.232 39.4213 11.9795 38.9711 12.1189C38.52 12.2578 38.2679 12.7359 38.4071 13.1862C38.546 13.637 39.0239 13.8896 39.475 13.7506C39.9258 13.6115 40.1778 13.1334 40.039 12.6827ZM36.8325 15.4634C36.7012 14.9324 36.1655 14.6082 35.6339 14.7386C35.1033 14.8693 34.7783 15.4053 34.9094 15.9367C35.0401 16.4675 35.576 16.7918 36.1077 16.6615C36.6385 16.5305 36.9627 15.9942 36.8325 15.4634ZM33.3699 18.0825C33.2568 17.4708 32.6697 17.0664 32.0578 17.18C31.4464 17.2934 31.042 17.8802 31.1551 18.4929C31.2687 19.1041 31.8567 19.5081 32.4674 19.395C33.0796 19.2818 33.4835 18.6938 33.3699 18.0825ZM29.6613 20.5185C29.5743 19.8274 28.9434 19.3367 28.2516 19.4234C27.5597 19.5109 27.0692 20.1419 27.1562 20.8335C27.2431 21.5255 27.8744 22.0159 28.5658 21.9293C29.2579 21.842 29.7484 21.2113 29.6613 20.5185ZM25.7154 22.7541C25.6637 21.9833 24.9974 21.4002 24.2263 21.4519C23.4557 21.5031 22.8731 22.1699 22.9246 22.9405C22.9758 23.7111 23.6429 24.2942 24.4132 24.2422C25.1838 24.1909 25.7667 23.5248 25.7154 22.7541ZM42.6269 0.0350266C42.6192 0.0158081 42.5967 0.00735474 42.5783 0.0158081C42.5594 0.0248795 42.5518 0.046257 42.5598 0.0653152C42.5678 0.0839157 42.5904 0.0922089 42.6086 0.0837555C42.6272 0.0756073 42.6361 0.0534744 42.6269 0.0350266ZM40.3605 2.91422C40.326 2.82444 40.2259 2.78002 40.137 2.81491C40.0471 2.84858 40.0025 2.94804 40.0371 3.03796C40.0715 3.12774 40.1715 3.17217 40.2611 3.13773C40.3499 3.10361 40.3948 3.00322 40.3605 2.91422ZM37.8349 5.69795C37.783 5.53516 37.6096 5.44569 37.4466 5.49704C37.2834 5.54869 37.1934 5.72286 37.2452 5.88596C37.297 6.04859 37.4712 6.13867 37.6334 6.08702C37.7968 6.03553 37.8867 5.86121 37.8349 5.69795ZM35.0547 8.36732C34.9935 8.12905 34.751 7.98486 34.5124 8.04527C34.2743 8.10646 34.1301 8.34856 34.1905 8.5876C34.2514 8.82587 34.4942 8.97006 34.7325 8.90873C34.9712 8.84847 35.1154 8.60635 35.0547 8.36732ZM32.0243 10.9002C31.9631 10.5847 31.6576 10.3789 31.342 10.4398C31.0268 10.5008 30.8206 10.8063 30.8817 11.1212C30.943 11.4364 31.2486 11.6428 31.5637 11.5818C31.8788 11.5212 32.0854 11.2158 32.0243 10.9002ZM28.7502 13.2775C28.6983 12.8847 28.337 12.6083 27.944 12.661C27.5508 12.7142 27.2747 13.0752 27.3275 13.4679C27.3803 13.8607 27.7416 14.1369 28.1345 14.0845C28.5277 14.0318 28.8033 13.6705 28.7502 13.2775ZM25.2425 15.4784C25.2072 15.0084 24.7971 14.6557 24.3268 14.6912C23.8566 14.7266 23.5041 15.1369 23.5393 15.6068C23.5745 16.0777 23.9845 16.4298 24.455 16.3942C24.9251 16.3588 25.2778 15.9493 25.2425 15.4784ZM21.5088 17.4851C21.5004 16.9383 21.0494 16.5027 20.5026 16.5118C19.9555 16.521 19.5198 16.972 19.5289 17.5186C19.5384 18.065 19.9888 18.5012 20.5362 18.4918C21.0827 18.4826 21.518 18.0321 21.5088 17.4851ZM30.5441 3.6693C30.5398 3.64917 30.5207 3.6364 30.5003 3.6404C30.4804 3.64439 30.4669 3.66392 30.4715 3.68436C30.4757 3.7045 30.4952 3.71757 30.5152 3.71296C30.5349 3.70896 30.5482 3.68959 30.5441 3.6693ZM27.7093 5.97911C27.6959 5.88427 27.6085 5.81877 27.5138 5.83215C27.4185 5.84567 27.3527 5.93268 27.3665 6.02814C27.3797 6.12299 27.4675 6.18863 27.5622 6.17525C27.6572 6.16142 27.7231 6.07335 27.7093 5.97911ZM24.6426 8.13935C24.6286 7.96933 24.4793 7.84297 24.309 7.85696C24.1387 7.87156 24.0117 8.02098 24.026 8.19161C24.0405 8.36132 24.1894 8.48768 24.3608 8.47369C24.5307 8.45924 24.657 8.30983 24.6426 8.13935ZM21.3526 10.1311C21.3459 9.88531 21.1417 9.6907 20.8956 9.69732C20.6495 9.70362 20.4555 9.90775 20.4617 10.1539C20.4675 10.4 20.6721 10.5947 20.9182 10.5884C21.1643 10.5818 21.3585 10.3772 21.3526 10.1311ZM17.8475 11.9366C17.8586 11.6151 17.6066 11.3463 17.2853 11.3357C16.9642 11.3252 16.6952 11.5772 16.6844 11.8983C16.674 12.2194 16.9256 12.4877 17.2464 12.4986C17.5682 12.5089 17.8366 12.2569 17.8475 11.9366ZM18.0129 4.51937C18.0134 4.49908 17.9972 4.48202 17.9765 4.48125C17.9566 4.48079 17.9393 4.49662 17.9387 4.51706C17.9377 4.53797 17.9543 4.55489 17.9749 4.55534C17.9955 4.55596 18.0121 4.53982 18.0129 4.51937ZM14.7497 6.15051C14.7577 6.05505 14.687 5.97111 14.5917 5.96342C14.4959 5.95574 14.4124 6.02614 14.4038 6.12191C14.396 6.21737 14.4672 6.30085 14.5629 6.309C14.6576 6.3173 14.7417 6.24612 14.7497 6.15051ZM10.4926 14.086C10.0031 14.3315 9.8062 14.9274 10.0517 15.4159C10.2972 15.9041 10.8929 16.1015 11.3808 15.8558C11.8699 15.6103 12.0668 15.015 11.8212 14.5265C11.5763 14.0375 10.9811 13.8407 10.4926 14.086ZM13.8116 16.8922C13.2403 17.1393 12.9776 17.8024 13.2237 18.3733C13.4706 18.9442 14.1333 19.2073 14.705 18.9607C15.275 18.7144 15.5389 18.0517 15.292 17.4807C15.0456 16.9091 14.3826 16.646 13.8116 16.8922ZM17.0076 19.9791C16.3533 20.2183 16.0148 20.9425 16.2534 21.5978C16.4924 22.2526 17.2163 22.5903 17.8716 22.3518C18.5273 22.1132 18.8648 21.3887 18.6264 20.7334C18.3874 20.0789 17.6629 19.7408 17.0076 19.9791ZM20.0589 23.3417C19.3188 23.5637 18.8986 24.3428 19.12 25.0828C19.3421 25.8225 20.1216 26.2429 20.8614 26.0211C21.6011 25.7993 22.0215 25.0198 21.8 24.2799C21.578 23.5399 20.7985 23.1199 20.0589 23.3417ZM22.943 26.9723C22.1185 27.1682 21.6083 27.9953 21.804 28.8197C22 29.6449 22.8265 30.1548 23.6515 29.9588C24.4764 29.7631 24.986 28.9361 24.7903 28.1114C24.5948 27.2867 23.7682 26.7762 22.943 26.9723ZM25.6399 30.8635C24.7314 31.0238 24.1242 31.8905 24.2849 32.7994C24.445 33.7081 25.312 34.3143 26.2207 34.154C27.1295 33.994 27.7365 33.1265 27.576 32.2182C27.4155 31.3095 26.5489 30.7025 25.6399 30.8635ZM28.1288 35.0049C27.1369 35.1208 26.4277 36.0185 26.5438 37.0097C26.6603 38.0009 27.5576 38.7103 28.5488 38.5942C29.5406 38.4782 30.2492 37.58 30.1338 36.5888C30.0174 35.5981 29.1197 34.8889 28.1288 35.0049ZM7.14222 19.7869C6.84846 19.9167 6.71549 20.2602 6.84461 20.5538C6.97512 20.8482 7.31808 20.9813 7.6123 20.8515C7.90621 20.7213 8.03964 20.378 7.90944 20.0842C7.77939 19.7902 7.43552 19.6572 7.14222 19.7869ZM10.1836 22.4646C9.81281 22.6028 9.62404 23.0166 9.76285 23.388C9.90151 23.7595 10.3155 23.9483 10.6867 23.8092C11.0578 23.6708 11.2464 23.2572 11.1079 22.886C10.9689 22.5143 10.5551 22.3258 10.1836 22.4646ZM13.1057 25.409C12.655 25.5479 12.4024 26.0268 12.5418 26.4769C12.6808 26.9279 13.1589 27.1801 13.6093 27.0412C14.06 26.9019 14.3125 26.424 14.1736 25.973C14.0344 25.5223 13.5565 25.2703 13.1057 25.409ZM15.8863 28.6157C15.3554 28.7467 15.0312 29.2826 15.1615 29.8142C15.2922 30.345 15.8282 30.6698 16.3595 30.5386C16.8904 30.4081 17.2148 29.872 17.0844 29.3405C16.9535 28.8096 16.4171 28.4852 15.8863 28.6157ZM18.5054 32.078C17.8938 32.1914 17.4895 32.7785 17.6031 33.3902C17.7164 34.0017 18.3031 34.4063 18.9159 34.2931C19.5269 34.1794 19.931 33.5915 19.8179 32.9807C19.7046 32.3685 19.1168 31.9647 18.5054 32.078ZM20.9416 35.787C20.2503 35.8738 19.7596 36.5047 19.8463 37.1966C19.9338 37.8885 20.5648 38.3787 21.2566 38.292C21.9486 38.205 22.4388 37.5737 22.3523 36.8821C22.265 36.1902 21.6343 35.6998 20.9416 35.787ZM23.1768 39.7328C22.4062 39.7842 21.8232 40.4509 21.8748 41.2219C21.9262 41.9922 22.5929 42.5748 23.3633 42.5233C24.1341 42.4725 24.717 41.8053 24.665 41.035C24.6138 40.2643 23.9478 39.6812 23.1768 39.7328ZM0.45797 22.8211C0.438755 22.8289 0.430454 22.8514 0.438755 22.8698C0.447671 22.8886 0.469346 22.8963 0.488254 22.8884C0.506854 22.8801 0.515001 22.8578 0.5067 22.8395C0.498553 22.8209 0.476416 22.812 0.45797 22.8211ZM3.33716 25.0875C3.24754 25.122 3.20312 25.2222 3.23786 25.3111C3.27152 25.401 3.37098 25.4457 3.46091 25.4111C3.55068 25.3764 3.59511 25.2769 3.56052 25.1873C3.52639 25.0981 3.42617 25.0534 3.33716 25.0875ZM6.12105 27.6132C5.95795 27.665 5.86864 27.8387 5.91998 28.0015C5.97163 28.1646 6.1458 28.2545 6.3089 28.2029C6.47153 28.151 6.56161 27.977 6.50996 27.8147C6.45831 27.6513 6.28415 27.5614 6.12105 27.6132ZM8.79026 30.3935C8.55199 30.4546 8.4078 30.6971 8.46837 30.9357C8.5294 31.1737 8.77151 31.3182 9.0107 31.2574C9.24866 31.1969 9.393 30.954 9.33167 30.7156C9.27125 30.4767 9.0293 30.3327 8.79026 30.3935ZM11.3231 33.424C11.0077 33.485 10.8019 33.7905 10.8627 34.1062C10.9238 34.4212 11.2293 34.6275 11.5442 34.5666C11.8593 34.5051 12.0657 34.1995 12.0046 33.8845C11.9442 33.5694 11.6386 33.3628 11.3231 33.424ZM13.7004 36.6979C13.3078 36.7499 13.0313 37.1111 13.0841 37.504C13.1372 37.8973 13.4981 38.1735 13.8909 38.1205C14.2836 38.0676 14.5599 37.7063 14.5073 37.3137C14.4546 36.9204 14.0935 36.6447 13.7004 36.6979ZM15.9012 40.2055C15.4313 40.241 15.0787 40.6512 15.1142 41.1213C15.1495 41.5916 15.5597 41.944 16.0297 41.9088C16.5006 41.8736 16.8528 41.4636 16.8171 40.9929C16.7817 40.523 16.3721 40.1705 15.9012 40.2055ZM17.9079 43.9391C17.3613 43.9477 16.9255 44.3989 16.9347 44.9455C16.9438 45.4926 17.3949 45.9283 17.9416 45.919C18.4879 45.9097 18.9242 45.4593 18.9148 44.9119C18.9056 44.3655 18.4548 43.9299 17.9079 43.9391ZM4.09224 34.904C4.07226 34.9083 4.05934 34.9272 4.06334 34.9478C4.06734 34.9677 4.08686 34.981 4.10731 34.9767C4.12744 34.9724 4.14036 34.9529 4.1359 34.9331C4.13205 34.9132 4.11253 34.9 4.09224 34.904ZM6.40205 37.7388C6.30705 37.7523 6.24172 37.8396 6.2551 37.9343C6.26847 38.0295 6.35563 38.0956 6.45109 38.0817C6.54578 38.0684 6.61157 37.9806 6.5982 37.8857C6.58437 37.7909 6.49628 37.7251 6.40205 37.7388ZM8.56229 40.8054C8.39243 40.8195 8.26592 40.9688 8.27991 41.1391C8.29451 41.3093 8.44393 41.4365 8.6144 41.4219C8.78427 41.4076 8.91062 41.2587 8.89664 41.0874C8.88203 40.9173 8.73277 40.7911 8.56229 40.8054ZM10.5542 44.0956C10.3083 44.1024 10.1136 44.3064 10.1204 44.5525C10.1264 44.7984 10.3305 44.9926 10.5768 44.9864C10.8228 44.9806 11.0177 44.7761 11.0114 44.5297C11.0048 44.2839 10.8002 44.0896 10.5542 44.0956ZM12.3595 47.6007C12.0381 47.5895 11.7691 47.8416 11.7586 48.1629C11.7482 48.4839 12.0001 48.753 12.3212 48.7636C12.6422 48.7741 12.9106 48.5225 12.9214 48.2016C12.932 47.8801 12.68 47.6114 12.3595 47.6007ZM4.94232 47.4355C4.92187 47.435 4.90481 47.4509 4.90419 47.4716C4.90373 47.4916 4.91957 47.5088 4.94001 47.5096C4.96092 47.5104 4.97798 47.4938 4.97829 47.4733C4.9789 47.4526 4.96276 47.436 4.94232 47.4355ZM6.57345 50.6984C6.47799 50.6902 6.39421 50.7612 6.38653 50.8562C6.37869 50.9523 6.44909 51.0356 6.54486 51.0441C6.64032 51.0521 6.72379 50.9809 6.73194 50.8853C6.74039 50.7905 6.66922 50.7065 6.57345 50.6984ZM14.5088 54.9557C14.7545 55.445 15.3501 55.6419 15.8388 55.3967C16.3269 55.1512 16.5243 54.5552 16.2788 54.0675C16.0331 53.5783 15.4378 53.3814 14.9492 53.6271C14.4604 53.8719 14.2635 54.4673 14.5088 54.9557ZM17.3152 51.6368C17.562 52.2079 18.225 52.4706 18.7961 52.2245C19.367 51.9773 19.6302 51.3149 19.3835 50.7433C19.1374 50.1733 18.4745 49.9092 17.9035 50.156C17.3319 50.4025 17.0687 51.0655 17.3152 51.6368ZM20.402 48.4408C20.6411 49.0949 21.3654 49.4334 22.0206 49.1947C22.6757 48.9558 23.013 48.2318 22.7746 47.5765C22.5361 46.921 21.8115 46.5834 21.1563 46.8217C20.5016 47.0607 20.1636 47.7854 20.402 48.4408ZM23.7645 45.3893C23.9863 46.1293 24.7657 46.5494 25.5056 46.3281C26.2454 46.106 26.6659 45.3266 26.444 44.5867C26.2222 43.8472 25.4425 43.4268 24.7028 43.6481C23.9627 43.8701 23.5427 44.6496 23.7645 45.3893ZM27.3953 42.5052C27.5911 43.3298 28.418 43.8398 29.2425 43.6443C30.0677 43.4483 30.5777 42.6217 30.3816 41.7967C30.1859 40.9718 29.3589 40.4621 28.534 40.6579C27.7096 40.8533 27.1991 41.68 27.3953 42.5052ZM31.2862 39.8083C31.4467 40.7165 32.3134 41.324 33.2222 41.1632C34.1308 41.0032 34.737 40.1362 34.5769 39.2274C34.4169 38.3188 33.5492 37.7117 32.6411 37.8724C31.7323 38.0327 31.1253 38.8994 31.2862 39.8083ZM35.4276 37.3194C35.5435 38.3114 36.4414 39.0203 37.4326 38.9043C38.4237 38.7879 39.1331 37.8908 39.0172 36.8993C38.9011 35.9075 38.0029 35.199 37.0117 35.3144C36.0207 35.4308 35.3117 36.3285 35.4276 37.3194ZM20.2097 58.306C20.3395 58.5998 20.683 58.7328 20.9768 58.6036C21.271 58.4731 21.4041 58.1302 21.2742 57.8359C21.1442 57.542 20.8008 57.4086 20.507 57.5388C20.2131 57.6687 20.08 58.0127 20.2097 58.306ZM22.8872 55.2643C23.0256 55.6353 23.4394 55.8244 23.8109 55.6852C24.1822 55.5467 24.3713 55.1328 24.2321 54.7615C24.0938 54.3901 23.6801 54.202 23.3089 54.3402C22.9372 54.4793 22.7486 54.893 22.8872 55.2643ZM25.8318 52.3424C25.971 52.7934 26.4496 53.0457 26.8997 52.9063C27.3505 52.7675 27.6031 52.2892 27.464 51.8391C27.3245 51.3881 26.8468 51.1356 26.3959 51.2747C25.9452 51.4136 25.6931 51.8917 25.8318 52.3424ZM29.0387 49.5619C29.1697 50.0929 29.7055 50.4172 30.2369 50.2866C30.7679 50.156 31.0926 49.62 30.9614 49.0886C30.8309 48.5577 30.2947 48.2333 29.7633 48.3637C29.2322 48.4948 28.9082 49.031 29.0387 49.5619ZM32.5008 46.9428C32.6144 47.5543 33.2013 47.9588 33.813 47.8453C34.4245 47.7319 34.8294 47.145 34.7161 46.5322C34.602 45.9212 34.0145 45.5172 33.4034 45.6303C32.7912 45.7435 32.3877 46.3315 32.5008 46.9428ZM36.2098 44.5068C36.2965 45.1978 36.9276 45.6886 37.6195 45.6019C38.3113 45.5141 38.8017 44.8836 38.7151 44.1917C38.628 43.4996 37.9968 43.0094 37.305 43.0959C36.6131 43.1833 36.1226 43.814 36.2098 44.5068ZM40.1558 42.2714C40.207 43.042 40.8738 43.6249 41.6447 43.5734C42.4152 43.5221 42.9976 42.8554 42.9463 42.0849C42.8954 41.3142 42.2283 40.7311 41.458 40.7831C40.687 40.8343 40.1038 41.5003 40.1558 42.2714ZM23.2439 64.9903C23.2517 65.0095 23.2742 65.0178 23.2926 65.0095C23.3114 65.0004 23.3192 64.9789 23.3112 64.96C23.3031 64.9412 23.2808 64.9332 23.2623 64.9415C23.2437 64.9497 23.235 64.9718 23.2439 64.9903ZM25.5103 62.1109C25.5448 62.2007 25.645 62.2451 25.7337 62.2104C25.8239 62.1769 25.8687 62.0771 25.8339 61.9875C25.799 61.8976 25.6997 61.8531 25.6101 61.8876C25.5211 61.9215 25.4764 62.0221 25.5103 62.1109ZM28.0363 59.3272C28.0878 59.49 28.2615 59.5796 28.4243 59.5283C28.5874 59.4768 28.6774 59.3023 28.6256 59.1392C28.5738 58.9767 28.3998 58.8866 28.2376 58.9381C28.0741 58.9898 27.9843 59.1639 28.0363 59.3272ZM30.8165 56.6578C30.8772 56.8963 31.1199 57.0404 31.3583 56.9799C31.5966 56.919 31.7409 56.6767 31.6804 56.4375C31.6197 56.1993 31.3768 56.0552 31.1384 56.1166C30.8996 56.1767 30.7554 56.4189 30.8165 56.6578ZM33.8469 54.1251C33.9076 54.4404 34.2132 54.6462 34.5288 54.5854C34.8441 54.5243 35.0506 54.2189 34.9894 53.9041C34.9279 53.5888 34.6224 53.3825 34.3075 53.4434C33.9923 53.5042 33.7857 53.8094 33.8469 54.1251ZM37.1209 51.7477C37.1727 52.1404 37.5339 52.4171 37.927 52.3643C38.3201 52.3111 38.5961 51.9503 38.5433 51.5574C38.4904 51.1643 38.1291 50.8882 37.7365 50.9408C37.3433 50.9934 37.0675 51.3548 37.1209 51.7477ZM40.6283 49.5467C40.6638 50.0169 41.074 50.3693 41.5443 50.3341C42.0143 50.2985 42.3671 49.8884 42.3317 49.4185C42.2964 48.9475 41.8864 48.5953 41.4155 48.631C40.9459 48.6663 40.5934 49.076 40.6283 49.5467ZM44.3617 47.54C44.3707 48.0871 44.8217 48.5225 45.3685 48.5134C45.9154 48.5045 46.351 48.0533 46.342 47.5065C46.3324 46.9603 45.8824 46.5241 45.3346 46.5335C44.7883 46.5427 44.3528 46.9932 44.3617 47.54ZM35.3266 61.3558C35.3311 61.376 35.3502 61.3889 35.3708 61.3847C35.3904 61.3809 35.4038 61.3612 35.3997 61.3408C35.3954 61.3206 35.3757 61.3077 35.3557 61.3122C35.3359 61.3162 35.323 61.3357 35.3266 61.3558ZM38.1614 59.0462C38.1752 59.1409 38.2624 59.2065 38.3571 59.193C38.4522 59.1795 38.5184 59.0926 38.5047 58.9972C38.4913 58.9025 38.4034 58.8367 38.3085 58.85C38.2138 58.8639 38.1479 58.9518 38.1614 59.0462ZM41.2285 56.8858C41.2423 57.0558 41.3917 57.1822 41.5619 57.1683C41.732 57.1536 41.8593 57.0045 41.8447 56.8338C41.8306 56.664 41.6813 56.5375 41.5104 56.5516C41.3402 56.5661 41.2142 56.7155 41.2285 56.8858ZM44.5185 54.894C44.5252 55.14 44.7294 55.3344 44.9754 55.3278C45.2214 55.3217 45.4155 55.1174 45.4092 54.8713C45.4034 54.6252 45.1988 54.4303 44.9528 54.4369C44.7067 54.4433 44.5124 54.6481 44.5185 54.894ZM48.0235 53.0887C48.0125 53.4102 48.2644 53.679 48.5857 53.6896C48.907 53.6998 49.1758 53.448 49.1864 53.127C49.1967 52.806 48.9454 52.5378 48.6244 52.5269C48.3027 52.5163 48.0343 52.7682 48.0235 53.0887ZM47.858 60.5059C47.8577 60.5262 47.8738 60.5431 47.8944 60.544C47.9145 60.5445 47.9316 60.5285 47.9325 60.5082C47.9333 60.4873 47.9165 60.4703 47.8961 60.4698C47.8755 60.4695 47.8587 60.4853 47.858 60.5059ZM51.3081 58.7162C51.4039 58.7243 51.475 58.8078 51.467 58.9032C51.4584 58.999 51.3751 59.0694 51.2793 59.0617C51.184 59.0542 51.1132 58.9703 51.1213 58.8749C51.1293 58.779 51.2132 58.708 51.3081 58.7162Z" fill="white"/>
</svg>
