<svg width="19" height="19" viewBox="0 0 19 19" fill="none" xmlns="http://www.w3.org/2000/svg">
<path d="M15.4355 12.0127V15.0127C13.367 15.0127 11.633 14.6414 10.1855 14.0189C7.3048 12.7799 5.55355 10.5464 4.56055 8.2627C3.73555 6.3667 3.43555 4.4362 3.43555 3.0127H6.43555L7.18555 6.0127L4.56055 8.2627C5.55355 10.5464 7.3048 12.7799 10.1855 14.0189L12.4355 11.2627L15.4355 12.0127Z" fill="white"/>
<path d="M10.1855 14.0189C7.3048 12.7799 5.55355 10.5464 4.56055 8.2627M10.1855 14.0189C11.633 14.6414 13.367 15.0127 15.4355 15.0127V12.0127L12.4355 11.2627L10.1855 14.0189ZM4.56055 8.2627C3.73555 6.3667 3.43555 4.4362 3.43555 3.0127H6.43555L7.18555 6.0127L4.56055 8.2627Z" stroke="white" stroke-linecap="round" stroke-linejoin="round"/>
</svg>
