<svg width="21" height="20" viewBox="0 0 21 20" fill="none" xmlns="http://www.w3.org/2000/svg">
<g clip-path="url(#clip0_1400_57639)">
<path d="M19.7964 11.5775C20.3931 6.55502 19.5097 3.38419 17.9164 1.95002L17.9172 1.94919C15.3456 -0.499979 6.66055 -0.86248 3.58389 2.05919C2.20222 3.48835 1.71555 5.58585 1.66222 8.18252C1.60889 10.78 1.54555 15.6459 6.07972 16.9659H6.08389L6.07972 18.9817C6.07972 18.9817 6.04889 19.7984 6.57055 19.9625C7.16722 20.1559 7.43722 19.7767 9.29305 17.56C12.3964 17.8292 14.7797 17.2125 15.0506 17.1225C15.6772 16.9125 19.2231 16.4434 19.7964 11.5775ZM9.59889 16.1417C9.59889 16.1417 7.63472 18.5909 7.02389 19.2267C6.82389 19.4334 6.60472 19.4142 6.60805 19.0042C6.60805 18.735 6.62305 15.6575 6.62305 15.6575C2.77889 14.5559 3.00555 10.4125 3.04722 8.24502C3.08889 6.07669 3.48555 4.30085 4.65555 3.10502C7.35472 0.574187 14.9689 1.14002 16.9089 2.96335C19.2806 5.06585 18.4364 11.0059 18.4414 11.2084C17.9539 15.27 15.0806 15.5275 14.5522 15.7034C14.3264 15.7784 12.2306 16.3175 9.59889 16.1417Z" fill="#2F80ED"/>
<path d="M10.6859 3.58081C10.3651 3.58081 10.3651 4.08081 10.6859 4.08498C13.1751 4.10414 15.2251 5.83914 15.2476 9.02164C15.2476 9.35748 15.7393 9.35331 15.7351 9.01748H15.7343C15.7076 5.58831 13.4693 3.59998 10.6859 3.58081Z" fill="#2F80ED"/>
<path d="M13.9594 8.4942C13.9519 8.82586 14.4428 8.8417 14.4469 8.50586C14.4878 6.61503 13.3219 5.05753 11.1311 4.89336C10.8103 4.87003 10.7769 5.3742 11.0969 5.39753C12.9969 5.5417 13.9978 6.83836 13.9594 8.4942Z" fill="#2F80ED"/>
<path d="M13.4345 10.645C13.0228 10.4067 12.6037 10.555 12.4303 10.7892L12.0678 11.2583C11.8837 11.4967 11.5395 11.465 11.5395 11.465C9.02784 10.8008 8.35617 8.17251 8.35617 8.17251C8.35617 8.17251 8.32534 7.81667 8.55534 7.62584L9.00867 7.25084C9.23534 7.07084 9.37867 6.63751 9.14784 6.21167C8.53117 5.09751 8.11701 4.71334 7.90617 4.41834C7.68451 4.14084 7.35117 4.07834 7.00451 4.26584H6.99701C6.27617 4.68751 5.48701 5.47667 5.73951 6.28917C6.17034 7.14584 6.96201 9.87667 9.48534 11.94C10.6712 12.9158 12.5478 13.9158 13.3445 14.1467L13.352 14.1583C14.137 14.42 14.9003 13.6 15.3078 12.8575V12.8517C15.4887 12.4925 15.4287 12.1525 15.1645 11.93C14.6962 11.4733 13.9895 10.9692 13.4345 10.645Z" fill="#2F80ED"/>
<path d="M11.4751 6.75323C12.2759 6.7999 12.6643 7.21823 12.7059 8.0774C12.7209 8.41323 13.2084 8.3899 13.1934 8.05407C13.1401 6.9324 12.5551 6.3074 11.5018 6.24907C11.1809 6.2299 11.1509 6.73407 11.4751 6.75323Z" fill="#2F80ED"/>
</g>
<defs>
<clipPath id="clip0_1400_57639">
<rect width="20" height="20" fill="white" transform="translate(0.5)"/>
</clipPath>
</defs>
</svg>
