<svg width="21" height="20" viewBox="0 0 21 20" fill="none" xmlns="http://www.w3.org/2000/svg">
<g clip-path="url(#clip0_1400_57630)">
<path d="M17.0958 10.8567C16.7725 10.4484 16.865 10.2667 17.0958 9.90175C17.1 9.89758 19.7692 6.20925 20.0442 4.95841L20.0458 4.95758C20.1825 4.50175 20.0458 4.16675 19.385 4.16675H17.1983C16.6417 4.16675 16.385 4.45425 16.2475 4.77591C16.2475 4.77591 15.1342 7.44092 13.5592 9.16842C13.0508 9.66758 12.8158 9.82758 12.5383 9.82758C12.4017 9.82758 12.1892 9.66758 12.1892 9.21175V4.95758C12.1892 4.41091 12.0333 4.16675 11.5725 4.16675H8.13417C7.785 4.16675 7.5775 4.42175 7.5775 4.65925C7.5775 5.17758 8.365 5.29675 8.44667 6.75508V9.91925C8.44667 10.6126 8.32083 10.7401 8.04167 10.7401C7.29833 10.7401 5.49417 8.06425 4.425 5.00175C4.20917 4.40758 3.99833 4.16758 3.4375 4.16758H1.25C0.625833 4.16758 0.5 4.45508 0.5 4.77675C0.5 5.34508 1.24333 8.17092 3.95667 11.9042C5.765 14.4526 8.31167 15.8334 10.6283 15.8334C12.0208 15.8334 12.1908 15.5267 12.1908 14.9992C12.1908 12.5642 12.065 12.3342 12.7625 12.3342C13.0858 12.3342 13.6425 12.4942 14.9425 13.7234C16.4283 15.1809 16.6725 15.8334 17.5042 15.8334H19.6908C20.3142 15.8334 20.63 15.5267 20.4483 14.9217C20.0325 13.6492 17.2225 11.0317 17.0958 10.8567Z" fill="#2F80ED"/>
</g>
<defs>
<clipPath id="clip0_1400_57630">
<rect width="20" height="20" fill="white" transform="translate(0.5)"/>
</clipPath>
</defs>
</svg>
