<svg width="21" height="20" viewBox="0 0 21 20" fill="none" xmlns="http://www.w3.org/2000/svg">
<g clip-path="url(#clip0_1400_57648)">
<path d="M17.5282 2.90436C15.6494 1.03256 13.15 0.00106812 10.4899 0C7.83582 0 5.33246 1.03058 3.44128 2.90192C1.54675 4.77646 0.502441 7.26761 0.5 9.90738V9.91043V9.91226C0.500305 11.51 0.920074 13.1218 1.71689 14.593L0.527313 20L5.99652 18.756C7.38171 19.454 8.92728 19.8221 10.4861 19.8227H10.4901C13.1437 19.8227 15.6471 18.792 17.5386 16.9205C19.4348 15.0444 20.4796 12.5565 20.4808 9.91501C20.4815 7.29218 19.4331 4.8024 17.5282 2.90436ZM10.4899 18.2617H10.4864C9.08673 18.2611 7.69986 17.9097 6.47595 17.2452L6.21732 17.1048L2.58054 17.932L3.37048 14.3419L3.2182 14.0793C2.46106 12.7736 2.06097 11.3322 2.06097 9.91058C2.06387 5.30899 5.8447 1.56097 10.4896 1.56097C12.7336 1.56189 14.842 2.43179 16.4265 4.01016C18.0349 5.61295 18.9204 7.70981 18.9196 9.91455C18.9178 14.5172 15.1362 18.2617 10.4899 18.2617Z" fill="#2F80ED"/>
<path d="M7.7709 5.5415H7.33298C7.18054 5.5415 6.93304 5.59857 6.72369 5.82639C6.51419 6.05435 5.92383 6.60535 5.92383 7.72595C5.92383 8.84656 6.74277 9.92932 6.8569 10.0815C6.97119 10.2334 8.43771 12.6065 10.7604 13.5194C12.6908 14.2781 13.0837 14.1272 13.5026 14.0892C13.9216 14.0513 14.8546 13.5383 15.0451 13.0066C15.2355 12.4748 15.2355 12.0189 15.1784 11.9236C15.1212 11.8287 14.9688 11.7718 14.7404 11.658C14.5118 11.544 13.3918 10.9837 13.1823 10.9076C12.9728 10.8317 12.8205 10.7937 12.6681 11.0219C12.5156 11.2495 12.0669 11.7762 11.9335 11.9282C11.8003 12.0804 11.6669 12.0994 11.4384 11.9854C11.2098 11.8712 10.4813 11.6264 9.60837 10.8506C8.92889 10.2469 8.4574 9.4769 8.32404 9.24893C8.19083 9.02112 8.30984 8.89783 8.42444 8.78415C8.52713 8.68222 8.66583 8.54276 8.78012 8.40985C8.89426 8.27679 8.92676 8.18189 9.00305 8.02991C9.07919 7.87793 9.04105 7.74487 8.98398 7.63104C8.92676 7.51706 8.48822 6.39081 8.28497 5.94037H8.28513C8.11392 5.56104 7.93372 5.54822 7.7709 5.5415Z" fill="#2F80ED"/>
</g>
<defs>
<clipPath id="clip0_1400_57648">
<rect width="20" height="20" fill="white" transform="translate(0.5)"/>
</clipPath>
</defs>
</svg>
